<svg width="512" height="512" viewBox="0 0 512 512" fill="none" xmlns="http://www.w3.org/2000/svg">
<g clip-path="url(#clip0_55_1329)">
<rect width="512" height="512" fill="#0D547A"/>
<g filter="url(#filter0_d_55_1329)">
<mask id="path-1-inside-1_55_1329" fill="white">
<path d="M268.21 239C368.608 239 452.55 306.099 473.293 395.779C474.055 399.073 471.29 402.066 467.922 401.783C461.757 401.265 455.516 401 449.21 401C375.113 401 309.979 437.549 272.599 492.75C270.518 495.824 265.903 495.824 263.821 492.75C226.442 437.549 161.307 401 87.2102 401C80.9044 401 74.6636 401.265 68.4993 401.783C65.1309 402.066 62.3661 399.073 63.1278 395.779C83.8709 306.099 167.812 239 268.21 239Z"/>
</mask>
<path d="M268.21 239C368.608 239 452.55 306.099 473.293 395.779C474.055 399.073 471.29 402.066 467.922 401.783C461.757 401.265 455.516 401 449.21 401C375.113 401 309.979 437.549 272.599 492.75C270.518 495.824 265.903 495.824 263.821 492.75C226.442 437.549 161.307 401 87.2102 401C80.9044 401 74.6636 401.265 68.4993 401.783C65.1309 402.066 62.3661 399.073 63.1278 395.779C83.8709 306.099 167.812 239 268.21 239Z" fill="#0D547A"/>
<path d="M268.21 239V236V239ZM449.21 401V398V401ZM87.2102 401V398H87.2102L87.2102 401ZM68.4993 401.783L68.7507 404.772L68.4993 401.783ZM272.599 492.75L275.083 494.432L272.599 492.75ZM263.821 492.75L261.337 494.432L263.821 492.75ZM473.293 395.779L470.371 396.455L473.293 395.779ZM467.922 401.783L468.173 398.794L467.922 401.783ZM268.21 239V242C367.277 242 449.957 308.198 470.371 396.455L473.293 395.779L476.216 395.103C455.144 304 369.939 236 268.21 236V239ZM467.922 401.783L468.173 398.794C461.925 398.268 455.6 398 449.21 398V401V404C455.432 404 461.589 404.261 467.671 404.772L467.922 401.783ZM449.21 401V398C374.117 398 308.052 435.043 270.115 491.067L272.599 492.75L275.083 494.432C311.905 440.055 376.109 404 449.21 404V401ZM263.821 492.75L266.305 491.067C228.368 435.043 162.303 398 87.2102 398V401V404C160.311 404 224.515 440.054 261.337 494.432L263.821 492.75ZM87.2102 401L87.2102 398C80.8204 398 74.4958 398.268 68.2479 398.794L68.4993 401.783L68.7507 404.772C74.8315 404.261 80.9884 404 87.2102 404L87.2102 401ZM63.1278 395.779L66.0507 396.455C86.4646 308.198 169.143 242 268.21 242L268.21 239V236C166.481 236 81.2773 304 60.205 395.103L63.1278 395.779ZM68.4993 401.783L68.2479 398.794C66.7602 398.919 65.78 397.626 66.0507 396.455L63.1278 395.779L60.205 395.103C58.9522 400.52 63.5017 405.214 68.7507 404.772L68.4993 401.783ZM272.599 492.75L270.115 491.067C269.224 492.384 267.197 492.384 266.305 491.067L263.821 492.75L261.337 494.432C264.608 499.263 271.812 499.263 275.083 494.432L272.599 492.75ZM473.293 395.779L470.371 396.455C470.641 397.626 469.661 398.919 468.173 398.794L467.922 401.783L467.671 404.772C472.92 405.214 477.469 400.52 476.216 395.103L473.293 395.779Z" fill="white" mask="url(#path-1-inside-1_55_1329)"/>
</g>
<path d="M370.884 340.071C379.89 341.49 390.194 338.596 399.337 331.173C405.778 323.465 406.939 312.033 404.862 299.672C402.787 287.328 397.53 274.391 391.621 264.105C371.971 236.352 348.694 228.523 328.629 228.538C309.896 228.552 293.857 235.41 286.103 239.587C295.598 249.865 303.971 258.137 311.274 265.229C318.89 272.626 325.39 278.786 330.746 284.579C341.483 296.192 347.768 306.488 349.798 322.871C354.109 332.975 361.937 338.661 370.884 340.071Z" fill="#80CAF0" stroke="white" stroke-width="3"/>
<path d="M145.701 340.071C136.695 341.49 126.391 338.596 117.248 331.173C110.808 323.465 109.646 312.033 111.724 299.672C113.798 287.328 119.055 274.391 124.964 264.105C144.614 236.352 167.892 228.523 187.956 228.538C206.689 228.552 222.728 235.41 230.482 239.587C220.987 249.865 212.614 258.137 205.312 265.229C197.695 272.626 191.196 278.786 185.84 284.579C175.103 296.192 168.817 306.488 166.788 322.871C162.476 332.975 154.648 338.661 145.701 340.071Z" fill="#80CAF0" stroke="white" stroke-width="3"/>
<path d="M261.63 95.5028C286.48 98.7437 307.519 104.822 323.382 116.459C339.201 128.063 350.018 145.303 354.219 171.193C356.635 195.264 345.342 213.127 327.333 225.062C309.25 237.045 284.436 243 260.208 243C235.921 243 214.785 238.522 198.944 227.096C183.173 215.72 172.433 197.298 169.208 168.918C169.227 148.08 176.58 130.176 191.682 117.266C206.819 104.326 229.906 96.264 261.63 95.5028Z" fill="#80CAF0" stroke="white" stroke-width="3"/>
<path d="M303.207 202.5C301.707 231.5 283.023 239 261.207 239C239.392 239 220.707 230 220.708 200.5C223.207 165 239.392 163 261.207 163C283.023 163 300.707 163 303.207 202.5Z" fill="white"/>
<path d="M282.208 180C282.208 188.56 273.708 202.5 261.708 201C249.708 202 241.708 188.56 241.708 180C241.708 171.439 252.319 170 261.708 170C271.096 170 282.208 171.439 282.208 180Z" fill="black"/>
<path d="M283.208 205V205C283.208 214.443 272.89 220.261 264.809 215.375L262.902 214.222C262.161 213.774 261.708 212.97 261.708 212.104V201" stroke="black" stroke-width="2" stroke-linecap="round"/>
<path d="M239.708 205V205C239.708 214.443 250.025 220.261 258.106 215.375L260.013 214.222C260.754 213.774 261.208 212.97 261.208 212.104V201" stroke="black" stroke-width="2" stroke-linecap="round"/>
<path d="M117.565 329.006C118.946 329.042 119.652 325.239 119.717 322.755C119.783 320.27 120.059 318.133 118.679 318.097C117.299 318.061 114.972 318.894 114.907 321.378C114.841 323.863 116.185 328.97 117.565 329.006Z" fill="#D9D9D9"/>
<path d="M148.558 340.118C149.935 340.222 150.826 336.457 151.012 333.979C151.198 331.501 151.579 329.38 150.202 329.276C148.825 329.173 146.46 329.892 146.274 332.37C146.088 334.848 147.181 340.015 148.558 340.118Z" fill="#D9D9D9"/>
<path d="M134.461 337.301C135.791 337.672 137.401 334.154 138.069 331.76C138.737 329.367 139.525 327.361 138.195 326.99C136.865 326.619 134.405 326.861 133.737 329.255C133.07 331.649 133.131 336.93 134.461 337.301Z" fill="#D9D9D9"/>
<path d="M124.453 334.298C125.779 334.683 127.426 331.183 128.118 328.796C128.811 326.409 129.62 324.411 128.294 324.027C126.968 323.642 124.506 323.859 123.813 326.246C123.12 328.633 123.127 333.913 124.453 334.298Z" fill="#D9D9D9"/>
<path d="M399.021 329.006C397.64 329.042 396.934 325.239 396.869 322.755C396.803 320.27 396.527 318.133 397.907 318.097C399.287 318.061 401.614 318.894 401.679 321.378C401.745 323.863 400.401 328.97 399.021 329.006Z" fill="#D9D9D9"/>
<path d="M368.027 340.118C366.651 340.222 365.76 336.457 365.573 333.979C365.387 331.501 365.007 329.38 366.384 329.276C367.761 329.173 370.125 329.892 370.311 332.37C370.498 334.848 369.404 340.015 368.027 340.118Z" fill="#D9D9D9"/>
<path d="M382.124 337.301C380.794 337.672 379.184 334.154 378.516 331.76C377.849 329.367 377.061 327.361 378.391 326.99C379.721 326.619 382.18 326.861 382.848 329.255C383.516 331.649 383.454 336.93 382.124 337.301Z" fill="#D9D9D9"/>
<path d="M392.133 334.298C390.807 334.683 389.16 331.183 388.468 328.796C387.775 326.409 386.966 324.411 388.292 324.027C389.618 323.642 392.08 323.859 392.773 326.246C393.465 328.633 393.459 333.913 392.133 334.298Z" fill="#D9D9D9"/>
<path d="M350.433 142.244C347.797 145.018 344.005 145.245 339.322 143.405C334.64 141.567 329.487 137.789 324.791 133.327C319.991 128.765 315.201 124.19 312.384 119.939C310.979 117.819 310.162 115.918 310.003 114.252C309.852 112.667 310.283 111.205 311.608 109.811C313.026 108.318 315.367 106.874 318.333 105.703C321.277 104.541 324.736 103.687 328.294 103.312C335.494 102.554 342.699 103.788 346.988 107.864C351.376 112.034 353.798 119.028 354.28 125.959C354.52 129.399 354.275 132.747 353.594 135.615C352.909 138.505 351.809 140.796 350.433 142.244Z" fill="#80CAF0" stroke="white" stroke-width="3"/>
<path d="M174.908 137.931C177.637 140.614 181.434 140.712 186.053 138.714C190.669 136.717 195.69 132.767 200.232 128.147C204.875 123.425 209.506 118.69 212.177 114.345C213.509 112.179 214.261 110.252 214.363 108.581C214.461 106.992 213.98 105.545 212.608 104.196C211.141 102.754 208.751 101.39 205.747 100.32C202.765 99.2584 199.279 98.5228 195.71 98.2694C188.489 97.7567 181.331 99.2348 177.183 103.454C172.939 107.77 170.756 114.843 170.509 121.787C170.387 125.233 170.746 128.57 171.524 131.414C172.307 134.279 173.484 136.531 174.908 137.931Z" fill="#80CAF0" stroke="white" stroke-width="3"/>
<ellipse cx="218.208" cy="158" rx="6.5" ry="10" fill="black"/>
<ellipse cx="305.208" cy="158" rx="6.5" ry="10" fill="black"/>
<ellipse cx="303.208" cy="152" rx="2.5" ry="3" fill="white"/>
<ellipse cx="216.208" cy="152" rx="2.5" ry="3" fill="white"/>
<path d="M218.655 283.776L222.76 291.623L215.162 287.387L207.234 292.53L212.13 284.454L207.608 277.082L215.622 280.843L223.985 275.342L218.655 283.776Z" fill="white"/>
<path d="M325.023 298.637L330.574 300.244L325.023 301.535L323.622 306.849L322.238 301.535L316.708 300.292L322.238 298.637L323.681 293L325.023 298.637Z" fill="white"/>
<path d="M288.88 265.334L295.154 274.386L285.394 269.62L276.93 275.792L281.275 266.269L274.593 257.782L284.761 261.984L293.674 255.387L288.88 265.334Z" fill="white"/>
<path d="M185.487 342.97L191.331 346.784L184.465 346.317L180.972 351.96L181.248 345.335L175.3 341.949L182.271 341.988L185.925 335.988L185.487 342.97Z" fill="white"/>
<path d="M421.194 324.118L426.805 322.735L422.643 326.628L424.087 331.931L420.231 328.021L414.82 329.709L418.782 325.511L417.214 319.907L421.194 324.118Z" fill="white"/>
<path d="M436.023 357.637L441.574 359.244L436.023 360.535L434.622 365.849L433.238 360.535L427.708 359.292L433.238 357.637L434.681 352L436.023 357.637Z" fill="white"/>
<path d="M438.235 334.908L446.325 334.314L439.65 338.722L440.401 346.399L435.985 340.082L428.101 341.146L434.57 336.268L433.718 328.146L438.235 334.908Z" fill="white"/>
<path d="M113.862 355.376L120.82 360.677L112.281 359.443L107.403 366.13L108.349 357.914L101.221 353.134L109.93 353.847L115.043 346.731L113.862 355.376Z" fill="white"/>
<path d="M109.448 328.373L113.733 332.249L108.178 330.978L104.59 335.141L105.674 329.758L101.248 326.217L106.944 327.152L110.711 322.718L109.448 328.373Z" fill="white"/>
<path d="M83.3154 340.637L88.8662 342.244L83.3154 343.535L81.9141 348.85L80.5303 343.535L75 342.292L80.5303 340.637L81.9736 335L83.3154 340.637Z" fill="white"/>
<path d="M414.161 384.44L422.546 382.313L416.356 388.183L418.57 396.105L412.76 390.291L404.678 392.873L410.565 386.549L408.162 378.178L414.161 384.44Z" fill="white"/>
<path fill-rule="evenodd" clip-rule="evenodd" d="M189.847 325.56L194.528 325.899L304.412 333.848L266.779 386.858L189.847 325.56Z" fill="white"/>
<path fill-rule="evenodd" clip-rule="evenodd" d="M194.528 325.899L189.847 325.56L215.874 304.857L219.508 306.147L194.528 325.899Z" fill="white"/>
<path fill-rule="evenodd" clip-rule="evenodd" d="M219.508 306.147L215.874 304.857L222.27 292.707L222.486 296.356L223.142 307.436L219.508 306.147Z" fill="white"/>
<path fill-rule="evenodd" clip-rule="evenodd" d="M223.142 307.436L234.363 301.795L237.934 300L242.635 302.393L304.412 333.848L223.142 307.436Z" fill="white"/>
<path fill-rule="evenodd" clip-rule="evenodd" d="M275.331 290.092L290.762 295.069L298.005 297.405L326.978 306.748L330.442 307.866L304.412 333.848L277.174 292.866L275.331 290.092Z" fill="white"/>
<path fill-rule="evenodd" clip-rule="evenodd" d="M222.486 296.356L222.27 292.707L237.934 300L234.363 301.795L222.486 296.356Z" fill="white"/>
<path fill-rule="evenodd" clip-rule="evenodd" d="M242.635 302.393L237.934 300L275.331 290.092L277.174 292.866L242.635 302.393Z" fill="white"/>
<path fill-rule="evenodd" clip-rule="evenodd" d="M298.005 297.405L290.762 295.069L324.847 291.622L330.442 307.866L326.978 306.748L322.471 295.263L298.005 297.405Z" fill="white"/>
<path d="M189.847 325.56L194.528 325.899M189.847 325.56L266.779 386.858L304.412 333.848M189.847 325.56L215.874 304.857M194.528 325.899L304.412 333.848M194.528 325.899L219.508 306.147M304.412 333.848L242.635 302.393M304.412 333.848L223.142 307.436M304.412 333.848L330.442 307.866M304.412 333.848L277.174 292.866M215.874 304.857L219.508 306.147M215.874 304.857L222.27 292.707M219.508 306.147L223.142 307.436M222.27 292.707L222.486 296.356M222.27 292.707L237.934 300M222.486 296.356L223.142 307.436M222.486 296.356L234.363 301.795M223.142 307.436L234.363 301.795M234.363 301.795L237.934 300M237.934 300L242.635 302.393M237.934 300L275.331 290.092M242.635 302.393L277.174 292.866M275.331 290.092L290.762 295.069M275.331 290.092L277.174 292.866M290.762 295.069L298.005 297.405M290.762 295.069L324.847 291.622L330.442 307.866M298.005 297.405L326.978 306.748M298.005 297.405L322.471 295.263L326.978 306.748M326.978 306.748L330.442 307.866" stroke="#F3F3F3"/>
<path d="M218.681 376L220.023 381.636L225.574 383.244L220.023 384.535L218.621 389.849L217.237 384.535L211.707 383.291L217.237 381.636L218.681 376Z" fill="white"/>
<path d="M241.697 431.484C240.816 431.484 239.909 431.434 238.974 431.332C238.039 431.243 237.138 431.11 236.271 430.932C235.404 430.742 234.598 430.532 233.853 430.304C233.753 430.272 233.656 430.241 233.56 430.209C232.595 429.889 232.054 428.918 232.131 427.904L232.236 426.513C232.32 425.408 233.493 424.734 234.524 425.142C235.242 425.421 235.96 425.656 236.678 425.847C237.396 426.037 238.1 426.183 238.791 426.285C239.495 426.386 240.166 426.437 240.803 426.437C242.049 426.437 243.038 426.279 243.769 425.961C244.515 425.644 245.05 425.212 245.375 424.666C245.713 424.12 245.883 423.511 245.883 422.838C245.883 421.631 245.429 420.774 244.521 420.266C243.614 419.759 242.266 419.505 240.478 419.505C239.787 419.505 239.17 419.505 238.628 419.505C237.731 419.505 237.003 418.777 237.003 417.879V416.406C237.003 415.687 237.585 415.105 238.303 415.105C238.764 415.105 239.306 415.105 239.929 415.105C241.162 415.105 242.164 414.946 242.936 414.629C243.722 414.311 244.305 413.886 244.684 413.353C245.063 412.82 245.253 412.235 245.253 411.601C245.253 410.851 245.043 410.242 244.623 409.772C244.217 409.29 243.654 408.934 242.936 408.706C242.232 408.477 241.426 408.363 240.518 408.363C239.936 408.363 239.333 408.414 238.71 408.515C238.1 408.604 237.463 408.756 236.8 408.972C236.136 409.175 235.452 409.448 234.747 409.791C233.727 410.279 232.447 409.712 232.286 408.593L232.082 407.176C231.937 406.171 232.427 405.17 233.366 404.786C233.479 404.74 233.594 404.694 233.711 404.649C234.415 404.382 235.174 404.147 235.987 403.944C236.8 403.728 237.66 403.563 238.567 403.449C239.475 403.335 240.41 403.278 241.372 403.278C243.756 403.278 245.741 403.57 247.326 404.154C248.924 404.725 250.116 405.525 250.902 406.553C251.701 407.582 252.101 408.763 252.101 410.096C252.101 411.848 251.593 413.239 250.577 414.267C249.609 415.246 248.415 415.926 246.993 416.307C246.867 416.341 246.777 416.454 246.777 416.585C246.777 416.721 246.873 416.837 247.006 416.866C248.027 417.085 248.96 417.425 249.805 417.886C250.712 418.368 251.437 419.06 251.979 419.962C252.521 420.85 252.792 422.006 252.792 423.428C252.792 424.875 252.44 426.215 251.735 427.447C251.044 428.666 249.886 429.643 248.26 430.38C246.648 431.116 244.46 431.484 241.697 431.484Z" fill="white"/>
<path d="M260.294 430.989C258.448 430.989 256.951 429.493 256.951 427.646C256.951 427.343 256.951 427.041 256.951 426.742C256.951 425.371 256.951 423.834 256.951 422.133V412.915C256.951 411.163 256.951 409.582 256.951 408.172C256.951 405.774 258.895 403.83 261.294 403.83H273.401C274.91 403.83 276.134 405.054 276.134 406.563C276.134 408.072 274.91 409.296 273.401 409.296C272.816 409.296 272.216 409.296 271.602 409.296C270.004 409.296 268.121 409.296 265.953 409.296H262.642C261.862 409.296 261.386 408.439 261.798 407.776C262.326 406.927 263.637 407.302 263.637 408.302C263.637 408.59 263.637 408.877 263.637 409.163C263.637 410.572 263.637 412.153 263.637 413.905V422.133C263.637 423.834 263.637 425.371 263.637 426.742C263.637 427.041 263.637 427.343 263.637 427.646C263.637 429.493 262.14 430.989 260.294 430.989Z" fill="white"/>
<path d="M288.795 430.989C286.971 430.989 285.777 429.074 286.564 427.428C287.717 425.015 287.678 422.203 286.459 419.823L282.256 411.62C281.592 410.325 280.956 409.087 280.346 407.906C279.414 406.039 280.759 403.83 282.846 403.83H283.638C284.945 403.83 286.128 404.608 286.637 405.811C286.731 406.034 286.822 406.25 286.91 406.458C287.248 407.233 287.553 407.956 287.824 408.629C288.109 409.29 288.393 409.956 288.677 410.629C288.962 411.289 289.274 412.007 289.612 412.781L291.61 417.453C291.668 417.589 291.801 417.676 291.947 417.676C292.096 417.676 292.23 417.587 292.287 417.449L294.184 412.858C294.523 412.058 294.828 411.321 295.099 410.648C295.383 409.963 295.661 409.283 295.932 408.61C296.216 407.925 296.514 407.201 296.826 406.439C296.915 406.226 297.008 406.006 297.104 405.778C297.6 404.598 298.756 403.83 300.037 403.83C302.392 403.83 303.933 406.297 302.907 408.416C302.817 408.601 302.728 408.786 302.638 408.972C301.798 410.737 301.012 412.362 300.281 413.848L296.135 422.419C295.512 423.739 294.828 425.161 294.083 426.685C293.666 427.545 293.261 428.38 292.867 429.19C292.331 430.291 291.213 430.989 289.988 430.989H288.795Z" fill="white"/>
<path d="M219.71 445.041C219.71 444.747 219.71 444.466 219.71 444.196C219.71 443.926 219.71 443.628 219.71 443.303V442.906C219.71 442.671 219.71 442.454 219.71 442.255C219.71 442.054 219.71 441.861 219.71 441.676C219.71 441.488 219.71 441.298 219.71 441.105L220.388 441.081C220.388 441.269 220.388 441.454 220.388 441.636C220.388 441.819 220.388 442.008 220.388 442.204C220.388 442.397 220.388 442.607 220.388 442.835V444.089H220.447L221.349 442.783C221.544 442.503 221.738 442.221 221.933 441.938C222.128 441.655 222.321 441.377 222.513 441.105H223.237C223.237 441.298 223.237 441.488 223.237 441.676C223.237 441.861 223.237 442.054 223.237 442.255C223.237 442.454 223.237 442.671 223.237 442.906V443.303C223.237 443.628 223.237 443.926 223.237 444.196C223.237 444.466 223.237 444.747 223.237 445.041H222.564C222.564 444.753 222.564 444.475 222.564 444.208C222.564 443.938 222.564 443.643 222.564 443.323V442.053H222.505L221.611 443.343C221.414 443.628 221.218 443.913 221.023 444.196C220.828 444.479 220.633 444.76 220.439 445.041H219.71Z" fill="white"/>
<path d="M224.285 445.041C224.318 444.753 224.352 444.471 224.386 444.196C224.42 443.918 224.453 443.643 224.484 443.37L224.547 442.831C224.584 442.542 224.619 442.254 224.653 441.966C224.687 441.677 224.721 441.39 224.755 441.105H225.517C225.632 441.359 225.748 441.615 225.864 441.875C225.982 442.134 226.099 442.389 226.215 442.64L226.892 444.132H226.956L227.629 442.64C227.745 442.381 227.86 442.125 227.976 441.871C228.092 441.614 228.208 441.359 228.323 441.105H229.073C229.107 441.385 229.14 441.673 229.174 441.97C229.211 442.263 229.246 442.552 229.28 442.835L229.344 443.378C229.375 443.643 229.407 443.915 229.441 444.196C229.475 444.476 229.509 444.758 229.543 445.041H228.878C228.844 444.739 228.809 444.435 228.772 444.128C228.738 443.819 228.703 443.513 228.666 443.212L228.535 442.053H228.471L227.934 443.291C227.81 443.582 227.684 443.873 227.557 444.164C227.43 444.455 227.303 444.747 227.176 445.041H226.672C226.542 444.747 226.413 444.456 226.283 444.168C226.156 443.877 226.029 443.589 225.902 443.303L225.347 442.053H225.284L225.148 443.2C225.112 443.507 225.075 443.813 225.038 444.12C225.004 444.427 224.969 444.734 224.932 445.041H224.285Z" fill="white"/>
<path d="M230.926 445.128C230.81 445.128 230.71 445.106 230.626 445.061C230.544 445.016 230.48 444.955 230.435 444.878C230.39 444.801 230.367 444.712 230.367 444.608C230.367 444.452 230.418 444.328 230.52 444.235C230.621 444.143 230.757 444.097 230.926 444.097C231.045 444.097 231.145 444.118 231.227 444.16C231.309 444.202 231.372 444.262 231.417 444.339C231.465 444.415 231.489 444.505 231.489 444.608C231.489 444.762 231.438 444.887 231.337 444.985C231.238 445.081 231.101 445.128 230.926 445.128Z" fill="white"/>
<path d="M238.345 445.041C238.345 444.726 238.345 444.423 238.345 444.132C238.345 443.841 238.345 443.521 238.345 443.172V441.275C238.345 440.918 238.345 440.593 238.345 440.299C238.345 440.003 238.345 439.697 238.345 439.383H239.111C239.111 439.697 239.111 440.003 239.111 440.299C239.111 440.593 239.111 440.918 239.111 441.275V443.172C239.111 443.521 239.111 443.841 239.111 444.132C239.111 444.423 239.111 444.726 239.111 445.041H238.345ZM234.332 445.041C234.332 444.726 234.332 444.423 234.332 444.132C234.332 443.841 234.332 443.521 234.332 443.172V441.275C234.332 440.918 234.332 440.593 234.332 440.299C234.332 440.003 234.332 439.697 234.332 439.383H235.098C235.098 439.697 235.098 440.003 235.098 440.299C235.098 440.593 235.098 440.918 235.098 441.275V443.172C235.098 443.521 235.098 443.841 235.098 444.132C235.098 444.423 235.098 444.726 235.098 445.041H234.332ZM234.831 442.486V441.867H238.637V442.486H234.831Z" fill="white"/>
<path d="M240.89 445.128C240.774 445.128 240.674 445.106 240.589 445.061C240.507 445.016 240.444 444.955 240.399 444.878C240.353 444.801 240.331 444.712 240.331 444.608C240.331 444.452 240.382 444.328 240.483 444.235C240.585 444.143 240.72 444.097 240.89 444.097C241.008 444.097 241.108 444.118 241.19 444.16C241.272 444.202 241.336 444.262 241.381 444.339C241.429 444.415 241.453 444.505 241.453 444.608C241.453 444.762 241.402 444.887 241.3 444.985C241.201 445.081 241.065 445.128 240.89 445.128Z" fill="white"/>
<path d="M242.459 445.041C242.498 444.734 242.538 444.431 242.577 444.132C242.62 443.833 242.663 443.508 242.709 443.156L242.958 441.291C243.003 440.945 243.046 440.622 243.085 440.323C243.125 440.024 243.167 439.711 243.212 439.383H243.983C244.158 439.785 244.327 440.174 244.491 440.549C244.655 440.922 244.817 441.294 244.978 441.664L245.934 443.862H245.994L246.942 441.668C247.103 441.293 247.264 440.92 247.425 440.549C247.585 440.179 247.752 439.79 247.924 439.383H248.695C248.737 439.705 248.776 440.016 248.813 440.315C248.853 440.614 248.896 440.938 248.944 441.287L249.19 443.172C249.235 443.516 249.277 443.836 249.317 444.132C249.356 444.426 249.396 444.729 249.435 445.041H248.703C248.638 444.538 248.576 444.061 248.517 443.608C248.458 443.156 248.403 442.734 248.352 442.343L248.132 440.652H248.077L247.31 442.474C247.124 442.915 246.938 443.359 246.751 443.803C246.565 444.245 246.392 444.657 246.231 445.041H245.71C245.608 444.8 245.496 444.536 245.371 444.247C245.247 443.959 245.119 443.664 244.986 443.362C244.856 443.061 244.729 442.769 244.605 442.486L243.813 440.652H243.758L243.538 442.339C243.488 442.733 243.432 443.156 243.373 443.608C243.317 444.061 243.256 444.538 243.191 445.041H242.459Z" fill="white"/>
<path d="M250.994 445.128C250.878 445.128 250.778 445.106 250.693 445.061C250.611 445.016 250.548 444.955 250.503 444.878C250.457 444.801 250.435 444.712 250.435 444.608C250.435 444.452 250.486 444.328 250.587 444.235C250.689 444.143 250.824 444.097 250.994 444.097C251.112 444.097 251.212 444.118 251.294 444.16C251.376 444.202 251.44 444.262 251.485 444.339C251.533 444.415 251.557 444.505 251.557 444.608C251.557 444.762 251.506 444.887 251.404 444.985C251.306 445.081 251.169 445.128 250.994 445.128Z" fill="white"/>
<path d="M257.278 444.545L257.287 443.966H257.57C258.067 443.966 258.471 443.899 258.781 443.767C259.094 443.635 259.326 443.441 259.475 443.184C259.625 442.925 259.7 442.603 259.7 442.22C259.7 441.831 259.626 441.507 259.479 441.248C259.333 440.986 259.106 440.789 258.798 440.656C258.493 440.524 258.098 440.458 257.613 440.458H257.329L257.32 439.879H257.621C258.307 439.879 258.86 439.978 259.281 440.176C259.701 440.375 260.007 440.65 260.199 441.002C260.394 441.351 260.491 441.757 260.491 442.22C260.491 442.664 260.395 443.062 260.203 443.414C260.014 443.763 259.705 444.04 259.276 444.243C258.85 444.444 258.279 444.545 257.562 444.545H257.278ZM256.901 444.545C256.362 444.545 255.906 444.487 255.534 444.37C255.161 444.254 254.859 444.091 254.628 443.882C254.399 443.671 254.233 443.425 254.128 443.144C254.024 442.861 253.972 442.553 253.972 442.22C253.972 441.757 254.068 441.351 254.26 441.002C254.452 440.65 254.758 440.375 255.178 440.176C255.602 439.978 256.156 439.879 256.842 439.879H257.138L257.13 440.458H256.846C256.366 440.458 255.973 440.524 255.665 440.656C255.358 440.789 255.13 440.986 254.984 441.248C254.837 441.507 254.763 441.831 254.763 442.22C254.763 442.603 254.837 442.925 254.984 443.184C255.133 443.441 255.365 443.635 255.678 443.767C255.991 443.899 256.395 443.966 256.889 443.966H257.172L257.181 444.545H256.901ZM256.846 445.208C256.846 445.062 256.846 444.924 256.846 444.795C256.846 444.665 256.846 444.533 256.846 444.398L256.863 444.382C256.863 444.2 256.863 444.013 256.863 443.823C256.863 443.63 256.863 443.429 256.863 443.22V441.204C256.863 440.995 256.863 440.795 256.863 440.605C256.863 440.412 256.863 440.224 256.863 440.041L256.846 440.026C256.846 439.891 256.846 439.758 256.846 439.629C256.846 439.496 256.846 439.359 256.846 439.216H257.613C257.613 439.359 257.613 439.496 257.613 439.629C257.613 439.758 257.613 439.891 257.613 440.026L257.596 440.041C257.596 440.224 257.596 440.412 257.596 440.605C257.596 440.795 257.596 440.995 257.596 441.204V443.22C257.596 443.429 257.596 443.628 257.596 443.819C257.596 444.009 257.596 444.197 257.596 444.382L257.613 444.398C257.613 444.53 257.613 444.663 257.613 444.795C257.613 444.924 257.613 445.062 257.613 445.208H256.846Z" fill="white"/>
<path d="M263.468 445.128C262.965 445.128 262.552 445.038 262.227 444.858C261.903 444.678 261.661 444.432 261.503 444.12C261.345 443.808 261.266 443.451 261.266 443.049C261.266 442.652 261.344 442.3 261.499 441.994C261.654 441.687 261.877 441.447 262.168 441.275C262.459 441.101 262.806 441.014 263.209 441.014C263.565 441.014 263.87 441.078 264.124 441.208C264.381 441.338 264.578 441.528 264.716 441.779C264.855 442.028 264.924 442.336 264.924 442.704C264.924 442.802 264.921 442.89 264.915 442.97C264.913 443.046 264.904 443.124 264.89 443.204L264.276 442.914C264.282 442.872 264.285 442.832 264.285 442.795C264.287 442.755 264.289 442.717 264.289 442.68C264.289 442.307 264.19 442.024 263.992 441.831C263.795 441.635 263.537 441.537 263.218 441.537C262.961 441.537 262.739 441.599 262.553 441.724C262.37 441.845 262.227 442.015 262.126 442.232C262.024 442.449 261.973 442.696 261.973 442.974V443.065C261.973 443.372 262.03 443.636 262.142 443.858C262.255 444.081 262.426 444.253 262.655 444.374C262.886 444.493 263.18 444.553 263.535 444.553C263.668 444.553 263.808 444.544 263.954 444.525C264.104 444.504 264.251 444.472 264.395 444.43C264.541 444.388 264.681 444.332 264.814 444.263L264.843 444.854C264.736 444.91 264.612 444.959 264.471 445.001C264.33 445.041 264.174 445.071 264.005 445.092C263.836 445.116 263.657 445.128 263.468 445.128ZM261.558 443.204V442.736L264.462 442.712L264.89 442.863V443.204H261.558Z" fill="white"/>
<path d="M268.771 444.938C268.771 444.755 268.771 444.581 268.771 444.414C268.771 444.247 268.771 444.074 268.771 443.894C268.771 443.714 268.771 443.517 268.771 443.303V442.906C268.771 442.681 268.771 442.476 268.771 442.291C268.771 442.103 268.771 441.923 268.771 441.752C268.771 441.577 268.771 441.396 268.771 441.208L269.084 441.644H266.811L267.128 441.208C267.12 441.377 267.11 441.543 267.098 441.704C267.087 441.865 267.076 442.035 267.065 442.212C267.056 442.386 267.045 442.581 267.031 442.795C267.017 443.038 266.987 443.273 266.942 443.497C266.9 443.722 266.84 443.93 266.764 444.12C266.688 444.308 266.593 444.475 266.48 444.62L265.795 444.533C265.874 444.462 265.955 444.354 266.04 444.212C266.125 444.066 266.2 443.87 266.264 443.624C266.332 443.376 266.38 443.06 266.408 442.676C266.428 442.351 266.447 442.068 266.463 441.827C266.48 441.584 266.496 441.343 266.51 441.105H269.461C269.461 441.298 269.461 441.488 269.461 441.676C269.461 441.861 269.461 442.054 269.461 442.255C269.461 442.454 269.461 442.671 269.461 442.906V443.303C269.461 443.628 269.461 443.914 269.461 444.16C269.461 444.406 269.461 444.665 269.461 444.938H268.771ZM265.388 446.136C265.388 446.004 265.388 445.871 265.388 445.739C265.388 445.607 265.388 445.475 265.388 445.342C265.388 445.208 265.388 445.069 265.388 444.926C265.388 444.78 265.388 444.639 265.388 444.501C265.639 444.501 265.895 444.501 266.154 444.501C266.414 444.501 266.665 444.501 266.908 444.501H268.58C268.826 444.501 269.077 444.501 269.334 444.501C269.593 444.501 269.85 444.501 270.104 444.501C270.104 444.639 270.104 444.78 270.104 444.926C270.104 445.069 270.104 445.208 270.104 445.342C270.104 445.475 270.104 445.607 270.104 445.739C270.104 445.871 270.104 446.004 270.104 446.136H269.495L269.461 444.954L269.617 445.041H265.875L266.032 444.954L266.002 446.136H265.388Z" fill="white"/>
<path d="M272.813 445.128C272.466 445.128 272.16 445.073 271.894 444.962C271.632 444.848 271.412 444.694 271.234 444.501C271.056 444.308 270.921 444.087 270.828 443.839C270.737 443.587 270.692 443.324 270.692 443.049C270.692 442.655 270.777 442.306 270.946 442.002C271.118 441.695 271.361 441.453 271.674 441.275C271.99 441.098 272.366 441.01 272.8 441.01C273.136 441.01 273.434 441.061 273.694 441.164C273.953 441.267 274.173 441.412 274.354 441.597C274.535 441.782 274.672 441.999 274.765 442.248C274.858 442.494 274.904 442.761 274.904 443.049C274.904 443.438 274.82 443.79 274.65 444.104C274.481 444.419 274.24 444.669 273.926 444.854C273.616 445.037 273.245 445.128 272.813 445.128ZM272.813 444.557C273.121 444.557 273.376 444.485 273.579 444.343C273.783 444.2 273.935 444.013 274.037 443.783C274.138 443.553 274.189 443.308 274.189 443.049C274.189 442.753 274.133 442.495 274.02 442.275C273.907 442.056 273.747 441.885 273.541 441.763C273.335 441.642 273.091 441.581 272.809 441.581C272.504 441.581 272.247 441.646 272.038 441.775C271.83 441.905 271.671 442.081 271.564 442.303C271.46 442.525 271.408 442.774 271.408 443.049C271.408 443.308 271.458 443.553 271.56 443.783C271.664 444.013 271.821 444.2 272.03 444.343C272.239 444.485 272.5 444.557 272.813 444.557Z" fill="white"/>
<path d="M275.994 446.588C275.994 446.297 275.994 446.012 275.994 445.731C275.994 445.454 275.994 445.152 275.994 444.827V442.906C275.994 442.615 275.994 442.318 275.994 442.013C275.994 441.709 275.994 441.406 275.994 441.105L276.629 441.065L276.646 441.577H276.718C276.802 441.474 276.91 441.38 277.039 441.295C277.169 441.208 277.317 441.139 277.484 441.089C277.653 441.036 277.838 441.01 278.038 441.01C278.422 441.01 278.748 441.099 279.016 441.279C279.287 441.457 279.493 441.7 279.634 442.009C279.776 442.319 279.846 442.669 279.846 443.061C279.846 443.429 279.78 443.77 279.647 444.085C279.517 444.397 279.318 444.649 279.05 444.842C278.785 445.033 278.452 445.128 278.051 445.128C277.865 445.128 277.693 445.104 277.535 445.057C277.377 445.012 277.233 444.947 277.103 444.862C276.976 444.775 276.86 444.669 276.756 444.545H276.692V444.854C276.692 445.164 276.692 445.452 276.692 445.719C276.692 445.989 276.692 446.271 276.692 446.565L275.994 446.588ZM277.84 444.541C278.142 444.541 278.387 444.471 278.576 444.331C278.768 444.19 278.908 444.009 278.995 443.787C279.086 443.562 279.131 443.321 279.131 443.065C279.131 442.798 279.083 442.554 278.987 442.335C278.894 442.113 278.751 441.935 278.559 441.803C278.367 441.671 278.123 441.605 277.827 441.605C277.68 441.605 277.536 441.626 277.395 441.668C277.254 441.708 277.123 441.769 277.001 441.851C276.883 441.93 276.78 442.029 276.692 442.148V443.898C276.777 444.033 276.874 444.148 276.984 444.243C277.097 444.339 277.224 444.413 277.365 444.466C277.506 444.516 277.665 444.541 277.84 444.541Z" fill="white"/>
<path d="M282.826 445.128C282.479 445.128 282.173 445.073 281.908 444.962C281.645 444.848 281.425 444.694 281.247 444.501C281.069 444.308 280.934 444.087 280.841 443.839C280.75 443.587 280.705 443.324 280.705 443.049C280.705 442.655 280.79 442.306 280.959 442.002C281.131 441.695 281.374 441.453 281.687 441.275C282.003 441.098 282.379 441.01 282.813 441.01C283.149 441.01 283.447 441.061 283.707 441.164C283.966 441.267 284.187 441.412 284.367 441.597C284.548 441.782 284.685 441.999 284.778 442.248C284.871 442.494 284.918 442.761 284.918 443.049C284.918 443.438 284.833 443.79 284.663 444.104C284.494 444.419 284.253 444.669 283.94 444.854C283.629 445.037 283.258 445.128 282.826 445.128ZM282.826 444.557C283.134 444.557 283.389 444.485 283.592 444.343C283.796 444.2 283.948 444.013 284.05 443.783C284.151 443.553 284.202 443.308 284.202 443.049C284.202 442.753 284.146 442.495 284.033 442.275C283.92 442.056 283.76 441.885 283.554 441.763C283.348 441.642 283.104 441.581 282.822 441.581C282.517 441.581 282.26 441.646 282.051 441.775C281.843 441.905 281.685 442.081 281.577 442.303C281.473 442.525 281.421 442.774 281.421 443.049C281.421 443.308 281.471 443.553 281.573 443.783C281.678 444.013 281.834 444.2 282.043 444.343C282.252 444.485 282.513 444.557 282.826 444.557Z" fill="white"/>
<path d="M286.007 445.041C286.007 444.747 286.007 444.466 286.007 444.196C286.007 443.923 286.007 443.624 286.007 443.299V442.902C286.007 442.667 286.007 442.45 286.007 442.251C286.007 442.053 286.007 441.861 286.007 441.676C286.007 441.488 286.007 441.298 286.007 441.105C286.261 441.105 286.566 441.105 286.921 441.105C287.28 441.105 287.624 441.105 287.954 441.105C288.287 441.105 288.554 441.143 288.754 441.22C288.955 441.297 289.099 441.405 289.186 441.545C289.276 441.683 289.322 441.847 289.322 442.037C289.322 442.286 289.252 442.486 289.114 442.636C288.979 442.787 288.811 442.892 288.61 442.95V443.001C288.746 443.025 288.876 443.072 289 443.14C289.127 443.206 289.231 443.306 289.313 443.438C289.398 443.567 289.44 443.741 289.44 443.958C289.44 444.164 289.391 444.349 289.292 444.513C289.196 444.675 289.024 444.803 288.775 444.898C288.53 444.993 288.18 445.041 287.726 445.041C287.384 445.041 287.065 445.041 286.769 445.041C286.473 445.041 286.218 445.041 286.007 445.041ZM286.688 444.513H287.666C287.937 444.513 288.15 444.489 288.306 444.442C288.464 444.394 288.574 444.324 288.636 444.231C288.701 444.139 288.733 444.026 288.733 443.894C288.733 443.669 288.648 443.511 288.479 443.418C288.313 443.325 288.069 443.279 287.747 443.279H286.502V442.799H287.675C287.909 442.799 288.094 442.773 288.229 442.72C288.365 442.664 288.461 442.59 288.517 442.497C288.577 442.402 288.606 442.295 288.606 442.176C288.606 441.975 288.536 441.835 288.394 441.755C288.256 441.673 288.059 441.632 287.802 441.632H286.688C286.688 441.844 286.688 442.049 286.688 442.248C286.688 442.446 286.688 442.661 286.688 442.894V443.291C286.688 443.516 286.688 443.725 286.688 443.918C286.688 444.111 286.688 444.309 286.688 444.513Z" fill="white"/>
<path d="M292.389 445.12C291.935 445.12 291.548 445.03 291.229 444.85C290.913 444.671 290.672 444.426 290.505 444.116C290.339 443.807 290.255 443.458 290.255 443.069C290.255 442.68 290.334 442.331 290.492 442.021C290.653 441.709 290.886 441.463 291.191 441.283C291.498 441.103 291.872 441.014 292.313 441.014C292.476 441.014 292.637 441.027 292.795 441.053C292.956 441.08 293.107 441.115 293.248 441.16C293.389 441.203 293.515 441.253 293.625 441.311L293.562 441.914C293.404 441.83 293.254 441.765 293.113 441.72C292.975 441.672 292.845 441.64 292.723 441.625C292.605 441.606 292.495 441.597 292.393 441.597C291.964 441.597 291.62 441.729 291.36 441.994C291.101 442.255 290.971 442.61 290.971 443.057C290.971 443.337 291.027 443.591 291.14 443.819C291.256 444.044 291.428 444.222 291.657 444.354C291.888 444.484 292.174 444.549 292.516 444.549C292.637 444.549 292.757 444.538 292.876 444.517C292.997 444.496 293.117 444.466 293.236 444.426C293.354 444.384 293.468 444.329 293.579 444.263L293.638 444.862C293.545 444.91 293.436 444.954 293.312 444.993C293.188 445.03 293.048 445.061 292.893 445.085C292.74 445.108 292.572 445.12 292.389 445.12Z" fill="white"/>
<path d="M294.68 445.041C294.68 444.747 294.68 444.466 294.68 444.196C294.68 443.926 294.68 443.628 294.68 443.303V442.886C294.68 442.651 294.68 442.435 294.68 442.24C294.68 442.041 294.68 441.851 294.68 441.668C294.68 441.486 294.68 441.298 294.68 441.105L295.379 441.077C295.379 441.368 295.379 441.654 295.379 441.934C295.379 442.214 295.379 442.509 295.379 442.819V443.406C295.379 443.702 295.379 443.979 295.379 444.235C295.379 444.492 295.379 444.76 295.379 445.041H294.68ZM297.466 445.041C297.277 444.861 297.085 444.681 296.89 444.501C296.698 444.321 296.508 444.143 296.319 443.966L295.595 443.287H295.299V442.819H295.637L296.247 442.212C296.433 442.029 296.621 441.845 296.81 441.66C296.999 441.472 297.185 441.287 297.369 441.105H298.232C297.99 441.335 297.748 441.565 297.508 441.795C297.268 442.025 297.03 442.255 296.793 442.486L296.077 443.168L296.052 442.851L296.882 443.652C297.133 443.885 297.383 444.118 297.631 444.35C297.882 444.581 298.131 444.811 298.376 445.041H297.466Z" fill="white"/>
<path d="M300.901 445.128C300.554 445.128 300.248 445.073 299.982 444.962C299.72 444.848 299.5 444.694 299.322 444.501C299.144 444.308 299.009 444.087 298.916 443.839C298.825 443.587 298.78 443.324 298.78 443.049C298.78 442.655 298.865 442.306 299.034 442.002C299.206 441.695 299.449 441.453 299.762 441.275C300.078 441.098 300.454 441.01 300.888 441.01C301.224 441.01 301.522 441.061 301.782 441.164C302.041 441.267 302.261 441.412 302.442 441.597C302.623 441.782 302.759 441.999 302.853 442.248C302.946 442.494 302.992 442.761 302.992 443.049C302.992 443.438 302.908 443.79 302.738 444.104C302.569 444.419 302.328 444.669 302.014 444.854C301.704 445.037 301.333 445.128 300.901 445.128ZM300.901 444.557C301.209 444.557 301.464 444.485 301.667 444.343C301.87 444.2 302.023 444.013 302.124 443.783C302.226 443.553 302.277 443.308 302.277 443.049C302.277 442.753 302.22 442.495 302.108 442.275C301.995 442.056 301.835 441.885 301.629 441.763C301.423 441.642 301.179 441.581 300.897 441.581C300.592 441.581 300.335 441.646 300.126 441.775C299.917 441.905 299.759 442.081 299.652 442.303C299.548 442.525 299.495 442.774 299.495 443.049C299.495 443.308 299.546 443.553 299.648 443.783C299.752 444.013 299.909 444.2 300.118 444.343C300.327 444.485 300.588 444.557 300.901 444.557Z" fill="white"/>
<path d="M304.082 445.041C304.082 444.747 304.082 444.466 304.082 444.196C304.082 443.926 304.082 443.628 304.082 443.303V442.906C304.082 442.671 304.082 442.454 304.082 442.255C304.082 442.054 304.082 441.861 304.082 441.676C304.082 441.488 304.082 441.298 304.082 441.105H306.91V441.64C306.63 441.64 306.348 441.64 306.063 441.64C305.778 441.64 305.5 441.64 305.229 441.64H304.365L304.78 441.208C304.78 441.396 304.78 441.577 304.78 441.752C304.78 441.923 304.78 442.103 304.78 442.291C304.78 442.476 304.78 442.681 304.78 442.906V443.303C304.78 443.628 304.78 443.926 304.78 444.196C304.78 444.466 304.78 444.747 304.78 445.041H304.082Z" fill="white"/>
<path d="M309.616 445.128C309.269 445.128 308.963 445.073 308.697 444.962C308.435 444.848 308.215 444.694 308.037 444.501C307.859 444.308 307.724 444.087 307.63 443.839C307.54 443.587 307.495 443.324 307.495 443.049C307.495 442.655 307.58 442.306 307.749 442.002C307.921 441.695 308.164 441.453 308.477 441.275C308.793 441.098 309.169 441.01 309.603 441.01C309.939 441.01 310.237 441.061 310.496 441.164C310.756 441.267 310.976 441.412 311.157 441.597C311.338 441.782 311.474 441.999 311.568 442.248C311.661 442.494 311.707 442.761 311.707 443.049C311.707 443.438 311.623 443.79 311.453 444.104C311.284 444.419 311.043 444.669 310.729 444.854C310.419 445.037 310.048 445.128 309.616 445.128ZM309.616 444.557C309.924 444.557 310.179 444.485 310.382 444.343C310.585 444.2 310.738 444.013 310.839 443.783C310.941 443.553 310.992 443.308 310.992 443.049C310.992 442.753 310.935 442.495 310.822 442.275C310.71 442.056 310.55 441.885 310.344 441.763C310.138 441.642 309.894 441.581 309.612 441.581C309.307 441.581 309.05 441.646 308.841 441.775C308.632 441.905 308.474 442.081 308.367 442.303C308.263 442.525 308.21 442.774 308.21 443.049C308.21 443.308 308.261 443.553 308.363 443.783C308.467 444.013 308.624 444.2 308.833 444.343C309.042 444.485 309.303 444.557 309.616 444.557Z" fill="white"/>
<g filter="url(#filter1_i_55_1329)">
<path d="M17.5 152.5C17.5 152.5 79.5 20.5 264 20.5C448.5 20.5 476 152.5 476 152.5" stroke="#80CAF0" stroke-width="2" stroke-dasharray="10 10"/>
</g>
<path d="M354.034 68.3952C369.222 71.614 430.783 84.5242 428.365 78.3936C425.947 72.263 372.011 7.10742 365.073 6.65627L364.078 22.2804C363.161 22.6424 348.004 24.7063 347.453 24.9235C346.765 25.195 361.604 26.0901 361.846 26.7031C362.088 27.3162 352.621 66.8276 354.034 68.3952Z" fill="white"/>
<path d="M428.365 78.3936C430.783 84.5242 369.222 71.614 354.034 68.3952C352.621 66.8276 362.088 27.3162 361.846 26.7031M428.365 78.3936C425.947 72.263 372.011 7.10742 365.073 6.65627L364.078 22.2804M428.365 78.3936L364.078 22.2804M428.365 78.3936L361.846 26.7031M364.078 22.2804C363.161 22.6424 348.004 24.7063 347.453 24.9235C346.765 25.195 361.604 26.0901 361.846 26.7031" stroke="#80CAF0" stroke-width="4"/>
</g>
<defs>
<filter id="filter0_d_55_1329" x="59.0005" y="239" width="418.42" height="264.055" filterUnits="userSpaceOnUse" color-interpolation-filters="sRGB">
<feFlood flood-opacity="0" result="BackgroundImageFix"/>
<feColorMatrix in="SourceAlpha" type="matrix" values="0 0 0 0 0 0 0 0 0 0 0 0 0 0 0 0 0 0 127 0" result="hardAlpha"/>
<feOffset dy="4"/>
<feGaussianBlur stdDeviation="2"/>
<feComposite in2="hardAlpha" operator="out"/>
<feColorMatrix type="matrix" values="0 0 0 0 0 0 0 0 0 0 0 0 0 0 0 0 0 0 0.25 0"/>
<feBlend mode="normal" in2="BackgroundImageFix" result="effect1_dropShadow_55_1329"/>
<feBlend mode="normal" in="SourceGraphic" in2="effect1_dropShadow_55_1329" result="shape"/>
</filter>
<filter id="filter1_i_55_1329" x="16.5947" y="19.5" width="460.384" height="137.425" filterUnits="userSpaceOnUse" color-interpolation-filters="sRGB">
<feFlood flood-opacity="0" result="BackgroundImageFix"/>
<feBlend mode="normal" in="SourceGraphic" in2="BackgroundImageFix" result="shape"/>
<feColorMatrix in="SourceAlpha" type="matrix" values="0 0 0 0 0 0 0 0 0 0 0 0 0 0 0 0 0 0 127 0" result="hardAlpha"/>
<feOffset dy="4"/>
<feGaussianBlur stdDeviation="2"/>
<feComposite in2="hardAlpha" operator="arithmetic" k2="-1" k3="1"/>
<feColorMatrix type="matrix" values="0 0 0 0 0 0 0 0 0 0 0 0 0 0 0 0 0 0 0.25 0"/>
<feBlend mode="normal" in2="shape" result="effect1_innerShadow_55_1329"/>
</filter>
<clipPath id="clip0_55_1329">
<rect width="512" height="512" fill="white"/>
</clipPath>
</defs>
</svg>
