<svg width="1200" height="600" viewBox="0 0 1200 600" fill="none" xmlns="http://www.w3.org/2000/svg">
<g clip-path="url(#clip0_55_746)">
<rect width="1200" height="600" fill="#0D547A"/>
<path d="M1155.35 282.5L1344.35 342.5L907.258 818.203L723.031 652.022C773.613 608.595 798.313 541.709 747.457 444C717.047 385.574 688.887 342.782 663.001 311.552L768.428 197.9L869.349 259.937L965.412 190L1155.35 282.5Z" fill="#80CAF0" fill-opacity="0.4"/>
<path d="M359.862 271.171C362.537 288.745 371.297 305.094 384.136 319.394C339.029 362.891 302.229 417.596 291.369 460C288.859 468.71 286.728 477.157 284.952 485.348L111 346.035L244.773 179L359.862 271.171Z" fill="#80CAF0" fill-opacity="0.8"/>
<path d="M747.37 461C855.37 668.5 622.624 737 524.87 737C427.115 737 232.37 690 298.37 461C319.37 379 437.37 251 524.87 247C575.37 247 649.779 273.5 747.37 461Z" fill="#0D547A"/>
<path d="M676.929 270.5C673.497 312 603.182 376.5 523.929 376.5C444.676 376.5 355.929 319 366.929 249C372.929 179.5 434.929 117 523.929 117C611.429 121 683.38 192.5 676.929 270.5Z" fill="#80CAF0"/>
<path d="M595.368 289.5C595.368 320.98 563.581 346.5 524.368 346.5C485.156 346.5 449 320.98 449 289.5C449 258.02 485.156 229 524.368 229C563.581 229 595.368 258.02 595.368 289.5Z" fill="white"/>
<path d="M521 259.5C528.459 259.5 536.408 259.724 542.483 261.071C545.523 261.745 548.046 262.691 549.799 263.994C551.532 265.283 552.5 266.909 552.5 269C552.5 271.137 551.491 273.74 549.68 276.475C547.876 279.198 545.309 282.003 542.271 284.533C536.185 289.603 528.295 293.5 521 293.5C513.708 293.5 506.071 289.606 500.236 284.54C497.325 282.012 494.881 279.208 493.17 276.484C491.453 273.751 490.5 271.144 490.5 269C490.5 266.896 491.418 265.27 493.056 263.986C494.713 262.687 497.108 261.744 500.021 261.07C505.844 259.724 513.54 259.5 521 259.5Z" fill="#010000" stroke="#010000"/>
<path d="M607.5 223.5C610.742 223.5 613.729 225.392 615.928 228.558C618.125 231.721 619.5 236.119 619.5 241C619.5 245.881 618.125 250.279 615.928 253.442C613.729 256.608 610.742 258.5 607.5 258.5C604.258 258.5 601.271 256.608 599.072 253.442C596.875 250.279 595.5 245.881 595.5 241C595.5 236.119 596.875 231.721 599.072 228.558C601.271 225.392 604.258 223.5 607.5 223.5Z" fill="#010000" stroke="#010000"/>
<path d="M438.5 223.5C441.742 223.5 444.729 225.392 446.928 228.558C449.125 231.721 450.5 236.119 450.5 241C450.5 245.881 449.125 250.279 446.928 253.442C444.729 256.608 441.742 258.5 438.5 258.5C435.258 258.5 432.271 256.608 430.072 253.442C427.875 250.279 426.5 245.881 426.5 241C426.5 236.119 427.875 231.721 430.072 228.558C432.271 225.392 435.258 223.5 438.5 223.5Z" fill="#010000" stroke="#010000"/>
<path d="M522 294V304" stroke="#010000" stroke-width="2" stroke-linecap="round" stroke-linejoin="round"/>
<path d="M491 304.5V304.5C496.933 315.179 511.835 316.35 519.363 306.73L521.5 304" stroke="#010000" stroke-width="2" stroke-linecap="round" stroke-linejoin="round"/>
<path d="M552.5 304.5V304.5C546.567 315.179 531.665 316.35 524.137 306.73L522 304" stroke="#010000" stroke-width="2" stroke-linecap="round" stroke-linejoin="round"/>
<path d="M661.861 89C697.754 89.601 726.365 119.186 725.764 155.079C725.27 184.588 705.186 209.172 678.112 216.651C666.849 179.484 638.591 146.99 601.474 127.333C611.812 104.366 635.08 88.5516 661.861 89Z" fill="#80CAF0"/>
<path d="M378.991 89C343.097 89.601 314.487 119.186 315.088 155.079C315.582 184.588 335.666 209.172 362.74 216.651C374.003 179.484 402.26 146.99 439.378 127.333C429.04 104.366 405.772 88.5516 378.991 89Z" fill="#80CAF0"/>
<path d="M716.611 387.107L791.862 378.882L834.813 359.263L857.637 330.167L887.202 305.139L925.829 292.438L968.89 247.222C968.89 247.222 1194.34 352.018 1198.78 348.373C1203.22 344.728 1089.89 354.209 1089.89 354.209L1023.08 359.306L946.709 380.929L846.84 414.556L797.908 438.217L756.224 459.965L716.611 387.107Z" fill="#80CAF0" fill-opacity="0.8"/>
<path d="M513.934 493.783L516.564 489.647H517.531V494.995H516.692V490.858L514.076 494.995H513.095V489.647H513.934V493.783Z" fill="white"/>
<path d="M522.054 493.88L523.959 489.647H524.756L522.395 494.995H521.713L519.395 489.647H520.177L522.054 493.88ZM519.907 489.647V494.995H519.068V489.647H519.907ZM524.201 494.995V489.647H525.04V494.995H524.201Z" fill="white"/>
<path d="M528.865 495.106C528.339 495.106 527.885 494.992 527.504 494.765C527.125 494.535 526.832 494.215 526.626 493.804C526.422 493.391 526.32 492.91 526.32 492.363C526.32 491.815 526.422 491.332 526.626 490.914C526.832 490.494 527.119 490.167 527.486 489.932C527.856 489.696 528.287 489.577 528.78 489.577C529.064 489.577 529.345 489.624 529.622 489.717C529.9 489.809 530.152 489.96 530.38 490.169C530.607 490.376 530.788 490.65 530.924 490.991C531.059 491.332 531.126 491.752 531.126 492.251V492.599H526.917V491.889H530.273C530.273 491.587 530.211 491.318 530.088 491.081C529.967 490.845 529.794 490.658 529.569 490.521C529.346 490.384 529.083 490.315 528.78 490.315C528.446 490.315 528.157 490.397 527.913 490.559C527.671 490.719 527.485 490.928 527.354 491.186C527.224 491.443 527.159 491.72 527.159 492.014V492.488C527.159 492.892 527.23 493.234 527.372 493.515C527.517 493.793 527.717 494.006 527.973 494.152C528.229 494.296 528.526 494.368 528.865 494.368C529.086 494.368 529.285 494.338 529.463 494.277C529.643 494.215 529.798 494.122 529.928 493.999C530.059 493.873 530.159 493.718 530.23 493.532L531.041 493.755C530.956 494.024 530.812 494.261 530.611 494.465C530.409 494.667 530.16 494.825 529.864 494.939C529.568 495.05 529.235 495.106 528.865 495.106Z" fill="white"/>
<path d="M536.057 491.945V492.711H533.042V491.945H536.057ZM533.241 489.647V494.995H532.402V489.647H533.241ZM536.697 489.647V494.995H535.858V489.647H536.697Z" fill="white"/>
<path d="M539.068 493.783L541.699 489.647H542.666V494.995H541.827V490.858L539.21 494.995H538.229V489.647H539.068V493.783Z" fill="white"/>
<path d="M547.131 494.995V487.864H548.013V491.04H551.895V487.864H552.777V494.995H551.895V491.805H548.013V494.995H547.131Z" fill="white"/>
<path d="M555.039 495.05C554.864 495.05 554.713 494.989 554.588 494.866C554.462 494.743 554.399 494.595 554.399 494.424C554.399 494.252 554.462 494.104 554.588 493.981C554.713 493.858 554.864 493.797 555.039 493.797C555.215 493.797 555.365 493.858 555.491 493.981C555.616 494.104 555.679 494.252 555.679 494.424C555.679 494.537 555.65 494.642 555.59 494.737C555.533 494.832 555.456 494.909 555.359 494.967C555.264 495.022 555.158 495.05 555.039 495.05Z" fill="white"/>
<path d="M557.298 487.864H558.351L560.825 493.783H560.91L563.385 487.864H564.437V494.995H563.612V489.577H563.541L561.266 494.995H560.469L558.194 489.577H558.123V494.995H557.298V487.864Z" fill="white"/>
<path d="M566.702 495.05C566.527 495.05 566.376 494.989 566.251 494.866C566.125 494.743 566.062 494.595 566.062 494.424C566.062 494.252 566.125 494.104 566.251 493.981C566.376 493.858 566.527 493.797 566.702 493.797C566.878 493.797 567.028 493.858 567.154 493.981C567.279 494.104 567.342 494.252 567.342 494.424C567.342 494.537 567.312 494.642 567.253 494.737C567.196 494.832 567.119 494.909 567.022 494.967C566.927 495.022 566.821 495.05 566.702 495.05Z" fill="white"/>
<path d="M574.279 488.714H575.431C575.972 488.714 576.452 488.832 576.871 489.069C577.291 489.306 577.62 489.635 577.859 490.058C578.099 490.48 578.218 490.97 578.218 491.527C578.218 492.084 578.099 492.575 577.859 493C577.62 493.424 577.291 493.756 576.871 493.995C576.452 494.234 575.972 494.354 575.431 494.354H574.279C573.739 494.354 573.259 494.236 572.84 493.999C572.42 493.762 572.091 493.432 571.851 493.01C571.612 492.588 571.492 492.098 571.492 491.541C571.492 490.984 571.612 490.493 571.851 490.068C572.091 489.643 572.42 489.312 572.84 489.072C573.259 488.833 573.739 488.714 574.279 488.714ZM574.279 489.48C573.867 489.48 573.519 489.565 573.234 489.734C572.952 489.903 572.738 490.142 572.591 490.451C572.446 490.76 572.374 491.123 572.374 491.541C572.374 491.954 572.446 492.314 572.591 492.62C572.738 492.927 572.952 493.164 573.234 493.334C573.519 493.503 573.867 493.588 574.279 493.588H575.431C575.844 493.588 576.191 493.503 576.473 493.334C576.757 493.164 576.972 492.925 577.116 492.617C577.263 492.308 577.337 491.945 577.337 491.527C577.337 491.114 577.263 490.754 577.116 490.448C576.972 490.141 576.757 489.903 576.473 489.734C576.191 489.565 575.844 489.48 575.431 489.48H574.279ZM575.303 487.739V495.287H574.422V487.739H575.303Z" fill="white"/>
<path d="M581.871 495.106C581.345 495.106 580.891 494.992 580.509 494.765C580.13 494.535 579.838 494.215 579.631 493.804C579.428 493.391 579.326 492.91 579.326 492.363C579.326 491.815 579.428 491.332 579.631 490.914C579.838 490.494 580.124 490.167 580.492 489.932C580.861 489.696 581.293 489.577 581.786 489.577C582.07 489.577 582.351 489.624 582.628 489.717C582.906 489.809 583.158 489.96 583.385 490.169C583.613 490.376 583.794 490.65 583.929 490.991C584.064 491.332 584.132 491.752 584.132 492.251V492.599H579.923V491.889H583.279C583.279 491.587 583.217 491.318 583.094 491.081C582.973 490.845 582.8 490.658 582.575 490.521C582.352 490.384 582.089 490.315 581.786 490.315C581.452 490.315 581.162 490.397 580.918 490.559C580.677 490.719 580.491 490.928 580.36 491.186C580.23 491.443 580.165 491.72 580.165 492.014V492.488C580.165 492.892 580.236 493.234 580.378 493.515C580.523 493.793 580.723 494.006 580.979 494.152C581.235 494.296 581.532 494.368 581.871 494.368C582.091 494.368 582.291 494.338 582.468 494.277C582.648 494.215 582.804 494.122 582.934 493.999C583.064 493.873 583.165 493.718 583.236 493.532L584.047 493.755C583.961 494.024 583.818 494.261 583.617 494.465C583.415 494.667 583.166 494.825 582.87 494.939C582.574 495.05 582.241 495.106 581.871 495.106Z" fill="white"/>
<path d="M584.825 496.526V494.229H585.28C585.392 494.115 585.488 493.992 585.568 493.86C585.649 493.727 585.719 493.571 585.778 493.39C585.84 493.206 585.892 492.983 585.934 492.721C585.977 492.457 586.015 492.137 586.048 491.764L586.233 489.647H589.703V494.229H590.542V496.526H589.703V494.995H585.664V496.526H584.825ZM586.233 494.229H588.864V490.413H587.015L586.873 491.764C586.814 492.323 586.74 492.812 586.652 493.229C586.565 493.647 586.425 493.98 586.233 494.229Z" fill="white"/>
<path d="M593.873 495.106C593.38 495.106 592.948 494.991 592.576 494.761C592.206 494.532 591.917 494.21 591.708 493.797C591.502 493.384 591.399 492.901 591.399 492.349C591.399 491.792 591.502 491.305 591.708 490.89C591.917 490.474 592.206 490.152 592.576 489.922C592.948 489.692 593.38 489.577 593.873 489.577C594.366 489.577 594.798 489.692 595.167 489.922C595.539 490.152 595.829 490.474 596.035 490.89C596.243 491.305 596.348 491.792 596.348 492.349C596.348 492.901 596.243 493.384 596.035 493.797C595.829 494.21 595.539 494.532 595.167 494.761C594.798 494.991 594.366 495.106 593.873 495.106ZM593.873 494.368C594.248 494.368 594.556 494.274 594.798 494.086C595.039 493.898 595.218 493.651 595.334 493.344C595.451 493.038 595.509 492.706 595.509 492.349C595.509 491.991 595.451 491.658 595.334 491.349C595.218 491.041 595.039 490.791 594.798 490.601C594.556 490.411 594.248 490.315 593.873 490.315C593.499 490.315 593.191 490.411 592.949 490.601C592.707 490.791 592.528 491.041 592.412 491.349C592.296 491.658 592.238 491.991 592.238 492.349C592.238 492.706 592.296 493.038 592.412 493.344C592.528 493.651 592.707 493.898 592.949 494.086C593.191 494.274 593.499 494.368 593.873 494.368Z" fill="white"/>
<path d="M597.628 497V489.647H598.439V490.496H598.538C598.6 490.404 598.685 490.285 598.794 490.141C598.906 489.995 599.064 489.865 599.271 489.751C599.479 489.635 599.761 489.577 600.117 489.577C600.576 489.577 600.982 489.69 601.332 489.915C601.683 490.14 601.957 490.459 602.154 490.872C602.35 491.286 602.449 491.773 602.449 492.335C602.449 492.901 602.35 493.392 602.154 493.807C601.957 494.22 601.684 494.541 601.336 494.768C600.988 494.993 600.586 495.106 600.131 495.106C599.78 495.106 599.499 495.049 599.288 494.935C599.077 494.819 598.915 494.688 598.801 494.542C598.688 494.393 598.6 494.27 598.538 494.173H598.467V497H597.628ZM598.453 492.321C598.453 492.725 598.513 493.081 598.634 493.39C598.755 493.696 598.932 493.936 599.164 494.11C599.396 494.282 599.681 494.368 600.017 494.368C600.368 494.368 600.661 494.277 600.895 494.096C601.132 493.913 601.31 493.667 601.428 493.358C601.549 493.047 601.61 492.701 601.61 492.321C601.61 491.945 601.551 491.606 601.432 491.304C601.316 491 601.139 490.76 600.902 490.583C600.668 490.405 600.373 490.315 600.017 490.315C599.676 490.315 599.389 490.4 599.157 490.57C598.925 490.737 598.749 490.971 598.631 491.273C598.512 491.572 598.453 491.922 598.453 492.321Z" fill="white"/>
<path d="M605.947 495.106C605.454 495.106 605.021 494.991 604.649 494.761C604.28 494.532 603.99 494.21 603.782 493.797C603.576 493.384 603.473 492.901 603.473 492.349C603.473 491.792 603.576 491.305 603.782 490.89C603.99 490.474 604.28 490.152 604.649 489.922C605.021 489.692 605.454 489.577 605.947 489.577C606.44 489.577 606.871 489.692 607.241 489.922C607.613 490.152 607.902 490.474 608.108 490.89C608.317 491.305 608.421 491.792 608.421 492.349C608.421 492.901 608.317 493.384 608.108 493.797C607.902 494.21 607.613 494.532 607.241 494.761C606.871 494.991 606.44 495.106 605.947 495.106ZM605.947 494.368C606.321 494.368 606.629 494.274 606.871 494.086C607.113 493.898 607.292 493.651 607.408 493.344C607.524 493.038 607.582 492.706 607.582 492.349C607.582 491.991 607.524 491.658 607.408 491.349C607.292 491.041 607.113 490.791 606.871 490.601C606.629 490.411 606.321 490.315 605.947 490.315C605.572 490.315 605.264 490.411 605.022 490.601C604.781 490.791 604.602 491.041 604.486 491.349C604.37 491.658 604.312 491.991 604.312 492.349C604.312 492.706 604.37 493.038 604.486 493.344C604.602 493.651 604.781 493.898 605.022 494.086C605.264 494.274 605.572 494.368 605.947 494.368Z" fill="white"/>
<path d="M609.702 494.995V489.647H611.934C612.522 489.647 612.989 489.777 613.335 490.037C613.681 490.297 613.854 490.64 613.854 491.067C613.854 491.392 613.755 491.644 613.559 491.823C613.362 491.999 613.11 492.119 612.802 492.181C613.003 492.209 613.199 492.279 613.388 492.39C613.58 492.502 613.739 492.655 613.864 492.85C613.99 493.043 614.053 493.279 614.053 493.56C614.053 493.834 613.982 494.079 613.84 494.295C613.697 494.511 613.494 494.681 613.228 494.807C612.963 494.932 612.645 494.995 612.275 494.995H609.702ZM610.498 494.243H612.275C612.565 494.243 612.791 494.175 612.954 494.041C613.118 493.906 613.2 493.723 613.2 493.491C613.2 493.214 613.118 492.997 612.954 492.839C612.791 492.679 612.565 492.599 612.275 492.599H610.498V494.243ZM610.498 491.889H611.934C612.159 491.889 612.352 491.859 612.514 491.798C612.675 491.736 612.798 491.648 612.883 491.534C612.971 491.418 613.015 491.281 613.015 491.123C613.015 490.898 612.919 490.722 612.727 490.594C612.535 490.464 612.271 490.399 611.934 490.399H610.498V491.889Z" fill="white"/>
<path d="M617.541 495.106C617.029 495.106 616.588 494.988 616.219 494.751C615.849 494.514 615.565 494.188 615.366 493.773C615.166 493.357 615.067 492.882 615.067 492.349C615.067 491.805 615.169 491.326 615.373 490.911C615.579 490.493 615.866 490.167 616.233 489.932C616.603 489.696 617.034 489.577 617.527 489.577C617.911 489.577 618.257 489.647 618.565 489.786C618.873 489.925 619.125 490.12 619.322 490.371C619.519 490.622 619.641 490.914 619.688 491.248H618.849C618.785 491.005 618.643 490.789 618.423 490.601C618.205 490.411 617.911 490.315 617.541 490.315C617.214 490.315 616.927 490.399 616.681 490.566C616.437 490.731 616.246 490.964 616.109 491.266C615.973 491.565 615.906 491.917 615.906 492.321C615.906 492.734 615.972 493.094 616.105 493.4C616.24 493.706 616.43 493.944 616.674 494.114C616.92 494.283 617.209 494.368 617.541 494.368C617.759 494.368 617.957 494.331 618.135 494.256C618.313 494.182 618.463 494.075 618.586 493.936C618.71 493.797 618.797 493.63 618.849 493.435H619.688C619.641 493.75 619.524 494.035 619.336 494.288C619.152 494.538 618.906 494.738 618.601 494.887C618.297 495.033 617.944 495.106 617.541 495.106Z" fill="white"/>
<path d="M620.915 494.995V489.647H621.754V491.973H622.308L624.271 489.647H625.351L623.147 492.223L625.38 494.995H624.299L622.507 492.739H621.754V494.995H620.915Z" fill="white"/>
<path d="M628.285 495.106C627.792 495.106 627.36 494.991 626.988 494.761C626.618 494.532 626.329 494.21 626.12 493.797C625.914 493.384 625.811 492.901 625.811 492.349C625.811 491.792 625.914 491.305 626.12 490.89C626.329 490.474 626.618 490.152 626.988 489.922C627.36 489.692 627.792 489.577 628.285 489.577C628.778 489.577 629.209 489.692 629.579 489.922C629.951 490.152 630.24 490.474 630.446 490.89C630.655 491.305 630.759 491.792 630.759 492.349C630.759 492.901 630.655 493.384 630.446 493.797C630.24 494.21 629.951 494.532 629.579 494.761C629.209 494.991 628.778 495.106 628.285 495.106ZM628.285 494.368C628.66 494.368 628.968 494.274 629.209 494.086C629.451 493.898 629.63 493.651 629.746 493.344C629.862 493.038 629.92 492.706 629.92 492.349C629.92 491.991 629.862 491.658 629.746 491.349C629.63 491.041 629.451 490.791 629.209 490.601C628.968 490.411 628.66 490.315 628.285 490.315C627.911 490.315 627.603 490.411 627.361 490.601C627.119 490.791 626.94 491.041 626.824 491.349C626.708 491.658 626.65 491.991 626.65 492.349C626.65 492.706 626.708 493.038 626.824 493.344C626.94 493.651 627.119 493.898 627.361 494.086C627.603 494.274 627.911 494.368 628.285 494.368Z" fill="white"/>
<path d="M635.41 489.647V490.413H632.879V494.995H632.04V489.647H635.41Z" fill="white"/>
<path d="M638.569 495.106C638.077 495.106 637.644 494.991 637.272 494.761C636.902 494.532 636.613 494.21 636.405 493.797C636.198 493.384 636.095 492.901 636.095 492.349C636.095 491.792 636.198 491.305 636.405 490.89C636.613 490.474 636.902 490.152 637.272 489.922C637.644 489.692 638.077 489.577 638.569 489.577C639.062 489.577 639.494 489.692 639.863 489.922C640.236 490.152 640.525 490.474 640.731 490.89C640.939 491.305 641.044 491.792 641.044 492.349C641.044 492.901 640.939 493.384 640.731 493.797C640.525 494.21 640.236 494.532 639.863 494.761C639.494 494.991 639.062 495.106 638.569 495.106ZM638.569 494.368C638.944 494.368 639.252 494.274 639.494 494.086C639.735 493.898 639.914 493.651 640.031 493.344C640.147 493.038 640.205 492.706 640.205 492.349C640.205 491.991 640.147 491.658 640.031 491.349C639.914 491.041 639.735 490.791 639.494 490.601C639.252 490.411 638.944 490.315 638.569 490.315C638.195 490.315 637.887 490.411 637.645 490.601C637.403 490.791 637.225 491.041 637.108 491.349C636.992 491.658 636.934 491.991 636.934 492.349C636.934 492.706 636.992 493.038 637.108 493.344C637.225 493.651 637.403 493.898 637.645 494.086C637.887 494.274 638.195 494.368 638.569 494.368Z" fill="white"/>
<mask id="path-16-inside-1_55_746" fill="white">
<path d="M489.849 390.843L491.951 398.487L499.758 400.545L491.951 402.603L489.849 410.247L487.747 402.603L479.941 400.545L487.747 398.487L489.849 390.843Z"/>
</mask>
<path d="M489.849 390.843L493.706 389.782L489.849 375.756L485.992 389.782L489.849 390.843ZM491.951 398.487L488.094 399.547L488.705 401.767L490.931 402.355L491.951 398.487ZM499.758 400.545L500.777 404.413L515.448 400.545L500.777 396.677L499.758 400.545ZM491.951 402.603L490.931 398.735L488.705 399.322L488.094 401.542L491.951 402.603ZM489.849 410.247L485.992 411.308L489.849 425.334L493.706 411.308L489.849 410.247ZM487.747 402.603L491.604 401.542L490.994 399.322L488.767 398.735L487.747 402.603ZM479.941 400.545L478.921 396.677L464.25 400.545L478.921 404.413L479.941 400.545ZM487.747 398.487L488.767 402.355L490.994 401.767L491.604 399.547L487.747 398.487ZM485.467 391.693C484.881 393.823 486.133 396.025 488.263 396.611C490.393 397.196 492.595 395.944 493.181 393.814L485.467 391.693ZM492.13 397.636C492.715 395.506 491.463 393.305 489.333 392.719C487.203 392.133 485.002 393.385 484.416 395.515L492.13 397.636ZM484.776 395.133C482.64 395.697 481.365 397.885 481.928 400.021C482.491 402.157 484.679 403.432 486.815 402.869L484.776 395.133ZM482.912 403.898C485.048 403.335 486.323 401.147 485.76 399.011C485.197 396.874 483.009 395.599 480.873 396.162L482.912 403.898ZM480.873 404.927C483.009 405.49 485.197 404.215 485.76 402.079C486.323 399.943 485.048 397.755 482.912 397.192L480.873 404.927ZM486.815 398.221C484.679 397.657 482.491 398.933 481.928 401.069C481.365 403.205 482.64 405.393 484.776 405.956L486.815 398.221ZM484.416 405.575C485.002 407.705 487.203 408.957 489.333 408.371C491.463 407.785 492.715 405.584 492.13 403.453L484.416 405.575ZM493.181 407.275C492.595 405.145 490.393 403.893 488.263 404.479C486.133 405.065 484.881 407.266 485.467 409.397L493.181 407.275ZM494.232 409.397C494.817 407.266 493.565 405.065 491.435 404.479C489.305 403.893 487.104 405.145 486.518 407.275L494.232 409.397ZM487.569 403.453C486.983 405.584 488.235 407.785 490.365 408.371C492.495 408.957 494.697 407.705 495.282 405.575L487.569 403.453ZM494.922 405.956C497.059 405.393 498.334 403.205 497.771 401.069C497.207 398.933 495.019 397.657 492.883 398.221L494.922 405.956ZM496.786 397.192C494.65 397.755 493.375 399.943 493.938 402.079C494.501 404.215 496.69 405.49 498.826 404.927L496.786 397.192ZM498.826 396.162C496.69 395.599 494.501 396.874 493.938 399.011C493.375 401.147 494.65 403.335 496.786 403.898L498.826 396.162ZM492.883 402.869C495.019 403.432 497.207 402.157 497.771 400.021C498.334 397.885 497.059 395.697 494.922 395.133L492.883 402.869ZM495.282 395.515C494.697 393.385 492.495 392.133 490.365 392.719C488.235 393.305 486.983 395.506 487.569 397.636L495.282 395.515ZM486.518 393.814C487.104 395.944 489.305 397.196 491.435 396.611C493.565 396.025 494.817 393.823 494.232 391.693L486.518 393.814ZM489.849 390.843L485.992 389.782L485.467 391.693L489.324 392.754L493.181 393.814L493.706 391.903L489.849 390.843ZM488.273 396.576L484.416 395.515L483.89 397.426L487.747 398.487L491.604 399.547L492.13 397.636L488.273 396.576ZM487.747 398.487L486.728 394.619L484.776 395.133L485.796 399.001L486.815 402.869L488.767 402.355L487.747 398.487ZM481.892 400.03L480.873 396.162L478.921 396.677L479.941 400.545L480.96 404.413L482.912 403.898L481.892 400.03ZM479.941 400.545L478.921 404.413L480.873 404.927L481.892 401.059L482.912 397.192L480.96 396.677L479.941 400.545ZM485.796 402.088L484.776 405.956L486.728 406.471L487.747 402.603L488.767 398.735L486.815 398.221L485.796 402.088ZM487.747 402.603L483.89 403.663L484.416 405.575L488.273 404.514L492.13 403.453L491.604 401.542L487.747 402.603ZM489.324 408.336L485.467 409.397L485.992 411.308L489.849 410.247L493.706 409.186L493.181 407.275L489.324 408.336ZM489.849 410.247L493.706 411.308L494.232 409.397L490.375 408.336L486.518 407.275L485.992 409.186L489.849 410.247ZM491.426 404.514L495.282 405.575L495.808 403.663L491.951 402.603L488.094 401.542L487.569 403.453L491.426 404.514ZM491.951 402.603L492.971 406.471L494.922 405.956L493.903 402.088L492.883 398.221L490.931 398.735L491.951 402.603ZM497.806 401.059L498.826 404.927L500.777 404.413L499.758 400.545L498.738 396.677L496.786 397.192L497.806 401.059ZM499.758 400.545L500.777 396.677L498.826 396.162L497.806 400.03L496.786 403.898L498.738 404.413L499.758 400.545ZM493.903 399.001L494.922 395.133L492.971 394.619L491.951 398.487L490.931 402.355L492.883 402.869L493.903 399.001ZM491.951 398.487L495.808 397.426L495.282 395.515L491.426 396.576L487.569 397.636L488.094 399.547L491.951 398.487ZM490.375 392.754L494.232 391.693L493.706 389.782L489.849 390.843L485.992 391.903L486.518 393.814L490.375 392.754ZM489.849 390.843L497.563 388.722L489.849 360.669L482.135 388.722L489.849 390.843ZM491.951 398.487L484.237 400.608L485.458 405.048L489.912 406.222L491.951 398.487ZM499.758 400.545L501.797 408.28L531.139 400.545L501.797 392.809L499.758 400.545ZM491.951 402.603L489.912 394.867L485.458 396.041L484.237 400.482L491.951 402.603ZM489.849 410.247L482.135 412.368L489.849 440.42L497.563 412.368L489.849 410.247ZM487.747 402.603L495.461 400.482L494.24 396.041L489.787 394.867L487.747 402.603ZM479.941 400.545L477.901 392.809L448.56 400.545L477.901 408.28L479.941 400.545ZM487.747 398.487L489.787 406.222L494.24 405.048L495.461 400.608L487.747 398.487ZM481.61 390.633C480.439 394.893 482.942 399.296 487.203 400.467C491.463 401.639 495.866 399.135 497.037 394.875L481.61 390.633ZM495.986 398.697C497.158 394.437 494.654 390.033 490.394 388.862C486.134 387.691 481.73 390.194 480.559 394.455L495.986 398.697ZM483.756 391.266C479.484 392.392 476.934 396.768 478.06 401.041C479.186 405.313 483.563 407.863 487.835 406.737L483.756 391.266ZM483.932 407.766C488.204 406.64 490.754 402.263 489.628 397.991C488.502 393.719 484.125 391.168 479.853 392.295L483.932 407.766ZM479.853 408.795C484.125 409.921 488.502 407.371 489.628 403.099C490.754 398.827 488.204 394.45 483.932 393.324L479.853 408.795ZM487.835 394.353C483.563 393.226 479.186 395.777 478.06 400.049C476.934 404.321 479.484 408.698 483.756 409.824L487.835 394.353ZM480.559 406.635C481.73 410.895 486.134 413.399 490.394 412.228C494.654 411.056 497.158 406.653 495.986 402.393L480.559 406.635ZM497.037 406.215C495.866 401.955 491.463 399.451 487.203 400.622C482.942 401.794 480.439 406.197 481.61 410.457L497.037 406.215ZM498.088 410.457C499.26 406.197 496.756 401.794 492.496 400.622C488.236 399.451 483.832 401.955 482.661 406.215L498.088 410.457ZM483.712 402.393C482.54 406.653 485.044 411.056 489.305 412.228C493.565 413.399 497.968 410.895 499.139 406.635L483.712 402.393ZM495.942 409.824C500.214 408.698 502.765 404.321 501.638 400.049C500.512 395.777 496.136 393.226 491.863 394.353L495.942 409.824ZM495.767 393.324C491.494 394.45 488.944 398.827 490.07 403.099C491.197 407.371 495.573 409.921 499.845 408.795L495.767 393.324ZM499.845 392.295C495.573 391.168 491.197 393.719 490.07 397.991C488.944 402.263 491.494 406.64 495.767 407.766L499.845 392.295ZM491.863 406.737C496.136 407.863 500.512 405.313 501.638 401.041C502.765 396.768 500.214 392.392 495.942 391.266L491.863 406.737ZM499.139 394.455C497.968 390.194 493.565 387.691 489.305 388.862C485.044 390.033 482.54 394.437 483.712 398.697L499.139 394.455ZM482.661 394.875C483.832 399.135 488.236 401.639 492.496 400.467C496.756 399.296 499.26 394.893 498.088 390.633L482.661 394.875ZM489.849 390.843L482.135 388.722L481.61 390.633L489.324 392.754L497.037 394.875L497.563 392.964L489.849 390.843ZM488.273 396.576L480.559 394.455L480.034 396.366L487.747 398.487L495.461 400.608L495.986 398.697L488.273 396.576ZM487.747 398.487L485.708 390.751L483.756 391.266L485.796 399.001L487.835 406.737L489.787 406.222L487.747 398.487ZM481.892 400.03L479.853 392.295L477.901 392.809L479.941 400.545L481.98 408.28L483.932 407.766L481.892 400.03ZM479.941 400.545L477.901 408.28L479.853 408.795L481.892 401.059L483.932 393.324L481.98 392.809L479.941 400.545ZM485.796 402.088L483.756 409.824L485.708 410.339L487.747 402.603L489.787 394.867L487.835 394.353L485.796 402.088ZM487.747 402.603L480.034 404.724L480.559 406.635L488.273 404.514L495.986 402.393L495.461 400.482L487.747 402.603ZM489.324 408.336L481.61 410.457L482.135 412.368L489.849 410.247L497.563 408.126L497.037 406.215L489.324 408.336ZM489.849 410.247L497.563 412.368L498.088 410.457L490.375 408.336L482.661 406.215L482.135 408.126L489.849 410.247ZM491.426 404.514L499.139 406.635L499.665 404.724L491.951 402.603L484.237 400.482L483.712 402.393L491.426 404.514ZM491.951 402.603L493.991 410.339L495.942 409.824L493.903 402.088L491.863 394.353L489.912 394.867L491.951 402.603ZM497.806 401.059L499.845 408.795L501.797 408.28L499.758 400.545L497.718 392.809L495.767 393.324L497.806 401.059ZM499.758 400.545L501.797 392.809L499.845 392.295L497.806 400.03L495.767 407.766L497.718 408.28L499.758 400.545ZM493.903 399.001L495.942 391.266L493.991 390.751L491.951 398.487L489.912 406.222L491.863 406.737L493.903 399.001ZM491.951 398.487L499.665 396.366L499.139 394.455L491.426 396.576L483.712 398.697L484.237 400.608L491.951 398.487ZM490.375 392.754L498.088 390.633L497.563 388.722L489.849 390.843L482.135 392.964L482.661 394.875L490.375 392.754Z" fill="white" mask="url(#path-16-inside-1_55_746)"/>
<mask id="path-18-inside-2_55_746" fill="white">
<path d="M489.708 396.387L491.419 399.663L497.776 400.545L491.419 401.427L489.708 404.703L487.996 401.427L481.639 400.545L487.996 399.663L489.708 396.387Z"/>
</mask>
<path d="M489.708 396.387L493.253 394.534L489.708 387.748L486.162 394.534L489.708 396.387ZM491.419 399.663L487.874 401.515L488.828 403.341L490.869 403.625L491.419 399.663ZM497.776 400.545L498.326 404.507V396.583L497.776 400.545ZM491.419 401.427L490.869 397.465L488.828 397.748L487.874 399.574L491.419 401.427ZM489.708 404.703L486.162 406.555L489.708 413.341L493.253 406.555L489.708 404.703ZM487.996 401.427L491.541 399.574L490.587 397.748L488.546 397.465L487.996 401.427ZM481.639 400.545L481.089 396.583L481.089 404.507L481.639 400.545ZM487.996 399.663L488.546 403.625L490.587 403.341L491.541 401.515L487.996 399.663ZM485.734 395.353C484.711 397.311 485.469 399.728 487.427 400.751C489.385 401.774 491.802 401.016 492.825 399.058L485.734 395.353ZM491.969 400.696C492.992 398.738 492.234 396.321 490.276 395.298C488.318 394.275 485.902 395.033 484.879 396.991L491.969 400.696ZM485.857 395.921C483.669 396.225 482.141 398.245 482.445 400.433C482.748 402.621 484.768 404.149 486.957 403.845L485.857 395.921ZM483.778 404.286C485.966 403.983 487.494 401.963 487.19 399.774C486.887 397.586 484.867 396.058 482.679 396.362L483.778 404.286ZM482.679 404.727C484.867 405.031 486.887 403.503 487.19 401.315C487.494 399.127 485.966 397.107 483.778 396.803L482.679 404.727ZM486.957 397.244C484.768 396.941 482.748 398.468 482.445 400.656C482.141 402.845 483.669 404.865 485.857 405.168L486.957 397.244ZM484.879 404.098C485.902 406.056 488.318 406.814 490.276 405.791C492.234 404.768 492.992 402.352 491.969 400.393L484.879 404.098ZM492.825 402.031C491.802 400.073 489.385 399.315 487.427 400.338C485.469 401.361 484.711 403.778 485.734 405.736L492.825 402.031ZM493.681 405.736C494.704 403.778 493.946 401.361 491.988 400.338C490.03 399.315 487.613 400.073 486.59 402.031L493.681 405.736ZM487.446 400.393C486.423 402.352 487.181 404.768 489.139 405.791C491.097 406.814 493.514 406.056 494.536 404.098L487.446 400.393ZM493.558 405.168C495.746 404.865 497.274 402.845 496.97 400.656C496.667 398.468 494.647 396.941 492.459 397.244L493.558 405.168ZM495.637 396.803C493.449 397.107 491.921 399.127 492.225 401.315C492.528 403.503 494.548 405.031 496.736 404.727L495.637 396.803ZM496.736 396.362C494.548 396.058 492.528 397.586 492.225 399.774C491.921 401.963 493.449 403.983 495.637 404.286L496.736 396.362ZM492.459 403.845C494.647 404.149 496.667 402.621 496.97 400.433C497.274 398.245 495.746 396.225 493.558 395.921L492.459 403.845ZM494.536 396.991C493.514 395.033 491.097 394.275 489.139 395.298C487.181 396.321 486.423 398.738 487.446 400.696L494.536 396.991ZM486.59 399.058C487.613 401.016 490.03 401.774 491.988 400.751C493.946 399.728 494.704 397.311 493.681 395.353L486.59 399.058ZM489.708 396.387L486.162 394.534L485.734 395.353L489.28 397.206L492.825 399.058L493.253 398.239L489.708 396.387ZM488.424 398.844L484.879 396.991L484.451 397.81L487.996 399.663L491.541 401.515L491.969 400.696L488.424 398.844ZM487.996 399.663L487.446 395.701L485.857 395.921L486.407 399.883L486.957 403.845L488.546 403.625L487.996 399.663ZM483.228 400.324L482.679 396.362L481.089 396.583L481.639 400.545L482.189 404.507L483.778 404.286L483.228 400.324ZM481.639 400.545L481.089 404.507L482.679 404.727L483.228 400.765L483.778 396.803L482.189 396.583L481.639 400.545ZM486.407 401.206L485.857 405.168L487.446 405.389L487.996 401.427L488.546 397.465L486.957 397.244L486.407 401.206ZM487.996 401.427L484.451 403.279L484.879 404.098L488.424 402.246L491.969 400.393L491.541 399.574L487.996 401.427ZM489.28 403.884L485.734 405.736L486.162 406.555L489.708 404.703L493.253 402.85L492.825 402.031L489.28 403.884ZM489.708 404.703L493.253 406.555L493.681 405.736L490.135 403.884L486.59 402.031L486.162 402.85L489.708 404.703ZM490.991 402.246L494.536 404.098L494.964 403.279L491.419 401.427L487.874 399.574L487.446 400.393L490.991 402.246ZM491.419 401.427L491.969 405.389L493.558 405.168L493.008 401.206L492.459 397.244L490.869 397.465L491.419 401.427ZM496.187 400.765L496.736 404.727L498.326 404.507L497.776 400.545L497.226 396.583L495.637 396.803L496.187 400.765ZM497.776 400.545L498.326 396.583L496.736 396.362L496.187 400.324L495.637 404.286L497.226 404.507L497.776 400.545ZM493.008 399.883L493.558 395.921L491.969 395.701L491.419 399.663L490.869 403.625L492.459 403.845L493.008 399.883ZM491.419 399.663L494.964 397.81L494.536 396.991L490.991 398.844L487.446 400.696L487.874 401.515L491.419 399.663ZM490.135 397.206L493.681 395.353L493.253 394.534L489.708 396.387L486.162 398.239L486.59 399.058L490.135 397.206ZM489.708 396.387L496.798 392.682L489.708 379.11L482.617 392.682L489.708 396.387ZM491.419 399.663L484.328 403.367L486.237 407.02L490.32 407.587L491.419 399.663ZM497.776 400.545L498.875 408.469L498.875 392.621L497.776 400.545ZM491.419 401.427L490.32 393.503L486.237 394.069L484.328 397.722L491.419 401.427ZM489.708 404.703L482.617 408.407L489.708 421.979L496.798 408.407L489.708 404.703ZM487.996 401.427L495.087 397.722L493.178 394.069L489.095 393.503L487.996 401.427ZM481.639 400.545L480.54 392.621L480.54 408.469L481.639 400.545ZM487.996 399.663L489.095 407.587L493.178 407.02L495.087 403.367L487.996 399.663ZM482.189 393.501C480.143 397.417 481.659 402.25 485.575 404.296C489.491 406.342 494.324 404.826 496.37 400.91L482.189 393.501ZM495.514 402.548C497.56 398.632 496.044 393.799 492.128 391.753C488.212 389.707 483.379 391.223 481.333 395.139L495.514 402.548ZM485.307 391.959C480.931 392.566 477.875 396.606 478.483 400.983C479.09 405.359 483.13 408.414 487.506 407.807L485.307 391.959ZM484.328 408.248C488.704 407.641 491.76 403.601 491.152 399.225C490.545 394.848 486.505 391.793 482.129 392.4L484.328 408.248ZM482.129 408.689C486.505 409.297 490.545 406.241 491.152 401.865C491.76 397.488 488.704 393.448 484.328 392.841L482.129 408.689ZM487.506 393.282C483.13 392.675 479.09 395.73 478.483 400.107C477.875 404.483 480.931 408.523 485.307 409.13L487.506 393.282ZM481.333 405.95C483.379 409.866 488.212 411.382 492.128 409.336C496.044 407.29 497.56 402.457 495.514 398.541L481.333 405.95ZM496.37 400.179C494.324 396.263 489.491 394.747 485.575 396.793C481.659 398.839 480.143 403.672 482.189 407.588L496.37 400.179ZM497.226 407.588C499.272 403.672 497.756 398.839 493.84 396.793C489.924 394.747 485.091 396.263 483.045 400.179L497.226 407.588ZM483.901 398.541C481.855 402.457 483.371 407.29 487.287 409.336C491.203 411.382 496.036 409.866 498.082 405.95L483.901 398.541ZM494.108 409.13C498.484 408.523 501.54 404.483 500.932 400.107C500.325 395.73 496.285 392.675 491.909 393.282L494.108 409.13ZM495.087 392.841C490.711 393.448 487.655 397.488 488.263 401.865C488.87 406.241 492.91 409.297 497.286 408.689L495.087 392.841ZM497.286 392.4C492.91 391.793 488.87 394.848 488.263 399.225C487.655 403.601 490.711 407.641 495.087 408.248L497.286 392.4ZM491.909 407.807C496.285 408.414 500.325 405.359 500.932 400.983C501.54 396.606 498.484 392.566 494.108 391.959L491.909 407.807ZM498.082 395.139C496.036 391.223 491.203 389.707 487.287 391.753C483.371 393.799 481.855 398.632 483.901 402.548L498.082 395.139ZM483.045 400.91C485.091 404.826 489.924 406.342 493.84 404.296C497.756 402.25 499.272 397.417 497.226 393.501L483.045 400.91ZM489.708 396.387L482.617 392.682L482.189 393.501L489.28 397.206L496.37 400.91L496.798 400.091L489.708 396.387ZM488.424 398.844L481.333 395.139L480.905 395.958L487.996 399.663L495.087 403.367L495.514 402.548L488.424 398.844ZM487.996 399.663L486.896 391.739L485.307 391.959L486.407 399.883L487.506 407.807L489.095 407.587L487.996 399.663ZM483.228 400.324L482.129 392.4L480.54 392.621L481.639 400.545L482.739 408.469L484.328 408.248L483.228 400.324ZM481.639 400.545L480.54 408.469L482.129 408.689L483.228 400.765L484.328 392.841L482.739 392.621L481.639 400.545ZM486.407 401.206L485.307 409.13L486.896 409.351L487.996 401.427L489.095 393.503L487.506 393.282L486.407 401.206ZM487.996 401.427L480.905 405.131L481.333 405.95L488.424 402.246L495.514 398.541L495.087 397.722L487.996 401.427ZM489.28 403.884L482.189 407.588L482.617 408.407L489.708 404.703L496.798 400.998L496.37 400.179L489.28 403.884ZM489.708 404.703L496.798 408.407L497.226 407.588L490.135 403.884L483.045 400.179L482.617 400.998L489.708 404.703ZM490.991 402.246L498.082 405.95L498.51 405.131L491.419 401.427L484.328 397.722L483.901 398.541L490.991 402.246ZM491.419 401.427L492.519 409.351L494.108 409.13L493.008 401.206L491.909 393.282L490.32 393.503L491.419 401.427ZM496.187 400.765L497.286 408.689L498.875 408.469L497.776 400.545L496.676 392.621L495.087 392.841L496.187 400.765ZM497.776 400.545L498.875 392.621L497.286 392.4L496.187 400.324L495.087 408.248L496.676 408.469L497.776 400.545ZM493.008 399.883L494.108 391.959L492.519 391.739L491.419 399.663L490.32 407.587L491.909 407.807L493.008 399.883ZM491.419 399.663L498.51 395.958L498.082 395.139L490.991 398.844L483.901 402.548L484.328 403.367L491.419 399.663ZM490.135 397.206L497.226 393.501L496.798 392.682L489.708 396.387L482.617 400.091L483.045 400.91L490.135 397.206Z" fill="white" mask="url(#path-18-inside-2_55_746)"/>
<path fill-rule="evenodd" clip-rule="evenodd" d="M399.111 452.802L402.395 452.802L479.51 452.802L449.138 494.697L399.111 452.802Z" fill="white"/>
<path fill-rule="evenodd" clip-rule="evenodd" d="M402.395 452.802L399.111 452.802L418.982 435.824L421.459 436.596L402.395 452.802Z" fill="white"/>
<path fill-rule="evenodd" clip-rule="evenodd" d="M421.459 436.596L418.982 435.824L424.366 426.343L424.26 429.074L423.936 437.367L421.459 436.596Z" fill="white"/>
<path fill-rule="evenodd" clip-rule="evenodd" d="M423.936 437.367L432.269 432.517L434.921 430.973L438.074 432.517L479.51 452.802L423.936 437.367Z" fill="white"/>
<path fill-rule="evenodd" clip-rule="evenodd" d="M462.062 421.491L472.617 424.393L477.571 425.755L497.388 431.203L499.757 431.855L479.51 452.802L463.168 423.476L462.062 421.491Z" fill="white"/>
<path fill-rule="evenodd" clip-rule="evenodd" d="M424.26 429.074L424.366 426.343L434.921 430.973L432.269 432.517L424.26 429.074Z" fill="white"/>
<path fill-rule="evenodd" clip-rule="evenodd" d="M438.074 432.517L434.921 430.973L462.062 421.491L463.168 423.476L438.074 432.517Z" fill="white"/>
<path fill-rule="evenodd" clip-rule="evenodd" d="M477.571 425.755L472.617 424.393L496.957 419.948L499.757 431.855L497.388 431.203L495.018 422.815L477.571 425.755Z" fill="white"/>
<path d="M399.111 452.802L402.395 452.802M399.111 452.802L449.138 494.697L479.51 452.802M399.111 452.802L418.982 435.824M402.395 452.802L479.51 452.802M402.395 452.802L421.459 436.596M479.51 452.802L438.074 432.517M479.51 452.802L423.936 437.367M479.51 452.802L499.757 431.855M479.51 452.802L463.168 423.476M418.982 435.824L421.459 436.596M418.982 435.824L424.366 426.343M421.459 436.596L423.936 437.367M424.366 426.343L424.26 429.074M424.366 426.343L434.921 430.973M424.26 429.074L423.936 437.367M424.26 429.074L432.269 432.517M423.936 437.367L432.269 432.517M432.269 432.517L434.921 430.973M434.921 430.973L438.074 432.517M434.921 430.973L462.062 421.491M438.074 432.517L463.168 423.476M462.062 421.491L472.617 424.393M462.062 421.491L463.168 423.476M472.617 424.393L477.571 425.755M472.617 424.393L496.957 419.948L499.757 431.855M477.571 425.755L497.388 431.203M477.571 425.755L495.018 422.815L497.388 431.203M497.388 431.203L499.757 431.855" stroke="#F3F3F3"/>
<path d="M569.457 477.278C566.222 477.278 563.598 474.655 563.598 471.419V426.881C563.598 423.491 566.347 420.742 569.737 420.742H589.152C592.289 420.742 594.832 423.285 594.832 426.422C594.832 429.559 592.289 432.102 589.152 432.102H576.242C575.731 432.102 575.316 432.517 575.316 433.028V471.419C575.316 474.655 572.693 477.278 569.457 477.278Z" fill="white"/>
<path d="M619.083 477.278C615.634 477.278 613.235 473.848 614.419 470.608L616.583 464.684C617.366 462.54 617.34 460.185 616.511 458.059L604.349 426.881C603.331 424.272 604.625 421.332 607.237 420.321C609.853 419.308 612.795 420.617 613.794 423.239L622.537 446.187C622.544 446.208 622.552 446.228 622.559 446.248C622.76 446.786 623.478 446.745 623.614 446.187L631.972 423.25C632.937 420.602 635.905 419.282 638.518 420.339C641.014 421.349 642.254 424.162 641.317 426.687L623.739 474.04C623.016 475.986 621.159 477.278 619.083 477.278Z" fill="white"/>
<path d="M531.107 477.491C529.659 477.491 528.166 477.389 526.628 477.184C525.09 477.005 523.608 476.736 522.182 476.377C520.756 475.993 519.43 475.57 518.204 475.11C517.756 474.938 517.334 474.762 516.938 474.584C515.764 474.053 514.984 472.953 514.663 471.705C514.534 471.199 514.484 470.676 514.516 470.155L514.617 468.529C514.629 468.332 514.656 468.137 514.699 467.945L514.978 466.679C515.398 464.779 517.557 463.849 519.307 464.7C520.488 465.263 521.67 465.737 522.851 466.121C524.032 466.505 525.191 466.8 526.327 467.005C527.486 467.209 528.589 467.312 529.637 467.312C531.687 467.312 533.314 466.992 534.517 466.352C535.743 465.711 536.623 464.841 537.158 463.74C537.715 462.638 537.994 461.409 537.994 460.052C537.994 457.619 537.247 455.891 535.754 454.866C534.261 453.842 532.043 453.33 529.102 453.33C528.512 453.33 527.492 453.33 526.522 453.33C525.141 453.33 523.835 452.701 522.974 451.621C522.705 451.283 522.486 450.909 522.322 450.509L522.262 450.36C521.874 449.41 521.817 448.357 522.101 447.37L522.131 447.266C522.244 446.875 522.418 446.503 522.646 446.165C523.369 445.097 524.574 444.457 525.864 444.457C526.752 444.457 527.68 444.457 528.199 444.457C530.227 444.457 531.876 444.137 533.147 443.496C534.439 442.856 535.397 441.998 536.021 440.923C536.645 439.847 536.957 438.669 536.957 437.389C536.957 435.878 536.612 434.649 535.921 433.701C535.253 432.728 534.328 432.011 533.147 431.55C531.988 431.089 530.662 430.859 529.169 430.859C528.21 430.859 527.219 430.961 526.194 431.166C525.191 431.345 524.143 431.653 523.051 432.088C521.959 432.498 520.834 433.048 519.675 433.74C517.949 434.75 515.603 434.015 515.077 432.086L514.755 430.903C514.708 430.733 514.675 430.559 514.654 430.384L514.449 428.635C514.389 428.129 514.408 427.618 514.505 427.118C514.754 425.824 515.499 424.662 516.657 424.034C517.077 423.806 517.515 423.584 517.97 423.368C519.129 422.831 520.377 422.357 521.714 421.947C523.051 421.512 524.466 421.179 525.96 420.948C527.453 420.718 528.99 420.603 530.573 420.603C534.495 420.603 537.76 421.192 540.367 422.37C542.997 423.522 544.958 425.135 546.25 427.21C547.565 429.284 548.223 431.665 548.223 434.354C548.223 437.888 547.387 440.692 545.716 442.766C544.14 444.721 542.199 446.085 539.891 446.857C539.64 446.941 539.464 447.174 539.464 447.44C539.464 447.718 539.656 447.958 539.924 448.03C541.571 448.472 543.078 449.15 544.445 450.065C545.938 451.038 547.131 452.434 548.022 454.252C548.913 456.044 549.359 458.375 549.359 461.243C549.359 464.162 548.78 466.864 547.621 469.348C546.484 471.806 544.579 473.778 541.905 475.263C539.253 476.748 535.654 477.491 531.107 477.491Z" fill="white"/>
<line y1="-2" x2="90.831" y2="-2" transform="matrix(0.213587 -0.99404 0.944685 0.263918 1125.5 197.818)" stroke="#CCEAF9" stroke-width="4" stroke-dasharray="20 20"/>
<path d="M1001.3 179.87L992.586 139.871" stroke="#CCEAF9" stroke-width="4" stroke-dasharray="20 20"/>
<path d="M1144.9 107.528L990.026 110.715" stroke="#CCEAF9" stroke-width="4" stroke-dasharray="20 20"/>
<path d="M1127.25 193.676L1012.6 192.155" stroke="#CCEAF9" stroke-width="4" stroke-dasharray="20 20"/>
<path d="M847.501 29.3104L758.44 40.5889" stroke="#CCEAF9" stroke-width="4" stroke-dasharray="20 20"/>
<path d="M990.965 110.458L864.236 31.1545" stroke="#CCEAF9" stroke-width="4" stroke-dasharray="20 20"/>
<path d="M759.8 22.1586L764.095 36.0861L777.367 39.1685L764.514 43.6903L761.775 58.0054L757.48 44.0779L744.209 40.9955L757.061 36.4737L759.8 22.1586Z" fill="#99D5F3"/>
<path d="M858.354 16.7285L860.942 24.5759L869.043 26.2809L861.178 28.8655L859.468 36.9497L856.88 29.1023L848.779 27.3974L856.644 24.8127L858.354 16.7285Z" fill="#99D5F3"/>
<path d="M911.089 51.6219L913.677 59.4693L921.778 61.1743L913.913 63.7589L912.203 71.8431L909.615 63.9957L901.514 62.2908L909.379 59.7062L911.089 51.6219Z" fill="#99D5F3"/>
<path d="M988.282 86.0901L994.653 103.898L1014.88 107.673L995.19 113.647L990.815 132.047L984.444 114.239L964.219 110.464L983.907 104.49L988.282 86.0901Z" fill="#99D5F3"/>
<path d="M1005.17 174.588L1008.35 184.218L1018.29 186.311L1008.64 189.483L1006.54 199.405L1003.36 189.774L993.418 187.681L1003.07 184.509L1005.17 174.588Z" fill="#99D5F3"/>
<path d="M1139.69 92.4986L1144.08 104.605L1158.05 107.16L1144.44 111.234L1141.41 123.75L1137.02 111.643L1123.05 109.088L1136.65 105.014L1139.69 92.4986Z" fill="#99D5F3"/>
<path d="M1122.96 166.253L1129.41 185.51L1149.66 189.675L1129.99 196.039L1125.7 215.887L1119.25 196.631L1099 192.466L1118.67 186.102L1122.96 166.253Z" fill="#99D5F3"/>
<path d="M30.4105 44.6258L23.3941 118.71" stroke="#CCEAF9" stroke-width="4" stroke-dasharray="20 20"/>
<path d="M137.285 75.5796L143.083 119.176" stroke="#CCEAF9" stroke-width="4" stroke-dasharray="20 20"/>
<path d="M24.5755 118.189L142.659 116.368" stroke="#CCEAF9" stroke-width="4" stroke-dasharray="20 20"/>
<path d="M33.2087 45.3302L124.509 54.5351" stroke="#CCEAF9" stroke-width="4" stroke-dasharray="20 20"/>
<line y1="-2" x2="88.1549" y2="-2" transform="matrix(0.990365 -0.091684 0.0621944 1.00315 204.005 150.776)" stroke="#CCEAF9" stroke-width="4" stroke-dasharray="20 20"/>
<path d="M141.842 116.561L204.407 150.004" stroke="#CCEAF9" stroke-width="4" stroke-dasharray="20 20"/>
<path d="M285.096 123.586L288.653 137.1L301.429 140.629L288.721 144.395L285.416 157.974L281.859 144.459L269.083 140.93L281.791 137.164L285.096 123.586Z" fill="#99D5F3"/>
<path d="M204.706 126.98L209.337 143.264L226.013 147.504L209.419 152.055L205.092 168.422L200.461 152.138L183.785 147.898L200.379 143.347L204.706 126.98Z" fill="#99D5F3"/>
<path d="M137.013 46.4825L139.184 54.4521L146.991 56.5306L139.224 58.7542L137.202 66.7627L135.031 58.7932L127.225 56.7147L134.991 54.4911L137.013 46.4825Z" fill="#99D5F3"/>
<path d="M30.3714 28.9575L34.0236 42.4713L47.1534 45.9968L34.0915 49.7662L30.6917 63.3457L27.0395 49.8318L13.9096 46.3064L26.9715 42.537L30.3714 28.9575Z" fill="#99D5F3"/>
<path d="M24.3307 103.969L27.0993 114.712L37.0367 117.519L27.1533 120.51L24.5852 131.303L21.8166 120.56L11.8792 117.753L21.7626 114.761L24.3307 103.969Z" fill="#99D5F3"/>
<path d="M143.746 94.0384L149.057 111.705L168.215 116.297L149.146 121.245L144.165 139.007L138.854 121.341L119.697 116.749L138.765 111.801L143.746 94.0384Z" fill="#99D5F3"/>
<path d="M857.061 98.9248L857.215 99.4785L857.773 99.623L865.093 101.524L857.773 103.426L857.215 103.57L857.061 104.125L855.049 111.33L853.039 104.125L852.883 103.57L852.327 103.426L845.004 101.524L852.327 99.623L852.883 99.4785L853.039 98.9248L855.049 91.7178L857.061 98.9248Z" stroke="#80CAF0" stroke-width="2" stroke-linecap="round"/>
<path d="M859.912 183.763L860.065 184.317L860.622 184.463L879.312 189.359L860.622 194.256L860.065 194.401L859.912 194.956L854.848 213.25L849.785 194.956L849.632 194.401L849.075 194.256L830.383 189.359L849.075 184.463L849.632 184.317L849.785 183.763L854.848 165.468L859.912 183.763Z" stroke="#80CAF0" stroke-width="2" stroke-linecap="round"/>
<path d="M800.298 120.62L800.454 121.174L801.012 121.315L803.889 122.051L801.012 122.786L800.454 122.928L800.298 123.481L799.464 126.419L798.631 123.481L798.474 122.928L797.916 122.786L795.038 122.051L797.916 121.315L798.474 121.174L798.631 120.62L799.464 117.681L800.298 120.62Z" stroke="#80CAF0" stroke-width="2" stroke-linecap="round"/>
<path d="M799.925 121.795L800.063 122.051L799.925 122.307L799.343 123.385L798.762 122.307L798.623 122.051L798.762 121.795L799.343 120.716L799.925 121.795Z" stroke="#80CAF0" stroke-width="2" stroke-linecap="round"/>
<path d="M1169.56 37.176L1169.72 36.6233L1170.28 36.4827L1177.17 34.7483L1170.28 33.0139L1169.72 32.8733L1169.56 32.3206L1167.63 25.6155L1165.7 32.3206L1165.54 32.8733L1164.98 33.0139L1158.09 34.7483L1164.98 36.4827L1165.54 36.6233L1165.7 37.176L1167.63 43.8821L1169.56 37.176Z" stroke="#80CAF0" stroke-width="2" stroke-linecap="round"/>
<path d="M532.697 59.5964L533.249 59.4363L533.389 58.8787L533.741 57.4656L534.095 58.8787L534.234 59.4363L534.786 59.5964L536.394 60.0632L534.786 60.53L534.234 60.6902L534.095 61.2478L533.741 62.6619L533.389 61.2478L533.249 60.6902L532.697 60.53L531.089 60.0632L532.697 59.5964Z" stroke="#80CAF0" stroke-width="2" stroke-linecap="round"/>
<path d="M533.657 59.873L533.741 59.8271L533.826 59.873L534.345 60.1602L533.826 60.4453L533.741 60.4922L533.657 60.4453L533.138 60.1602L533.657 59.873Z" stroke="#80CAF0" stroke-width="2" stroke-linecap="round"/>
<path d="M490.805 58.5204L491.358 58.3612L491.498 57.8036L493.233 50.9159L494.967 57.8036L495.108 58.3612L495.66 58.5204L502.365 60.451L495.66 62.3807L495.108 62.5399L494.967 63.0975L493.233 69.9862L491.498 63.0975L491.358 62.5399L490.805 62.3807L484.099 60.451L490.805 58.5204Z" stroke="#80CAF0" stroke-width="2" stroke-linecap="round"/>
<path d="M523.957 33.462L524.127 33.5118L523.957 33.5626L523.786 33.5118L523.957 33.462Z" stroke="#80CAF0" stroke-width="2" stroke-linecap="round"/>
<mask id="path-58-inside-3_55_746" fill="white">
<path d="M522.369 33.5698L523.62 32.8684L523.957 30.2634L524.294 32.8684L525.545 33.5698L524.294 34.2712L523.957 36.8762L523.62 34.2712L522.369 33.5698Z"/>
</mask>
<path d="M522.369 33.5698L521.391 31.8253L518.28 33.5698L521.391 35.3143L522.369 33.5698ZM523.62 32.8684L524.598 34.6129L525.475 34.1215L525.604 33.1249L523.62 32.8684ZM523.957 30.2634L525.941 30.007H521.974L523.957 30.2634ZM524.294 32.8684L522.31 33.1249L522.439 34.1215L523.316 34.6129L524.294 32.8684ZM525.545 33.5698L526.523 35.3143L529.634 33.5698L526.523 31.8253L525.545 33.5698ZM524.294 34.2712L523.316 32.5267L522.439 33.0182L522.31 34.0148L524.294 34.2712ZM523.957 36.8762L521.974 37.1327H525.941L523.957 36.8762ZM523.62 34.2712L525.604 34.0148L525.475 33.0182L524.598 32.5267L523.62 34.2712ZM522.369 33.5698L523.348 35.3143L524.598 34.6129L523.62 32.8684L522.642 31.124L521.391 31.8253L522.369 33.5698ZM523.62 32.8684L525.604 33.1249L525.941 30.5199L523.957 30.2634L521.974 30.007L521.637 32.612L523.62 32.8684ZM523.957 30.2634L521.974 30.5199L522.31 33.1249L524.294 32.8684L526.277 32.612L525.941 30.007L523.957 30.2634ZM524.294 32.8684L523.316 34.6129L524.567 35.3143L525.545 33.5698L526.523 31.8253L525.272 31.124L524.294 32.8684ZM525.545 33.5698L524.567 31.8253L523.316 32.5267L524.294 34.2712L525.272 36.0157L526.523 35.3143L525.545 33.5698ZM524.294 34.2712L522.31 34.0148L521.974 36.6198L523.957 36.8762L525.941 37.1327L526.277 34.5277L524.294 34.2712ZM523.957 36.8762L525.941 36.6198L525.604 34.0148L523.62 34.2712L521.637 34.5277L521.974 37.1327L523.957 36.8762ZM523.62 34.2712L524.598 32.5267L523.348 31.8253L522.369 33.5698L521.391 35.3143L522.642 36.0157L523.62 34.2712Z" fill="#80CAF0" mask="url(#path-58-inside-3_55_746)"/>
<path d="M143.176 258.7L142.623 258.541L142.483 257.983L140.748 251.095L139.014 257.983L138.873 258.541L138.321 258.7L131.615 260.63L138.321 262.56L138.873 262.719L139.014 263.277L140.748 270.166L142.483 263.277L142.623 262.719L143.176 262.56L149.882 260.63L143.176 258.7Z" stroke="#80CAF0" stroke-width="2" stroke-linecap="round"/>
<path d="M92.5977 189.656L92.0469 189.495L91.9082 188.938L88 173.16L84.0918 188.938L83.9531 189.495L83.4014 189.656L68.5615 194L83.4014 198.344L83.9531 198.505L84.0918 199.063L88 214.841L91.9082 199.063L92.0469 198.505L92.5977 198.344L107.439 194L92.5977 189.656Z" stroke="#80CAF0" stroke-width="2" stroke-linecap="round"/>
<path d="M253.174 89.5604L252.622 89.7196L252.481 90.2772L250.747 97.1649L249.012 90.2772L248.872 89.7196L248.319 89.5604L241.614 87.6298L248.319 85.7001L248.872 85.5409L249.012 84.9833L250.747 78.0946L252.481 84.9833L252.622 85.5409L253.174 85.7001L259.88 87.6298L253.174 89.5604Z" stroke="#80CAF0" stroke-width="2" stroke-linecap="round"/>
<path d="M346.929 461.476L306.893 422.469C280.681 396.929 250.867 375.37 218.402 358.478C201.072 349.461 183.063 341.813 164.54 335.605L158.134 333.459C128.455 323.512 97.84 316.616 66.7628 312.877L33.5 308.875L-3.71635 308.875C-4.81355 308.875 -5.70309 309.764 -5.70278 310.861L-5.61952 605.134C-5.6194 605.544 -5.28802 605.877 -4.87778 605.88L1207.39 606.223C1207.6 606.224 1207.76 606.059 1207.77 605.854L1208.2 332.286C1208.2 331.72 1207.7 331.28 1207.14 331.344L1198.85 332.284L1190.02 333.344L1137.01 338.703L1101.67 342.943L1066.34 348.183L997.185 363.913L928.032 381.643L869.54 405.643C824.165 424.26 780.22 446.191 738.063 471.257L687.915 501.075L634.995 525.932C606.711 539.218 576.131 546.927 544.929 548.637L537.892 549.023C507.887 550.668 477.877 545.872 449.879 534.958C427.031 526.052 405.914 513.224 387.48 497.052L346.929 461.476Z" fill="white" stroke="#72BCE2" stroke-width="4"/>
<path d="M7.65049 370.268L9.63748 370.269V370.269C75.0472 370.268 138.256 393.896 187.627 436.801L254.569 494.976C413.634 633.21 646.59 644.778 818.567 522.984V522.984V522.984C918.627 438.714 1047.18 392.5 1178 392.5V392.5" stroke="#0D547A" stroke-opacity="0.5" stroke-width="4" stroke-dasharray="20 20"/>
<path d="M877.248 559.132C889.413 537.081 938.49 447.655 927.057 449.194C915.624 450.732 781.617 510.172 777.783 520.603L803.75 527.608L804.521 533.337C804.675 534.483 809.094 532.722 810.237 532.568C811.381 532.414 873.972 560.739 877.248 559.132Z" fill="white"/>
<path d="M927.057 449.194C938.49 447.655 889.413 537.081 877.248 559.132C873.972 560.739 811.381 532.414 810.237 532.568M927.057 449.194C915.624 450.732 781.617 510.172 777.783 520.603L803.75 527.608M927.057 449.194L803.75 527.608M927.057 449.194L810.237 532.568M803.75 527.608C803.956 529.136 804.398 532.421 804.521 533.337C804.675 534.483 809.094 532.722 810.237 532.568" stroke="#0D547A" stroke-width="4"/>
</g>
<defs>
<clipPath id="clip0_55_746">
<rect width="1200" height="600" fill="white"/>
</clipPath>
</defs>
</svg>
