<svg width="512" height="512" viewBox="0 0 512 512" fill="none" xmlns="http://www.w3.org/2000/svg">
<rect width="512" height="512" fill="white"/>
<circle cx="256" cy="256" r="200" fill="#0D547A"/>
<path d="M303.611 298.929C356.078 298.929 407.611 246.93 398.611 380.929C400.544 389.598 401.504 397.358 401.617 404.305C401.32 401.336 400.888 398.236 400.307 394.999C363.941 432.628 312.945 456.029 256.482 456.029C235.605 456.029 215.476 452.828 196.556 446.894C192.689 436.236 192.959 420.471 199.111 397.429C224.611 301.929 232.111 294.43 303.611 298.929Z" fill="#0C3B6D"/>
<path d="M230.739 268.289C225.635 279.316 240.035 352.998 214.739 341.289C200.739 331.289 141.739 286.289 127.239 271.789C129.239 252.789 137.239 244.789 173.239 250.79C199.182 255.113 235.843 257.263 230.739 268.289Z" fill="#0C3B6D"/>
<path d="M402 255.5C402 324.5 355.348 360.5 301.5 360.5C247.652 360.5 204 316.848 204 263C204 204.5 235.652 160 289.5 160C343.348 160 402 201.652 402 255.5Z" fill="#2CA8E1"/>
<path d="M316 294.141C313 319.641 265 315.141 260.5 310.141C223 301.141 208 266.68 208 245.141C208 223.602 225.5 207 248.5 207C271.5 207 324.5 266.641 316 294.141Z" fill="white"/>
<path d="M257.889 224.65C257.889 230.725 246.016 236.15 239.389 236.15C232.762 236.15 229.889 224.65 231.389 217.15C234.389 210.65 236.889 212.15 242.389 212.15C249.017 212.15 257.889 218.574 257.889 224.65Z" fill="black"/>
<path d="M326 228C326 232.971 322.194 237 317.5 237C312.806 237 309 232.971 309 228C309 223.029 313.754 217 318.448 217C323.143 217 326 223.029 326 228Z" fill="black"/>
<path d="M244.5 197.538C244.5 201.128 240.761 206.038 238 206.038C234.5 207.038 232 203.628 232 200.038C232.5 195.038 235.5 190.538 239 191.038C241.761 191.038 245 193.538 244.5 197.538Z" fill="black"/>
<path d="M414.054 204C417.054 216 406.054 233 393.554 225C384.054 216.5 381.054 215.5 373.054 204C365.054 192.5 382.232 183 393.554 183C404.876 183 414.054 192.402 414.054 204Z" fill="#2CA8E1"/>
<path d="M291.514 157.576C290.514 163.576 285.089 161.576 279.014 161.576C272.939 161.576 258.014 167.165 258.014 163.576C257.514 149.076 270.514 140.076 279.014 141.076C285.089 141.076 292.514 151.576 291.514 157.576Z" fill="#2CA8E1"/>
<ellipse cx="317.45" cy="223.349" rx="4.5" ry="6.11517" transform="rotate(21.8113 317.45 223.349)" fill="white"/>
<ellipse cx="236.811" cy="195.868" rx="2.5" ry="4.27044" transform="rotate(20.0244 236.811 195.868)" fill="white"/>
<path d="M224 242V242C224.7 248.735 234.334 249.199 235.677 242.562L236.702 237.5L237 236C237 236 231.5 256.5 254 259.5C264.5 259.5 265.5 254 265.5 254" stroke="black" stroke-width="2" stroke-linecap="round"/>
<path fill-rule="evenodd" clip-rule="evenodd" d="M114.077 210.799L116.675 211.053L177.674 216.995L156.804 245.718L114.077 210.799Z" fill="white"/>
<path fill-rule="evenodd" clip-rule="evenodd" d="M116.675 211.053L114.077 210.799L128.517 199.742L130.535 200.505L116.675 211.053Z" fill="white"/>
<path fill-rule="evenodd" clip-rule="evenodd" d="M130.535 200.505L128.517 199.742L132.063 193.127L132.184 195.144L132.552 201.268L130.535 200.505Z" fill="white"/>
<path fill-rule="evenodd" clip-rule="evenodd" d="M132.552 201.268L138.779 198.314L140.761 197.374L143.371 198.761L177.674 216.995L132.552 201.268Z" fill="white"/>
<path fill-rule="evenodd" clip-rule="evenodd" d="M161.516 192.435L170.083 195.4L174.105 196.792L190.19 202.359L192.114 203.024L177.674 216.995L162.54 193.992L161.516 192.435Z" fill="white"/>
<path fill-rule="evenodd" clip-rule="evenodd" d="M132.184 195.144L132.063 193.127L140.761 197.374L138.779 198.314L132.184 195.144Z" fill="white"/>
<path fill-rule="evenodd" clip-rule="evenodd" d="M143.371 198.761L140.761 197.374L161.516 192.435L162.54 193.992L143.371 198.761Z" fill="white"/>
<path fill-rule="evenodd" clip-rule="evenodd" d="M174.105 196.792L170.083 195.4L189.002 193.98L192.114 203.024L190.19 202.359L187.685 195.956L174.105 196.792Z" fill="white"/>
<path d="M114.077 210.799L116.675 211.053M114.077 210.799L156.804 245.718L177.674 216.995M114.077 210.799L128.517 199.742M116.675 211.053L177.674 216.995M116.675 211.053L130.535 200.505M177.674 216.995L143.371 198.761M177.674 216.995L132.552 201.268M177.674 216.995L192.114 203.024M177.674 216.995L162.54 193.992M128.517 199.742L130.535 200.505M128.517 199.742L132.063 193.127M130.535 200.505L132.552 201.268M132.063 193.127L132.184 195.144M132.063 193.127L140.761 197.374M132.184 195.144L132.552 201.268M132.184 195.144L138.779 198.314M132.552 201.268L138.779 198.314M138.779 198.314L140.761 197.374M140.761 197.374L143.371 198.761M140.761 197.374L161.516 192.435M143.371 198.761L162.54 193.992M161.516 192.435L170.083 195.4M161.516 192.435L162.54 193.992M170.083 195.4L174.105 196.792M170.083 195.4L189.002 193.98L192.114 203.024M174.105 196.792L190.19 202.359M174.105 196.792L187.685 195.956L190.19 202.359M190.19 202.359L192.114 203.024" stroke="#F3F3F3"/>
</svg>
