<svg width="512" height="512" viewBox="0 0 512 512" fill="none" xmlns="http://www.w3.org/2000/svg">
<g clip-path="url(#clip0_55_574)">
<rect width="512" height="512" fill="#0D547A"/>
<path fill-rule="evenodd" clip-rule="evenodd" d="M-17 -28H514V513.159H-17V-28ZM-16.1703 -27.0336H48.5453L59.1653 48.3421H-16.1703V-27.0336ZM50.2047 -27.0336H114.92L126.965 19.622L60.8247 48.3421L50.2047 -27.0336ZM181.295 -27.0336H116.58L128.624 19.622H193.34L181.295 -27.0336ZM182.955 -27.0336H247.67L259.715 19.622H194.999L182.955 -27.0336ZM314.045 -27.0336H249.33L261.374 19.622L343.647 50.2748L314.045 -27.0336ZM315.705 -27.0336H380.42L410.022 50.2748H345.307L315.705 -27.0336ZM446.795 -27.0336H382.08L411.682 50.2748H476.397L446.795 -27.0336ZM448.455 -27.0336H513.17V48.3421L478.057 50.2748L448.455 -27.0336ZM59.1653 50.2748H-16.1703V125.65H37.9253L59.1653 50.2748ZM60.8247 50.2748L126.965 21.5547L100.446 96.9304L39.5847 125.65L60.8247 50.2748ZM193.34 21.5547H128.624L102.106 96.9304H161.543L193.34 21.5547ZM194.999 21.5547H259.715L227.918 96.9304H163.203L194.999 21.5547ZM343.647 52.2075L261.374 21.5547L229.578 96.9304L303.425 125.65L343.647 52.2075ZM345.307 52.2075H410.022L388.782 127.583L305.085 125.65L345.307 52.2075ZM476.397 52.2075H411.682L390.441 127.583H455.157L476.397 52.2075ZM478.057 52.2075L513.17 50.2748V125.65L456.817 127.583L478.057 52.2075ZM37.9253 127.583H-16.1703V202.959H59.1653L37.9253 127.583ZM39.5847 127.583L100.446 98.8631L151.823 194.416L60.8247 202.959L39.5847 127.583ZM161.543 98.8631H102.106L153.483 194.416H223.477L161.543 98.8631ZM163.203 98.8631H227.918L289.852 194.416H225.136L163.203 98.8631ZM303.425 127.583L229.578 98.8631L291.511 194.416L324.665 202.959L303.425 127.583ZM305.085 127.583L388.782 129.516L391.04 202.959H326.325L305.085 127.583ZM455.157 129.516H390.441L392.7 202.959H457.415L455.157 129.516ZM456.817 129.516L513.17 127.583V202.959H459.075L456.817 129.516ZM59.1653 204.892H-16.1703V280.267H37.9253L59.1653 204.892ZM60.8247 204.892L151.823 196.349L138.879 269.637L39.5847 280.267L60.8247 204.892ZM223.477 196.349H153.483L140.538 269.637H199.976L223.477 196.349ZM225.136 196.349H289.852L259.715 313.007L201.635 269.637L225.136 196.349ZM324.665 204.892L291.511 196.349L261.374 313.007H331.368L324.665 204.892ZM326.325 204.892H391.04L397.743 313.007H333.027L326.325 204.892ZM457.415 204.892H392.7L399.402 313.007H464.118L457.415 204.892ZM459.075 204.892H513.17V280.267L465.777 313.007L459.075 204.892ZM37.9253 282.2H-16.1703V357.576L93.7439 346.946L37.9253 282.2ZM39.5847 282.2L138.879 271.57L160.119 346.946H95.4033L39.5847 282.2ZM199.976 271.57H140.538L161.778 346.946H231.772L199.976 271.57ZM201.635 271.57L259.715 314.94L288.192 383.5L233.431 346.946L201.635 271.57ZM331.368 314.94H261.374L289.852 383.5L352.608 390.316L331.368 314.94ZM333.027 314.94H397.743L418.983 390.316H354.267L333.027 314.94ZM464.118 314.94H399.402L420.642 390.316H474.738L464.118 314.94ZM465.777 314.94L513.17 282.2V357.576L476.5 390.316L465.777 314.94ZM93.7439 348.879L-16.1703 359.508V434.884H37.9253L93.7439 348.879ZM95.4033 348.879H160.119L104.3 434.884H39.5847L95.4033 348.879ZM231.772 348.879H161.778L105.96 434.884H165.397L231.772 348.879ZM233.431 348.879L288.192 383.5L231.772 434.884H167.056L233.431 348.879ZM352.608 390.316L289.852 383.5L233.431 434.884L331.368 465.692L352.608 390.316ZM354.267 390.316H418.983L397.743 465.692H333.027L354.267 390.316ZM474.738 390.316H420.642L399.402 465.692H464.118L474.738 390.316ZM476.5 390.316L491.5 378.5L513.17 359.508V434.884L465.777 465.692L476.5 390.316ZM37.9253 436.817H-16.1703V512.193H48.5453L37.9253 436.817ZM39.5847 436.817H104.3L114.92 512.193H50.2047L39.5847 436.817ZM165.397 436.817H105.96L116.58 512.193H181.295L165.397 436.817ZM167.056 436.817H231.772L247.67 512.193H182.955L167.056 436.817ZM331.368 467.624L233.431 436.817L249.33 512.193L341.988 543L331.368 467.624ZM333.027 467.624H397.743L408.363 543H343.647L333.027 467.624ZM464.118 467.624H399.402L410.022 543H474.738L464.118 467.624ZM465.777 467.624L513.17 436.817V512.193L476.397 543L465.777 467.624Z" fill="white" fill-opacity="0.2"/>
<path d="M215.149 17.0001L217.514 27.4631L226.297 30.2803L217.514 33.0974L215.149 43.5604L212.784 33.0974L204 30.2803L212.784 27.4631L215.149 17.0001Z" fill="white"/>
<path d="M281.421 17.0002L282.866 22.9025L288.234 24.4916L282.866 26.0808L281.421 31.983L279.976 26.0808L274.608 24.4916L279.976 22.9025L281.421 17.0002Z" fill="white"/>
<path d="M315.486 44.922L316.932 50.8242L322.299 52.4134L316.932 54.0025L315.486 59.9047L314.041 54.0025L308.673 52.4134L314.041 50.8242L315.486 44.922Z" fill="white"/>
<path d="M365.965 73.5256L369.578 86.9397L382.998 90.5515L369.578 94.1632L365.965 107.577L362.352 94.1632L348.933 90.5515L362.352 86.9397L365.965 73.5256Z" fill="white"/>
<path d="M374.017 139.586L375.791 146.83L382.378 148.78L375.791 150.73L374.017 157.974L372.243 150.73L365.655 148.78L372.243 146.83L374.017 139.586Z" fill="white"/>
<path d="M467.232 84.422L469.728 93.5436L479 95.9996L469.728 98.4555L467.232 107.577L464.736 98.4555L455.464 95.9996L464.736 93.5436L467.232 84.422Z" fill="white"/>
<path d="M453.296 138.224L456.91 152.711L470.329 156.612L456.91 160.513L453.296 175L449.683 160.513L436.264 156.612L449.683 152.711L453.296 138.224Z" fill="white"/>
<path d="M157.034 303.495C124.389 281.282 118.003 245.127 156.322 254.652C186.77 262.221 229.244 269.299 224.912 278.661C224.243 280.106 224.317 282.98 224.808 286.755C239.504 264.953 258.758 297.094 303.755 299.926C356.222 299.926 407.755 247.926 398.755 381.926C456.254 591.424 354.222 533.426 301.755 533.426C249.288 533.426 172.755 579.924 199.255 398.426C202.837 373.888 206.055 354.103 209.116 338.244C196.952 330.324 176.684 316.865 157.034 303.495Z" fill="#80CAF0"/>
<path d="M279.158 144.076C285.233 144.076 292.658 154.576 291.658 160.576C291.633 160.729 291.603 160.877 291.571 161.02C320.396 161.548 350.376 173.863 371.835 193.476C376.191 188.349 384.977 185.001 391.698 185C403.02 185 412.198 194.403 412.198 206C412.198 216.241 406.373 230.118 396.896 228.998C400.273 237.665 402.145 246.888 402.145 256.5C402.144 325.5 355.492 361.5 301.645 361.5C247.797 361.5 204.145 317.848 204.145 264C204.145 218.032 223.689 180.709 258.188 166.828C258.17 166.749 258.158 166.666 258.158 166.576C257.658 152.076 270.658 144.076 279.158 144.076Z" fill="#80CAF0"/>
<path d="M316.145 295.141C308.145 320.641 260.645 311.141 260.645 311.141C223.145 302.141 208.145 267.68 208.145 246.141C208.145 224.602 225.645 208 248.645 208C271.645 208 322.645 267.641 316.145 295.141Z" fill="white"/>
<path d="M258.034 225.65C258.034 231.725 246.161 237.15 239.534 237.15C232.906 237.15 230.034 225.65 231.534 218.15C234.534 211.65 242.534 214.15 242.534 214.15C242.534 214.15 258.034 219.575 258.034 225.65Z" fill="black"/>
<path d="M326.145 229C326.145 233.971 322.339 238 317.645 238C312.95 238 309.145 233.971 309.145 229C309.145 224.03 312.898 218 317.593 218C322.287 218 326.145 224.03 326.145 229Z" fill="black"/>
<ellipse cx="315.594" cy="228.35" rx="4.5" ry="6.11517" transform="rotate(21.8113 315.594 228.35)" fill="white"/>
<path d="M233.69 193.825C231.18 196.908 231.401 201.245 234.185 203.512C236.969 205.778 241.261 205.116 243.772 202.032C246.282 198.949 247.102 193.396 244.318 191.129C241.534 188.863 236.201 190.741 233.69 193.825Z" fill="black"/>
<ellipse cx="3.46354" cy="4.86291" rx="3.46354" ry="4.86291" transform="matrix(-0.959151 -0.282894 -0.31261 0.949882 242.118 193.875)" fill="white"/>
<path d="M224.145 243V243C224.844 249.735 234.479 250.199 235.822 243.562L236.846 238.5L237.145 237C237.145 237 231.645 257.5 254.145 260.5C264.645 260.5 265.645 255 265.645 255" stroke="black" stroke-width="2" stroke-linecap="round"/>
<path d="M88.0286 284.365C82.9183 259.866 62.4252 160.565 72.295 164.494C82.1648 168.424 186.915 255.702 187.606 266.889L162.416 268.412C161.827 269.89 158.422 294.311 158.069 295.197C157.628 296.305 156.262 272.38 155.275 271.987C154.288 271.594 90.5481 286.652 88.0286 284.365Z" fill="white"/>
<path d="M72.295 164.494C62.4252 160.565 82.9183 259.866 88.0286 284.365C90.5481 286.652 154.288 271.594 155.275 271.987M72.295 164.494C82.1648 168.424 186.915 255.702 187.606 266.889L162.416 268.412M72.295 164.494L162.416 268.412M72.295 164.494L155.275 271.987M162.416 268.412C161.827 269.89 158.422 294.311 158.069 295.197C157.628 296.305 156.262 272.38 155.275 271.987" stroke="#0D547A" stroke-width="4"/>
<path d="M80.7451 58.6729L81.9834 59L80.7451 59.3271L80.3193 60.8789L79.8945 59.3271L78.6553 59L79.8945 58.6729L80.3193 57.1201L80.7451 58.6729Z" stroke="white" stroke-width="8" stroke-linecap="round" stroke-dasharray="4 4"/>
<mask id="path-21-inside-1_55_574" fill="white">
<path d="M80.0725 51.7142L83.0643 57.4544L94.1758 58.9999L83.0643 60.5455L80.0725 66.2857L77.0808 60.5455L65.9692 58.9999L77.0808 57.4544L80.0725 51.7142Z"/>
</mask>
<path d="M80.0725 51.7142L83.6197 49.8655L80.0725 43.0597L76.5254 49.8655L80.0725 51.7142ZM83.0643 57.4544L79.5172 59.3032L80.4704 61.1321L82.5132 61.4163L83.0643 57.4544ZM94.1758 58.9999L94.7269 62.9618V55.0381L94.1758 58.9999ZM83.0643 60.5455L82.5132 56.5836L80.4704 56.8678L79.5172 58.6967L83.0643 60.5455ZM80.0725 66.2857L76.5254 68.1344L80.0725 74.9402L83.6197 68.1344L80.0725 66.2857ZM77.0808 60.5455L80.6279 58.6967L79.6746 56.8678L77.6318 56.5836L77.0808 60.5455ZM65.9692 58.9999L65.4182 55.0381V62.9618L65.9692 58.9999ZM77.0808 57.4544L77.6318 61.4163L79.6746 61.1321L80.6279 59.3032L77.0808 57.4544ZM75.7775 51.3005C74.7564 53.2596 75.5168 55.6754 77.4758 56.6964C79.4349 57.7174 81.8507 56.9571 82.8717 54.998L75.7775 51.3005ZM81.3758 57.8681C82.3969 55.9091 81.6365 53.4933 79.6775 52.4722C77.7184 51.4512 75.3026 52.2116 74.2816 54.1706L81.3758 57.8681ZM73.7518 53.8789C71.5637 54.1833 70.0367 56.2038 70.341 58.3919C70.6454 60.5799 72.6659 62.107 74.8539 61.8027L73.7518 53.8789ZM69.2982 62.5754C71.4863 62.2711 73.0133 60.2506 72.709 58.0625C72.4046 55.8744 70.3841 54.3474 68.1961 54.6517L69.2982 62.5754ZM68.1961 63.3482C70.3841 63.6525 72.4046 62.1255 72.709 59.9374C73.0133 57.7493 71.4863 55.7288 69.2982 55.4245L68.1961 63.3482ZM74.8539 56.1972C72.6659 55.8929 70.6454 57.42 70.341 59.608C70.0367 61.7961 71.5637 63.8166 73.7518 64.121L74.8539 56.1972ZM74.2816 63.8293C75.3026 65.7883 77.7184 66.5487 79.6775 65.5277C81.6365 64.5066 82.3969 62.0908 81.3758 60.1318L74.2816 63.8293ZM82.8717 63.0019C81.8507 61.0428 79.4349 60.2825 77.4758 61.3035C75.5168 62.3245 74.7564 64.7403 75.7775 66.6994L82.8717 63.0019ZM84.3676 66.6994C85.3886 64.7403 84.6282 62.3245 82.6692 61.3035C80.7102 60.2825 78.2944 61.0428 77.2733 63.0019L84.3676 66.6994ZM78.7692 60.1318C77.7482 62.0908 78.5086 64.5066 80.4676 65.5277C82.4266 66.5487 84.8424 65.7883 85.8635 63.8293L78.7692 60.1318ZM86.3932 64.121C88.5813 63.8166 90.1084 61.7961 89.804 59.608C89.4997 57.42 87.4792 55.8929 85.2911 56.1972L86.3932 64.121ZM90.8469 55.4245C88.6588 55.7288 87.1317 57.7493 87.4361 59.9374C87.7404 62.1255 89.7609 63.6525 91.949 63.3482L90.8469 55.4245ZM91.949 54.6517C89.7609 54.3474 87.7404 55.8744 87.4361 58.0625C87.1317 60.2506 88.6588 62.2711 90.8469 62.5754L91.949 54.6517ZM85.2911 61.8027C87.4792 62.107 89.4997 60.5799 89.804 58.3919C90.1084 56.2038 88.5813 54.1833 86.3932 53.8789L85.2911 61.8027ZM85.8635 54.1706C84.8424 52.2116 82.4266 51.4512 80.4676 52.4722C78.5086 53.4933 77.7482 55.9091 78.7692 57.8681L85.8635 54.1706ZM77.2733 54.998C78.2944 56.9571 80.7102 57.7174 82.6692 56.6964C84.6282 55.6754 85.3886 53.2596 84.3676 51.3005L77.2733 54.998ZM80.0725 51.7142L76.5254 49.8655L75.7775 51.3005L79.3246 53.1493L82.8717 54.998L83.6197 53.563L80.0725 51.7142ZM77.8287 56.0194L74.2816 54.1706L73.5336 55.6057L77.0808 57.4544L80.6279 59.3032L81.3758 57.8681L77.8287 56.0194ZM77.0808 57.4544L76.5297 53.4926L73.7518 53.8789L74.3029 57.8408L74.8539 61.8027L77.6318 61.4163L77.0808 57.4544ZM68.7471 58.6136L68.1961 54.6517L65.4182 55.0381L65.9692 58.9999L66.5203 62.9618L69.2982 62.5754L68.7471 58.6136ZM65.9692 58.9999L65.4182 62.9618L68.1961 63.3482L68.7471 59.3863L69.2982 55.4245L66.5203 55.0381L65.9692 58.9999ZM74.3029 60.1591L73.7518 64.121L76.5297 64.5073L77.0808 60.5455L77.6318 56.5836L74.8539 56.1972L74.3029 60.1591ZM77.0808 60.5455L73.5336 62.3942L74.2816 63.8293L77.8287 61.9805L81.3758 60.1318L80.6279 58.6967L77.0808 60.5455ZM79.3246 64.8506L75.7775 66.6994L76.5254 68.1344L80.0725 66.2857L83.6197 64.4369L82.8717 63.0019L79.3246 64.8506ZM80.0725 66.2857L83.6197 68.1344L84.3676 66.6994L80.8205 64.8506L77.2733 63.0019L76.5254 64.4369L80.0725 66.2857ZM82.3163 61.9805L85.8635 63.8293L86.6114 62.3942L83.0643 60.5455L79.5172 58.6967L78.7692 60.1318L82.3163 61.9805ZM83.0643 60.5455L83.6153 64.5073L86.3932 64.121L85.8422 60.1591L85.2911 56.1972L82.5132 56.5836L83.0643 60.5455ZM91.3979 59.3863L91.949 63.3482L94.7269 62.9618L94.1758 58.9999L93.6247 55.0381L90.8469 55.4245L91.3979 59.3863ZM94.1758 58.9999L94.7269 55.0381L91.949 54.6517L91.3979 58.6136L90.8469 62.5754L93.6247 62.9618L94.1758 58.9999ZM85.8422 57.8408L86.3932 53.8789L83.6153 53.4926L83.0643 57.4544L82.5132 61.4163L85.2911 61.8027L85.8422 57.8408ZM83.0643 57.4544L86.6114 55.6057L85.8635 54.1706L82.3163 56.0194L78.7692 57.8681L79.5172 59.3032L83.0643 57.4544ZM80.8205 53.1493L84.3676 51.3005L83.6197 49.8655L80.0725 51.7142L76.5254 53.563L77.2733 54.998L80.8205 53.1493ZM80.0725 51.7142L87.1668 48.0167L80.0725 34.4052L72.9783 48.0167L80.0725 51.7142ZM83.0643 57.4544L75.97 61.1519L77.8765 64.8099L81.9622 65.3781L83.0643 57.4544ZM94.1758 58.9999L95.2779 66.9237V51.0762L94.1758 58.9999ZM83.0643 60.5455L81.9622 52.6218L77.8765 53.19L75.97 56.848L83.0643 60.5455ZM80.0725 66.2857L72.9783 69.9832L80.0725 83.5947L87.1668 69.9832L80.0725 66.2857ZM77.0808 60.5455L84.175 56.848L82.2685 53.19L78.1829 52.6218L77.0808 60.5455ZM65.9692 58.9999L64.8671 51.0762V66.9237L65.9692 58.9999ZM77.0808 57.4544L78.1829 65.3781L82.2685 64.8099L84.175 61.1519L77.0808 57.4544ZM72.2303 49.4518C70.1883 53.3698 71.709 58.2015 75.6271 60.2435C79.5451 62.2856 84.3768 60.7648 86.4188 56.8468L72.2303 49.4518ZM84.923 59.7169C86.965 55.7988 85.4443 50.9672 81.5262 48.9251C77.6082 46.883 72.7765 48.4038 70.7344 52.3219L84.923 59.7169ZM73.2008 49.9171C68.8246 50.5258 65.7705 54.5668 66.3792 58.9429C66.9879 63.3191 71.0289 66.3732 75.405 65.7645L73.2008 49.9171ZM69.8493 66.5373C74.2254 65.9286 77.2795 61.8876 76.6708 57.5114C76.0621 53.1353 72.0211 50.0812 67.645 50.6898L69.8493 66.5373ZM67.645 67.31C72.0211 67.9187 76.0621 64.8646 76.6708 60.4885C77.2795 56.1123 74.2254 52.0713 69.8493 51.4626L67.645 67.31ZM75.405 52.2354C71.0289 51.6267 66.9879 54.6808 66.3792 59.057C65.7705 63.4331 68.8246 67.4741 73.2008 68.0828L75.405 52.2354ZM70.7344 65.678C72.7765 69.5961 77.6082 71.1169 81.5262 69.0748C85.4443 67.0327 86.965 62.2011 84.923 58.283L70.7344 65.678ZM86.4188 61.1531C84.3768 57.2351 79.5451 55.7143 75.6271 57.7564C71.709 59.7984 70.1883 64.6301 72.2303 68.5481L86.4188 61.1531ZM87.9147 68.5481C89.9568 64.6301 88.436 59.7984 84.518 57.7564C80.5999 55.7143 75.7683 57.2351 73.7262 61.1531L87.9147 68.5481ZM75.2221 58.283C73.18 62.2011 74.7008 67.0327 78.6188 69.0748C82.5369 71.1169 87.3685 69.5961 89.4106 65.678L75.2221 58.283ZM86.9443 68.0828C91.3204 67.4741 94.3746 63.4331 93.7659 59.057C93.1572 54.6808 89.1162 51.6267 84.74 52.2354L86.9443 68.0828ZM90.2958 51.4626C85.9196 52.0713 82.8655 56.1123 83.4742 60.4885C84.0829 64.8646 88.1239 67.9187 92.5001 67.31L90.2958 51.4626ZM92.5001 50.6898C88.1239 50.0812 84.0829 53.1353 83.4742 57.5114C82.8655 61.8876 85.9196 65.9286 90.2958 66.5373L92.5001 50.6898ZM84.74 65.7645C89.1162 66.3732 93.1572 63.3191 93.7659 58.9429C94.3746 54.5668 91.3204 50.5258 86.9443 49.9171L84.74 65.7645ZM89.4106 52.3219C87.3685 48.4038 82.5369 46.883 78.6188 48.9251C74.7008 50.9672 73.18 55.7988 75.2221 59.7169L89.4106 52.3219ZM73.7262 56.8468C75.7683 60.7648 80.5999 62.2856 84.518 60.2435C88.436 58.2015 89.9568 53.3698 87.9147 49.4518L73.7262 56.8468ZM80.0725 51.7142L72.9783 48.0167L72.2303 49.4518L79.3246 53.1493L86.4188 56.8468L87.1668 55.4117L80.0725 51.7142ZM77.8287 56.0194L70.7344 52.3219L69.9865 53.7569L77.0808 57.4544L84.175 61.1519L84.923 59.7169L77.8287 56.0194ZM77.0808 57.4544L75.9786 49.5307L73.2008 49.9171L74.3029 57.8408L75.405 65.7645L78.1829 65.3781L77.0808 57.4544ZM68.7471 58.6136L67.645 50.6898L64.8671 51.0762L65.9692 58.9999L67.0714 66.9237L69.8493 66.5373L68.7471 58.6136ZM65.9692 58.9999L64.8671 66.9237L67.645 67.31L68.7471 59.3863L69.8493 51.4626L67.0714 51.0762L65.9692 58.9999ZM74.3029 60.1591L73.2008 68.0828L75.9786 68.4692L77.0808 60.5455L78.1829 52.6218L75.405 52.2354L74.3029 60.1591ZM77.0808 60.5455L69.9865 64.243L70.7344 65.678L77.8287 61.9805L84.923 58.283L84.175 56.848L77.0808 60.5455ZM79.3246 64.8506L72.2303 68.5481L72.9783 69.9832L80.0725 66.2857L87.1668 62.5882L86.4188 61.1531L79.3246 64.8506ZM80.0725 66.2857L87.1668 69.9832L87.9147 68.5481L80.8205 64.8506L73.7262 61.1531L72.9783 62.5882L80.0725 66.2857ZM82.3163 61.9805L89.4106 65.678L90.1585 64.243L83.0643 60.5455L75.97 56.848L75.2221 58.283L82.3163 61.9805ZM83.0643 60.5455L84.1664 68.4692L86.9443 68.0828L85.8422 60.1591L84.74 52.2354L81.9622 52.6218L83.0643 60.5455ZM91.3979 59.3863L92.5001 67.31L95.2779 66.9237L94.1758 58.9999L93.0737 51.0762L90.2958 51.4626L91.3979 59.3863ZM94.1758 58.9999L95.2779 51.0762L92.5001 50.6898L91.3979 58.6136L90.2958 66.5373L93.0737 66.9237L94.1758 58.9999ZM85.8422 57.8408L86.9443 49.9171L84.1664 49.5307L83.0643 57.4544L81.9622 65.3781L84.74 65.7645L85.8422 57.8408ZM83.0643 57.4544L90.1585 53.7569L89.4106 52.3219L82.3163 56.0194L75.2221 59.7169L75.97 61.1519L83.0643 57.4544ZM80.8205 53.1493L87.9147 49.4518L87.1668 48.0167L80.0725 51.7142L72.9783 55.4117L73.7262 56.8468L80.8205 53.1493Z" fill="white" mask="url(#path-21-inside-1_55_574)"/>
<path d="M426.928 360.158C426.741 359.459 426.751 358.754 426.925 358.102C426.449 357.623 426.087 357.017 425.899 356.317L425.139 353.475L424.378 356.317C424.191 357.016 423.829 357.622 423.353 358.101C423.526 358.753 423.538 359.459 423.351 360.158M426.928 360.158L430.371 359.236C430.372 359.236 430.374 359.237 430.375 359.236L426.928 360.158ZM426.928 360.158L427.955 364C428.142 364.699 428.504 365.304 428.98 365.783C428.807 366.436 428.796 367.142 428.983 367.841M428.983 367.841L432.431 366.918H432.432L428.983 367.841ZM428.983 367.841L430.011 371.682C430.198 372.381 430.56 372.986 431.036 373.465C430.863 374.118 430.852 374.823 431.039 375.522L432.066 379.363C432.253 380.062 432.615 380.667 433.091 381.146C432.917 381.798 432.908 382.505 433.095 383.204L433.608 385.124L434.203 387.349L436.426 387.951L438.335 388.468C439.029 388.656 439.73 388.648 440.38 388.479C440.856 388.953 441.458 389.314 442.152 389.502M442.152 389.502L443.04 386.224V386.223L442.152 389.502ZM442.152 389.502L445.969 390.536C446.663 390.724 447.364 390.716 448.014 390.548C448.49 391.022 449.091 391.382 449.786 391.57M449.786 391.57L450.674 388.292V388.291L449.786 391.57ZM449.786 391.57L453.604 392.604C454.298 392.793 454.999 392.785 455.648 392.616C456.125 393.09 456.726 393.45 457.421 393.639M457.421 393.639L458.309 390.36V390.359L457.421 393.639ZM457.421 393.639L461.237 394.673M461.237 394.673L462.126 391.392L462.125 391.394L461.237 394.673ZM461.237 394.673C461.932 394.861 462.633 394.853 463.283 394.685C463.759 395.158 464.36 395.519 465.055 395.707M465.055 395.707L465.942 392.429V392.428L465.055 395.707ZM465.055 395.707L467.981 396.5L465.055 397.293C464.36 397.481 463.759 397.841 463.283 398.314C462.633 398.146 461.932 398.139 461.237 398.327M461.237 398.327L462.125 401.605L462.126 401.607L461.237 398.327ZM461.237 398.327L457.421 399.361C456.726 399.549 456.125 399.909 455.648 400.383C455.061 400.231 454.432 400.21 453.804 400.347L453.604 400.396L449.786 401.43C449.092 401.618 448.49 401.978 448.014 402.451C447.364 402.283 446.663 402.276 445.969 402.464M445.969 402.464L446.856 405.742L446.857 405.744L445.969 402.464ZM445.969 402.464L442.152 403.498C441.458 403.686 440.856 404.046 440.38 404.52C439.792 404.367 439.163 404.347 438.535 404.483L438.335 404.532L436.426 405.049L434.203 405.651L433.608 407.876L433.095 409.796C432.908 410.495 432.917 411.201 433.091 411.854C432.615 412.332 432.253 412.938 432.066 413.637L431.039 417.478C430.852 418.176 430.863 418.882 431.036 419.534C430.56 420.013 430.198 420.619 430.011 421.318L428.983 425.159M428.983 425.159L432.432 426.081H432.431L428.983 425.159ZM428.983 425.159C428.796 425.858 428.807 426.563 428.98 427.216C428.504 427.695 428.142 428.301 427.955 429L426.928 432.842C426.741 433.54 426.752 434.245 426.925 434.897C426.494 435.331 426.157 435.868 425.958 436.484L425.899 436.683L425.139 439.524L424.378 436.683L424.32 436.484C424.121 435.868 423.783 435.332 423.353 434.898C423.526 434.246 423.538 433.541 423.351 432.842L422.322 429M422.322 429L418.878 429.922L418.879 429.921L422.322 429ZM422.322 429C422.135 428.301 421.773 427.695 421.297 427.216C421.47 426.563 421.482 425.858 421.295 425.159L420.268 421.318L420.209 421.121C420.01 420.505 419.672 419.968 419.241 419.534C419.414 418.882 419.426 418.176 419.239 417.478L418.212 413.637L418.153 413.439C417.954 412.823 417.617 412.286 417.186 411.853C417.359 411.2 417.371 410.495 417.184 409.796L416.67 407.876L416.074 405.651L413.852 405.049L411.943 404.532L411.743 404.483C411.115 404.347 410.485 404.367 409.897 404.52C409.421 404.046 408.82 403.686 408.126 403.498M408.126 403.498L407.237 406.775V406.776L408.126 403.498ZM408.126 403.498L404.309 402.464L404.109 402.415C403.481 402.278 402.851 402.299 402.264 402.451C401.788 401.978 401.186 401.618 400.492 401.43L396.675 400.396L396.475 400.347C395.846 400.21 395.217 400.231 394.629 400.383C394.153 399.91 393.552 399.549 392.857 399.361M392.857 399.361L391.969 402.639V402.64L392.857 399.361ZM392.857 399.361L389.04 398.327L388.84 398.278C388.211 398.142 387.582 398.162 386.994 398.314C386.518 397.841 385.918 397.481 385.224 397.293M385.224 397.293L384.337 400.565C384.336 400.567 384.335 400.569 384.334 400.57L385.224 397.293ZM385.224 397.293L382.296 396.5L385.224 395.707M385.224 395.707L384.334 392.429C384.335 392.43 384.335 392.431 384.336 392.433L385.224 395.707ZM385.224 395.707C385.918 395.519 386.518 395.158 386.994 394.685C387.644 394.853 388.345 394.861 389.04 394.673L392.857 393.639M392.857 393.639L391.969 390.359V390.36L392.857 393.639ZM392.857 393.639C393.552 393.451 394.153 393.09 394.629 392.616C395.217 392.769 395.846 392.79 396.475 392.653L396.675 392.604L400.492 391.57C401.187 391.382 401.788 391.021 402.264 390.548C402.914 390.716 403.614 390.724 404.309 390.536L408.126 389.502M408.126 389.502L407.237 386.223V386.224L408.126 389.502ZM408.126 389.502C408.82 389.314 409.421 388.953 409.897 388.479C410.485 388.632 411.114 388.653 411.743 388.517L411.943 388.468L413.852 387.951L416.074 387.349L416.67 385.124L417.184 383.204M417.184 383.204L413.734 382.281H413.735L417.184 383.204ZM417.184 383.204C417.371 382.505 417.359 381.799 417.186 381.146C417.616 380.713 417.954 380.177 418.153 379.561L418.212 379.363L419.239 375.522C419.426 374.823 419.415 374.118 419.241 373.465C419.672 373.032 420.01 372.495 420.209 371.879L420.268 371.682L421.295 367.841C421.482 367.142 421.47 366.436 421.297 365.783C421.773 365.304 422.135 364.699 422.322 364M422.322 364L418.879 363.078L418.878 363.077L422.322 364ZM422.322 364L423.351 360.158M423.351 360.158L419.902 359.236C419.904 359.237 419.905 359.236 419.906 359.236L423.351 360.158ZM421.962 351.555L424.835 352.323L421.958 351.555C421.959 351.555 421.961 351.554 421.962 351.555ZM425.442 352.323L428.315 351.555C428.317 351.554 428.318 351.555 428.319 351.555L425.442 352.323Z" fill="white" stroke="white" stroke-width="8" stroke-linecap="round" stroke-dasharray="4 4"/>
<path d="M83.7451 368.673L84.9834 369L83.7451 369.327L83.3193 370.879L82.8945 369.327L81.6553 369L82.8945 368.673L83.3193 367.12L83.7451 368.673Z" stroke="white" stroke-width="8" stroke-linecap="round" stroke-dasharray="4 4"/>
<mask id="path-25-inside-2_55_574" fill="white">
<path d="M83.0725 361.714L86.0643 367.454L97.1758 369L86.0643 370.545L83.0725 376.286L80.0808 370.545L68.9692 369L80.0808 367.454L83.0725 361.714Z"/>
</mask>
<path d="M83.0725 361.714L86.6197 359.865L83.0725 353.06L79.5254 359.865L83.0725 361.714ZM86.0643 367.454L82.5172 369.303L83.4704 371.132L85.5132 371.416L86.0643 367.454ZM97.1758 369L97.7269 372.962V365.038L97.1758 369ZM86.0643 370.545L85.5132 366.584L83.4704 366.868L82.5172 368.697L86.0643 370.545ZM83.0725 376.286L79.5254 378.134L83.0725 384.94L86.6197 378.134L83.0725 376.286ZM80.0808 370.545L83.6279 368.697L82.6746 366.868L80.6318 366.584L80.0808 370.545ZM68.9692 369L68.4182 365.038V372.962L68.9692 369ZM80.0808 367.454L80.6318 371.416L82.6746 371.132L83.6279 369.303L80.0808 367.454ZM78.7775 361.301C77.7564 363.26 78.5168 365.675 80.4758 366.696C82.4349 367.717 84.8507 366.957 85.8717 364.998L78.7775 361.301ZM84.3758 367.868C85.3969 365.909 84.6365 363.493 82.6775 362.472C80.7184 361.451 78.3026 362.212 77.2816 364.171L84.3758 367.868ZM76.7518 363.879C74.5637 364.183 73.0367 366.204 73.341 368.392C73.6454 370.58 75.6659 372.107 77.8539 371.803L76.7518 363.879ZM72.2982 372.575C74.4863 372.271 76.0133 370.251 75.709 368.062C75.4046 365.874 73.3841 364.347 71.1961 364.652L72.2982 372.575ZM71.1961 373.348C73.3841 373.653 75.4046 372.125 75.709 369.937C76.0133 367.749 74.4863 365.729 72.2982 365.424L71.1961 373.348ZM77.8539 366.197C75.6659 365.893 73.6454 367.42 73.341 369.608C73.0367 371.796 74.5637 373.817 76.7518 374.121L77.8539 366.197ZM77.2816 373.829C78.3026 375.788 80.7184 376.549 82.6775 375.528C84.6365 374.507 85.3969 372.091 84.3758 370.132L77.2816 373.829ZM85.8717 373.002C84.8507 371.043 82.4349 370.282 80.4758 371.303C78.5168 372.325 77.7564 374.74 78.7775 376.699L85.8717 373.002ZM87.3676 376.699C88.3886 374.74 87.6282 372.325 85.6692 371.303C83.7102 370.282 81.2944 371.043 80.2733 373.002L87.3676 376.699ZM81.7692 370.132C80.7482 372.091 81.5086 374.507 83.4676 375.528C85.4266 376.549 87.8424 375.788 88.8635 373.829L81.7692 370.132ZM89.3932 374.121C91.5813 373.817 93.1084 371.796 92.804 369.608C92.4997 367.42 90.4792 365.893 88.2911 366.197L89.3932 374.121ZM93.8469 365.424C91.6588 365.729 90.1317 367.749 90.4361 369.937C90.7404 372.125 92.7609 373.653 94.949 373.348L93.8469 365.424ZM94.949 364.652C92.7609 364.347 90.7404 365.874 90.4361 368.062C90.1317 370.251 91.6588 372.271 93.8469 372.575L94.949 364.652ZM88.2911 371.803C90.4792 372.107 92.4997 370.58 92.804 368.392C93.1084 366.204 91.5813 364.183 89.3932 363.879L88.2911 371.803ZM88.8635 364.171C87.8424 362.212 85.4266 361.451 83.4676 362.472C81.5086 363.493 80.7482 365.909 81.7692 367.868L88.8635 364.171ZM80.2733 364.998C81.2944 366.957 83.7102 367.717 85.6692 366.696C87.6282 365.675 88.3886 363.26 87.3676 361.301L80.2733 364.998ZM83.0725 361.714L79.5254 359.865L78.7775 361.301L82.3246 363.149L85.8717 364.998L86.6197 363.563L83.0725 361.714ZM80.8287 366.019L77.2816 364.171L76.5336 365.606L80.0808 367.454L83.6279 369.303L84.3758 367.868L80.8287 366.019ZM80.0808 367.454L79.5297 363.493L76.7518 363.879L77.3029 367.841L77.8539 371.803L80.6318 371.416L80.0808 367.454ZM71.7471 368.614L71.1961 364.652L68.4182 365.038L68.9692 369L69.5203 372.962L72.2982 372.575L71.7471 368.614ZM68.9692 369L68.4182 372.962L71.1961 373.348L71.7471 369.386L72.2982 365.424L69.5203 365.038L68.9692 369ZM77.3029 370.159L76.7518 374.121L79.5297 374.507L80.0808 370.545L80.6318 366.584L77.8539 366.197L77.3029 370.159ZM80.0808 370.545L76.5336 372.394L77.2816 373.829L80.8287 371.981L84.3758 370.132L83.6279 368.697L80.0808 370.545ZM82.3246 374.851L78.7775 376.699L79.5254 378.134L83.0725 376.286L86.6197 374.437L85.8717 373.002L82.3246 374.851ZM83.0725 376.286L86.6197 378.134L87.3676 376.699L83.8205 374.851L80.2733 373.002L79.5254 374.437L83.0725 376.286ZM85.3163 371.981L88.8635 373.829L89.6114 372.394L86.0643 370.545L82.5172 368.697L81.7692 370.132L85.3163 371.981ZM86.0643 370.545L86.6153 374.507L89.3932 374.121L88.8422 370.159L88.2911 366.197L85.5132 366.584L86.0643 370.545ZM94.3979 369.386L94.949 373.348L97.7269 372.962L97.1758 369L96.6247 365.038L93.8469 365.424L94.3979 369.386ZM97.1758 369L97.7269 365.038L94.949 364.652L94.3979 368.614L93.8469 372.575L96.6247 372.962L97.1758 369ZM88.8422 367.841L89.3932 363.879L86.6153 363.493L86.0643 367.454L85.5132 371.416L88.2911 371.803L88.8422 367.841ZM86.0643 367.454L89.6114 365.606L88.8635 364.171L85.3163 366.019L81.7692 367.868L82.5172 369.303L86.0643 367.454ZM83.8205 363.149L87.3676 361.301L86.6197 359.865L83.0725 361.714L79.5254 363.563L80.2733 364.998L83.8205 363.149ZM83.0725 361.714L90.1668 358.017L83.0725 344.405L75.9783 358.017L83.0725 361.714ZM86.0643 367.454L78.97 371.152L80.8765 374.81L84.9622 375.378L86.0643 367.454ZM97.1758 369L98.2779 376.924V361.076L97.1758 369ZM86.0643 370.545L84.9622 362.622L80.8765 363.19L78.97 366.848L86.0643 370.545ZM83.0725 376.286L75.9783 379.983L83.0725 393.595L90.1668 379.983L83.0725 376.286ZM80.0808 370.545L87.175 366.848L85.2685 363.19L81.1829 362.622L80.0808 370.545ZM68.9692 369L67.8671 361.076V376.924L68.9692 369ZM80.0808 367.454L81.1829 375.378L85.2685 374.81L87.175 371.152L80.0808 367.454ZM75.2303 359.452C73.1883 363.37 74.709 368.201 78.6271 370.244C82.5451 372.286 87.3768 370.765 89.4188 366.847L75.2303 359.452ZM87.923 369.717C89.965 365.799 88.4443 360.967 84.5262 358.925C80.6082 356.883 75.7765 358.404 73.7344 362.322L87.923 369.717ZM76.2008 359.917C71.8246 360.526 68.7705 364.567 69.3792 368.943C69.9879 373.319 74.0289 376.373 78.405 375.765L76.2008 359.917ZM72.8493 376.537C77.2254 375.929 80.2795 371.888 79.6708 367.511C79.0621 363.135 75.0211 360.081 70.645 360.69L72.8493 376.537ZM70.645 377.31C75.0211 377.919 79.0621 374.865 79.6708 370.488C80.2795 366.112 77.2254 362.071 72.8493 361.463L70.645 377.31ZM78.405 362.235C74.0289 361.627 69.9879 364.681 69.3792 369.057C68.7705 373.433 71.8246 377.474 76.2008 378.083L78.405 362.235ZM73.7344 375.678C75.7765 379.596 80.6082 381.117 84.5262 379.075C88.4443 377.033 89.965 372.201 87.923 368.283L73.7344 375.678ZM89.4188 371.153C87.3768 367.235 82.5451 365.714 78.6271 367.756C74.709 369.798 73.1883 374.63 75.2303 378.548L89.4188 371.153ZM90.9147 378.548C92.9568 374.63 91.436 369.798 87.518 367.756C83.5999 365.714 78.7683 367.235 76.7262 371.153L90.9147 378.548ZM78.2221 368.283C76.18 372.201 77.7008 377.033 81.6188 379.075C85.5369 381.117 90.3685 379.596 92.4106 375.678L78.2221 368.283ZM89.9443 378.083C94.3204 377.474 97.3746 373.433 96.7659 369.057C96.1572 364.681 92.1162 361.627 87.74 362.235L89.9443 378.083ZM93.2958 361.463C88.9196 362.071 85.8655 366.112 86.4742 370.488C87.0829 374.865 91.1239 377.919 95.5001 377.31L93.2958 361.463ZM95.5001 360.69C91.1239 360.081 87.0829 363.135 86.4742 367.511C85.8655 371.888 88.9196 375.929 93.2958 376.537L95.5001 360.69ZM87.74 375.765C92.1162 376.373 96.1572 373.319 96.7659 368.943C97.3746 364.567 94.3204 360.526 89.9443 359.917L87.74 375.765ZM92.4106 362.322C90.3685 358.404 85.5369 356.883 81.6188 358.925C77.7008 360.967 76.18 365.799 78.2221 369.717L92.4106 362.322ZM76.7262 366.847C78.7683 370.765 83.5999 372.286 87.518 370.244C91.436 368.201 92.9568 363.37 90.9147 359.452L76.7262 366.847ZM83.0725 361.714L75.9783 358.017L75.2303 359.452L82.3246 363.149L89.4188 366.847L90.1668 365.412L83.0725 361.714ZM80.8287 366.019L73.7344 362.322L72.9865 363.757L80.0808 367.454L87.175 371.152L87.923 369.717L80.8287 366.019ZM80.0808 367.454L78.9786 359.531L76.2008 359.917L77.3029 367.841L78.405 375.765L81.1829 375.378L80.0808 367.454ZM71.7471 368.614L70.645 360.69L67.8671 361.076L68.9692 369L70.0714 376.924L72.8493 376.537L71.7471 368.614ZM68.9692 369L67.8671 376.924L70.645 377.31L71.7471 369.386L72.8493 361.463L70.0714 361.076L68.9692 369ZM77.3029 370.159L76.2008 378.083L78.9786 378.469L80.0808 370.545L81.1829 362.622L78.405 362.235L77.3029 370.159ZM80.0808 370.545L72.9865 374.243L73.7344 375.678L80.8287 371.981L87.923 368.283L87.175 366.848L80.0808 370.545ZM82.3246 374.851L75.2303 378.548L75.9783 379.983L83.0725 376.286L90.1668 372.588L89.4188 371.153L82.3246 374.851ZM83.0725 376.286L90.1668 379.983L90.9147 378.548L83.8205 374.851L76.7262 371.153L75.9783 372.588L83.0725 376.286ZM85.3163 371.981L92.4106 375.678L93.1585 374.243L86.0643 370.545L78.97 366.848L78.2221 368.283L85.3163 371.981ZM86.0643 370.545L87.1664 378.469L89.9443 378.083L88.8422 370.159L87.74 362.235L84.9622 362.622L86.0643 370.545ZM94.3979 369.386L95.5001 377.31L98.2779 376.924L97.1758 369L96.0737 361.076L93.2958 361.463L94.3979 369.386ZM97.1758 369L98.2779 361.076L95.5001 360.69L94.3979 368.614L93.2958 376.537L96.0737 376.924L97.1758 369ZM88.8422 367.841L89.9443 359.917L87.1664 359.531L86.0643 367.454L84.9622 375.378L87.74 375.765L88.8422 367.841ZM86.0643 367.454L93.1585 363.757L92.4106 362.322L85.3163 366.019L78.2221 369.717L78.97 371.152L86.0643 367.454ZM83.8205 363.149L90.9147 359.452L90.1668 358.017L83.0725 361.714L75.9783 365.412L76.7262 366.847L83.8205 363.149Z" fill="white" mask="url(#path-25-inside-2_55_574)"/>
<path d="M272 361.5L272.941 444.741C272.978 448.085 274.45 451.252 276.981 453.438V453.438C281.09 456.987 287.105 457.231 291.488 454.028L293.718 452.398C295.868 450.827 297.565 448.717 298.639 446.28L336 361.5" stroke="#0D547A" stroke-width="4" stroke-linecap="round"/>
<path d="M83.8373 501.779L85.5731 498.924H86.2111V502.616H85.6575V499.761L83.9311 502.616H83.2837V498.924H83.8373V501.779Z" fill="white"/>
<path d="M89.1954 501.847L90.4526 498.924H90.9781L89.4205 502.616H88.9702L87.4408 498.924H87.9568L89.1954 501.847ZM87.7786 498.924V502.616H87.225V498.924H87.7786ZM90.6121 502.616V498.924H91.1657V502.616H90.6121Z" fill="white"/>
<path d="M93.6897 502.693C93.3425 502.693 93.043 502.614 92.7913 502.457C92.5411 502.298 92.3479 502.077 92.2119 501.794C92.0774 501.509 92.0102 501.177 92.0102 500.799C92.0102 500.421 92.0774 500.088 92.2119 499.799C92.3479 499.509 92.5372 499.283 92.7795 499.121C93.0235 498.958 93.3081 498.876 93.6334 498.876C93.821 498.876 94.0063 498.908 94.1893 498.972C94.3722 499.037 94.5388 499.141 94.6889 499.285C94.839 499.427 94.9587 499.616 95.0478 499.852C95.1369 500.088 95.1815 500.377 95.1815 500.722V500.962H92.4042V500.472H94.6185C94.6185 500.264 94.5779 500.078 94.4966 499.914C94.4168 499.751 94.3027 499.622 94.1541 499.528C94.0071 499.433 93.8335 499.386 93.6334 499.386C93.4129 499.386 93.2221 499.442 93.061 499.554C92.9015 499.665 92.7788 499.809 92.6927 499.987C92.6067 500.164 92.5637 500.355 92.5637 500.559V500.885C92.5637 501.164 92.6106 501.4 92.7045 501.594C92.7999 501.787 92.932 501.933 93.1009 502.034C93.2698 502.133 93.466 502.183 93.6897 502.183C93.8351 502.183 93.9664 502.162 94.0837 502.121C94.2026 502.077 94.305 502.013 94.391 501.928C94.477 501.842 94.5435 501.735 94.5904 501.606L95.1252 501.76C95.0689 501.946 94.9743 502.109 94.8414 502.25C94.7085 502.39 94.5443 502.499 94.3488 502.577C94.1533 502.654 93.9336 502.693 93.6897 502.693Z" fill="white"/>
<path d="M98.4349 500.51V501.039H96.4458V500.51H98.4349ZM96.5772 498.924V502.616H96.0236V498.924H96.5772ZM98.8572 498.924V502.616H98.3036V498.924H98.8572Z" fill="white"/>
<path d="M100.422 501.779L102.158 498.924H102.796V502.616H102.242V499.761L100.516 502.616H99.8681V498.924H100.422V501.779Z" fill="white"/>
<path d="M105.742 502.616V497.694H106.324V499.886H108.885V497.694H109.467V502.616H108.885V500.414H106.324V502.616H105.742Z" fill="white"/>
<path d="M110.96 502.654C110.844 502.654 110.745 502.612 110.662 502.527C110.579 502.442 110.538 502.34 110.538 502.222C110.538 502.103 110.579 502.001 110.662 501.916C110.745 501.831 110.844 501.789 110.96 501.789C111.076 501.789 111.175 501.831 111.258 501.916C111.341 502.001 111.382 502.103 111.382 502.222C111.382 502.3 111.363 502.372 111.324 502.438C111.286 502.504 111.235 502.556 111.171 502.596C111.109 502.635 111.038 502.654 110.96 502.654Z" fill="white"/>
<path d="M112.451 497.694H113.145L114.778 501.779H114.834L116.467 497.694H117.161V502.616H116.617V498.876H116.57L115.069 502.616H114.543L113.042 498.876H112.995V502.616H112.451V497.694Z" fill="white"/>
<path d="M118.656 502.654C118.54 502.654 118.441 502.612 118.358 502.527C118.275 502.442 118.234 502.34 118.234 502.222C118.234 502.103 118.275 502.001 118.358 501.916C118.441 501.831 118.54 501.789 118.656 501.789C118.771 501.789 118.871 501.831 118.954 501.916C119.037 502.001 119.078 502.103 119.078 502.222C119.078 502.3 119.058 502.372 119.019 502.438C118.982 502.504 118.931 502.556 118.867 502.596C118.804 502.635 118.734 502.654 118.656 502.654Z" fill="white"/>
<path d="M123.656 498.28H124.416C124.772 498.28 125.089 498.362 125.366 498.525C125.642 498.689 125.86 498.916 126.018 499.208C126.176 499.5 126.255 499.838 126.255 500.222C126.255 500.607 126.176 500.945 126.018 501.239C125.86 501.532 125.642 501.761 125.366 501.926C125.089 502.091 124.772 502.173 124.416 502.173H123.656C123.299 502.173 122.982 502.092 122.706 501.928C122.429 501.765 122.211 501.537 122.053 501.246C121.896 500.954 121.817 500.616 121.817 500.232C121.817 499.847 121.896 499.508 122.053 499.215C122.211 498.922 122.429 498.693 122.706 498.528C122.982 498.363 123.299 498.28 123.656 498.28ZM123.656 498.809C123.383 498.809 123.154 498.867 122.966 498.984C122.78 499.101 122.638 499.266 122.541 499.48C122.446 499.693 122.398 499.943 122.398 500.232C122.398 500.517 122.446 500.765 122.541 500.977C122.638 501.188 122.78 501.352 122.966 501.469C123.154 501.586 123.383 501.645 123.656 501.645H124.416C124.688 501.645 124.917 501.586 125.103 501.469C125.29 501.352 125.432 501.187 125.527 500.974C125.624 500.761 125.673 500.51 125.673 500.222C125.673 499.937 125.624 499.689 125.527 499.477C125.432 499.266 125.29 499.101 125.103 498.984C124.917 498.867 124.688 498.809 124.416 498.809H123.656ZM124.331 497.607V502.818H123.749V497.607H124.331Z" fill="white"/>
<path d="M128.665 502.693C128.318 502.693 128.018 502.614 127.766 502.457C127.516 502.298 127.323 502.077 127.187 501.794C127.052 501.509 126.985 501.177 126.985 500.799C126.985 500.421 127.052 500.088 127.187 499.799C127.323 499.509 127.512 499.283 127.755 499.121C127.999 498.958 128.283 498.876 128.608 498.876C128.796 498.876 128.981 498.908 129.164 498.972C129.347 499.037 129.514 499.141 129.664 499.285C129.814 499.427 129.934 499.616 130.023 499.852C130.112 500.088 130.157 500.377 130.157 500.722V500.962H127.379V500.472H129.594C129.594 500.264 129.553 500.078 129.472 499.914C129.392 499.751 129.278 499.622 129.129 499.528C128.982 499.433 128.809 499.386 128.608 499.386C128.388 499.386 128.197 499.442 128.036 499.554C127.877 499.665 127.754 499.809 127.668 499.987C127.582 500.164 127.539 500.355 127.539 500.559V500.885C127.539 501.164 127.586 501.4 127.68 501.594C127.775 501.787 127.907 501.933 128.076 502.034C128.245 502.133 128.441 502.183 128.665 502.183C128.81 502.183 128.942 502.162 129.059 502.121C129.178 502.077 129.28 502.013 129.366 501.928C129.452 501.842 129.519 501.735 129.565 501.606L130.1 501.76C130.044 501.946 129.949 502.109 129.816 502.25C129.684 502.39 129.519 502.499 129.324 502.577C129.128 502.654 128.909 502.693 128.665 502.693Z" fill="white"/>
<path d="M130.614 503.673V502.087H130.914C130.988 502.008 131.051 501.924 131.104 501.832C131.157 501.741 131.204 501.633 131.243 501.508C131.283 501.381 131.318 501.227 131.346 501.046C131.374 500.864 131.399 500.643 131.421 500.386L131.543 498.924H133.832V502.087H134.386V503.673H133.832V502.616H131.168V503.673H130.614ZM131.543 502.087H133.279V499.453H132.059L131.965 500.386C131.926 500.772 131.878 501.109 131.82 501.397C131.762 501.686 131.67 501.916 131.543 502.087Z" fill="white"/>
<path d="M136.584 502.693C136.259 502.693 135.974 502.613 135.728 502.455C135.484 502.296 135.293 502.074 135.156 501.789C135.02 501.504 134.952 501.171 134.952 500.789C134.952 500.405 135.02 500.069 135.156 499.782C135.293 499.496 135.484 499.273 135.728 499.114C135.974 498.956 136.259 498.876 136.584 498.876C136.91 498.876 137.194 498.956 137.438 499.114C137.684 499.273 137.874 499.496 138.01 499.782C138.148 500.069 138.217 500.405 138.217 500.789C138.217 501.171 138.148 501.504 138.01 501.789C137.874 502.074 137.684 502.296 137.438 502.455C137.194 502.613 136.91 502.693 136.584 502.693ZM136.584 502.183C136.831 502.183 137.035 502.118 137.194 501.988C137.354 501.859 137.472 501.688 137.548 501.477C137.625 501.265 137.663 501.036 137.663 500.789C137.663 500.543 137.625 500.313 137.548 500.1C137.472 499.886 137.354 499.714 137.194 499.583C137.035 499.451 136.831 499.386 136.584 499.386C136.337 499.386 136.134 499.451 135.974 499.583C135.815 499.714 135.697 499.886 135.62 500.1C135.544 500.313 135.505 500.543 135.505 500.789C135.505 501.036 135.544 501.265 135.62 501.477C135.697 501.688 135.815 501.859 135.974 501.988C136.134 502.118 136.337 502.183 136.584 502.183Z" fill="white"/>
<path d="M139.062 504V498.924H139.597V499.511H139.662C139.703 499.447 139.759 499.365 139.831 499.266C139.905 499.165 140.01 499.075 140.146 498.996C140.283 498.916 140.469 498.876 140.704 498.876C141.007 498.876 141.275 498.954 141.506 499.109C141.738 499.265 141.918 499.485 142.048 499.77C142.178 500.055 142.243 500.392 142.243 500.78C142.243 501.171 142.178 501.509 142.048 501.796C141.918 502.081 141.738 502.302 141.508 502.459C141.279 502.615 141.013 502.693 140.713 502.693C140.482 502.693 140.296 502.653 140.157 502.575C140.018 502.495 139.911 502.404 139.836 502.303C139.761 502.201 139.703 502.116 139.662 502.049H139.615V504H139.062ZM139.606 500.77C139.606 501.049 139.646 501.295 139.726 501.508C139.805 501.719 139.922 501.885 140.075 502.005C140.228 502.124 140.416 502.183 140.638 502.183C140.87 502.183 141.063 502.121 141.218 501.996C141.374 501.869 141.491 501.699 141.569 501.486C141.649 501.271 141.689 501.033 141.689 500.77C141.689 500.51 141.65 500.277 141.572 500.068C141.495 499.858 141.379 499.693 141.222 499.571C141.067 499.447 140.873 499.386 140.638 499.386C140.413 499.386 140.224 499.444 140.071 499.561C139.917 499.677 139.802 499.838 139.723 500.047C139.645 500.253 139.606 500.494 139.606 500.77Z" fill="white"/>
<path d="M144.551 502.693C144.225 502.693 143.94 502.613 143.695 502.455C143.451 502.296 143.26 502.074 143.122 501.789C142.986 501.504 142.918 501.171 142.918 500.789C142.918 500.405 142.986 500.069 143.122 499.782C143.26 499.496 143.451 499.273 143.695 499.114C143.94 498.956 144.225 498.876 144.551 498.876C144.876 498.876 145.161 498.956 145.405 499.114C145.65 499.273 145.841 499.496 145.977 499.782C146.115 500.069 146.183 500.405 146.183 500.789C146.183 501.171 146.115 501.504 145.977 501.789C145.841 502.074 145.65 502.296 145.405 502.455C145.161 502.613 144.876 502.693 144.551 502.693ZM144.551 502.183C144.798 502.183 145.001 502.118 145.161 501.988C145.32 501.859 145.438 501.688 145.515 501.477C145.591 501.265 145.63 501.036 145.63 500.789C145.63 500.543 145.591 500.313 145.515 500.1C145.438 499.886 145.32 499.714 145.161 499.583C145.001 499.451 144.798 499.386 144.551 499.386C144.304 499.386 144.1 499.451 143.941 499.583C143.781 499.714 143.663 499.886 143.587 500.1C143.51 500.313 143.472 500.543 143.472 500.789C143.472 501.036 143.51 501.265 143.587 501.477C143.663 501.688 143.781 501.859 143.941 501.988C144.1 502.118 144.304 502.183 144.551 502.183Z" fill="white"/>
<path d="M147.028 502.616V498.924H148.501C148.889 498.924 149.197 499.014 149.426 499.194C149.654 499.373 149.768 499.61 149.768 499.905C149.768 500.129 149.703 500.303 149.573 500.426C149.444 500.548 149.277 500.631 149.074 500.674C149.207 500.693 149.336 500.741 149.461 500.818C149.587 500.895 149.692 501.001 149.775 501.135C149.858 501.268 149.899 501.432 149.899 501.626C149.899 501.815 149.853 501.984 149.759 502.133C149.665 502.282 149.53 502.399 149.355 502.486C149.18 502.572 148.971 502.616 148.727 502.616H147.028ZM147.554 502.097H148.727C148.917 502.097 149.067 502.05 149.175 501.957C149.283 501.864 149.336 501.738 149.336 501.577C149.336 501.387 149.283 501.237 149.175 501.128C149.067 501.018 148.917 500.962 148.727 500.962H147.554V502.097ZM147.554 500.472H148.501C148.65 500.472 148.777 500.451 148.884 500.41C148.99 500.366 149.071 500.305 149.128 500.227C149.186 500.147 149.215 500.052 149.215 499.943C149.215 499.788 149.151 499.666 149.025 499.578C148.898 499.488 148.723 499.443 148.501 499.443H147.554V500.472Z" fill="white"/>
<path d="M152.201 502.693C151.863 502.693 151.572 502.611 151.329 502.447C151.085 502.284 150.897 502.059 150.766 501.772C150.634 501.485 150.569 501.158 150.569 500.789C150.569 500.414 150.636 500.084 150.77 499.797C150.906 499.508 151.096 499.283 151.338 499.121C151.582 498.958 151.866 498.876 152.192 498.876C152.445 498.876 152.673 498.924 152.877 499.02C153.08 499.117 153.247 499.251 153.376 499.424C153.506 499.597 153.587 499.799 153.618 500.03H153.064C153.022 499.862 152.928 499.713 152.783 499.583C152.639 499.451 152.445 499.386 152.201 499.386C151.985 499.386 151.796 499.443 151.633 499.559C151.472 499.673 151.347 499.834 151.256 500.042C151.167 500.249 151.122 500.491 151.122 500.77C151.122 501.055 151.166 501.304 151.253 501.515C151.343 501.726 151.468 501.891 151.629 502.008C151.791 502.125 151.982 502.183 152.201 502.183C152.345 502.183 152.476 502.157 152.593 502.106C152.71 502.055 152.809 501.981 152.891 501.885C152.972 501.789 153.03 501.674 153.064 501.539H153.618C153.587 501.757 153.509 501.953 153.386 502.128C153.264 502.301 153.102 502.439 152.9 502.541C152.7 502.642 152.467 502.693 152.201 502.693Z" fill="white"/>
<path d="M154.427 502.616V498.924H154.981V500.53H155.347L156.641 498.924H157.355L155.9 500.703L157.373 502.616H156.66L155.478 501.058H154.981V502.616H154.427Z" fill="white"/>
<path d="M159.29 502.693C158.965 502.693 158.68 502.613 158.434 502.455C158.19 502.296 157.999 502.074 157.862 501.789C157.726 501.504 157.658 501.171 157.658 500.789C157.658 500.405 157.726 500.069 157.862 499.782C157.999 499.496 158.19 499.273 158.434 499.114C158.68 498.956 158.965 498.876 159.29 498.876C159.616 498.876 159.9 498.956 160.144 499.114C160.39 499.273 160.58 499.496 160.716 499.782C160.854 500.069 160.923 500.405 160.923 500.789C160.923 501.171 160.854 501.504 160.716 501.789C160.58 502.074 160.39 502.296 160.144 502.455C159.9 502.613 159.616 502.693 159.29 502.693ZM159.29 502.183C159.537 502.183 159.741 502.118 159.9 501.988C160.06 501.859 160.178 501.688 160.254 501.477C160.331 501.265 160.369 501.036 160.369 500.789C160.369 500.543 160.331 500.313 160.254 500.1C160.178 499.886 160.06 499.714 159.9 499.583C159.741 499.451 159.537 499.386 159.29 499.386C159.043 499.386 158.84 499.451 158.68 499.583C158.521 499.714 158.403 499.886 158.326 500.1C158.25 500.313 158.211 500.543 158.211 500.789C158.211 501.036 158.25 501.265 158.326 501.477C158.403 501.688 158.521 501.859 158.68 501.988C158.84 502.118 159.043 502.183 159.29 502.183Z" fill="white"/>
<path d="M163.992 498.924V499.453H162.322V502.616H161.768V498.924H163.992Z" fill="white"/>
<path d="M166.076 502.693C165.751 502.693 165.466 502.613 165.22 502.455C164.976 502.296 164.785 502.074 164.648 501.789C164.512 501.504 164.444 501.171 164.444 500.789C164.444 500.405 164.512 500.069 164.648 499.782C164.785 499.496 164.976 499.273 165.22 499.114C165.466 498.956 165.751 498.876 166.076 498.876C166.402 498.876 166.686 498.956 166.93 499.114C167.176 499.273 167.366 499.496 167.503 499.782C167.64 500.069 167.709 500.405 167.709 500.789C167.709 501.171 167.64 501.504 167.503 501.789C167.366 502.074 167.176 502.296 166.93 502.455C166.686 502.613 166.402 502.693 166.076 502.693ZM166.076 502.183C166.323 502.183 166.527 502.118 166.686 501.988C166.846 501.859 166.964 501.688 167.04 501.477C167.117 501.265 167.155 501.036 167.155 500.789C167.155 500.543 167.117 500.313 167.04 500.1C166.964 499.886 166.846 499.714 166.686 499.583C166.527 499.451 166.323 499.386 166.076 499.386C165.829 499.386 165.626 499.451 165.466 499.583C165.307 499.714 165.189 499.886 165.112 500.1C165.036 500.313 164.997 500.543 164.997 500.789C164.997 501.036 165.036 501.265 165.112 501.477C165.189 501.688 165.307 501.859 165.466 501.988C165.626 502.118 165.829 502.183 166.076 502.183Z" fill="white"/>
<mask id="path-29-inside-3_55_574" fill="white">
<path d="M67.9452 430.723L69.3321 436L74.4832 437.42L69.3321 438.841L67.9452 444.118L66.5583 438.841L61.4072 437.42L66.5583 436L67.9452 430.723Z"/>
</mask>
<path d="M67.9452 430.723L69.3321 436L74.4832 437.42L69.3321 438.841L67.9452 444.118L66.5583 438.841L61.4072 437.42L66.5583 436L67.9452 430.723Z" fill="white"/>
<path d="M67.9452 430.723L71.8138 429.707L67.9452 414.989L64.0766 429.707L67.9452 430.723ZM69.3321 436L65.4635 437.017L66.0489 439.244L68.2686 439.856L69.3321 436ZM74.4832 437.42L75.5467 441.276L89.5279 437.42L75.5467 433.564L74.4832 437.42ZM69.3321 438.841L68.2686 434.985L66.0489 435.597L65.4635 437.824L69.3321 438.841ZM67.9452 444.118L64.0766 445.134L67.9452 459.852L71.8138 445.134L67.9452 444.118ZM66.5583 438.841L70.4269 437.824L69.8415 435.597L67.6218 434.985L66.5583 438.841ZM61.4072 437.42L60.3437 433.564L46.3625 437.42L60.3437 441.276L61.4072 437.42ZM66.5583 436L67.6218 439.856L69.8415 439.244L70.4269 437.017L66.5583 436ZM63.7299 431.026C63.1683 433.162 64.445 435.349 66.5816 435.911C68.7182 436.473 70.9055 435.196 71.4671 433.059L63.7299 431.026ZM70.7736 435.698C71.3352 433.561 70.0585 431.374 67.9219 430.812C65.7853 430.251 63.598 431.527 63.0364 433.664L70.7736 435.698ZM64.207 432.499C62.0774 433.086 60.8271 435.289 61.4145 437.418C62.0018 439.548 64.2044 440.798 66.334 440.211L64.207 432.499ZM63.7585 440.921C65.8881 440.334 67.1384 438.131 66.551 436.002C65.9637 433.872 63.7611 432.622 61.6315 433.209L63.7585 440.921ZM61.6315 441.632C63.7611 442.219 65.9637 440.969 66.551 438.839C67.1384 436.709 65.8881 434.507 63.7585 433.92L61.6315 441.632ZM66.334 434.63C64.2044 434.043 62.0018 435.293 61.4145 437.422C60.8271 439.552 62.0774 441.755 64.207 442.342L66.334 434.63ZM63.0364 441.177C63.598 443.314 65.7853 444.59 67.9219 444.029C70.0585 443.467 71.3352 441.28 70.7736 439.143L63.0364 441.177ZM71.4671 441.782C70.9055 439.645 68.7182 438.368 66.5816 438.93C64.445 439.491 63.1683 441.679 63.7299 443.815L71.4671 441.782ZM72.1605 443.815C72.7221 441.679 71.4454 439.491 69.3088 438.93C67.1722 438.368 64.9849 439.645 64.4233 441.782L72.1605 443.815ZM65.1168 439.143C64.5552 441.28 65.832 443.467 67.9685 444.029C70.1051 444.59 72.2924 443.314 72.854 441.177L65.1168 439.143ZM71.6834 442.342C73.813 441.755 75.0633 439.552 74.4759 437.422C73.8886 435.293 71.686 434.043 69.5564 434.63L71.6834 442.342ZM72.1319 433.92C70.0023 434.507 68.752 436.709 69.3394 438.839C69.9267 440.969 72.1293 442.219 74.2589 441.632L72.1319 433.92ZM74.2589 433.209C72.1293 432.622 69.9267 433.872 69.3394 436.002C68.752 438.131 70.0023 440.334 72.1319 440.921L74.2589 433.209ZM69.5564 440.211C71.686 440.798 73.8886 439.548 74.4759 437.418C75.0633 435.289 73.813 433.086 71.6834 432.499L69.5564 440.211ZM72.854 433.664C72.2924 431.527 70.1051 430.251 67.9685 430.812C65.832 431.374 64.5552 433.561 65.1168 435.698L72.854 433.664ZM64.4233 433.059C64.9849 435.196 67.1722 436.473 69.3088 435.911C71.4454 435.349 72.7221 433.162 72.1605 431.026L64.4233 433.059ZM67.9452 430.723L64.0766 429.707L63.7299 431.026L67.5985 432.042L71.4671 433.059L71.8138 431.74L67.9452 430.723ZM66.905 434.681L63.0364 433.664L62.6897 434.983L66.5583 436L70.4269 437.017L70.7736 435.698L66.905 434.681ZM66.5583 436L65.4948 432.144L64.207 432.499L65.2705 436.355L66.334 440.211L67.6218 439.856L66.5583 436ZM62.695 437.065L61.6315 433.209L60.3437 433.564L61.4072 437.42L62.4707 441.276L63.7585 440.921L62.695 437.065ZM61.4072 437.42L60.3437 441.276L61.6315 441.632L62.695 437.776L63.7585 433.92L62.4707 433.564L61.4072 437.42ZM65.2705 438.486L64.207 442.342L65.4948 442.697L66.5583 438.841L67.6218 434.985L66.334 434.63L65.2705 438.486ZM66.5583 438.841L62.6897 439.858L63.0364 441.177L66.905 440.16L70.7736 439.143L70.4269 437.824L66.5583 438.841ZM67.5985 442.798L63.7299 443.815L64.0766 445.134L67.9452 444.118L71.8138 443.101L71.4671 441.782L67.5985 442.798ZM67.9452 444.118L71.8138 445.134L72.1605 443.815L68.2919 442.798L64.4233 441.782L64.0766 443.101L67.9452 444.118ZM68.9854 440.16L72.854 441.177L73.2007 439.858L69.3321 438.841L65.4635 437.824L65.1168 439.143L68.9854 440.16ZM69.3321 438.841L70.3956 442.697L71.6834 442.342L70.6199 438.486L69.5564 434.63L68.2686 434.985L69.3321 438.841ZM73.1954 437.776L74.2589 441.632L75.5467 441.276L74.4832 437.42L73.4197 433.564L72.1319 433.92L73.1954 437.776ZM74.4832 437.42L75.5467 433.564L74.2589 433.209L73.1954 437.065L72.1319 440.921L73.4197 441.276L74.4832 437.42ZM70.6199 436.355L71.6834 432.499L70.3956 432.144L69.3321 436L68.2686 439.856L69.5564 440.211L70.6199 436.355ZM69.3321 436L73.2007 434.983L72.854 433.664L68.9854 434.681L65.1168 435.698L65.4635 437.017L69.3321 436ZM68.2919 432.042L72.1605 431.026L71.8138 429.707L67.9452 430.723L64.0766 431.74L64.4233 433.059L68.2919 432.042ZM67.9452 430.723L75.6824 428.69L67.9452 399.254L60.208 428.69L67.9452 430.723ZM69.3321 436L61.5949 438.034L62.7657 442.487L67.2051 443.712L69.3321 436ZM74.4832 437.42L76.6102 445.133L104.573 437.42L76.6102 429.708L74.4832 437.42ZM69.3321 438.841L67.2051 431.129L62.7657 432.353L61.5949 436.807L69.3321 438.841ZM67.9452 444.118L60.208 446.151L67.9452 475.587L75.6824 446.151L67.9452 444.118ZM66.5583 438.841L74.2955 436.807L73.1247 432.353L68.6853 431.129L66.5583 438.841ZM61.4072 437.42L59.2802 429.708L31.3177 437.42L59.2802 445.133L61.4072 437.42ZM66.5583 436L68.6853 443.712L73.1247 442.487L74.2955 438.034L66.5583 436ZM59.8613 430.009C58.7381 434.282 61.2916 438.656 65.5647 439.78C69.8379 440.903 74.2125 438.349 75.3357 434.076L59.8613 430.009ZM74.6422 436.714C75.7654 432.441 73.2119 428.067 68.9388 426.944C64.6656 425.82 60.291 428.374 59.1678 432.647L74.6422 436.714ZM63.1435 428.643C58.8843 429.818 56.3838 434.223 57.5585 438.482C58.7332 442.741 63.1383 445.242 67.3975 444.067L63.1435 428.643ZM64.822 444.777C69.0812 443.603 71.5818 439.198 70.4071 434.938C69.2324 430.679 64.8273 428.179 60.568 429.353L64.822 444.777ZM60.568 445.488C64.8273 446.662 69.2324 444.162 70.4071 439.903C71.5818 435.643 69.0812 431.238 64.822 430.064L60.568 445.488ZM67.3975 430.774C63.1383 429.599 58.7332 432.1 57.5585 436.359C56.3838 440.618 58.8843 445.023 63.1435 446.198L67.3975 430.774ZM59.1678 442.194C60.291 446.467 64.6656 449.021 68.9388 447.897C73.2119 446.774 75.7654 442.4 74.6422 438.126L59.1678 442.194ZM75.3357 440.765C74.2125 436.492 69.8379 433.938 65.5647 435.061C61.2916 436.184 58.7381 440.559 59.8613 444.832L75.3357 440.765ZM76.0291 444.832C77.1523 440.559 74.5988 436.184 70.3257 435.061C66.0525 433.938 61.678 436.492 60.5548 440.765L76.0291 444.832ZM61.2482 438.126C60.125 442.4 62.6785 446.774 66.9517 447.897C71.2248 449.021 75.5994 446.467 76.7226 442.194L61.2482 438.126ZM72.7469 446.198C77.0061 445.023 79.5067 440.618 78.332 436.359C77.1572 432.1 72.7522 429.599 68.4929 430.774L72.7469 446.198ZM71.0684 430.064C66.8092 431.238 64.3087 435.643 65.4834 439.903C66.6581 444.162 71.0632 446.662 75.3224 445.488L71.0684 430.064ZM75.3224 429.353C71.0632 428.179 66.6581 430.679 65.4834 434.938C64.3087 439.198 66.8092 443.603 71.0684 444.777L75.3224 429.353ZM68.4929 444.067C72.7522 445.242 77.1572 442.741 78.332 438.482C79.5067 434.223 77.0061 429.818 72.7469 428.643L68.4929 444.067ZM76.7226 432.647C75.5994 428.374 71.2248 425.82 66.9517 426.944C62.6785 428.067 60.125 432.441 61.2482 436.714L76.7226 432.647ZM60.5548 434.076C61.678 438.349 66.0525 440.903 70.3257 439.78C74.5988 438.656 77.1523 434.282 76.0291 430.009L60.5548 434.076ZM67.9452 430.723L60.208 428.69L59.8613 430.009L67.5985 432.042L75.3357 434.076L75.6824 432.757L67.9452 430.723ZM66.905 434.681L59.1678 432.647L58.8211 433.966L66.5583 436L74.2955 438.034L74.6422 436.714L66.905 434.681ZM66.5583 436L64.4313 428.288L63.1435 428.643L65.2705 436.355L67.3975 444.067L68.6853 443.712L66.5583 436ZM62.695 437.065L60.568 429.353L59.2802 429.708L61.4072 437.42L63.5342 445.133L64.822 444.777L62.695 437.065ZM61.4072 437.42L59.2802 445.133L60.568 445.488L62.695 437.776L64.822 430.064L63.5342 429.708L61.4072 437.42ZM65.2705 438.486L63.1435 446.198L64.4313 446.553L66.5583 438.841L68.6853 431.129L67.3975 430.774L65.2705 438.486ZM66.5583 438.841L58.8211 440.875L59.1678 442.194L66.905 440.16L74.6422 438.126L74.2955 436.807L66.5583 438.841ZM67.5985 442.798L59.8613 444.832L60.208 446.151L67.9452 444.118L75.6824 442.084L75.3357 440.765L67.5985 442.798ZM67.9452 444.118L75.6824 446.151L76.0291 444.832L68.2919 442.798L60.5548 440.765L60.208 442.084L67.9452 444.118ZM68.9854 440.16L76.7226 442.194L77.0693 440.875L69.3321 438.841L61.5949 436.807L61.2482 438.126L68.9854 440.16ZM69.3321 438.841L71.4591 446.553L72.7469 446.198L70.6199 438.486L68.4929 430.774L67.2051 431.129L69.3321 438.841ZM73.1954 437.776L75.3224 445.488L76.6102 445.133L74.4832 437.42L72.3562 429.708L71.0684 430.064L73.1954 437.776ZM74.4832 437.42L76.6102 429.708L75.3224 429.353L73.1954 437.065L71.0684 444.777L72.3562 445.133L74.4832 437.42ZM70.6199 436.355L72.7469 428.643L71.4591 428.288L69.3321 436L67.2051 443.712L68.4929 444.067L70.6199 436.355ZM69.3321 436L77.0693 433.966L76.7226 432.647L68.9854 434.681L61.2482 436.714L61.5949 438.034L69.3321 436ZM68.2919 432.042L76.0291 430.009L75.6824 428.69L67.9452 430.723L60.208 432.757L60.5548 434.076L68.2919 432.042Z" fill="white" mask="url(#path-29-inside-3_55_574)"/>
<mask id="path-31-inside-4_55_574" fill="white">
<path d="M67.8516 434.55L68.981 436.811L73.1754 437.42L68.981 438.029L67.8516 440.29L66.7223 438.029L62.5278 437.42L66.7223 436.811L67.8516 434.55Z"/>
</mask>
<path d="M67.8516 434.55L68.981 436.811L73.1754 437.42L68.981 438.029L67.8516 440.29L66.7223 438.029L62.5278 437.42L66.7223 436.811L67.8516 434.55Z" fill="white"/>
<path d="M67.8516 434.55L71.4302 432.763L67.8516 425.597L64.2731 432.763L67.8516 434.55ZM68.981 436.811L65.4024 438.599L66.3368 440.469L68.4064 440.77L68.981 436.811ZM73.1754 437.42L73.75 441.379V433.462L73.1754 437.42ZM68.981 438.029L68.4064 434.071L66.3368 434.371L65.4024 436.242L68.981 438.029ZM67.8516 440.29L64.2731 442.078L67.8516 449.243L71.4302 442.078L67.8516 440.29ZM66.7223 438.029L70.3008 436.242L69.3664 434.371L67.2969 434.071L66.7223 438.029ZM62.5278 437.42L61.9532 433.462V441.379L62.5278 437.42ZM66.7223 436.811L67.2969 440.77L69.3664 440.469L70.3008 438.599L66.7223 436.811ZM63.9907 433.328C63.0037 435.305 63.8057 437.707 65.7821 438.694C67.7585 439.681 70.1608 438.879 71.1478 436.903L63.9907 433.328ZM70.5831 438.033C71.5702 436.057 70.7682 433.655 68.7918 432.667C66.8154 431.68 64.4131 432.482 63.4261 434.459L70.5831 438.033ZM65.0991 433.005C62.9128 433.322 61.3978 435.352 61.7151 437.538C62.0325 439.724 64.062 441.239 66.2483 440.922L65.0991 433.005ZM64.1511 441.227C66.3373 440.909 67.8523 438.88 67.535 436.693C67.2176 434.507 65.1881 432.992 63.0018 433.309L64.1511 441.227ZM63.0018 441.531C65.1881 441.848 67.2176 440.333 67.535 438.147C67.8523 435.961 66.3373 433.931 64.1511 433.614L63.0018 441.531ZM66.2483 433.918C64.062 433.601 62.0325 435.116 61.7151 437.302C61.3978 439.488 62.9128 441.518 65.0991 441.835L66.2483 433.918ZM63.4261 440.382C64.4131 442.358 66.8154 443.16 68.7918 442.173C70.7682 441.186 71.5702 438.784 70.5831 436.807L63.4261 440.382ZM71.1478 437.938C70.1608 435.962 67.7585 435.159 65.7821 436.147C63.8057 437.134 63.0037 439.536 63.9907 441.512L71.1478 437.938ZM71.7125 441.512C72.6995 439.536 71.8975 437.134 69.9211 436.147C67.9448 435.159 65.5425 435.962 64.5554 437.938L71.7125 441.512ZM65.1201 436.807C64.133 438.784 64.9351 441.186 66.9114 442.173C68.8878 443.16 71.2901 442.358 72.2772 440.382L65.1201 436.807ZM70.6042 441.835C72.7904 441.518 74.3054 439.488 73.9881 437.302C73.6707 435.116 71.6412 433.601 69.455 433.918L70.6042 441.835ZM71.5522 433.614C69.366 433.931 67.8509 435.961 68.1683 438.147C68.4856 440.333 70.5152 441.848 72.7014 441.531L71.5522 433.614ZM72.7014 433.309C70.5152 432.992 68.4856 434.507 68.1683 436.693C67.8509 438.88 69.366 440.909 71.5522 441.227L72.7014 433.309ZM69.455 440.922C71.6412 441.239 73.6707 439.724 73.9881 437.538C74.3054 435.352 72.7904 433.322 70.6042 433.005L69.455 440.922ZM72.2772 434.459C71.2901 432.482 68.8878 431.68 66.9114 432.667C64.9351 433.655 64.133 436.057 65.1201 438.033L72.2772 434.459ZM64.5554 436.903C65.5425 438.879 67.9448 439.681 69.9211 438.694C71.8975 437.707 72.6995 435.305 71.7125 433.328L64.5554 436.903ZM67.8516 434.55L64.2731 432.763L63.9907 433.328L67.5693 435.115L71.1478 436.903L71.4302 436.337L67.8516 434.55ZM67.0046 436.246L63.4261 434.459L63.1437 435.024L66.7223 436.811L70.3008 438.599L70.5831 438.033L67.0046 436.246ZM66.7223 436.811L66.1477 432.853L65.0991 433.005L65.6737 436.964L66.2483 440.922L67.2969 440.77L66.7223 436.811ZM63.5764 437.268L63.0018 433.309L61.9532 433.462L62.5278 437.42L63.1024 441.379L64.1511 441.227L63.5764 437.268ZM62.5278 437.42L61.9532 441.379L63.0018 441.531L63.5764 437.572L64.1511 433.614L63.1024 433.462L62.5278 437.42ZM65.6737 437.877L65.0991 441.835L66.1477 441.988L66.7223 438.029L67.2969 434.071L66.2483 433.918L65.6737 437.877ZM66.7223 438.029L63.1437 439.816L63.4261 440.382L67.0046 438.594L70.5831 436.807L70.3008 436.242L66.7223 438.029ZM67.5693 439.725L63.9907 441.512L64.2731 442.078L67.8516 440.29L71.4302 438.503L71.1478 437.938L67.5693 439.725ZM67.8516 440.29L71.4302 442.078L71.7125 441.512L68.134 439.725L64.5554 437.938L64.2731 438.503L67.8516 440.29ZM68.6986 438.594L72.2772 440.382L72.5595 439.816L68.981 438.029L65.4024 436.242L65.1201 436.807L68.6986 438.594ZM68.981 438.029L69.5556 441.988L70.6042 441.835L70.0296 437.877L69.455 433.918L68.4064 434.071L68.981 438.029ZM72.1268 437.572L72.7014 441.531L73.75 441.379L73.1754 437.42L72.6008 433.462L71.5522 433.614L72.1268 437.572ZM73.1754 437.42L73.75 433.462L72.7014 433.309L72.1268 437.268L71.5522 441.227L72.6008 441.379L73.1754 437.42ZM70.0296 436.964L70.6042 433.005L69.5556 432.853L68.981 436.811L68.4064 440.77L69.455 440.922L70.0296 436.964ZM68.981 436.811L72.5595 435.024L72.2772 434.459L68.6986 436.246L65.1201 438.033L65.4024 438.599L68.981 436.811ZM68.134 435.115L71.7125 433.328L71.4302 432.763L67.8516 434.55L64.2731 436.337L64.5554 436.903L68.134 435.115ZM67.8516 434.55L75.0087 430.976L67.8516 416.645L60.6945 430.976L67.8516 434.55ZM68.981 436.811L61.8239 440.386L63.6926 444.128L67.8317 444.728L68.981 436.811ZM73.1754 437.42L74.3246 445.337V429.503L73.1754 437.42ZM68.981 438.029L67.8317 430.112L63.6926 430.713L61.8239 434.455L68.981 438.029ZM67.8516 440.29L60.6945 443.865L67.8516 458.196L75.0087 443.865L67.8516 440.29ZM66.7223 438.029L73.8794 434.455L72.0106 430.713L67.8715 430.112L66.7223 438.029ZM62.5278 437.42L61.3786 429.503V445.337L62.5278 437.42ZM66.7223 436.811L67.8715 444.728L72.0106 444.128L73.8794 440.386L66.7223 436.811ZM60.4122 431.541C58.4381 435.494 60.0422 440.298 63.9949 442.272C67.9476 444.247 72.7523 442.643 74.7264 438.69L60.4122 431.541ZM74.1617 439.82C76.1358 435.868 74.5317 431.063 70.579 429.089C66.6262 427.115 61.8216 428.719 59.8475 432.672L74.1617 439.82ZM64.5244 429.047C60.152 429.681 57.1219 433.74 57.7566 438.113C58.3913 442.485 62.4504 445.515 66.8229 444.881L64.5244 429.047ZM64.7257 445.185C69.0981 444.55 72.1282 440.491 71.4935 436.119C70.8588 431.746 66.7997 428.716 62.4272 429.351L64.7257 445.185ZM62.4272 445.489C66.7997 446.124 70.8588 443.094 71.4935 438.722C72.1282 434.349 69.0981 430.29 64.7257 429.655L62.4272 445.489ZM66.8229 429.96C62.4504 429.325 58.3913 432.355 57.7566 436.728C57.1219 441.1 60.152 445.159 64.5244 445.794L66.8229 429.96ZM59.8475 442.169C61.8216 446.122 66.6262 447.726 70.579 445.751C74.5317 443.777 76.1358 438.973 74.1617 435.02L59.8475 442.169ZM74.7264 436.151C72.7523 432.198 67.9476 430.594 63.9949 432.568C60.0422 434.542 58.4381 439.347 60.4122 443.299L74.7264 436.151ZM75.291 443.299C77.2651 439.347 75.6611 434.542 71.7083 432.568C67.7556 430.594 62.9509 432.198 60.9769 436.151L75.291 443.299ZM61.5415 435.02C59.5675 438.973 61.1715 443.777 65.1242 445.751C69.077 447.726 73.8816 446.122 75.8557 442.169L61.5415 435.02ZM71.1788 445.794C75.5512 445.159 78.5813 441.1 77.9466 436.728C77.3119 432.355 73.2528 429.325 68.8804 429.96L71.1788 445.794ZM70.9776 429.655C66.6051 430.29 63.5751 434.349 64.2098 438.722C64.8445 443.094 68.9036 446.124 73.276 445.489L70.9776 429.655ZM73.276 429.351C68.9036 428.716 64.8445 431.746 64.2098 436.119C63.5751 440.491 66.6051 444.55 70.9776 445.185L73.276 429.351ZM68.8804 444.881C73.2528 445.515 77.3119 442.485 77.9466 438.113C78.5813 433.74 75.5512 429.681 71.1788 429.047L68.8804 444.881ZM75.8557 432.672C73.8816 428.719 69.077 427.115 65.1242 429.089C61.1715 431.063 59.5675 435.868 61.5415 439.82L75.8557 432.672ZM60.9769 438.69C62.9509 442.643 67.7556 444.247 71.7083 442.272C75.6611 440.298 77.2651 435.494 75.291 431.541L60.9769 438.69ZM67.8516 434.55L60.6945 430.976L60.4122 431.541L67.5693 435.115L74.7264 438.69L75.0087 438.124L67.8516 434.55ZM67.0046 436.246L59.8475 432.672L59.5652 433.237L66.7223 436.811L73.8794 440.386L74.1617 439.82L67.0046 436.246ZM66.7223 436.811L65.5731 428.894L64.5244 429.047L65.6737 436.964L66.8229 444.881L67.8715 444.728L66.7223 436.811ZM63.5764 437.268L62.4272 429.351L61.3786 429.503L62.5278 437.42L63.6771 445.337L64.7257 445.185L63.5764 437.268ZM62.5278 437.42L61.3786 445.337L62.4272 445.489L63.5764 437.572L64.7257 429.655L63.6771 429.503L62.5278 437.42ZM65.6737 437.877L64.5244 445.794L65.5731 445.946L66.7223 438.029L67.8715 430.112L66.8229 429.96L65.6737 437.877ZM66.7223 438.029L59.5652 441.603L59.8475 442.169L67.0046 438.594L74.1617 435.02L73.8794 434.455L66.7223 438.029ZM67.5693 439.725L60.4122 443.299L60.6945 443.865L67.8516 440.29L75.0087 436.716L74.7264 436.151L67.5693 439.725ZM67.8516 440.29L75.0087 443.865L75.291 443.299L68.134 439.725L60.9769 436.151L60.6945 436.716L67.8516 440.29ZM68.6986 438.594L75.8557 442.169L76.138 441.603L68.981 438.029L61.8239 434.455L61.5415 435.02L68.6986 438.594ZM68.981 438.029L70.1302 445.946L71.1788 445.794L70.0296 437.877L68.8804 429.96L67.8317 430.112L68.981 438.029ZM72.1268 437.572L73.276 445.489L74.3246 445.337L73.1754 437.42L72.0262 429.503L70.9776 429.655L72.1268 437.572ZM73.1754 437.42L74.3246 429.503L73.276 429.351L72.1268 437.268L70.9776 445.185L72.0262 445.337L73.1754 437.42ZM70.0296 436.964L71.1788 429.047L70.1302 428.894L68.981 436.811L67.8317 444.728L68.8804 444.881L70.0296 436.964ZM68.981 436.811L76.138 433.237L75.8557 432.672L68.6986 436.246L61.5415 439.82L61.8239 440.386L68.981 436.811ZM68.134 435.115L75.291 431.541L75.0087 430.976L67.8516 434.55L60.6945 438.124L60.9769 438.69L68.134 435.115Z" fill="white" mask="url(#path-31-inside-4_55_574)"/>
<path fill-rule="evenodd" clip-rule="evenodd" d="M8.07334 473.492L10.2407 473.492L61.1233 473.492L41.083 502.41L8.07334 473.492Z" fill="white"/>
<path fill-rule="evenodd" clip-rule="evenodd" d="M10.2407 473.492L8.07334 473.492L21.1848 461.772L22.8193 462.305L10.2407 473.492Z" fill="white"/>
<path fill-rule="evenodd" clip-rule="evenodd" d="M22.8193 462.305L21.1848 461.772L24.738 455.228L24.6676 457.113L24.4538 462.838L22.8193 462.305Z" fill="white"/>
<path fill-rule="evenodd" clip-rule="evenodd" d="M24.4538 462.838L29.9525 459.489L31.7024 458.424L33.783 459.489L61.1233 473.492L24.4538 462.838Z" fill="white"/>
<path fill-rule="evenodd" clip-rule="evenodd" d="M49.6108 451.879L56.5751 453.882L59.8441 454.822L72.9201 458.583L74.4836 459.033L61.1233 473.492L50.3406 453.249L49.6108 451.879Z" fill="white"/>
<path fill-rule="evenodd" clip-rule="evenodd" d="M24.6676 457.113L24.738 455.228L31.7024 458.424L29.9525 459.489L24.6676 457.113Z" fill="white"/>
<path fill-rule="evenodd" clip-rule="evenodd" d="M33.783 459.489L31.7024 458.424L49.6108 451.879L50.3406 453.249L33.783 459.489Z" fill="white"/>
<path fill-rule="evenodd" clip-rule="evenodd" d="M59.8441 454.822L56.5751 453.882L72.6358 450.814L74.4836 459.033L72.9201 458.583L71.3566 452.792L59.8441 454.822Z" fill="white"/>
<path d="M8.07334 473.492L10.2407 473.492M8.07334 473.492L41.083 502.41L61.1233 473.492M8.07334 473.492L21.1848 461.772M10.2407 473.492L61.1233 473.492M10.2407 473.492L22.8193 462.305M61.1233 473.492L33.783 459.489M61.1233 473.492L24.4538 462.838M61.1233 473.492L74.4836 459.033M61.1233 473.492L50.3406 453.249M21.1848 461.772L22.8193 462.305M21.1848 461.772L24.738 455.228M22.8193 462.305L24.4538 462.838M24.738 455.228L24.6676 457.113M24.738 455.228L31.7024 458.424M24.6676 457.113L24.4538 462.838M24.6676 457.113L29.9525 459.489M24.4538 462.838L29.9525 459.489M29.9525 459.489L31.7024 458.424M31.7024 458.424L33.783 459.489M31.7024 458.424L49.6108 451.879M33.783 459.489L50.3406 453.249M49.6108 451.879L56.5751 453.882M49.6108 451.879L50.3406 453.249M56.5751 453.882L59.8441 454.822M56.5751 453.882L72.6358 450.814L74.4836 459.033M59.8441 454.822L72.9201 458.583M59.8441 454.822L71.3566 452.792L72.9201 458.583M72.9201 458.583L74.4836 459.033" stroke="#E0E0E0"/>
<path d="M120.474 490.386C118.339 490.386 116.608 488.656 116.608 486.52V455.412C116.608 453.175 118.421 451.362 120.659 451.362H133.296C135.461 451.362 137.217 453.117 137.217 455.282C137.217 457.448 135.461 459.203 133.296 459.203H124.951C124.613 459.203 124.34 459.477 124.34 459.814V486.52C124.34 488.656 122.609 490.386 120.474 490.386Z" fill="white"/>
<path d="M153.172 490.386C150.904 490.386 149.315 488.148 150.062 486.007L151.588 481.639C152.094 480.19 152.077 478.61 151.541 477.172L143.421 455.397C142.785 453.693 143.622 451.792 145.307 451.11C147.07 450.396 149.073 451.286 149.724 453.074L155.443 468.776C155.479 468.875 155.6 469.083 155.651 469.176C155.966 469.75 155.966 469.653 156.113 469.014C156.119 468.986 156.126 468.956 156.133 468.926L161.719 453.068C162.353 451.269 164.373 450.377 166.129 451.121C167.742 451.803 168.543 453.624 167.957 455.274L156.275 488.194C155.809 489.508 154.566 490.386 153.172 490.386Z" fill="white"/>
<path d="M95.1693 490.534C94.2135 490.534 93.2283 490.463 92.2136 490.322C91.199 490.198 90.2212 490.012 89.2801 489.765C88.339 489.5 87.464 489.208 86.6553 488.89C86.3783 488.779 86.1166 488.666 85.8701 488.551C85.0589 488.171 84.5294 487.398 84.3162 486.529C84.2324 486.187 84.2004 485.835 84.2211 485.483L84.289 484.333C84.2964 484.207 84.3132 484.082 84.3393 483.958L84.5446 482.986C84.8092 481.732 86.2412 481.124 87.3832 481.705C88.1625 482.093 88.9419 482.42 89.7212 482.686C90.5006 482.951 91.2652 483.154 92.0151 483.295C92.7798 483.437 93.5077 483.508 94.1988 483.508C95.5516 483.508 96.6251 483.287 97.4191 482.845C98.2279 482.403 98.8087 481.802 99.1616 481.042C99.5292 480.282 99.713 479.433 99.713 478.496C99.713 476.817 99.2204 475.624 98.2352 474.917C97.25 474.21 95.7869 473.856 93.8459 473.856C93.4686 473.856 92.8241 473.856 92.2018 473.856C91.2565 473.856 90.3654 473.415 89.7925 472.663C89.6217 472.439 89.4831 472.192 89.3806 471.929L89.3319 471.805C89.0755 471.148 89.0381 470.427 89.2251 469.747L89.252 469.65C89.3227 469.393 89.4322 469.149 89.5769 468.925C90.0581 468.181 90.8839 467.731 91.7702 467.731C92.3371 467.731 92.9193 467.731 93.2503 467.731C94.5885 467.731 95.6766 467.51 96.5148 467.068C97.3676 466.627 97.9999 466.034 98.4117 465.292C98.8234 464.55 99.0293 463.736 99.0293 462.853C99.0293 461.81 98.8013 460.961 98.3455 460.307C97.9044 459.636 97.2941 459.141 96.5148 458.822C95.7501 458.504 94.8752 458.345 93.89 458.345C93.2577 458.345 92.6033 458.416 91.9269 458.557C91.2652 458.681 90.5741 458.893 89.8535 459.194C89.133 459.476 88.3904 459.856 87.6258 460.334C86.5025 461.022 84.9437 460.541 84.6114 459.267L84.3759 458.363C84.3475 458.254 84.3269 458.143 84.3143 458.031L84.176 456.799C84.1377 456.457 84.1499 456.112 84.2123 455.773C84.3785 454.873 84.883 454.057 85.6811 453.608C85.9438 453.46 86.2171 453.315 86.5009 453.175C87.2655 452.804 88.089 452.477 88.9713 452.194C89.8535 451.893 90.7873 451.663 91.7725 451.504C92.7577 451.345 93.7723 451.266 94.8164 451.266C97.4044 451.266 99.5586 451.672 101.279 452.485C103.014 453.281 104.308 454.394 105.161 455.826C106.029 457.258 106.462 458.902 106.462 460.758C106.462 463.197 105.911 465.133 104.808 466.565C103.771 467.911 102.494 468.851 100.977 469.384C100.803 469.445 100.684 469.606 100.684 469.79C100.684 469.983 100.815 470.149 101 470.202C102.082 470.507 103.072 470.974 103.97 471.602C104.955 472.274 105.742 473.238 106.33 474.493C106.918 475.73 107.212 477.338 107.212 479.318C107.212 481.333 106.83 483.198 106.065 484.913C105.316 486.61 104.058 487.971 102.294 488.996C100.544 490.021 98.169 490.534 95.1693 490.534Z" fill="white"/>
</g>
<defs>
<clipPath id="clip0_55_574">
<rect width="512" height="512" fill="white"/>
</clipPath>
</defs>
</svg>
