<svg width="512" height="512" viewBox="0 0 512 512" fill="none" xmlns="http://www.w3.org/2000/svg">
<g clip-path="url(#clip0_28_41)">
<rect width="512" height="512" fill="#0D547A"/>
<path d="M157.034 303.495C124.388 281.282 118.003 245.127 156.322 254.652C186.77 262.221 229.244 269.299 224.912 278.661C224.243 280.106 224.317 282.98 224.807 286.755C239.504 264.953 258.757 297.094 303.755 299.926C356.222 299.926 407.755 247.926 398.755 381.926C456.254 591.424 354.222 533.426 301.755 533.426C249.288 533.426 172.755 579.924 199.255 398.426C202.837 373.888 206.055 354.103 209.116 338.244C196.952 330.324 176.684 316.865 157.034 303.495Z" fill="#80CAF0"/>
<path d="M341.03 349.906C342.217 345.641 342.893 342.249 342.998 339.906C343.052 338.719 342.949 337.975 342.807 337.567C342.781 337.493 342.757 337.443 342.741 337.409C337.349 335.967 322.245 330.314 307.113 328.993C299.522 328.331 292.205 328.8 286.328 331.315C280.591 333.771 276.123 338.215 274.08 345.859C272.627 357.189 269.2 388.298 266.3 418.483C265.366 428.213 266.126 437.184 268.027 444.593C269.936 452.037 272.957 457.753 276.415 461.136C279.808 464.456 283.461 465.428 287.133 463.962C291.02 462.41 295.436 457.944 299.642 449.092C306.487 434.688 319.442 406.775 329.435 382.15C334.437 369.826 338.67 358.391 341.03 349.906Z" fill="#80CAF0" stroke="#0D547A" stroke-width="4"/>
<path d="M279.158 144.076C285.233 144.076 292.658 154.576 291.658 160.576C291.633 160.729 291.603 160.877 291.571 161.02C320.396 161.548 350.376 173.863 371.835 193.476C376.191 188.349 384.977 185.001 391.698 185C403.02 185 412.198 194.403 412.198 206C412.198 216.241 406.373 230.118 396.896 228.998C400.273 237.665 402.145 246.888 402.145 256.5C402.144 325.5 355.492 361.5 301.645 361.5C247.797 361.5 204.145 317.848 204.145 264C204.145 218.032 223.689 180.709 258.188 166.828C258.17 166.749 258.158 166.666 258.158 166.576C257.658 152.076 270.658 144.076 279.158 144.076Z" fill="#80CAF0"/>
<path d="M316.145 295.141C308.145 320.641 260.645 311.141 260.645 311.141C223.145 302.141 208.145 267.68 208.145 246.141C208.145 224.602 225.645 208 248.645 208C271.645 208 322.645 267.641 316.145 295.141Z" fill="white"/>
<path d="M258.034 225.65C258.034 231.725 246.161 237.15 239.534 237.15C232.906 237.15 230.034 225.65 231.534 218.15C234.534 211.65 242.534 214.15 242.534 214.15C242.534 214.15 258.034 219.575 258.034 225.65Z" fill="black"/>
<path d="M326.145 229C326.145 233.971 322.339 238 317.645 238C312.95 238 309.145 233.971 309.145 229C309.145 224.03 312.898 218 317.593 218C322.287 218 326.145 224.03 326.145 229Z" fill="black"/>
<ellipse cx="315.594" cy="228.35" rx="4.5" ry="6.11517" transform="rotate(21.8113 315.594 228.35)" fill="white"/>
<path d="M233.69 193.825C231.18 196.908 231.401 201.245 234.185 203.512C236.969 205.778 241.261 205.116 243.772 202.032C246.282 198.949 247.102 193.396 244.318 191.129C241.534 188.863 236.201 190.741 233.69 193.825Z" fill="black"/>
<ellipse cx="3.46354" cy="4.86291" rx="3.46354" ry="4.86291" transform="matrix(-0.959151 -0.282894 -0.31261 0.949882 242.118 193.875)" fill="white"/>
<path d="M224.145 243V243C224.844 249.735 234.479 250.199 235.822 243.562L236.846 238.5L237.145 237C237.145 237 231.645 257.5 254.145 260.5C264.645 260.5 265.645 255 265.645 255" stroke="black" stroke-width="2" stroke-linecap="round"/>
<path d="M88.0284 284.365C82.9182 259.866 62.425 160.565 72.2948 164.494C82.1646 168.424 186.915 255.702 187.606 266.889L162.416 268.412C161.827 269.89 158.422 294.311 158.069 295.197C157.628 296.305 156.262 272.38 155.275 271.987C154.288 271.594 90.548 286.652 88.0284 284.365Z" fill="white"/>
<path d="M72.2948 164.494C62.425 160.565 82.9182 259.866 88.0284 284.365C90.548 286.652 154.288 271.594 155.275 271.987M72.2948 164.494C82.1646 168.424 186.915 255.702 187.606 266.889L162.416 268.412M72.2948 164.494L162.416 268.412M72.2948 164.494L155.275 271.987M162.416 268.412C161.827 269.89 158.422 294.311 158.069 295.197C157.628 296.305 156.262 272.38 155.275 271.987" stroke="#0D547A" stroke-width="4"/>
</g>
<defs>
<clipPath id="clip0_28_41">
<rect width="512" height="512" fill="white"/>
</clipPath>
</defs>
</svg>
