<svg width="512" height="512" viewBox="0 0 512 512" fill="none" xmlns="http://www.w3.org/2000/svg">
<rect width="512" height="512" fill="white"/>
<path d="M265.504 195C368.38 195 453.977 265.452 472.007 358.46C463.647 357.496 455.136 357 446.504 357C369.416 357 302.029 396.558 265.504 455.523C228.978 396.558 161.592 357 84.5039 357C75.871 357 67.3598 357.496 59 358.46C77.0293 265.452 162.628 195 265.504 195Z" fill="#0D547A"/>
<path d="M390.18 219.297C350.272 162.86 295.122 187.076 281 195.201C321.228 239.05 341.727 247.052 345.63 279.275C354.608 300.629 378.801 303.67 397.686 288.248C411.572 271.826 402.161 240.121 390.18 219.297Z" fill="black"/>
<path d="M120.99 219.297C160.898 162.86 216.048 187.076 230.17 195.201C189.943 239.05 169.443 247.052 165.54 279.275C156.562 300.629 132.369 303.67 113.484 288.248C99.5979 271.826 109.01 240.121 120.99 219.297Z" fill="black"/>
<path d="M353 127C358 176.5 306.377 200.5 257.5 200.5C208.623 200.5 171.5 182.5 165 125C165 82.4999 195 51.4999 259 49.9999C309 56.4998 344.5 74.4999 353 127Z" fill="#80CAF0"/>
<path d="M300.5 158.5C299 187.5 280.315 195 258.5 195C236.685 195 218 186 218 156.5C220.5 121 236.685 119 258.5 119C280.315 119 298 119 300.5 158.5Z" fill="white"/>
<path d="M279.5 136C279.5 144.56 271 158.5 259 157C247 158 239 144.56 239 136C239 127.439 249.611 126 259 126C268.389 126 279.5 127.439 279.5 136Z" fill="black"/>
<path d="M280.5 161V161C280.5 170.443 270.182 176.261 262.102 171.375L260.195 170.222C259.453 169.774 259 168.97 259 168.104V157" stroke="black" stroke-width="2" stroke-linecap="round"/>
<path d="M237 161V161C237 170.443 247.318 176.261 255.398 171.375L257.305 170.222C258.047 169.774 258.5 168.97 258.5 168.104V157" stroke="black" stroke-width="2" stroke-linecap="round"/>
<path d="M114.858 285.006C116.238 285.042 116.944 281.239 117.01 278.755C117.075 276.27 117.352 274.133 115.972 274.097C114.591 274.061 112.265 274.894 112.199 277.378C112.134 279.863 113.478 284.97 114.858 285.006Z" fill="#D9D9D9"/>
<path d="M145.851 296.118C147.227 296.222 148.118 292.457 148.305 289.979C148.491 287.501 148.871 285.38 147.494 285.276C146.117 285.173 143.753 285.892 143.566 288.37C143.38 290.848 144.474 296.015 145.851 296.118Z" fill="#D9D9D9"/>
<path d="M131.754 293.301C133.083 293.672 134.694 290.154 135.361 287.76C136.029 285.367 136.817 283.361 135.487 282.99C134.157 282.619 131.698 282.861 131.03 285.255C130.362 287.649 130.424 292.93 131.754 293.301Z" fill="#D9D9D9"/>
<path d="M121.745 290.298C123.071 290.683 124.718 287.183 125.41 284.796C126.103 282.409 126.912 280.411 125.586 280.027C124.26 279.642 121.798 279.859 121.105 282.246C120.412 284.633 120.419 289.913 121.745 290.298Z" fill="#D9D9D9"/>
<path d="M396.313 285.006C394.933 285.042 394.226 281.239 394.161 278.755C394.096 276.27 393.819 274.133 395.199 274.097C396.58 274.061 398.906 274.894 398.972 277.378C399.037 279.863 397.693 284.97 396.313 285.006Z" fill="#D9D9D9"/>
<path d="M365.32 296.118C363.943 296.222 363.052 292.457 362.866 289.979C362.68 287.501 362.299 285.38 363.676 285.276C365.053 285.173 367.418 285.892 367.604 288.37C367.79 290.848 366.697 296.015 365.32 296.118Z" fill="#D9D9D9"/>
<path d="M379.417 293.301C378.087 293.672 376.477 290.154 375.809 287.76C375.141 285.367 374.353 283.361 375.683 282.99C377.013 282.619 379.473 282.861 380.14 285.255C380.808 287.649 380.747 292.93 379.417 293.301Z" fill="#D9D9D9"/>
<path d="M389.425 290.298C388.099 290.683 386.452 287.183 385.76 284.796C385.067 282.409 384.258 280.411 385.584 280.027C386.91 279.642 389.372 279.859 390.065 282.246C390.757 284.633 390.751 289.913 389.425 290.298Z" fill="#D9D9D9"/>
<path d="M315.758 90.414C306.239 81.368 296.024 71.6137 302.521 64.7769C309.018 57.94 330.502 53.7307 340.022 62.7766C349.541 71.8226 350.018 92.4401 343.521 99.2769C337.024 106.114 325.278 99.4599 315.758 90.414Z" fill="#80CAF0"/>
<path d="M198.594 85.199C207.801 75.8346 217.678 65.7386 210.952 59.1266C204.227 52.5146 182.612 49.0382 173.405 58.4026C164.199 67.7669 164.424 88.3887 171.149 95.0007C177.874 101.613 189.388 94.5634 198.594 85.199Z" fill="#80CAF0"/>
<ellipse cx="215.5" cy="114" rx="6.5" ry="10" fill="black"/>
<ellipse cx="302.5" cy="114" rx="6.5" ry="10" fill="black"/>
<ellipse cx="300.5" cy="108" rx="2.5" ry="3" fill="white"/>
<ellipse cx="213.5" cy="108" rx="2.5" ry="3" fill="white"/>
<path fill-rule="evenodd" clip-rule="evenodd" d="M186.139 263.56L190.82 263.899L300.704 271.849L263.071 324.858L186.139 263.56Z" fill="white"/>
<path fill-rule="evenodd" clip-rule="evenodd" d="M190.82 263.899L186.139 263.56L212.167 242.857L215.801 244.147L190.82 263.899Z" fill="white"/>
<path fill-rule="evenodd" clip-rule="evenodd" d="M215.801 244.147L212.167 242.857L218.563 230.707L218.779 234.356L219.434 245.436L215.801 244.147Z" fill="white"/>
<path fill-rule="evenodd" clip-rule="evenodd" d="M219.434 245.436L230.656 239.795L234.227 238L238.928 240.394L300.704 271.849L219.434 245.436Z" fill="white"/>
<path fill-rule="evenodd" clip-rule="evenodd" d="M271.623 228.092L287.054 233.069L294.297 235.405L323.27 244.749L326.734 245.866L300.704 271.849L273.467 230.866L271.623 228.092Z" fill="white"/>
<path fill-rule="evenodd" clip-rule="evenodd" d="M218.779 234.356L218.563 230.707L234.227 238L230.656 239.795L218.779 234.356Z" fill="white"/>
<path fill-rule="evenodd" clip-rule="evenodd" d="M238.928 240.394L234.227 238L271.623 228.092L273.467 230.866L238.928 240.394Z" fill="white"/>
<path fill-rule="evenodd" clip-rule="evenodd" d="M294.297 235.405L287.054 233.069L321.14 229.622L326.734 245.866L323.27 244.749L318.763 233.263L294.297 235.405Z" fill="white"/>
<path d="M186.139 263.56L190.82 263.899M186.139 263.56L263.071 324.858L300.704 271.849M186.139 263.56L212.167 242.857M190.82 263.899L300.704 271.849M190.82 263.899L215.801 244.147M300.704 271.849L238.928 240.394M300.704 271.849L219.434 245.436M300.704 271.849L326.734 245.866M300.704 271.849L273.467 230.866M212.167 242.857L215.801 244.147M212.167 242.857L218.563 230.707M215.801 244.147L219.434 245.436M218.563 230.707L218.779 234.356M218.563 230.707L234.227 238M218.779 234.356L219.434 245.436M218.779 234.356L230.656 239.795M219.434 245.436L230.656 239.795M230.656 239.795L234.227 238M234.227 238L238.928 240.394M234.227 238L271.623 228.092M238.928 240.394L273.467 230.866M271.623 228.092L287.054 233.069M271.623 228.092L273.467 230.866M287.054 233.069L294.297 235.405M287.054 233.069L321.14 229.622L326.734 245.866M294.297 235.405L323.27 244.749M294.297 235.405L318.763 233.263L323.27 244.749M323.27 244.749L326.734 245.866" stroke="#F3F3F3"/>
<path d="M212.974 316L214.315 321.636L219.866 323.244L214.315 324.535L212.914 329.849L211.53 324.535L206 323.292L211.53 321.636L212.974 316Z" fill="white"/>
<path d="M235.989 371.484C235.109 371.484 234.201 371.434 233.266 371.332C232.332 371.243 231.431 371.11 230.564 370.932C229.697 370.742 228.891 370.532 228.146 370.304C228.046 370.272 227.948 370.241 227.853 370.209C226.887 369.889 226.346 368.919 226.423 367.904L226.528 366.513C226.612 365.408 227.786 364.734 228.816 365.142C229.534 365.422 230.252 365.656 230.97 365.847C231.688 366.037 232.393 366.183 233.083 366.285C233.788 366.387 234.458 366.437 235.095 366.437C236.341 366.437 237.33 366.279 238.062 365.961C238.807 365.644 239.342 365.212 239.667 364.666C240.006 364.12 240.175 363.511 240.175 362.838C240.175 361.631 239.721 360.774 238.814 360.267C237.906 359.759 236.558 359.505 234.77 359.505C234.079 359.505 233.463 359.505 232.921 359.505C232.023 359.505 231.295 358.777 231.295 357.879V356.406C231.295 355.687 231.877 355.105 232.596 355.105C233.056 355.105 233.598 355.105 234.221 355.105C235.454 355.105 236.457 354.946 237.229 354.629C238.015 354.312 238.597 353.886 238.976 353.353C239.356 352.82 239.545 352.236 239.545 351.601C239.545 350.852 239.335 350.242 238.915 349.772C238.509 349.29 237.947 348.934 237.229 348.706C236.524 348.477 235.718 348.363 234.811 348.363C234.228 348.363 233.625 348.414 233.002 348.515C232.393 348.604 231.756 348.757 231.092 348.972C230.428 349.176 229.744 349.449 229.04 349.791C228.019 350.279 226.739 349.713 226.578 348.593L226.374 347.176C226.23 346.171 226.719 345.17 227.658 344.786C227.771 344.74 227.886 344.694 228.003 344.649C228.708 344.382 229.466 344.147 230.279 343.944C231.092 343.728 231.952 343.563 232.86 343.449C233.768 343.335 234.702 343.278 235.664 343.278C238.048 343.278 240.033 343.57 241.618 344.154C243.217 344.725 244.409 345.525 245.194 346.554C245.994 347.582 246.393 348.763 246.393 350.096C246.393 351.848 245.885 353.239 244.869 354.267C243.902 355.246 242.707 355.926 241.286 356.307C241.159 356.341 241.069 356.454 241.069 356.585C241.069 356.721 241.166 356.838 241.299 356.866C242.319 357.085 243.252 357.425 244.097 357.886C245.005 358.368 245.73 359.06 246.271 359.962C246.813 360.851 247.084 362.006 247.084 363.428C247.084 364.876 246.732 366.215 246.028 367.447C245.337 368.666 244.178 369.643 242.553 370.38C240.941 371.116 238.753 371.484 235.989 371.484Z" fill="white"/>
<path d="M254.586 370.989C252.74 370.989 251.244 369.493 251.244 367.647C251.244 367.343 251.244 367.041 251.244 366.742C251.244 365.371 251.244 363.834 251.244 362.133V352.915C251.244 351.163 251.244 349.582 251.244 348.172C251.244 345.774 253.188 343.83 255.586 343.83H267.693C269.203 343.83 270.426 345.054 270.426 346.563C270.426 348.073 269.203 349.296 267.693 349.296C267.108 349.296 266.509 349.296 265.895 349.296C264.296 349.296 262.413 349.296 260.246 349.296H256.935C256.155 349.296 255.678 348.439 256.09 347.777C256.619 346.927 257.929 347.302 257.929 348.302C257.929 348.59 257.929 348.877 257.929 349.163C257.929 350.572 257.929 352.153 257.929 353.905V362.133C257.929 363.834 257.929 365.371 257.929 366.742C257.929 367.041 257.929 367.343 257.929 367.647C257.929 369.493 256.432 370.989 254.586 370.989Z" fill="white"/>
<path d="M283.088 370.989C281.263 370.989 280.07 369.074 280.857 367.428C282.01 365.015 281.97 362.203 280.751 359.824L276.549 351.62C275.885 350.325 275.248 349.087 274.639 347.906C273.706 346.039 275.052 343.83 277.138 343.83H277.93C279.237 343.83 280.42 344.608 280.929 345.811C281.024 346.034 281.115 346.25 281.202 346.458C281.541 347.233 281.846 347.957 282.117 348.63C282.401 349.29 282.685 349.956 282.97 350.629C283.254 351.29 283.566 352.007 283.905 352.782L285.902 357.454C285.96 357.589 286.093 357.676 286.24 357.676C286.389 357.676 286.522 357.587 286.579 357.449L288.477 352.858C288.816 352.058 289.12 351.321 289.391 350.648C289.676 349.963 289.953 349.283 290.224 348.611C290.509 347.925 290.807 347.201 291.118 346.439C291.208 346.226 291.3 346.006 291.396 345.779C291.892 344.598 293.049 343.83 294.33 343.83C296.684 343.83 298.225 346.297 297.199 348.416C297.11 348.601 297.02 348.786 296.93 348.972C296.09 350.737 295.305 352.363 294.573 353.848L290.428 362.419C289.804 363.739 289.12 365.161 288.375 366.685C287.959 367.545 287.554 368.38 287.159 369.19C286.623 370.292 285.506 370.989 284.281 370.989H283.088Z" fill="white"/>
<path d="M214.003 385.041C214.003 384.747 214.003 384.466 214.003 384.196C214.003 383.926 214.003 383.628 214.003 383.303V382.906C214.003 382.671 214.003 382.454 214.003 382.256C214.003 382.055 214.003 381.861 214.003 381.676C214.003 381.488 214.003 381.298 214.003 381.105L214.68 381.081C214.68 381.269 214.68 381.454 214.68 381.637C214.68 381.819 214.68 382.008 214.68 382.204C214.68 382.397 214.68 382.607 214.68 382.835V384.089H214.74L215.641 382.783C215.836 382.503 216.031 382.221 216.225 381.938C216.42 381.655 216.614 381.377 216.805 381.105H217.529C217.529 381.298 217.529 381.488 217.529 381.676C217.529 381.861 217.529 382.055 217.529 382.256C217.529 382.454 217.529 382.671 217.529 382.906V383.303C217.529 383.628 217.529 383.926 217.529 384.196C217.529 384.466 217.529 384.747 217.529 385.041H216.856C216.856 384.753 216.856 384.475 216.856 384.208C216.856 383.938 216.856 383.643 216.856 383.323V382.053H216.797L215.904 383.343C215.706 383.628 215.51 383.913 215.315 384.196C215.121 384.479 214.926 384.761 214.731 385.041H214.003Z" fill="white"/>
<path d="M218.577 385.041C218.611 384.753 218.645 384.471 218.679 384.196C218.713 383.918 218.745 383.643 218.776 383.371L218.84 382.831C218.876 382.543 218.912 382.254 218.945 381.966C218.979 381.678 219.013 381.391 219.047 381.105H219.809C219.925 381.359 220.04 381.615 220.156 381.875C220.275 382.134 220.392 382.389 220.508 382.64L221.185 384.132H221.248L221.922 382.64C222.037 382.381 222.153 382.125 222.269 381.871C222.384 381.614 222.5 381.359 222.616 381.105H223.365C223.399 381.385 223.433 381.674 223.467 381.97C223.503 382.264 223.539 382.552 223.573 382.835L223.636 383.378C223.667 383.643 223.7 383.915 223.733 384.196C223.767 384.476 223.801 384.758 223.835 385.041H223.17C223.137 384.739 223.101 384.435 223.065 384.128C223.031 383.819 222.995 383.513 222.959 383.212L222.827 382.053H222.764L222.226 383.291C222.102 383.582 221.977 383.873 221.85 384.164C221.723 384.455 221.596 384.747 221.469 385.041H220.965C220.835 384.747 220.705 384.456 220.575 384.168C220.448 383.877 220.321 383.589 220.194 383.303L219.64 382.053H219.576L219.441 383.2C219.404 383.507 219.367 383.814 219.331 384.12C219.297 384.427 219.262 384.734 219.225 385.041H218.577Z" fill="white"/>
<path d="M225.219 385.128C225.103 385.128 225.003 385.106 224.918 385.061C224.836 385.016 224.773 384.955 224.728 384.878C224.682 384.802 224.66 384.712 224.66 384.609C224.66 384.452 224.711 384.328 224.812 384.236C224.914 384.143 225.049 384.097 225.219 384.097C225.337 384.097 225.437 384.118 225.519 384.16C225.601 384.202 225.665 384.262 225.71 384.339C225.758 384.415 225.782 384.505 225.782 384.609C225.782 384.762 225.731 384.888 225.629 384.985C225.531 385.081 225.394 385.128 225.219 385.128Z" fill="white"/>
<path d="M232.638 385.041C232.638 384.726 232.638 384.423 232.638 384.132C232.638 383.841 232.638 383.521 232.638 383.172V381.276C232.638 380.918 232.638 380.593 232.638 380.299C232.638 380.003 232.638 379.698 232.638 379.383H233.404C233.404 379.698 233.404 380.003 233.404 380.299C233.404 380.593 233.404 380.918 233.404 381.276V383.172C233.404 383.521 233.404 383.841 233.404 384.132C233.404 384.423 233.404 384.726 233.404 385.041H232.638ZM228.624 385.041C228.624 384.726 228.624 384.423 228.624 384.132C228.624 383.841 228.624 383.521 228.624 383.172V381.276C228.624 380.918 228.624 380.593 228.624 380.299C228.624 380.003 228.624 379.698 228.624 379.383H229.391C229.391 379.698 229.391 380.003 229.391 380.299C229.391 380.593 229.391 380.918 229.391 381.276V383.172C229.391 383.521 229.391 383.841 229.391 384.132C229.391 384.423 229.391 384.726 229.391 385.041H228.624ZM229.124 382.486V381.867H232.93V382.486H229.124Z" fill="white"/>
<path d="M235.182 385.128C235.066 385.128 234.966 385.106 234.882 385.061C234.8 385.016 234.736 384.955 234.691 384.878C234.646 384.802 234.623 384.712 234.623 384.609C234.623 384.452 234.674 384.328 234.776 384.236C234.877 384.143 235.013 384.097 235.182 384.097C235.301 384.097 235.401 384.118 235.483 384.16C235.565 384.202 235.628 384.262 235.673 384.339C235.721 384.415 235.745 384.505 235.745 384.609C235.745 384.762 235.694 384.888 235.593 384.985C235.494 385.081 235.357 385.128 235.182 385.128Z" fill="white"/>
<path d="M236.751 385.041C236.791 384.734 236.83 384.431 236.87 384.132C236.912 383.833 236.956 383.508 237.001 383.156L237.251 381.291C237.296 380.945 237.338 380.622 237.378 380.323C237.417 380.024 237.46 379.711 237.505 379.383H238.275C238.45 379.785 238.62 380.174 238.783 380.549C238.947 380.922 239.109 381.294 239.27 381.664L240.227 383.863H240.286L241.234 381.668C241.395 381.293 241.556 380.92 241.717 380.549C241.878 380.179 242.044 379.79 242.217 379.383H242.987C243.029 379.706 243.069 380.016 243.106 380.315C243.145 380.614 243.189 380.938 243.237 381.287L243.482 383.172C243.528 383.516 243.57 383.836 243.609 384.132C243.649 384.426 243.688 384.729 243.728 385.041H242.996C242.931 384.538 242.869 384.061 242.809 383.609C242.75 383.156 242.695 382.734 242.644 382.343L242.424 380.653H242.369L241.603 382.474C241.417 382.916 241.23 383.359 241.044 383.803C240.858 384.245 240.684 384.657 240.523 385.041H240.003C239.901 384.8 239.788 384.536 239.664 384.247C239.54 383.959 239.411 383.664 239.279 383.363C239.149 383.061 239.022 382.769 238.898 382.486L238.106 380.653H238.051L237.831 382.339C237.78 382.733 237.725 383.156 237.666 383.609C237.609 384.061 237.549 384.538 237.484 385.041H236.751Z" fill="white"/>
<path d="M245.286 385.128C245.17 385.128 245.07 385.106 244.986 385.061C244.904 385.016 244.84 384.955 244.795 384.878C244.75 384.802 244.727 384.712 244.727 384.609C244.727 384.452 244.778 384.328 244.88 384.236C244.981 384.143 245.117 384.097 245.286 384.097C245.405 384.097 245.505 384.118 245.587 384.16C245.669 384.202 245.732 384.262 245.777 384.339C245.825 384.415 245.849 384.505 245.849 384.609C245.849 384.762 245.798 384.888 245.697 384.985C245.598 385.081 245.461 385.128 245.286 385.128Z" fill="white"/>
<path d="M251.571 384.545L251.579 383.966H251.863C252.359 383.966 252.763 383.9 253.073 383.767C253.387 383.635 253.618 383.441 253.768 383.184C253.917 382.925 253.992 382.603 253.992 382.22C253.992 381.831 253.919 381.507 253.772 381.248C253.625 380.986 253.398 380.789 253.09 380.657C252.786 380.524 252.39 380.458 251.905 380.458H251.621L251.613 379.879H251.913C252.599 379.879 253.152 379.978 253.573 380.176C253.994 380.375 254.3 380.65 254.492 381.002C254.686 381.351 254.784 381.757 254.784 382.22C254.784 382.664 254.688 383.062 254.496 383.414C254.307 383.763 253.998 384.04 253.569 384.243C253.143 384.445 252.571 384.545 251.854 384.545H251.571ZM251.194 384.545C250.655 384.545 250.199 384.487 249.826 384.37C249.454 384.254 249.152 384.091 248.92 383.882C248.692 383.671 248.525 383.425 248.421 383.144C248.316 382.861 248.264 382.553 248.264 382.22C248.264 381.757 248.36 381.351 248.552 381.002C248.744 380.65 249.05 380.375 249.471 380.176C249.894 379.978 250.449 379.879 251.135 379.879H251.431L251.422 380.458H251.139C250.659 380.458 250.265 380.524 249.958 380.657C249.65 380.789 249.423 380.986 249.276 381.248C249.129 381.507 249.056 381.831 249.056 382.22C249.056 382.603 249.129 382.925 249.276 383.184C249.426 383.441 249.657 383.635 249.97 383.767C250.284 383.9 250.687 383.966 251.181 383.966H251.465L251.473 384.545H251.194ZM251.139 385.208C251.139 385.062 251.139 384.925 251.139 384.795C251.139 384.665 251.139 384.533 251.139 384.398L251.156 384.382C251.156 384.2 251.156 384.013 251.156 383.823C251.156 383.63 251.156 383.429 251.156 383.22V381.204C251.156 380.995 251.156 380.795 251.156 380.605C251.156 380.412 251.156 380.224 251.156 380.042L251.139 380.026C251.139 379.891 251.139 379.758 251.139 379.629C251.139 379.497 251.139 379.359 251.139 379.216H251.905C251.905 379.359 251.905 379.497 251.905 379.629C251.905 379.758 251.905 379.891 251.905 380.026L251.888 380.042C251.888 380.224 251.888 380.412 251.888 380.605C251.888 380.795 251.888 380.995 251.888 381.204V383.22C251.888 383.429 251.888 383.628 251.888 383.819C251.888 384.009 251.888 384.197 251.888 384.382L251.905 384.398C251.905 384.53 251.905 384.663 251.905 384.795C251.905 384.925 251.905 385.062 251.905 385.208H251.139Z" fill="white"/>
<path d="M257.76 385.128C257.258 385.128 256.844 385.038 256.52 384.858C256.195 384.679 255.954 384.433 255.796 384.12C255.638 383.808 255.559 383.451 255.559 383.049C255.559 382.652 255.636 382.301 255.791 381.994C255.947 381.687 256.17 381.447 256.46 381.276C256.751 381.101 257.098 381.014 257.502 381.014C257.857 381.014 258.162 381.078 258.416 381.208C258.673 381.338 258.871 381.528 259.009 381.779C259.147 382.028 259.216 382.336 259.216 382.704C259.216 382.802 259.213 382.89 259.208 382.97C259.205 383.046 259.197 383.125 259.182 383.204L258.569 382.914C258.574 382.872 258.577 382.832 258.577 382.795C258.58 382.756 258.581 382.717 258.581 382.68C258.581 382.307 258.482 382.024 258.285 381.831C258.087 381.635 257.829 381.537 257.51 381.537C257.253 381.537 257.032 381.6 256.846 381.724C256.662 381.846 256.52 382.015 256.418 382.232C256.316 382.449 256.266 382.696 256.266 382.974V383.065C256.266 383.372 256.322 383.636 256.435 383.859C256.548 384.081 256.719 384.253 256.947 384.374C257.179 384.493 257.472 384.553 257.828 384.553C257.96 384.553 258.1 384.544 258.247 384.525C258.396 384.504 258.543 384.472 258.687 384.43C258.834 384.388 258.974 384.332 259.106 384.263L259.136 384.855C259.029 384.91 258.904 384.959 258.763 385.001C258.622 385.041 258.467 385.071 258.298 385.093C258.128 385.116 257.949 385.128 257.76 385.128ZM255.851 383.204V382.736L258.755 382.712L259.182 382.863V383.204H255.851Z" fill="white"/>
<path d="M263.063 384.938C263.063 384.755 263.063 384.581 263.063 384.414C263.063 384.247 263.063 384.074 263.063 383.894C263.063 383.714 263.063 383.517 263.063 383.303V382.906C263.063 382.681 263.063 382.476 263.063 382.291C263.063 382.103 263.063 381.924 263.063 381.752C263.063 381.577 263.063 381.396 263.063 381.208L263.376 381.645H261.103L261.421 381.208C261.412 381.377 261.402 381.543 261.391 381.704C261.38 381.865 261.368 382.035 261.357 382.212C261.349 382.387 261.337 382.581 261.323 382.795C261.309 383.039 261.279 383.273 261.234 383.498C261.192 383.722 261.133 383.93 261.057 384.12C260.98 384.308 260.886 384.475 260.773 384.62L260.087 384.533C260.166 384.462 260.248 384.355 260.333 384.212C260.417 384.066 260.492 383.87 260.557 383.624C260.625 383.376 260.673 383.06 260.701 382.676C260.721 382.351 260.739 382.068 260.756 381.827C260.773 381.584 260.788 381.343 260.803 381.105H263.753C263.753 381.298 263.753 381.488 263.753 381.676C263.753 381.861 263.753 382.055 263.753 382.256C263.753 382.454 263.753 382.671 263.753 382.906V383.303C263.753 383.628 263.753 383.914 263.753 384.16C263.753 384.406 263.753 384.665 263.753 384.938H263.063ZM259.681 386.136C259.681 386.004 259.681 385.872 259.681 385.739C259.681 385.607 259.681 385.475 259.681 385.343C259.681 385.208 259.681 385.069 259.681 384.926C259.681 384.78 259.681 384.639 259.681 384.501C259.932 384.501 260.187 384.501 260.447 384.501C260.707 384.501 260.958 384.501 261.2 384.501H262.873C263.118 384.501 263.369 384.501 263.626 384.501C263.886 384.501 264.143 384.501 264.397 384.501C264.397 384.639 264.397 384.78 264.397 384.926C264.397 385.069 264.397 385.208 264.397 385.343C264.397 385.475 264.397 385.607 264.397 385.739C264.397 385.872 264.397 386.004 264.397 386.136H263.787L263.753 384.954L263.91 385.041H260.167L260.324 384.954L260.294 386.136H259.681Z" fill="white"/>
<path d="M267.106 385.128C266.758 385.128 266.452 385.073 266.187 384.962C265.924 384.848 265.704 384.694 265.527 384.501C265.349 384.308 265.213 384.087 265.12 383.839C265.03 383.587 264.985 383.324 264.985 383.049C264.985 382.655 265.069 382.306 265.239 382.002C265.411 381.695 265.654 381.453 265.967 381.276C266.283 381.098 266.658 381.01 267.093 381.01C267.429 381.01 267.726 381.061 267.986 381.164C268.246 381.268 268.466 381.412 268.647 381.597C268.827 381.782 268.964 381.999 269.057 382.248C269.15 382.494 269.197 382.761 269.197 383.049C269.197 383.438 269.112 383.79 268.943 384.105C268.774 384.419 268.532 384.669 268.219 384.855C267.909 385.037 267.537 385.128 267.106 385.128ZM267.106 384.557C267.413 384.557 267.669 384.486 267.872 384.343C268.075 384.2 268.227 384.013 268.329 383.783C268.431 383.553 268.481 383.308 268.481 383.049C268.481 382.753 268.425 382.495 268.312 382.275C268.199 382.056 268.04 381.885 267.834 381.764C267.628 381.642 267.384 381.581 267.101 381.581C266.797 381.581 266.54 381.646 266.331 381.775C266.122 381.905 265.964 382.081 265.857 382.303C265.752 382.525 265.7 382.774 265.7 383.049C265.7 383.308 265.751 383.553 265.852 383.783C265.957 384.013 266.114 384.2 266.322 384.343C266.531 384.486 266.792 384.557 267.106 384.557Z" fill="white"/>
<path d="M270.286 386.588C270.286 386.298 270.286 386.012 270.286 385.731C270.286 385.454 270.286 385.152 270.286 384.827V382.906C270.286 382.615 270.286 382.318 270.286 382.014C270.286 381.709 270.286 381.406 270.286 381.105L270.921 381.065L270.938 381.577H271.01C271.095 381.474 271.202 381.38 271.332 381.295C271.462 381.208 271.61 381.139 271.776 381.089C271.946 381.036 272.131 381.01 272.331 381.01C272.715 381.01 273.041 381.1 273.309 381.279C273.58 381.457 273.786 381.7 273.927 382.01C274.068 382.319 274.139 382.67 274.139 383.061C274.139 383.429 274.072 383.77 273.94 384.085C273.81 384.397 273.611 384.65 273.343 384.843C273.077 385.033 272.744 385.128 272.344 385.128C272.157 385.128 271.985 385.104 271.827 385.057C271.669 385.012 271.525 384.947 271.395 384.862C271.268 384.775 271.153 384.669 271.048 384.545H270.985V384.855C270.985 385.164 270.985 385.452 270.985 385.72C270.985 385.989 270.985 386.271 270.985 386.565L270.286 386.588ZM272.132 384.541C272.434 384.541 272.68 384.471 272.869 384.331C273.061 384.191 273.2 384.009 273.288 383.787C273.378 383.562 273.423 383.322 273.423 383.065C273.423 382.798 273.375 382.554 273.279 382.335C273.186 382.113 273.044 381.935 272.852 381.803C272.66 381.671 272.416 381.605 272.119 381.605C271.973 381.605 271.829 381.626 271.687 381.668C271.546 381.708 271.415 381.769 271.294 381.851C271.175 381.93 271.072 382.029 270.985 382.148V383.898C271.069 384.033 271.167 384.148 271.277 384.243C271.39 384.339 271.517 384.413 271.658 384.466C271.799 384.516 271.957 384.541 272.132 384.541Z" fill="white"/>
<path d="M277.119 385.128C276.772 385.128 276.465 385.073 276.2 384.962C275.938 384.848 275.717 384.694 275.54 384.501C275.362 384.308 275.226 384.087 275.133 383.839C275.043 383.587 274.998 383.324 274.998 383.049C274.998 382.655 275.082 382.306 275.252 382.002C275.424 381.695 275.667 381.453 275.98 381.276C276.296 381.098 276.671 381.01 277.106 381.01C277.442 381.01 277.74 381.061 277.999 381.164C278.259 381.268 278.479 381.412 278.66 381.597C278.84 381.782 278.977 381.999 279.07 382.248C279.163 382.494 279.21 382.761 279.21 383.049C279.21 383.438 279.125 383.79 278.956 384.105C278.787 384.419 278.545 384.669 278.232 384.855C277.922 385.037 277.55 385.128 277.119 385.128ZM277.119 384.557C277.426 384.557 277.682 384.486 277.885 384.343C278.088 384.2 278.241 384.013 278.342 383.783C278.444 383.553 278.495 383.308 278.495 383.049C278.495 382.753 278.438 382.495 278.325 382.275C278.212 382.056 278.053 381.885 277.847 381.764C277.641 381.642 277.397 381.581 277.114 381.581C276.81 381.581 276.553 381.646 276.344 381.775C276.135 381.905 275.977 382.081 275.87 382.303C275.765 382.525 275.713 382.774 275.713 383.049C275.713 383.308 275.764 383.553 275.866 383.783C275.97 384.013 276.127 384.2 276.335 384.343C276.544 384.486 276.805 384.557 277.119 384.557Z" fill="white"/>
<path d="M280.299 385.041C280.299 384.747 280.299 384.466 280.299 384.196C280.299 383.923 280.299 383.624 280.299 383.299V382.902C280.299 382.667 280.299 382.45 280.299 382.252C280.299 382.053 280.299 381.861 280.299 381.676C280.299 381.488 280.299 381.298 280.299 381.105C280.553 381.105 280.858 381.105 281.214 381.105C281.572 381.105 281.916 381.105 282.247 381.105C282.58 381.105 282.846 381.143 283.047 381.22C283.247 381.297 283.391 381.405 283.479 381.545C283.569 381.683 283.614 381.847 283.614 382.037C283.614 382.286 283.545 382.486 283.407 382.636C283.271 382.787 283.103 382.892 282.903 382.95V383.002C283.038 383.025 283.168 383.072 283.292 383.14C283.419 383.207 283.524 383.306 283.606 383.438C283.69 383.568 283.733 383.741 283.733 383.958C283.733 384.164 283.683 384.349 283.584 384.513C283.488 384.675 283.316 384.803 283.068 384.898C282.822 384.993 282.472 385.041 282.018 385.041C281.677 385.041 281.358 385.041 281.061 385.041C280.765 385.041 280.511 385.041 280.299 385.041ZM280.981 384.513H281.959C282.23 384.513 282.443 384.489 282.598 384.442C282.756 384.394 282.866 384.324 282.928 384.232C282.993 384.139 283.026 384.027 283.026 383.894C283.026 383.669 282.941 383.511 282.772 383.418C282.605 383.326 282.361 383.279 282.039 383.279H280.795V382.799H281.967C282.202 382.799 282.386 382.773 282.522 382.72C282.657 382.664 282.753 382.59 282.81 382.498C282.869 382.402 282.899 382.295 282.899 382.176C282.899 381.975 282.828 381.835 282.687 381.756C282.549 381.674 282.351 381.633 282.094 381.633H280.981C280.981 381.844 280.981 382.049 280.981 382.248C280.981 382.446 280.981 382.662 280.981 382.894V383.291C280.981 383.516 280.981 383.725 280.981 383.918C280.981 384.111 280.981 384.31 280.981 384.513Z" fill="white"/>
<path d="M286.681 385.12C286.227 385.12 285.84 385.03 285.521 384.851C285.205 384.671 284.964 384.426 284.798 384.116C284.631 383.807 284.548 383.458 284.548 383.069C284.548 382.68 284.627 382.331 284.785 382.021C284.946 381.709 285.179 381.463 285.483 381.283C285.791 381.104 286.165 381.014 286.605 381.014C286.769 381.014 286.93 381.027 287.088 381.053C287.249 381.08 287.4 381.115 287.541 381.16C287.682 381.203 287.808 381.253 287.918 381.311L287.854 381.914C287.696 381.83 287.546 381.765 287.405 381.72C287.267 381.672 287.137 381.641 287.016 381.625C286.897 381.606 286.787 381.597 286.686 381.597C286.257 381.597 285.912 381.729 285.653 381.994C285.393 382.256 285.263 382.61 285.263 383.057C285.263 383.337 285.32 383.591 285.433 383.819C285.548 384.044 285.72 384.222 285.949 384.355C286.18 384.484 286.467 384.549 286.808 384.549C286.93 384.549 287.05 384.538 287.168 384.517C287.29 384.496 287.41 384.466 287.528 384.426C287.647 384.384 287.761 384.329 287.871 384.263L287.93 384.862C287.837 384.91 287.728 384.954 287.604 384.993C287.48 385.03 287.34 385.061 287.185 385.085C287.033 385.108 286.865 385.12 286.681 385.12Z" fill="white"/>
<path d="M288.973 385.041C288.973 384.747 288.973 384.466 288.973 384.196C288.973 383.926 288.973 383.628 288.973 383.303V382.886C288.973 382.651 288.973 382.435 288.973 382.24C288.973 382.041 288.973 381.851 288.973 381.668C288.973 381.486 288.973 381.298 288.973 381.105L289.671 381.077C289.671 381.368 289.671 381.654 289.671 381.934C289.671 382.215 289.671 382.51 289.671 382.819V383.406C289.671 383.703 289.671 383.979 289.671 384.236C289.671 384.492 289.671 384.761 289.671 385.041H288.973ZM291.759 385.041C291.569 384.861 291.377 384.681 291.183 384.501C290.991 384.322 290.8 384.143 290.611 383.966L289.887 383.287H289.591V382.819H289.93L290.539 382.212C290.726 382.029 290.913 381.846 291.102 381.66C291.291 381.473 291.478 381.287 291.661 381.105H292.525C292.282 381.335 292.041 381.565 291.801 381.795C291.561 382.025 291.322 382.256 291.085 382.486L290.37 383.168L290.345 382.851L291.174 383.652C291.425 383.885 291.675 384.118 291.924 384.351C292.175 384.581 292.423 384.811 292.669 385.041H291.759Z" fill="white"/>
<path d="M295.193 385.128C294.846 385.128 294.54 385.073 294.275 384.962C294.012 384.848 293.792 384.694 293.614 384.501C293.437 384.308 293.301 384.087 293.208 383.839C293.118 383.587 293.073 383.324 293.073 383.049C293.073 382.655 293.157 382.306 293.327 382.002C293.499 381.695 293.741 381.453 294.055 381.276C294.371 381.098 294.746 381.01 295.181 381.01C295.517 381.01 295.814 381.061 296.074 381.164C296.334 381.268 296.554 381.412 296.734 381.597C296.915 381.782 297.052 381.999 297.145 382.248C297.238 382.494 297.285 382.761 297.285 383.049C297.285 383.438 297.2 383.79 297.031 384.105C296.861 384.419 296.62 384.669 296.307 384.855C295.996 385.037 295.625 385.128 295.193 385.128ZM295.193 384.557C295.501 384.557 295.757 384.486 295.96 384.343C296.163 384.2 296.315 384.013 296.417 383.783C296.519 383.553 296.569 383.308 296.569 383.049C296.569 382.753 296.513 382.495 296.4 382.275C296.287 382.056 296.128 381.885 295.922 381.764C295.716 381.642 295.471 381.581 295.189 381.581C294.884 381.581 294.628 381.646 294.419 381.775C294.21 381.905 294.052 382.081 293.945 382.303C293.84 382.525 293.788 382.774 293.788 383.049C293.788 383.308 293.839 383.553 293.94 383.783C294.045 384.013 294.201 384.2 294.41 384.343C294.619 384.486 294.88 384.557 295.193 384.557Z" fill="white"/>
<path d="M298.374 385.041C298.374 384.747 298.374 384.466 298.374 384.196C298.374 383.926 298.374 383.628 298.374 383.303V382.906C298.374 382.671 298.374 382.454 298.374 382.256C298.374 382.055 298.374 381.861 298.374 381.676C298.374 381.488 298.374 381.298 298.374 381.105H301.202V381.641C300.923 381.641 300.64 381.641 300.355 381.641C300.07 381.641 299.792 381.641 299.521 381.641H298.658L299.073 381.208C299.073 381.396 299.073 381.577 299.073 381.752C299.073 381.924 299.073 382.103 299.073 382.291C299.073 382.476 299.073 382.681 299.073 382.906V383.303C299.073 383.628 299.073 383.926 299.073 384.196C299.073 384.466 299.073 384.747 299.073 385.041H298.374Z" fill="white"/>
<path d="M303.908 385.128C303.561 385.128 303.255 385.073 302.99 384.962C302.727 384.848 302.507 384.694 302.329 384.501C302.152 384.308 302.016 384.087 301.923 383.839C301.833 383.587 301.787 383.324 301.787 383.049C301.787 382.655 301.872 382.306 302.041 382.002C302.214 381.695 302.456 381.453 302.77 381.276C303.086 381.098 303.461 381.01 303.896 381.01C304.232 381.01 304.529 381.061 304.789 381.164C305.049 381.268 305.269 381.412 305.449 381.597C305.63 381.782 305.767 381.999 305.86 382.248C305.953 382.494 306 382.761 306 383.049C306 383.438 305.915 383.79 305.746 384.105C305.576 384.419 305.335 384.669 305.022 384.855C304.711 385.037 304.34 385.128 303.908 385.128ZM303.908 384.557C304.216 384.557 304.471 384.486 304.675 384.343C304.878 384.2 305.03 384.013 305.132 383.783C305.233 383.553 305.284 383.308 305.284 383.049C305.284 382.753 305.228 382.495 305.115 382.275C305.002 382.056 304.843 381.885 304.637 381.764C304.431 381.642 304.186 381.581 303.904 381.581C303.599 381.581 303.343 381.646 303.134 381.775C302.925 381.905 302.767 382.081 302.66 382.303C302.555 382.525 302.503 382.774 302.503 383.049C302.503 383.308 302.554 383.553 302.655 383.783C302.76 384.013 302.916 384.2 303.125 384.343C303.334 384.486 303.595 384.557 303.908 384.557Z" fill="white"/>
</svg>
