<svg width="500" height="500" viewBox="0 0 500 500" fill="none" xmlns="http://www.w3.org/2000/svg">
<g clip-path="url(#clip0_55_184)">
<rect width="500" height="500" fill="#FEFFFE"/>
<path fill-rule="evenodd" clip-rule="evenodd" d="M0 0H500V500H0V0ZM0.78125 0.892857H61.7188L71.7188 70.5357H0.78125V0.892857ZM63.2813 0.892857H124.219L135.56 44L73.2813 70.5357L63.2813 0.892857ZM186.719 0.892857H125.781L137.122 44H198.06L186.719 0.892857ZM188.281 0.892857H249.219L260.56 44H199.622L188.281 0.892857ZM311.719 0.892857H250.781L262.122 44L339.592 72.3214L311.719 0.892857ZM313.281 0.892857H374.219L402.092 72.3214H341.155L313.281 0.892857ZM436.719 0.892857H375.781L403.655 72.3214H464.592L436.719 0.892857ZM438.281 0.892857H499.219V70.5357L466.155 72.3214L438.281 0.892857ZM71.7188 72.3214H0.78125V141.964H51.7188L71.7188 72.3214ZM73.2813 72.3214L135.56 45.7857L110.59 115.429L53.2813 141.964L73.2813 72.3214ZM198.06 45.7857H137.122L112.152 115.429H168.12L198.06 45.7857ZM199.622 45.7857H260.56L230.62 115.429H169.682L199.622 45.7857ZM339.592 74.1071L262.122 45.7857L232.182 115.429L301.719 141.964L339.592 74.1071ZM341.155 74.1071H402.092L382.092 143.75L303.281 141.964L341.155 74.1071ZM464.592 74.1071H403.655L383.655 143.75H444.592L464.592 74.1071ZM466.155 74.1071L499.219 72.3214V141.964L446.155 143.75L466.155 74.1071ZM51.7188 143.75H0.78125V213.393H71.7188L51.7188 143.75ZM53.2813 143.75L110.59 117.214L158.967 205.5L73.2813 213.393L53.2813 143.75ZM168.12 117.214H112.152L160.53 205.5H226.438L168.12 117.214ZM169.682 117.214H230.62L288.938 205.5H228L169.682 117.214ZM301.719 143.75L232.182 117.214L290.5 205.5L321.719 213.393L301.719 143.75ZM303.281 143.75L382.092 145.536L384.219 213.393H323.281L303.281 143.75ZM444.592 145.536H383.655L385.781 213.393H446.719L444.592 145.536ZM446.155 145.536L499.219 143.75V213.393H448.281L446.155 145.536ZM71.7188 215.179H0.78125V284.821H51.7188L71.7188 215.179ZM73.2813 215.179L158.967 207.286L146.779 275L53.2813 284.821L73.2813 215.179ZM226.438 207.286H160.53L148.341 275H204.309L226.438 207.286ZM228 207.286H288.938L260.56 315.071L205.871 275L228 207.286ZM321.719 215.179L290.5 207.286L262.122 315.071H328.03L321.719 215.179ZM323.281 215.179H384.219L390.53 315.071H329.592L323.281 215.179ZM446.719 215.179H385.781L392.092 315.071H453.03L446.719 215.179ZM448.281 215.179H499.219V284.821L454.592 315.071L448.281 215.179ZM51.7188 286.607H0.78125V356.25L104.279 346.429L51.7188 286.607ZM53.2813 286.607L146.779 276.786L166.779 346.429H105.841L53.2813 286.607ZM204.309 276.786H148.341L168.341 346.429H234.249L204.309 276.786ZM205.871 276.786L260.56 316.857L305.5 355.5L235.811 346.429L205.871 276.786ZM328.03 316.857H262.122L307.062 355.5L348.03 386.5L328.03 316.857ZM329.592 316.857H390.53L410.53 386.5H349.592L329.592 316.857ZM453.03 316.857H392.092L412.092 386.5H463.03L453.03 316.857ZM454.592 316.857L499.219 286.607V356.25L464.592 386.5L454.592 316.857ZM104.279 348.214L0.78125 358.036V427.679H51.7188L104.279 348.214ZM105.841 348.214H166.779L114.219 427.679H53.2813L105.841 348.214ZM234.249 348.214H168.341L115.781 427.679H171.749L234.249 348.214ZM235.811 348.214L305.5 355.5L234.249 427.679H173.311L235.811 348.214ZM348.03 386.5L307.062 355.5L235.811 427.679L328.03 456.143L348.03 386.5ZM349.592 386.5H410.53L390.53 456.143H329.592L349.592 386.5ZM463.03 386.5H412.092L392.092 456.143H453.03L463.03 386.5ZM464.592 386.5L499.219 358.036V427.679L454.592 456.143L464.592 386.5ZM51.7188 429.464H0.78125V499.107H61.7188L51.7188 429.464ZM53.2813 429.464H114.219L124.219 499.107H63.2813L53.2813 429.464ZM171.749 429.464H115.781L125.781 499.107H186.719L171.749 429.464ZM173.311 429.464H234.249L249.219 499.107H188.281L173.311 429.464ZM328.03 457.929L235.811 429.464L250.781 499.107L338.03 527.571L328.03 457.929ZM329.592 457.929H390.53L400.53 527.571H339.592L329.592 457.929ZM453.03 457.929H392.092L402.092 527.571H463.03L453.03 457.929ZM454.592 457.929L499.219 429.464V499.107L464.592 527.571L454.592 457.929Z" fill="url(#paint0_linear_55_184)"/>
<path d="M80 105H421C428.732 105 435 111.268 435 119V414.186C435 416.192 432.613 417.238 431.138 415.879L373.269 362.562C369.945 359.5 365.59 357.8 361.071 357.8H80C72.268 357.8 66 351.532 66 343.8V119C66 111.268 72.268 105 80 105Z" fill="white" stroke="#0D547A" stroke-width="4"/>
<path d="M115.689 146.472C115.005 146.289 114.41 145.937 113.936 145.474C113.295 145.636 112.606 145.643 111.922 145.46L110.038 144.954L107.814 144.356L107.214 142.134L106.707 140.254C106.523 139.571 106.527 138.882 106.687 138.242C106.272 137.816 105.946 137.292 105.751 136.692L105.692 136.495L104.989 133.889L104.286 136.495L104.227 136.692C104.032 137.292 103.706 137.816 103.29 138.242C103.45 138.882 103.456 139.571 103.271 140.254L102.764 142.134L102.164 144.356L99.9402 144.954L98.0565 145.46L97.8563 145.509C97.2381 145.641 96.6196 145.621 96.0408 145.474C95.5672 145.936 94.9733 146.289 94.2889 146.472M115.689 146.472L116.498 143.461V143.46L115.689 146.472ZM115.689 146.472L118.261 147.163L115.689 147.854C115.005 148.038 114.411 148.389 113.937 148.85C113.296 148.688 112.606 148.682 111.922 148.866L110.038 149.372L107.814 149.969L107.214 152.193L106.707 154.072C106.523 154.754 106.527 155.443 106.687 156.083C106.272 156.509 105.946 157.034 105.751 157.634L105.692 157.831L104.989 160.435L104.286 157.831L104.227 157.634C104.032 157.033 103.706 156.509 103.29 156.083C103.45 155.443 103.455 154.754 103.271 154.072L102.764 152.193L102.164 149.969L99.9402 149.372L98.0565 148.866L97.8563 148.818C97.2378 148.685 96.6188 148.704 96.0399 148.85C95.5664 148.389 94.9727 148.038 94.2889 147.854M94.2889 147.854L93.4793 150.865V150.866L94.2889 147.854ZM94.2889 147.854L91.7166 147.163L94.2889 146.472M94.2889 146.472L93.4793 143.46V143.461L94.2889 146.472ZM123.996 148.703L124.033 148.842C124.033 148.841 124.033 148.84 124.032 148.839L123.996 148.703ZM85.9461 148.838C85.9456 148.839 85.9447 148.84 85.9442 148.841L85.9813 148.703L85.9461 148.838ZM103.454 128.205V128.206L103.339 128.175L103.337 128.174L103.454 128.205ZM106.639 128.175L106.523 128.206V128.205L106.64 128.174L106.639 128.175Z" stroke="#0D547A" stroke-width="8" stroke-linecap="round" stroke-dasharray="4 4"/>
<path d="M104.579 143.62C104.626 143.738 104.678 143.855 104.737 143.97L105.976 146.386L106.375 147.163L105.976 147.94L104.737 150.357C104.678 150.471 104.626 150.588 104.579 150.705C104.532 150.588 104.48 150.471 104.422 150.357L103.182 147.94L102.783 147.163L103.182 146.386L104.422 143.97C104.48 143.855 104.532 143.738 104.579 143.62Z" stroke="#0D547A" stroke-width="8" stroke-linecap="round" stroke-dasharray="4 4"/>
<path d="M175.942 140.656C182.841 138.256 190.416 141.056 197.062 147.349C199.696 149.844 202.194 152.897 204.462 156.413C218.491 148.604 236.346 145.48 258.02 145.48H258.024L260.259 145.491H260.263L262.284 145.521C283.045 145.935 300.134 149.454 313.541 157.552C313.937 157.791 314.33 158.035 314.719 158.282C317.086 154.514 319.716 151.258 322.498 148.624C329.144 142.331 336.718 139.53 343.617 141.93C350.516 144.33 355.285 151.424 357.488 160.796C359.695 170.181 359.358 181.94 355.978 193.859C354.358 199.57 352.182 204.808 349.624 209.41C356.905 223.065 361.044 236.801 361.045 248.179L361.036 249.072C360.679 267.815 349.113 284.665 330.786 296.858C312.163 309.248 286.481 316.892 258.148 316.915L258.148 316.916C258.135 316.916 258.121 316.916 258.099 316.917L258.02 316.917C257.991 316.917 257.962 316.917 257.942 316.917C257.919 316.916 257.905 316.916 257.892 316.916C229.559 316.893 203.877 309.248 185.254 296.858C166.927 284.665 155.361 267.815 155.004 249.072L154.995 248.179C154.996 235.724 159.953 220.441 168.564 205.535C166.597 201.592 164.904 197.246 163.582 192.584C160.203 180.666 159.865 168.907 162.071 159.523C164.274 150.15 169.043 143.056 175.942 140.656Z" fill="#0D547A"/>
<path d="M173.483 141.473C180.382 139.073 187.957 141.874 194.603 148.167C197.237 150.662 199.734 153.715 202.002 157.231C216.032 149.422 233.887 146.297 255.561 146.297H255.565L257.799 146.309H257.803L259.825 146.339C280.586 146.752 297.674 150.272 311.082 158.37C311.478 158.609 311.87 158.853 312.26 159.1C314.627 155.332 317.257 152.076 320.039 149.442C326.685 143.148 334.259 140.347 341.158 142.747C348.057 145.147 352.825 152.242 355.029 161.614C357.236 170.999 356.898 182.758 353.518 194.677C351.899 200.388 349.722 205.626 347.165 210.227C354.446 223.882 358.585 237.619 358.585 248.996L358.576 249.891C358.219 268.647 346.636 285.509 328.285 297.705C309.638 310.097 283.923 317.735 255.561 317.735H255.558L254.237 317.73H254.233C226.176 317.493 200.793 309.783 182.4 297.413C164.3 285.24 152.896 268.494 152.544 249.884L152.536 248.996C152.536 236.542 157.493 221.259 166.105 206.352C164.138 202.41 162.445 198.064 161.123 193.402C157.743 181.484 157.405 169.725 159.612 160.34C161.815 150.968 166.584 143.874 173.483 141.473Z" fill="#0D547A"/>
<path d="M296.861 264.235C296.861 281.492 276.902 295.482 252.282 295.482C227.662 295.482 207.703 281.492 207.703 264.235C207.703 246.978 227.662 232.989 252.282 232.989C276.902 232.989 296.861 246.978 296.861 264.235Z" fill="#0D547A"/>
<path d="M266.14 248.123C262.497 255.617 259.617 258.3 251.571 258.3C243.525 258.3 240.644 255.617 237.002 248.123C233.36 240.629 243.525 240.222 251.571 240.222C259.617 240.222 269.782 240.629 266.14 248.123Z" fill="#0D547A"/>
<path d="M289.517 222.831C289.517 228.994 285.136 233.99 279.732 233.99C274.327 233.99 269.946 228.994 269.946 222.831C269.946 216.667 274.327 211.671 279.732 211.671C285.136 211.671 289.517 216.667 289.517 222.831Z" fill="#0D547A"/>
<path d="M214.494 222.831C214.494 228.994 218.876 233.99 224.28 233.99C229.684 233.99 234.066 228.994 234.066 222.831C234.066 216.667 229.684 211.671 224.28 211.671C218.876 211.671 214.494 216.667 214.494 222.831Z" fill="#0D547A"/>
<path d="M175.942 140.656L175.614 139.711L175.614 139.711L175.942 140.656ZM197.062 147.349L197.75 146.623L197.75 146.623L197.062 147.349ZM204.462 156.413L203.621 156.955C203.907 157.398 204.487 157.543 204.948 157.287L204.462 156.413ZM258.024 145.48L258.029 144.48H258.024V145.48ZM260.259 145.491L260.254 146.491H260.259V145.491ZM260.263 145.491L260.278 144.491C260.273 144.491 260.268 144.491 260.263 144.491V145.491ZM262.284 145.521L262.304 144.521L262.299 144.521L262.284 145.521ZM313.541 157.552L314.058 156.696V156.696L313.541 157.552ZM314.719 158.282L314.183 159.127C314.408 159.269 314.68 159.316 314.939 159.258C315.199 159.199 315.424 159.039 315.566 158.814L314.719 158.282ZM322.498 148.624L321.81 147.898V147.898L322.498 148.624ZM343.617 141.93L343.946 140.985L343.946 140.985L343.617 141.93ZM357.488 160.796L358.462 160.568V160.568L357.488 160.796ZM355.978 193.859L356.94 194.132V194.132L355.978 193.859ZM349.624 209.41L348.75 208.924C348.585 209.221 348.582 209.581 348.742 209.88L349.624 209.41ZM361.045 248.179L362.045 248.188V248.179H361.045ZM361.036 249.072L362.036 249.091L362.036 249.082L361.036 249.072ZM330.786 296.858L331.34 297.691L330.786 296.858ZM258.148 316.915L258.147 315.915C257.742 315.915 257.378 316.159 257.223 316.533C257.069 316.907 257.155 317.337 257.441 317.623L258.148 316.915ZM258.148 316.916L258.151 317.916C258.555 317.915 258.919 317.671 259.073 317.297C259.227 316.923 259.141 316.493 258.855 316.208L258.148 316.916ZM258.099 316.917L258.109 317.917L258.117 317.916L258.099 316.917ZM258.02 316.917V317.917L258.031 317.917L258.02 316.917ZM257.942 316.917L257.924 317.916H257.924L257.942 316.917ZM257.892 316.916L257.894 315.916H257.892L257.892 316.916ZM185.254 296.858L184.7 297.691H184.7L185.254 296.858ZM155.004 249.072L154.004 249.082L154.004 249.091L155.004 249.072ZM154.995 248.179H153.995L153.996 248.188L154.995 248.179ZM168.564 205.535L169.43 206.035C169.598 205.744 169.609 205.388 169.459 205.088L168.564 205.535ZM163.582 192.584L162.62 192.857L162.62 192.857L163.582 192.584ZM162.071 159.523L161.097 159.294L161.097 159.294L162.071 159.523ZM173.483 141.473L173.154 140.529L173.154 140.529L173.483 141.473ZM194.603 148.167L195.29 147.441L195.29 147.441L194.603 148.167ZM202.002 157.231L201.162 157.773C201.448 158.216 202.028 158.361 202.489 158.105L202.002 157.231ZM255.565 146.297L255.57 145.297H255.565V146.297ZM257.799 146.309L257.794 147.309H257.799V146.309ZM257.803 146.309L257.818 145.309C257.813 145.309 257.808 145.309 257.803 145.309V146.309ZM259.825 146.339L259.845 145.339L259.84 145.339L259.825 146.339ZM311.082 158.37L311.599 157.514V157.514L311.082 158.37ZM312.26 159.1L311.724 159.944C311.948 160.087 312.22 160.134 312.48 160.075C312.739 160.017 312.965 159.857 313.106 159.632L312.26 159.1ZM320.039 149.442L319.351 148.716V148.716L320.039 149.442ZM341.158 142.747L341.486 141.803L341.486 141.803L341.158 142.747ZM355.029 161.614L356.003 161.385L356.003 161.385L355.029 161.614ZM353.518 194.677L354.48 194.949V194.949L353.518 194.677ZM347.165 210.227L346.291 209.742C346.126 210.038 346.123 210.398 346.283 210.698L347.165 210.227ZM358.585 248.996L359.585 249.006V248.996H358.585ZM358.576 249.891L359.576 249.91L359.576 249.901L358.576 249.891ZM328.285 297.705L328.839 298.537H328.839L328.285 297.705ZM255.561 317.735V318.735H255.561L255.561 317.735ZM255.558 317.735L255.554 318.735H255.558V317.735ZM254.237 317.73L254.241 316.73H254.237V317.73ZM254.233 317.73L254.224 318.73H254.233V317.73ZM182.4 297.413L181.842 298.243H181.842L182.4 297.413ZM152.544 249.884L151.544 249.893L151.544 249.903L152.544 249.884ZM152.536 248.996H151.536L151.536 249.005L152.536 248.996ZM166.105 206.352L166.971 206.853C167.139 206.562 167.15 206.206 167 205.906L166.105 206.352ZM161.123 193.402L160.161 193.675L160.161 193.675L161.123 193.402ZM159.612 160.34L158.638 160.111L158.638 160.111L159.612 160.34ZM238.038 269.856L238.763 269.167L238.038 269.856ZM255.233 271.809L254.862 272.738L255.233 271.809ZM266.176 269.318L266.913 269.995H266.913L266.176 269.318ZM247.94 271.78L248.353 272.69L247.94 271.78ZM175.942 140.656L176.271 141.6C182.672 139.373 189.867 141.913 196.374 148.075L197.062 147.349L197.75 146.623C190.965 140.198 183.01 137.138 175.614 139.711L175.942 140.656ZM197.062 147.349L196.374 148.075C198.943 150.508 201.391 153.497 203.621 156.955L204.462 156.413L205.302 155.871C202.997 152.297 200.449 149.18 197.75 146.623L197.062 147.349ZM204.462 156.413L204.948 157.287C218.766 149.596 236.425 146.48 258.02 146.48V145.48V144.48C236.268 144.48 218.217 147.612 203.975 155.54L204.462 156.413ZM258.02 145.48V146.48H258.024V145.48V144.48H258.02V145.48ZM258.024 145.48L258.019 146.48L260.254 146.491L260.259 145.491L260.264 144.491L258.029 144.48L258.024 145.48ZM260.259 145.491V146.491H260.263V145.491V144.491H260.259V145.491ZM260.263 145.491L260.248 146.491L262.269 146.521L262.284 145.521L262.299 144.521L260.278 144.491L260.263 145.491ZM262.284 145.521L262.264 146.521C282.939 146.933 299.828 150.438 313.024 158.408L313.541 157.552L314.058 156.696C300.439 148.471 283.152 144.937 262.304 144.521L262.284 145.521ZM313.541 157.552L313.024 158.408C313.413 158.643 313.799 158.883 314.183 159.127L314.719 158.282L315.255 157.438C314.86 157.187 314.461 156.94 314.058 156.696L313.541 157.552ZM314.719 158.282L315.566 158.814C317.895 155.108 320.473 151.919 323.186 149.35L322.498 148.624L321.81 147.898C318.96 150.597 316.278 153.921 313.872 157.75L314.719 158.282ZM322.498 148.624L323.186 149.35C329.693 143.188 336.887 140.647 343.288 142.874L343.617 141.93L343.946 140.985C336.549 138.412 328.595 141.473 321.81 147.898L322.498 148.624ZM343.617 141.93L343.288 142.874C349.721 145.112 354.347 151.806 356.515 161.025L357.488 160.796L358.462 160.568C356.222 151.042 351.311 143.547 343.946 140.985L343.617 141.93ZM357.488 160.796L356.515 161.025C358.677 170.221 358.356 181.806 355.016 193.586L355.978 193.859L356.94 194.132C360.359 182.075 360.713 170.142 358.462 160.568L357.488 160.796ZM355.978 193.859L355.016 193.586C353.416 199.227 351.269 204.393 348.75 208.924L349.624 209.41L350.499 209.895C353.095 205.224 355.3 199.914 356.94 194.132L355.978 193.859ZM349.624 209.41L348.742 209.88C355.976 223.447 360.044 237.019 360.045 248.179L361.045 248.179H362.045C362.044 236.583 357.835 222.682 350.507 208.939L349.624 209.41ZM361.045 248.179L360.045 248.169L360.036 249.062L361.036 249.072L362.036 249.082L362.044 248.188L361.045 248.179ZM361.036 249.072L360.036 249.053C359.687 267.366 348.383 283.95 330.232 296.025L330.786 296.858L331.34 297.691C349.842 285.381 361.67 268.263 362.036 249.091L361.036 249.072ZM330.786 296.858L330.232 296.025C311.795 308.292 286.311 315.892 258.147 315.915L258.148 316.915L258.148 317.915C286.65 317.892 312.532 310.204 331.34 297.691L330.786 296.858ZM258.148 316.915L257.441 317.623L257.442 317.624L258.148 316.916L258.855 316.208L258.854 316.207L258.148 316.915ZM258.148 316.916L258.146 315.916C258.122 315.916 258.093 315.916 258.08 315.917L258.099 316.917L258.117 317.916C258.124 317.916 258.129 317.916 258.134 317.916C258.139 317.916 258.142 317.916 258.145 317.916C258.152 317.916 258.152 317.916 258.151 317.916L258.148 316.916ZM258.099 316.917L258.089 315.917L258.01 315.917L258.02 316.917L258.031 317.917L258.109 317.916L258.099 316.917ZM258.02 316.917V315.917C258 315.917 257.978 315.917 257.96 315.917L257.942 316.917L257.924 317.916C257.947 317.917 257.982 317.917 258.02 317.917V316.917ZM257.942 316.917L257.96 315.917C257.947 315.916 257.918 315.916 257.894 315.916L257.892 316.916L257.889 317.916C257.888 317.916 257.889 317.916 257.896 317.916C257.899 317.916 257.902 317.916 257.907 317.916C257.912 317.916 257.917 317.916 257.924 317.916L257.942 316.917ZM257.892 316.916L257.892 315.916C229.729 315.893 204.245 308.292 185.808 296.025L185.254 296.858L184.7 297.691C203.508 310.204 229.389 317.893 257.891 317.916L257.892 316.916ZM185.254 296.858L185.808 296.025C167.657 283.95 156.353 267.366 156.004 249.053L155.004 249.072L154.004 249.091C154.37 268.264 166.198 285.381 184.7 297.691L185.254 296.858ZM155.004 249.072L156.004 249.062L155.995 248.169L154.995 248.179L153.996 248.188L154.004 249.082L155.004 249.072ZM154.995 248.179L155.995 248.179C155.996 235.959 160.871 220.851 169.43 206.035L168.564 205.535L167.698 205.034C159.035 220.031 153.996 235.488 153.995 248.179H154.995ZM168.564 205.535L169.459 205.088C167.52 201.203 165.85 196.915 164.544 192.311L163.582 192.584L162.62 192.857C163.959 197.577 165.674 201.981 167.67 205.981L168.564 205.535ZM163.582 192.584L164.544 192.311C161.204 180.531 160.883 168.947 163.044 159.751L162.071 159.523L161.097 159.294C158.847 168.868 159.201 180.801 162.62 192.857L163.582 192.584ZM162.071 159.523L163.044 159.751C165.212 150.532 169.838 143.838 176.271 141.6L175.942 140.656L175.614 139.711C168.249 142.274 163.337 149.769 161.097 159.294L162.071 159.523ZM173.483 141.473L173.812 142.418C180.213 140.191 187.408 142.731 193.915 148.893L194.603 148.167L195.29 147.441C188.506 141.016 180.551 137.956 173.154 140.529L173.483 141.473ZM194.603 148.167L193.915 148.893C196.484 151.326 198.931 154.315 201.162 157.773L202.002 157.231L202.843 156.689C200.537 153.115 197.99 149.997 195.29 147.441L194.603 148.167ZM202.002 157.231L202.489 158.105C216.306 150.414 233.966 147.297 255.561 147.297V146.297V145.297C233.808 145.297 215.758 148.43 201.516 156.357L202.002 157.231ZM255.561 146.297V147.297H255.565V146.297V145.297H255.561V146.297ZM255.565 146.297L255.56 147.297L257.794 147.309L257.799 146.309L257.804 145.309L255.57 145.297L255.565 146.297ZM257.799 146.309V147.309H257.803V146.309V145.309H257.799V146.309ZM257.803 146.309L257.788 147.308L259.81 147.339L259.825 146.339L259.84 145.339L257.818 145.309L257.803 146.309ZM259.825 146.339L259.805 147.339C280.479 147.75 297.368 151.255 310.565 159.226L311.082 158.37L311.599 157.514C297.98 149.288 280.693 145.754 259.845 145.339L259.825 146.339ZM311.082 158.37L310.565 159.226C310.954 159.461 311.34 159.701 311.724 159.944L312.26 159.1L312.795 158.256C312.401 158.005 312.002 157.758 311.599 157.514L311.082 158.37ZM312.26 159.1L313.106 159.632C315.435 155.925 318.014 152.737 320.726 150.168L320.039 149.442L319.351 148.716C316.501 151.415 313.819 154.739 311.413 158.568L312.26 159.1ZM320.039 149.442L320.726 150.168C327.234 144.006 334.428 141.465 340.829 143.692L341.158 142.747L341.486 141.803C334.09 139.23 326.136 142.291 319.351 148.716L320.039 149.442ZM341.158 142.747L340.829 143.692C347.262 145.93 351.888 152.624 354.056 161.843L355.029 161.614L356.003 161.385C353.763 151.86 348.851 144.365 341.486 141.803L341.158 142.747ZM355.029 161.614L354.056 161.843C356.218 171.039 355.897 182.623 352.556 194.404L353.518 194.677L354.48 194.949C357.899 182.893 358.253 170.96 356.003 161.385L355.029 161.614ZM353.518 194.677L352.556 194.404C350.957 200.044 348.809 205.21 346.291 209.742L347.165 210.227L348.039 210.713C350.636 206.042 352.841 200.732 354.48 194.949L353.518 194.677ZM347.165 210.227L346.283 210.698C353.517 224.265 357.585 237.837 357.585 248.996L358.585 248.996H359.585C359.585 237.4 355.375 223.5 348.047 209.757L347.165 210.227ZM358.585 248.996L357.585 248.986L357.576 249.881L358.576 249.891L359.576 249.901L359.585 249.006L358.585 248.996ZM358.576 249.891L357.577 249.872C357.227 268.198 345.907 284.793 327.732 296.872L328.285 297.705L328.839 298.537C347.365 286.226 359.21 269.096 359.576 249.91L358.576 249.891ZM328.285 297.705L327.732 296.872C309.27 309.141 283.754 316.735 255.561 316.735V317.735L255.561 318.735C284.092 318.735 310.006 311.053 328.839 298.537L328.285 297.705ZM255.561 317.735V316.735H255.558V317.735V318.735H255.561V317.735ZM255.558 317.735L255.562 316.735L254.241 316.73L254.237 317.73L254.233 318.73L255.554 318.735L255.558 317.735ZM254.237 317.73V316.73H254.233V317.73V318.73H254.237V317.73ZM254.233 317.73L254.241 316.73C226.353 316.495 201.167 308.829 182.959 296.583L182.4 297.413L181.842 298.243C200.419 310.736 226 318.492 254.224 318.729L254.233 317.73ZM182.4 297.413L182.959 296.583C165.033 284.528 153.888 268.048 153.544 249.865L152.544 249.884L151.544 249.903C151.904 268.94 163.567 285.952 181.842 298.243L182.4 297.413ZM152.544 249.884L153.544 249.875L153.536 248.987L152.536 248.996L151.536 249.005L151.544 249.893L152.544 249.884ZM152.536 248.996L153.536 248.996C153.536 236.777 158.411 221.669 166.971 206.853L166.105 206.352L165.239 205.852C156.575 220.849 151.536 236.306 151.536 248.996H152.536ZM166.105 206.352L167 205.906C165.061 202.021 163.391 197.733 162.085 193.129L161.123 193.402L160.161 193.675C161.499 198.395 163.214 202.799 165.21 206.799L166.105 206.352ZM161.123 193.402L162.085 193.129C158.744 181.349 158.423 169.765 160.585 160.569L159.612 160.34L158.638 160.111C156.387 169.686 156.742 181.618 160.161 193.675L161.123 193.402ZM159.612 160.34L160.585 160.569C162.753 151.35 167.379 144.656 173.812 142.418L173.483 141.473L173.154 140.529C165.789 143.091 160.878 150.586 158.638 160.111L159.612 160.34ZM296.861 264.235H295.861C295.861 272.449 291.113 279.986 283.23 285.511C275.35 291.034 264.412 294.482 252.282 294.482V295.482V296.482C264.772 296.482 276.123 292.935 284.378 287.149C292.63 281.365 297.861 273.279 297.861 264.235H296.861ZM252.282 295.482V294.482C240.152 294.482 229.214 291.034 221.334 285.511C213.451 279.986 208.703 272.449 208.703 264.235H207.703H206.703C206.703 273.279 211.934 281.365 220.186 287.149C228.441 292.935 239.792 296.482 252.282 296.482V295.482ZM207.703 264.235H208.703C208.703 256.022 213.451 248.485 221.334 242.959C229.214 237.436 240.152 233.989 252.282 233.989V232.989V231.989C239.792 231.989 228.441 235.536 220.186 241.322C211.934 247.106 206.703 255.192 206.703 264.235H207.703ZM252.282 232.989V233.989C264.412 233.989 275.35 237.436 283.23 242.959C291.113 248.485 295.861 256.022 295.861 264.235H296.861H297.861C297.861 255.192 292.63 247.106 284.378 241.322C276.123 235.536 264.772 231.989 252.282 231.989V232.989ZM266.14 248.123L265.24 247.686C263.429 251.413 261.886 253.763 259.913 255.217C257.975 256.646 255.489 257.3 251.571 257.3V258.3V259.3C255.699 259.3 258.676 258.613 261.1 256.827C263.49 255.065 265.208 252.328 267.039 248.56L266.14 248.123ZM251.571 258.3V257.3C247.653 257.3 245.167 256.646 243.228 255.217C241.256 253.763 239.713 251.413 237.902 247.686L237.002 248.123L236.103 248.56C237.934 252.328 239.652 255.065 242.042 256.827C244.465 258.613 247.443 259.3 251.571 259.3V258.3ZM237.002 248.123L237.902 247.686C237.067 245.968 237.133 244.892 237.498 244.187C237.888 243.437 238.77 242.798 240.222 242.31C243.13 241.333 247.51 241.222 251.571 241.222V240.222V239.222C247.585 239.222 242.86 239.314 239.585 240.414C237.945 240.965 236.466 241.833 235.723 243.266C234.956 244.745 235.117 246.531 236.103 248.56L237.002 248.123ZM251.571 240.222V241.222C255.632 241.222 260.012 241.333 262.92 242.31C264.372 242.798 265.254 243.437 265.644 244.187C266.009 244.892 266.075 245.968 265.24 247.686L266.14 248.123L267.039 248.56C268.025 246.531 268.186 244.745 267.419 243.266C266.675 241.833 265.196 240.965 263.557 240.414C260.282 239.314 255.556 239.222 251.571 239.222V240.222ZM251.73 258.365H250.73V272.268H251.73H252.73V258.365H251.73ZM289.517 222.831H288.517C288.517 228.569 284.464 232.99 279.732 232.99V233.99V234.99C285.808 234.99 290.517 229.419 290.517 222.831H289.517ZM279.732 233.99V232.99C274.999 232.99 270.946 228.569 270.946 222.831H269.946H268.946C268.946 229.419 273.656 234.99 279.732 234.99V233.99ZM269.946 222.831H270.946C270.946 217.092 274.999 212.671 279.732 212.671V211.671V210.671C273.656 210.671 268.946 216.243 268.946 222.831H269.946ZM279.732 211.671V212.671C284.464 212.671 288.517 217.092 288.517 222.831H289.517H290.517C290.517 216.243 285.808 210.671 279.732 210.671V211.671ZM214.494 222.831H213.494C213.494 229.419 218.204 234.99 224.28 234.99V233.99V232.99C219.547 232.99 215.494 228.569 215.494 222.831H214.494ZM224.28 233.99V234.99C230.356 234.99 235.066 229.419 235.066 222.831H234.066H233.066C233.066 228.569 229.013 232.99 224.28 232.99V233.99ZM234.066 222.831H235.066C235.066 216.243 230.356 210.671 224.28 210.671V211.671V212.671C229.013 212.671 233.066 217.092 233.066 222.831H234.066ZM224.28 211.671V210.671C218.204 210.671 213.494 216.243 213.494 222.831H214.494H215.494C215.494 217.092 219.547 212.671 224.28 212.671V211.671ZM235.333 267.014L234.609 267.703L237.314 270.546L238.038 269.856L238.763 269.167L236.057 266.324L235.333 267.014ZM266.176 269.318L266.913 269.995L269.214 267.49L268.478 266.813L267.741 266.137L265.44 268.642L266.176 269.318ZM255.233 271.809L254.862 272.738C259.059 274.412 263.858 273.321 266.913 269.995L266.176 269.318L265.44 268.642C262.947 271.355 259.03 272.247 255.603 270.88L255.233 271.809ZM238.038 269.856L237.314 270.546C240.16 273.535 244.592 274.396 248.353 272.69L247.94 271.78L247.527 270.869C244.54 272.223 241.021 271.539 238.763 269.167L238.038 269.856ZM247.94 271.78L248.353 272.69C250.215 271.846 252.859 271.938 254.862 272.738L255.233 271.809L255.603 270.88C253.203 269.922 249.982 269.756 247.527 270.869L247.94 271.78Z" fill="#0D547A"/>
<path d="M166.925 148.016C173.824 145.616 181.398 148.416 188.045 154.71C190.679 157.204 193.176 160.257 195.444 163.774C209.474 155.965 227.329 152.84 249.003 152.84H249.007L251.241 152.851H251.245L253.267 152.882C274.028 153.295 291.116 156.815 304.524 164.913C304.92 165.152 305.312 165.396 305.701 165.643C308.069 161.875 310.699 158.619 313.481 155.984C320.127 149.691 327.701 146.89 334.6 149.29C341.499 151.69 346.267 158.785 348.471 168.157C350.677 177.542 350.34 189.301 346.96 201.219C345.341 206.931 343.164 212.169 340.607 216.77C347.888 230.425 352.027 244.161 352.027 255.539L352.018 256.433C351.661 275.175 340.095 292.026 321.769 304.219C303.146 316.608 277.463 324.253 249.13 324.275L249.131 324.276C249.118 324.276 249.104 324.277 249.081 324.277L249.003 324.278C248.973 324.278 248.945 324.277 248.925 324.277C248.902 324.277 248.887 324.276 248.874 324.276C220.542 324.253 194.859 316.608 176.236 304.219C157.91 292.026 146.344 275.175 145.987 256.433L145.978 255.539C145.978 243.084 150.935 227.802 159.547 212.895C157.579 208.953 155.887 204.606 154.565 199.945C151.185 188.026 150.847 176.268 153.053 166.883C155.257 157.511 160.026 150.416 166.925 148.016Z" fill="white"/>
<path d="M164.466 148.834C171.365 146.434 178.939 149.234 185.585 155.528C188.22 158.022 190.717 161.075 192.985 164.592C207.015 156.783 224.87 153.658 246.544 153.658H246.548L248.782 153.669H248.786L250.807 153.699C271.569 154.113 288.657 157.632 302.065 165.731C302.46 165.97 302.853 166.213 303.242 166.461C305.61 162.693 308.24 159.436 311.021 156.802C317.667 150.509 325.241 147.708 332.14 150.108C339.039 152.508 343.808 159.603 346.012 168.975C348.218 178.36 347.881 190.119 344.501 202.037C342.881 207.749 340.705 212.987 338.148 217.588C345.429 231.243 349.568 244.979 349.568 256.357L349.559 257.251C349.201 276.008 337.618 292.87 319.268 305.065C300.62 317.458 274.906 325.096 246.544 325.096H246.54L245.219 325.09H245.215C217.159 324.854 191.776 317.143 173.383 304.774C155.283 292.601 143.879 275.855 143.527 257.244L143.519 256.357C143.519 243.902 148.476 228.62 157.088 213.713C155.12 209.77 153.428 205.424 152.106 200.762C148.726 188.844 148.388 177.086 150.594 167.701C152.798 158.329 157.567 151.234 164.466 148.834Z" fill="white"/>
<path d="M287.843 271.596C287.843 288.853 267.885 302.843 243.265 302.843C218.644 302.843 198.686 288.853 198.686 271.596C198.686 254.339 218.644 240.349 243.265 240.349C267.885 240.349 287.843 254.339 287.843 271.596Z" fill="white"/>
<path d="M257.122 255.483C253.48 262.978 250.6 265.661 242.553 265.661C234.507 265.661 231.627 262.978 227.985 255.483C224.343 247.989 234.507 247.583 242.553 247.583C250.6 247.583 260.764 247.989 257.122 255.483Z" fill="#0D547A"/>
<path d="M280.5 230.191C280.5 236.354 276.119 241.351 270.714 241.351C265.31 241.351 260.929 236.354 260.929 230.191C260.929 224.028 265.31 219.032 270.714 219.032C276.119 219.032 280.5 224.028 280.5 230.191Z" fill="#0D547A"/>
<path d="M205.477 230.191C205.477 236.354 209.858 241.351 215.263 241.351C220.667 241.351 225.048 236.354 225.048 230.191C225.048 224.028 220.667 219.032 215.263 219.032C209.858 219.032 205.477 224.028 205.477 230.191Z" fill="#0D547A"/>
<path d="M166.925 148.016L166.596 147.072L166.596 147.072L166.925 148.016ZM188.045 154.71L188.732 153.984L188.732 153.984L188.045 154.71ZM195.444 163.774L194.604 164.316C194.89 164.759 195.47 164.904 195.931 164.648L195.444 163.774ZM249.007 152.84L249.012 151.84H249.007V152.84ZM251.241 152.851L251.236 153.851H251.241V152.851ZM251.245 152.851L251.26 151.851C251.255 151.851 251.25 151.851 251.245 151.851V152.851ZM253.267 152.882L253.287 151.882L253.282 151.882L253.267 152.882ZM304.524 164.913L305.041 164.057V164.057L304.524 164.913ZM305.701 165.643L305.166 166.487C305.39 166.63 305.662 166.677 305.922 166.618C306.181 166.56 306.407 166.4 306.548 166.175L305.701 165.643ZM313.481 155.984L312.793 155.258L312.793 155.258L313.481 155.984ZM334.6 149.29L334.928 148.346L334.928 148.346L334.6 149.29ZM348.471 168.157L349.444 167.928L349.444 167.928L348.471 168.157ZM346.96 201.219L347.922 201.492V201.492L346.96 201.219ZM340.607 216.77L339.733 216.284C339.568 216.581 339.565 216.941 339.725 217.241L340.607 216.77ZM352.027 255.539L353.027 255.549V255.539H352.027ZM352.018 256.433L353.018 256.452L353.018 256.443L352.018 256.433ZM321.769 304.219L322.323 305.051L321.769 304.219ZM249.13 324.275L249.129 323.275C248.724 323.276 248.359 323.521 248.205 323.895C248.051 324.27 248.139 324.701 248.427 324.986L249.13 324.275ZM249.131 324.276L249.133 325.276C249.538 325.275 249.903 325.03 250.056 324.656C250.21 324.281 250.122 323.851 249.835 323.566L249.131 324.276ZM249.081 324.277L249.092 325.277L249.1 325.277L249.081 324.277ZM249.003 324.278V325.278L249.013 325.278L249.003 324.278ZM248.925 324.277L248.906 325.277H248.906L248.925 324.277ZM248.874 324.276L248.877 323.276H248.875L248.874 324.276ZM176.236 304.219L175.682 305.051L176.236 304.219ZM145.987 256.433L144.987 256.443L144.987 256.452L145.987 256.433ZM145.978 255.539H144.978L144.978 255.549L145.978 255.539ZM159.547 212.895L160.413 213.395C160.581 213.105 160.592 212.749 160.442 212.449L159.547 212.895ZM154.565 199.945L153.603 200.217L153.603 200.217L154.565 199.945ZM153.053 166.883L152.08 166.654L152.08 166.654L153.053 166.883ZM164.466 148.834L164.137 147.889L164.137 147.889L164.466 148.834ZM185.585 155.528L186.273 154.801L186.273 154.801L185.585 155.528ZM192.985 164.592L192.145 165.134C192.43 165.577 193.011 165.722 193.471 165.465L192.985 164.592ZM246.548 153.658L246.553 152.658H246.548V153.658ZM248.782 153.669L248.777 154.669H248.782V153.669ZM248.786 153.669L248.801 152.669C248.796 152.669 248.791 152.669 248.786 152.669V153.669ZM250.807 153.699L250.827 152.7L250.822 152.7L250.807 153.699ZM302.065 165.731L302.582 164.875V164.875L302.065 165.731ZM303.242 166.461L302.706 167.305C302.931 167.447 303.203 167.495 303.463 167.436C303.722 167.377 303.947 167.218 304.089 166.993L303.242 166.461ZM311.021 156.802L310.334 156.076L310.334 156.076L311.021 156.802ZM332.14 150.108L332.469 149.163L332.469 149.163L332.14 150.108ZM346.012 168.975L346.985 168.746L346.985 168.746L346.012 168.975ZM344.501 202.037L345.463 202.31V202.31L344.501 202.037ZM338.148 217.588L337.274 217.102C337.109 217.399 337.106 217.759 337.265 218.058L338.148 217.588ZM349.568 256.357L350.568 256.367V256.357H349.568ZM349.559 257.251L350.559 257.27L350.559 257.261L349.559 257.251ZM319.268 305.065L319.821 305.898L319.268 305.065ZM246.544 325.096V326.096V325.096ZM246.54 325.096L246.536 326.096H246.54V325.096ZM245.219 325.09L245.224 324.09H245.219V325.09ZM245.215 325.09L245.207 326.09H245.215V325.09ZM173.383 304.774L172.825 305.603H172.825L173.383 304.774ZM143.527 257.244L142.527 257.253L142.527 257.263L143.527 257.244ZM143.519 256.357H142.519L142.519 256.366L143.519 256.357ZM157.088 213.713L157.953 214.213C158.121 213.922 158.132 213.567 157.982 213.266L157.088 213.713ZM152.106 200.762L151.144 201.035L151.144 201.035L152.106 200.762ZM150.594 167.701L149.621 167.472L149.621 167.472L150.594 167.701ZM229.021 277.217L229.745 276.527L229.021 277.217ZM246.215 279.169L245.845 280.098L246.215 279.169ZM257.159 276.679L257.895 277.355L257.159 276.679ZM238.922 279.14L239.335 280.051L238.922 279.14ZM166.925 148.016L167.253 148.961C173.655 146.734 180.849 149.274 187.357 155.436L188.045 154.71L188.732 153.984C181.948 147.559 173.993 144.499 166.596 147.072L166.925 148.016ZM188.045 154.71L187.357 155.436C189.926 157.868 192.373 160.858 194.604 164.316L195.444 163.774L196.285 163.232C193.979 159.657 191.432 156.54 188.732 153.984L188.045 154.71ZM195.444 163.774L195.931 164.648C209.748 156.957 227.408 153.84 249.003 153.84V152.84V151.84C227.25 151.84 209.2 154.973 194.958 162.9L195.444 163.774ZM249.003 152.84V153.84H249.007V152.84V151.84H249.003V152.84ZM249.007 152.84L249.002 153.84L251.236 153.851L251.241 152.851L251.246 151.851L249.012 151.84L249.007 152.84ZM251.241 152.851V153.851H251.245V152.851V151.851H251.241V152.851ZM251.245 152.851L251.23 153.851L253.252 153.882L253.267 152.882L253.282 151.882L251.26 151.851L251.245 152.851ZM253.267 152.882L253.247 153.881C273.921 154.293 290.81 157.798 304.007 165.769L304.524 164.913L305.041 164.057C291.422 155.831 274.135 152.297 253.287 151.882L253.267 152.882ZM304.524 164.913L304.007 165.769C304.396 166.004 304.782 166.243 305.166 166.487L305.701 165.643L306.237 164.798C305.843 164.548 305.444 164.3 305.041 164.057L304.524 164.913ZM305.701 165.643L306.548 166.175C308.877 162.468 311.456 159.279 314.168 156.711L313.481 155.984L312.793 155.258C309.942 157.958 307.261 161.282 304.855 165.111L305.701 165.643ZM313.481 155.984L314.168 156.711C320.676 150.548 327.87 148.008 334.271 150.235L334.6 149.29L334.928 148.346C327.532 145.773 319.577 148.834 312.793 155.258L313.481 155.984ZM334.6 149.29L334.271 150.235C340.704 152.473 345.33 159.167 347.498 168.386L348.471 168.157L349.444 167.928C347.205 158.403 342.293 150.908 334.928 148.346L334.6 149.29ZM348.471 168.157L347.497 168.386C349.659 177.581 349.339 189.166 345.998 200.947L346.96 201.219L347.922 201.492C351.341 189.435 351.695 177.503 349.444 167.928L348.471 168.157ZM346.96 201.219L345.998 200.947C344.399 206.587 342.251 211.753 339.733 216.284L340.607 216.77L341.481 217.256C344.078 212.584 346.283 207.275 347.922 201.492L346.96 201.219ZM340.607 216.77L339.725 217.241C346.959 230.808 351.027 244.38 351.027 255.539H352.027H353.027C353.027 243.943 348.817 230.043 341.489 216.3L340.607 216.77ZM352.027 255.539L351.027 255.529L351.018 256.423L352.018 256.433L353.018 256.443L353.027 255.549L352.027 255.539ZM352.018 256.433L351.018 256.414C350.67 274.726 339.366 291.31 321.215 303.386L321.769 304.219L322.323 305.051C340.825 292.742 352.653 275.624 353.018 256.452L352.018 256.433ZM321.769 304.219L321.215 303.386C302.777 315.652 277.293 323.253 249.129 323.275L249.13 324.275L249.131 325.275C277.633 325.252 303.514 317.565 322.323 305.051L321.769 304.219ZM249.13 324.275L248.427 324.986L248.427 324.987L249.131 324.276L249.835 323.566L249.834 323.565L249.13 324.275ZM249.131 324.276L249.129 323.276C249.105 323.276 249.075 323.277 249.063 323.277L249.081 324.277L249.1 325.277C249.106 325.277 249.112 325.277 249.117 325.277C249.122 325.276 249.125 325.276 249.128 325.276C249.134 325.276 249.135 325.276 249.133 325.276L249.131 324.276ZM249.081 324.277L249.071 323.277L248.993 323.278L249.003 324.278L249.013 325.278L249.092 325.277L249.081 324.277ZM249.003 324.278V323.278C248.982 323.278 248.96 323.278 248.943 323.277L248.925 324.277L248.906 325.277C248.929 325.277 248.965 325.278 249.003 325.278V324.278ZM248.925 324.277L248.943 323.277C248.93 323.277 248.9 323.276 248.877 323.276L248.874 324.276L248.871 325.276C248.87 325.276 248.871 325.276 248.878 325.276C248.881 325.276 248.885 325.277 248.89 325.277C248.894 325.277 248.9 325.277 248.906 325.277L248.925 324.277ZM248.874 324.276L248.875 323.276C220.711 323.253 195.228 315.652 176.79 303.386L176.236 304.219L175.682 305.051C194.491 317.564 220.372 325.253 248.873 325.276L248.874 324.276ZM176.236 304.219L176.79 303.386C158.639 291.31 147.335 274.726 146.987 256.414L145.987 256.433L144.987 256.452C145.352 275.624 157.18 292.742 175.682 305.051L176.236 304.219ZM145.987 256.433L146.987 256.423L146.978 255.529L145.978 255.539L144.978 255.549L144.987 256.443L145.987 256.433ZM145.978 255.539H146.978C146.978 243.32 151.853 228.212 160.413 213.395L159.547 212.895L158.681 212.395C150.017 227.392 144.978 242.849 144.978 255.539H145.978ZM159.547 212.895L160.442 212.449C158.503 208.563 156.832 204.275 155.527 199.672L154.565 199.945L153.603 200.217C154.941 204.937 156.656 209.342 158.652 213.342L159.547 212.895ZM154.565 199.945L155.527 199.672C152.186 187.892 151.865 176.307 154.027 167.112L153.053 166.883L152.08 166.654C149.829 176.229 150.184 188.161 153.603 200.217L154.565 199.945ZM153.053 166.883L154.027 167.112C156.194 157.893 160.821 151.199 167.253 148.961L166.925 148.016L166.596 147.072C159.231 149.634 154.319 157.129 152.08 166.654L153.053 166.883ZM164.466 148.834L164.794 149.778C171.196 147.551 178.39 150.091 184.898 156.254L185.585 155.528L186.273 154.801C179.488 148.377 171.534 145.316 164.137 147.889L164.466 148.834ZM185.585 155.528L184.898 156.254C187.466 158.686 189.914 161.675 192.145 165.134L192.985 164.592L193.825 164.05C191.52 160.475 188.973 157.358 186.273 154.801L185.585 155.528ZM192.985 164.592L193.471 165.465C207.289 157.775 224.948 154.658 246.544 154.658V153.658V152.658C224.791 152.658 206.74 155.791 192.499 163.718L192.985 164.592ZM246.544 153.658V154.658H246.548V153.658V152.658H246.544V153.658ZM246.548 153.658L246.543 154.658L248.777 154.669L248.782 153.669L248.787 152.669L246.553 152.658L246.548 153.658ZM248.782 153.669V154.669H248.786V153.669V152.669H248.782V153.669ZM248.786 153.669L248.771 154.669L250.792 154.699L250.807 153.699L250.822 152.7L248.801 152.669L248.786 153.669ZM250.807 153.699L250.788 154.699C271.462 155.111 288.351 158.616 301.548 166.587L302.065 165.731L302.582 164.875C288.963 156.649 271.676 153.115 250.827 152.7L250.807 153.699ZM302.065 165.731L301.548 166.587C301.936 166.821 302.322 167.061 302.706 167.305L303.242 166.461L303.778 165.616C303.383 165.366 302.985 165.118 302.582 164.875L302.065 165.731ZM303.242 166.461L304.089 166.993C306.418 163.286 308.996 160.097 311.709 157.528L311.021 156.802L310.334 156.076C307.483 158.776 304.801 162.1 302.395 165.928L303.242 166.461ZM311.021 156.802L311.709 157.528C318.216 151.366 325.41 148.826 331.812 151.052L332.14 150.108L332.469 149.163C325.072 146.59 317.118 149.652 310.334 156.076L311.021 156.802ZM332.14 150.108L331.812 151.052C338.245 153.29 342.871 159.984 345.038 169.204L346.012 168.975L346.985 168.746C344.746 159.221 339.834 151.726 332.469 149.163L332.14 150.108ZM346.012 168.975L345.038 169.204C347.2 178.399 346.88 189.984 343.539 201.764L344.501 202.037L345.463 202.31C348.882 190.253 349.236 178.32 346.985 168.746L346.012 168.975ZM344.501 202.037L343.539 201.764C341.939 207.405 339.792 212.571 337.274 217.102L338.148 217.588L339.022 218.074C341.618 213.402 343.823 208.092 345.463 202.31L344.501 202.037ZM338.148 217.588L337.265 218.058C344.499 231.625 348.568 245.197 348.568 256.357H349.568H350.568C350.568 244.761 346.358 230.86 339.03 217.117L338.148 217.588ZM349.568 256.357L348.568 256.347L348.559 257.241L349.559 257.251L350.559 257.261L350.568 256.367L349.568 256.357ZM349.559 257.251L348.559 257.232C348.21 275.559 336.889 292.154 318.714 304.232L319.268 305.065L319.821 305.898C338.347 293.586 350.193 276.457 350.559 257.27L349.559 257.251ZM319.268 305.065L318.714 304.232C300.253 316.501 274.736 324.096 246.544 324.096V325.096V326.096C275.075 326.096 300.988 318.414 319.821 305.898L319.268 305.065ZM246.544 325.096V324.096H246.54V325.096V326.096H246.544V325.096ZM246.54 325.096L246.545 324.096L245.224 324.09L245.219 325.09L245.215 326.09L246.536 326.096L246.54 325.096ZM245.219 325.09V324.09H245.215V325.09V326.09H245.219V325.09ZM245.215 325.09L245.224 324.09C217.335 323.855 192.149 316.189 173.941 303.944L173.383 304.774L172.825 305.603C191.402 318.097 216.983 325.852 245.207 326.09L245.215 325.09ZM173.383 304.774L173.941 303.944C156.016 291.889 144.87 275.409 144.527 257.225L143.527 257.244L142.527 257.263C142.887 276.3 154.55 293.313 172.825 305.603L173.383 304.774ZM143.527 257.244L144.527 257.235L144.519 256.348L143.519 256.357L142.519 256.366L142.527 257.253L143.527 257.244ZM143.519 256.357H144.519C144.519 244.138 149.394 229.03 157.953 214.213L157.088 213.713L156.222 213.213C147.558 228.209 142.519 243.667 142.519 256.357H143.519ZM157.088 213.713L157.982 213.266C156.043 209.381 154.373 205.093 153.068 200.49L152.106 200.762L151.144 201.035C152.482 205.755 154.197 210.16 156.193 214.159L157.088 213.713ZM152.106 200.762L153.068 200.49C149.727 188.709 149.406 177.125 151.568 167.93L150.594 167.701L149.621 167.472C147.37 177.046 147.725 188.979 151.144 201.035L152.106 200.762ZM150.594 167.701L151.568 167.93C153.735 158.711 158.361 152.017 164.794 149.778L164.466 148.834L164.137 147.889C156.772 150.452 151.86 157.947 149.621 167.472L150.594 167.701ZM287.843 271.596H286.843C286.843 279.809 282.095 287.347 274.213 292.872C266.333 298.395 255.394 301.843 243.265 301.843V302.843V303.843C255.755 303.843 267.106 300.296 275.36 294.51C283.612 288.726 288.843 280.64 288.843 271.596H287.843ZM243.265 302.843V301.843C231.135 301.843 220.196 298.395 212.317 292.872C204.434 287.347 199.686 279.809 199.686 271.596H198.686H197.686C197.686 280.64 202.917 288.726 211.169 294.51C219.423 300.296 230.774 303.843 243.265 303.843V302.843ZM198.686 271.596H199.686C199.686 263.383 204.434 255.845 212.317 250.32C220.196 244.797 231.135 241.349 243.265 241.349V240.349V239.349C230.774 239.349 219.423 242.896 211.169 248.682C202.917 254.466 197.686 262.552 197.686 271.596H198.686ZM243.265 240.349V241.349C255.394 241.349 266.333 244.797 274.213 250.32C282.095 255.845 286.843 263.383 286.843 271.596H287.843H288.843C288.843 262.552 283.612 254.466 275.36 248.682C267.106 242.896 255.755 239.349 243.265 239.349V240.349ZM257.122 255.483L256.223 255.046C254.412 258.773 252.868 261.124 250.896 262.578C248.957 264.006 246.472 264.661 242.553 264.661V265.661V266.661C246.681 266.661 249.659 265.974 252.083 264.188C254.473 262.426 256.191 259.688 258.022 255.921L257.122 255.483ZM242.553 265.661V264.661C238.635 264.661 236.15 264.006 234.211 262.578C232.239 261.124 230.695 258.773 228.884 255.046L227.985 255.483L227.085 255.921C228.916 259.688 230.634 262.426 233.024 264.188C235.448 265.974 238.426 266.661 242.553 266.661V265.661ZM227.985 255.483L228.884 255.046C228.049 253.328 228.115 252.253 228.481 251.548C228.87 250.797 229.752 250.158 231.204 249.671C234.113 248.694 238.493 248.583 242.553 248.583V247.583V246.583C238.568 246.583 233.843 246.675 230.568 247.775C228.928 248.325 227.449 249.194 226.705 250.627C225.938 252.106 226.099 253.892 227.085 255.921L227.985 255.483ZM242.553 247.583V248.583C246.614 248.583 250.994 248.694 253.903 249.671C255.355 250.158 256.237 250.797 256.626 251.548C256.992 252.253 257.058 253.328 256.223 255.046L257.122 255.483L258.022 255.921C259.008 253.892 259.169 252.106 258.401 250.627C257.658 249.194 256.179 248.325 254.539 247.775C251.264 246.675 246.539 246.583 242.553 246.583V247.583ZM242.712 265.725H241.712V279.629H242.712H243.712V265.725H242.712ZM280.5 230.191H279.5C279.5 235.93 275.447 240.351 270.714 240.351V241.351V242.351C276.79 242.351 281.5 236.779 281.5 230.191H280.5ZM270.714 241.351V240.351C265.981 240.351 261.929 235.93 261.929 230.191H260.929H259.929C259.929 236.779 264.638 242.351 270.714 242.351V241.351ZM260.929 230.191H261.929C261.929 224.453 265.981 220.032 270.714 220.032V219.032V218.032C264.638 218.032 259.929 223.603 259.929 230.191H260.929ZM270.714 219.032V220.032C275.447 220.032 279.5 224.453 279.5 230.191H280.5H281.5C281.5 223.603 276.79 218.032 270.714 218.032V219.032ZM205.477 230.191H204.477C204.477 236.779 209.187 242.351 215.263 242.351V241.351V240.351C210.53 240.351 206.477 235.93 206.477 230.191H205.477ZM215.263 241.351V242.351C221.339 242.351 226.048 236.779 226.048 230.191H225.048H224.048C224.048 235.93 219.995 240.351 215.263 240.351V241.351ZM225.048 230.191H226.048C226.048 223.603 221.339 218.032 215.263 218.032V219.032V220.032C219.995 220.032 224.048 224.453 224.048 230.191H225.048ZM215.263 219.032V218.032C209.187 218.032 204.477 223.603 204.477 230.191H205.477H206.477C206.477 224.453 210.53 220.032 215.263 220.032V219.032ZM226.316 274.374L225.591 275.064L228.296 277.906L229.021 277.217L229.745 276.527L227.04 273.685L226.316 274.374ZM257.159 276.679L257.895 277.355L260.197 274.85L259.46 274.174L258.724 273.497L256.423 276.002L257.159 276.679ZM246.215 279.169L245.845 280.098C250.042 281.773 254.84 280.681 257.895 277.355L257.159 276.679L256.423 276.002C253.93 278.716 250.013 279.608 246.586 278.241L246.215 279.169ZM229.021 277.217L228.296 277.906C231.142 280.896 235.574 281.757 239.335 280.051L238.922 279.14L238.509 278.229C235.522 279.584 232.003 278.9 229.745 276.527L229.021 277.217ZM238.922 279.14L239.335 280.051C241.197 279.207 243.842 279.299 245.845 280.098L246.215 279.169L246.586 278.241C244.186 277.283 240.964 277.116 238.509 278.229L238.922 279.14Z" fill="#0D547A"/>
<path d="M144.382 193.089C143.697 192.905 143.102 192.553 142.629 192.091C141.988 192.253 141.298 192.26 140.614 192.076L138.73 191.57L136.507 190.973L135.906 188.75L135.399 186.87C135.215 186.188 135.219 185.499 135.38 184.859C134.964 184.432 134.638 183.908 134.443 183.309L134.385 183.111L133.681 180.506L132.978 183.111L132.92 183.309C132.725 183.909 132.398 184.432 131.982 184.859C132.143 185.499 132.148 186.188 131.964 186.87L131.457 188.75L130.856 190.973L128.633 191.57L126.749 192.076L126.549 192.125C125.93 192.258 125.312 192.237 124.733 192.091C124.26 192.553 123.666 192.905 122.981 193.089M144.382 193.089L145.19 190.077V190.076L144.382 193.089ZM144.382 193.089L146.953 193.779L144.382 194.471C143.698 194.655 143.103 195.005 142.63 195.467C141.988 195.305 141.298 195.299 140.614 195.483L138.73 195.988L136.507 196.586L135.906 198.81L135.399 200.689C135.215 201.371 135.219 202.059 135.38 202.699C134.964 203.126 134.638 203.65 134.443 204.25L134.385 204.447L133.681 207.052L132.978 204.447L132.92 204.25C132.725 203.65 132.398 203.126 131.982 202.699C132.143 202.059 132.148 201.371 131.964 200.689L131.457 198.81L130.856 196.586L128.633 195.988L126.749 195.483L126.549 195.435C125.93 195.302 125.311 195.32 124.732 195.467C124.259 195.006 123.665 194.655 122.981 194.471M122.981 194.471L122.172 197.482V197.483L122.981 194.471ZM122.981 194.471L120.409 193.779L122.981 193.089M122.981 193.089L122.172 190.076V190.077L122.981 193.089ZM152.688 195.319L152.725 195.458C152.725 195.457 152.725 195.456 152.724 195.455L152.688 195.319ZM114.638 195.454C114.638 195.455 114.637 195.456 114.636 195.457L114.674 195.319L114.638 195.454ZM132.146 174.821V174.822L132.031 174.791L132.029 174.79L132.146 174.821ZM135.332 174.791L135.216 174.822V174.821L135.333 174.79L135.332 174.791Z" stroke="#0D547A" stroke-width="8" stroke-linecap="round" stroke-dasharray="4 4"/>
<path d="M133.271 190.237C133.318 190.354 133.37 190.471 133.429 190.586L134.668 193.002L135.067 193.78L134.668 194.557L133.429 196.973C133.37 197.088 133.318 197.204 133.271 197.322C133.224 197.204 133.173 197.088 133.114 196.973L131.874 194.557L131.475 193.78L131.874 193.002L133.114 190.586C133.173 190.471 133.224 190.354 133.271 190.237Z" stroke="#0D547A" stroke-width="8" stroke-linecap="round" stroke-dasharray="4 4"/>
</g>
<defs>
<linearGradient id="paint0_linear_55_184" x1="500" y1="0" x2="-5.84617e-05" y2="500" gradientUnits="userSpaceOnUse">
<stop stop-color="#80C9F0"/>
<stop offset="1" stop-color="#0D547A"/>
</linearGradient>
<clipPath id="clip0_55_184">
<rect width="500" height="500" fill="white"/>
</clipPath>
</defs>
</svg>
