<svg width="500" height="500" viewBox="0 0 500 500" fill="none" xmlns="http://www.w3.org/2000/svg">
<rect width="500" height="500" fill="url(#paint0_radial_55_371)"/>
<path d="M141.365 149.514C153.892 159.991 172.745 149.524 170.475 133.351C168.735 120.952 155.097 114.156 144.15 120.234C133.204 126.312 131.761 141.481 141.365 149.514Z" fill="#6DBBFF"/>
<path d="M330.667 133.352C328.399 149.525 347.252 159.991 359.778 149.512C369.382 141.479 367.938 126.31 356.991 120.233C346.044 114.156 332.406 120.952 330.667 133.352Z" fill="#6DBBFF"/>
<path d="M251.252 108C317.555 108 373.807 150.443 393.628 209.292C380.962 205.029 367.381 202.715 353.252 202.715C310.833 202.715 273.35 223.562 250.752 255.438C228.154 223.562 190.671 202.715 148.252 202.715C134.54 202.715 121.344 204.895 109 208.92C128.932 150.264 185.089 108 251.252 108Z" fill="#6DBBFF"/>
<ellipse cx="249" cy="175.5" rx="32" ry="16.5" fill="black"/>
<circle cx="305" cy="159" r="10" fill="black"/>
<circle cx="193" cy="159" r="10" fill="black"/>
<path d="M251 188.284C262.22 202.948 288.128 222.221 302 182" stroke="black" stroke-width="9" stroke-linecap="round"/>
<path d="M250 188.284C237.46 202.948 208.504 222.221 193 182" stroke="black" stroke-width="9" stroke-linecap="round"/>
<path d="M147.606 215C187.393 215 222.874 233.247 246 261.75V336H234.319C237.314 329.975 239 323.185 239 316C239 291.147 218.853 271 194 271C169.147 271 149 291.147 149 316C149 323.185 150.686 329.975 153.681 336H132.803L109 221H109.845V220.696C121.768 216.996 134.452 215 147.606 215ZM354.534 215C368.042 215 381.055 217.105 393.256 220.999L369.463 336H349.069C350.961 331.028 352 325.636 352 320C352 295.147 331.853 275 307 275C282.147 275 262 295.147 262 320C262 325.636 263.039 331.028 264.931 336H255V263.174C278.09 233.855 314.089 215 354.534 215Z" fill="#1E3756"/>
<path d="M273.537 310.298C272.438 291.553 292.292 282.898 311.037 281.799C329.783 280.699 340.037 302.299 344.037 323.798C348.037 345.298 326.783 362.699 308.037 363.799C289.292 364.898 274.637 329.044 273.537 310.298Z" fill="#6DBBFF"/>
<path d="M227.944 306.298C229.043 287.553 209.189 278.898 190.444 277.799C171.698 276.699 161.444 298.299 157.444 319.798C153.444 341.298 174.698 358.699 193.444 359.799C212.189 360.898 226.844 325.044 227.944 306.298Z" fill="#6DBBFF"/>
<path d="M164.557 227L165.241 229.874L168.072 230.695L165.241 231.353L164.526 234.063L163.82 231.353L161 230.719L163.82 229.874L164.557 227Z" fill="white"/>
<path d="M176.295 255.297C175.845 255.297 175.383 255.271 174.906 255.219C174.429 255.174 173.97 255.106 173.527 255.015C173.085 254.918 172.674 254.811 172.294 254.695C172.243 254.679 172.194 254.663 172.145 254.647C171.652 254.483 171.377 253.988 171.416 253.471L171.47 252.762C171.512 252.198 172.111 251.854 172.636 252.062C173.002 252.205 173.369 252.325 173.735 252.422C174.101 252.519 174.46 252.593 174.813 252.645C175.172 252.697 175.514 252.723 175.839 252.723C176.474 252.723 176.979 252.642 177.352 252.48C177.732 252.318 178.005 252.098 178.17 251.82C178.343 251.541 178.429 251.23 178.429 250.887C178.429 250.272 178.198 249.835 177.735 249.576C177.272 249.317 176.585 249.187 175.673 249.187C175.32 249.187 175.006 249.187 174.73 249.187C174.272 249.187 173.901 248.816 173.901 248.358V247.607C173.901 247.24 174.198 246.943 174.564 246.943C174.799 246.943 175.075 246.943 175.393 246.943C176.022 246.943 176.533 246.863 176.927 246.701C177.327 246.539 177.625 246.322 177.818 246.05C178.011 245.778 178.108 245.48 178.108 245.156C178.108 244.774 178.001 244.463 177.787 244.224C177.58 243.978 177.293 243.796 176.927 243.68C176.567 243.563 176.156 243.505 175.693 243.505C175.396 243.505 175.089 243.531 174.771 243.583C174.46 243.628 174.135 243.706 173.797 243.816C173.458 243.919 173.109 244.059 172.75 244.233C172.23 244.482 171.577 244.193 171.495 243.622L171.391 242.9C171.317 242.387 171.567 241.877 172.046 241.681C172.103 241.657 172.162 241.634 172.222 241.611C172.581 241.475 172.968 241.355 173.382 241.251C173.797 241.141 174.236 241.057 174.699 240.999C175.161 240.941 175.638 240.911 176.129 240.911C177.345 240.911 178.357 241.06 179.165 241.358C179.98 241.65 180.588 242.058 180.989 242.582C181.397 243.107 181.601 243.709 181.601 244.389C181.601 245.282 181.342 245.992 180.823 246.516C180.33 247.015 179.721 247.362 178.996 247.556C178.931 247.574 178.885 247.632 178.885 247.698C178.885 247.768 178.935 247.827 179.002 247.842C179.523 247.953 179.999 248.127 180.43 248.362C180.892 248.608 181.262 248.961 181.538 249.42C181.815 249.874 181.953 250.463 181.953 251.188C181.953 251.926 181.773 252.61 181.414 253.238C181.062 253.859 180.471 254.358 179.642 254.734C178.82 255.109 177.704 255.297 176.295 255.297Z" fill="white"/>
<path d="M185.779 255.044C184.838 255.044 184.074 254.281 184.074 253.34C184.074 253.185 184.074 253.031 184.074 252.878C184.074 252.179 184.074 251.395 184.074 250.528V245.826C184.074 244.933 184.074 244.127 184.074 243.408C184.074 242.185 185.066 241.193 186.289 241.193H192.464C193.233 241.193 193.857 241.817 193.857 242.587C193.857 243.357 193.233 243.981 192.464 243.981C192.165 243.981 191.86 243.981 191.546 243.981C190.731 243.981 189.771 243.981 188.665 243.981H186.977C186.579 243.981 186.336 243.544 186.546 243.206C186.815 242.773 187.484 242.964 187.484 243.474C187.484 243.621 187.484 243.767 187.484 243.913C187.484 244.632 187.484 245.438 187.484 246.332V250.528C187.484 251.395 187.484 252.179 187.484 252.878C187.484 253.031 187.484 253.185 187.484 253.34C187.484 254.281 186.721 255.044 185.779 255.044Z" fill="white"/>
<path d="M200.315 255.044C199.384 255.044 198.776 254.068 199.177 253.228C199.765 251.998 199.745 250.563 199.123 249.35L196.98 245.166C196.641 244.505 196.317 243.874 196.006 243.272C195.53 242.32 196.216 241.193 197.281 241.193H197.685C198.351 241.193 198.954 241.59 199.214 242.204C199.262 242.317 199.308 242.427 199.353 242.534C199.526 242.929 199.681 243.298 199.819 243.641C199.965 243.978 200.11 244.318 200.255 244.661C200.4 244.998 200.559 245.363 200.731 245.758L201.75 248.141C201.78 248.21 201.847 248.255 201.922 248.255C201.998 248.255 202.066 248.209 202.095 248.139L203.063 245.797C203.236 245.389 203.391 245.014 203.53 244.671C203.675 244.321 203.816 243.974 203.954 243.631C204.1 243.282 204.252 242.912 204.41 242.524C204.456 242.415 204.503 242.303 204.552 242.187C204.805 241.585 205.395 241.193 206.048 241.193C207.249 241.193 208.035 242.451 207.512 243.532C207.466 243.626 207.42 243.721 207.374 243.816C206.946 244.716 206.545 245.545 206.172 246.302L204.058 250.673C203.74 251.347 203.391 252.072 203.011 252.849C202.799 253.288 202.592 253.714 202.391 254.127C202.118 254.689 201.548 255.044 200.923 255.044H200.315Z" fill="white"/>
<path d="M165.082 262.211C165.082 262.061 165.082 261.917 165.082 261.78C165.082 261.642 165.082 261.49 165.082 261.324V261.122C165.082 261.002 165.082 260.891 165.082 260.79C165.082 260.688 165.082 260.589 165.082 260.495C165.082 260.399 165.082 260.302 165.082 260.203L165.427 260.191C165.427 260.287 165.427 260.381 165.427 260.475C165.427 260.568 165.427 260.664 165.427 260.764C165.427 260.862 165.427 260.97 165.427 261.086V261.725H165.457L165.917 261.059C166.016 260.916 166.116 260.773 166.215 260.628C166.314 260.484 166.413 260.342 166.511 260.203H166.88C166.88 260.302 166.88 260.399 166.88 260.495C166.88 260.589 166.88 260.688 166.88 260.79C166.88 260.891 166.88 261.002 166.88 261.122V261.324C166.88 261.49 166.88 261.642 166.88 261.78C166.88 261.917 166.88 262.061 166.88 262.211H166.537C166.537 262.064 166.537 261.922 166.537 261.786C166.537 261.648 166.537 261.498 166.537 261.335V260.687H166.507L166.051 261.345C165.95 261.49 165.85 261.635 165.751 261.78C165.652 261.924 165.552 262.068 165.453 262.211H165.082Z" fill="white"/>
<path d="M167.414 262.211C167.432 262.064 167.449 261.92 167.466 261.78C167.484 261.638 167.5 261.498 167.516 261.359L167.548 261.084C167.567 260.937 167.585 260.79 167.602 260.642C167.62 260.495 167.637 260.349 167.654 260.203H168.043C168.102 260.333 168.161 260.464 168.22 260.596C168.28 260.728 168.34 260.858 168.399 260.986L168.744 261.747H168.777L169.12 260.986C169.179 260.854 169.238 260.723 169.297 260.594C169.356 260.463 169.415 260.333 169.474 260.203H169.856C169.874 260.346 169.891 260.493 169.908 260.644C169.927 260.794 169.945 260.941 169.962 261.086L169.995 261.363C170.01 261.498 170.027 261.637 170.044 261.78C170.061 261.923 170.079 262.066 170.096 262.211H169.757C169.74 262.057 169.722 261.902 169.703 261.745C169.686 261.588 169.668 261.432 169.649 261.278L169.582 260.687H169.55L169.276 261.318C169.212 261.467 169.148 261.615 169.083 261.764C169.019 261.912 168.954 262.061 168.889 262.211H168.632C168.566 262.061 168.5 261.913 168.434 261.766C168.369 261.617 168.304 261.47 168.239 261.324L167.956 260.687H167.924L167.855 261.272C167.836 261.428 167.817 261.585 167.799 261.741C167.781 261.898 167.763 262.054 167.745 262.211H167.414Z" fill="white"/>
<path d="M170.802 262.255C170.743 262.255 170.692 262.244 170.648 262.221C170.607 262.198 170.574 262.167 170.551 262.128C170.528 262.089 170.517 262.043 170.517 261.99C170.517 261.911 170.543 261.847 170.594 261.8C170.646 261.753 170.715 261.729 170.802 261.729C170.862 261.729 170.913 261.74 170.955 261.762C170.997 261.783 171.029 261.813 171.052 261.853C171.077 261.892 171.089 261.938 171.089 261.99C171.089 262.068 171.063 262.133 171.011 262.182C170.961 262.231 170.891 262.255 170.802 262.255Z" fill="white"/>
<path d="M174.585 262.211C174.585 262.05 174.585 261.896 174.585 261.747C174.585 261.599 174.585 261.436 174.585 261.258V260.29C174.585 260.108 174.585 259.942 174.585 259.793C174.585 259.641 174.585 259.486 174.585 259.325H174.976C174.976 259.486 174.976 259.641 174.976 259.793C174.976 259.942 174.976 260.108 174.976 260.29V261.258C174.976 261.436 174.976 261.599 174.976 261.747C174.976 261.896 174.976 262.05 174.976 262.211H174.585ZM172.539 262.211C172.539 262.05 172.539 261.896 172.539 261.747C172.539 261.599 172.539 261.436 172.539 261.258V260.29C172.539 260.108 172.539 259.942 172.539 259.793C172.539 259.641 172.539 259.486 172.539 259.325H172.929C172.929 259.486 172.929 259.641 172.929 259.793C172.929 259.942 172.929 260.108 172.929 260.29V261.258C172.929 261.436 172.929 261.599 172.929 261.747C172.929 261.896 172.929 262.05 172.929 262.211H172.539ZM172.793 260.908V260.592H174.734V260.908H172.793Z" fill="white"/>
<path d="M175.883 262.255C175.824 262.255 175.773 262.244 175.73 262.221C175.688 262.198 175.656 262.167 175.633 262.128C175.61 262.089 175.598 262.043 175.598 261.99C175.598 261.911 175.624 261.847 175.676 261.8C175.728 261.753 175.797 261.729 175.883 261.729C175.943 261.729 175.995 261.74 176.036 261.762C176.078 261.783 176.11 261.813 176.133 261.853C176.158 261.892 176.17 261.938 176.17 261.99C176.17 262.068 176.144 262.133 176.092 262.182C176.042 262.231 175.972 262.255 175.883 262.255Z" fill="white"/>
<path d="M176.683 262.211C176.703 262.054 176.724 261.9 176.744 261.747C176.765 261.595 176.788 261.429 176.811 261.25L176.938 260.298C176.961 260.122 176.983 259.957 177.003 259.805C177.023 259.652 177.045 259.492 177.068 259.325H177.461C177.55 259.53 177.636 259.728 177.72 259.92C177.803 260.11 177.886 260.3 177.968 260.489L178.456 261.61H178.486L178.97 260.491C179.052 260.299 179.134 260.109 179.216 259.92C179.298 259.731 179.383 259.533 179.471 259.325H179.864C179.885 259.49 179.905 259.648 179.924 259.801C179.944 259.953 179.966 260.118 179.991 260.296L180.116 261.258C180.139 261.433 180.161 261.596 180.181 261.747C180.201 261.897 180.221 262.052 180.241 262.211H179.868C179.835 261.954 179.803 261.711 179.773 261.48C179.743 261.25 179.715 261.034 179.689 260.835L179.576 259.973H179.548L179.158 260.901C179.063 261.127 178.968 261.353 178.873 261.579C178.778 261.805 178.689 262.015 178.607 262.211H178.341C178.29 262.088 178.232 261.953 178.169 261.806C178.105 261.659 178.04 261.509 177.972 261.355C177.906 261.201 177.841 261.052 177.778 260.908L177.374 259.973H177.346L177.234 260.833C177.208 261.034 177.18 261.25 177.15 261.48C177.121 261.711 177.09 261.954 177.057 262.211H176.683Z" fill="white"/>
<path d="M181.036 262.255C180.977 262.255 180.926 262.244 180.883 262.221C180.841 262.198 180.809 262.167 180.786 262.128C180.763 262.089 180.751 262.043 180.751 261.99C180.751 261.911 180.777 261.847 180.829 261.8C180.881 261.753 180.95 261.729 181.036 261.729C181.097 261.729 181.148 261.74 181.189 261.762C181.231 261.783 181.263 261.813 181.286 261.853C181.311 261.892 181.323 261.938 181.323 261.99C181.323 262.068 181.297 262.133 181.245 262.182C181.195 262.231 181.125 262.255 181.036 262.255Z" fill="white"/>
<path d="M184.241 261.958L184.245 261.662H184.39C184.643 261.662 184.849 261.629 185.008 261.561C185.167 261.494 185.285 261.395 185.362 261.264C185.438 261.132 185.476 260.968 185.476 260.772C185.476 260.574 185.439 260.408 185.364 260.276C185.289 260.143 185.173 260.042 185.016 259.975C184.861 259.907 184.659 259.874 184.412 259.874H184.267L184.263 259.578H184.416C184.766 259.578 185.048 259.629 185.262 259.73C185.477 259.831 185.633 259.971 185.731 260.151C185.83 260.329 185.88 260.536 185.88 260.772C185.88 260.999 185.831 261.202 185.733 261.381C185.637 261.559 185.479 261.7 185.26 261.804C185.043 261.907 184.751 261.958 184.386 261.958H184.241ZM184.049 261.958C183.774 261.958 183.542 261.928 183.352 261.869C183.162 261.809 183.008 261.726 182.89 261.62C182.773 261.512 182.688 261.386 182.635 261.243C182.582 261.099 182.555 260.942 182.555 260.772C182.555 260.536 182.604 260.329 182.702 260.151C182.8 259.971 182.956 259.831 183.17 259.73C183.386 259.629 183.669 259.578 184.019 259.578H184.17L184.166 259.874H184.021C183.776 259.874 183.575 259.907 183.418 259.975C183.262 260.042 183.146 260.143 183.071 260.276C182.996 260.408 182.959 260.574 182.959 260.772C182.959 260.968 182.996 261.132 183.071 261.264C183.147 261.395 183.265 261.494 183.425 261.561C183.585 261.629 183.791 261.662 184.042 261.662H184.187L184.191 261.958H184.049ZM184.021 262.296C184.021 262.222 184.021 262.151 184.021 262.085C184.021 262.019 184.021 261.952 184.021 261.883L184.03 261.875C184.03 261.782 184.03 261.687 184.03 261.59C184.03 261.491 184.03 261.389 184.03 261.282V260.254C184.03 260.147 184.03 260.046 184.03 259.948C184.03 259.85 184.03 259.754 184.03 259.661L184.021 259.653C184.021 259.584 184.021 259.517 184.021 259.451C184.021 259.383 184.021 259.313 184.021 259.24H184.412C184.412 259.313 184.412 259.383 184.412 259.451C184.412 259.517 184.412 259.584 184.412 259.653L184.403 259.661C184.403 259.754 184.403 259.85 184.403 259.948C184.403 260.046 184.403 260.147 184.403 260.254V261.282C184.403 261.389 184.403 261.49 184.403 261.588C184.403 261.685 184.403 261.78 184.403 261.875L184.412 261.883C184.412 261.95 184.412 262.018 184.412 262.085C184.412 262.151 184.412 262.222 184.412 262.296H184.021Z" fill="white"/>
<path d="M187.398 262.255C187.141 262.255 186.931 262.209 186.765 262.118C186.6 262.026 186.477 261.9 186.396 261.741C186.315 261.582 186.275 261.4 186.275 261.195C186.275 260.993 186.315 260.813 186.394 260.657C186.473 260.5 186.587 260.378 186.735 260.29C186.883 260.201 187.06 260.157 187.266 260.157C187.447 260.157 187.603 260.19 187.732 260.256C187.863 260.322 187.964 260.419 188.035 260.547C188.105 260.674 188.14 260.831 188.14 261.019C188.14 261.069 188.139 261.114 188.136 261.154C188.135 261.194 188.13 261.233 188.123 261.274L187.81 261.126C187.813 261.105 187.814 261.084 187.814 261.065C187.816 261.045 187.817 261.026 187.817 261.007C187.817 260.817 187.766 260.672 187.665 260.574C187.565 260.474 187.433 260.424 187.27 260.424C187.139 260.424 187.026 260.456 186.931 260.519C186.838 260.581 186.765 260.667 186.713 260.778C186.661 260.889 186.636 261.015 186.636 261.156V261.203C186.636 261.36 186.664 261.494 186.722 261.608C186.779 261.721 186.867 261.809 186.983 261.871C187.101 261.932 187.251 261.962 187.432 261.962C187.5 261.962 187.571 261.957 187.646 261.948C187.722 261.937 187.797 261.921 187.871 261.899C187.945 261.878 188.017 261.849 188.084 261.814L188.099 262.116C188.045 262.144 187.981 262.169 187.909 262.191C187.837 262.211 187.758 262.226 187.672 262.237C187.586 262.249 187.494 262.255 187.398 262.255ZM186.424 261.274V261.035L187.905 261.023L188.123 261.1V261.274H186.424Z" fill="white"/>
<path d="M190.102 262.158C190.102 262.065 190.102 261.976 190.102 261.891C190.102 261.806 190.102 261.718 190.102 261.626C190.102 261.534 190.102 261.434 190.102 261.324V261.122C190.102 261.007 190.102 260.903 190.102 260.808C190.102 260.713 190.102 260.621 190.102 260.533C190.102 260.444 190.102 260.352 190.102 260.256L190.262 260.479H189.103L189.265 260.256C189.26 260.342 189.255 260.427 189.25 260.509C189.244 260.591 189.238 260.678 189.232 260.768C189.228 260.857 189.222 260.956 189.215 261.065C189.208 261.19 189.193 261.309 189.17 261.424C189.148 261.538 189.118 261.644 189.079 261.741C189.04 261.837 188.992 261.922 188.934 261.996L188.585 261.952C188.625 261.915 188.667 261.861 188.71 261.788C188.753 261.714 188.791 261.614 188.824 261.488C188.859 261.362 188.883 261.2 188.898 261.005C188.908 260.839 188.917 260.694 188.926 260.572C188.934 260.448 188.942 260.325 188.949 260.203H190.454C190.454 260.302 190.454 260.399 190.454 260.495C190.454 260.589 190.454 260.688 190.454 260.79C190.454 260.891 190.454 261.002 190.454 261.122V261.324C190.454 261.49 190.454 261.636 190.454 261.762C190.454 261.887 190.454 262.019 190.454 262.158H190.102ZM188.377 262.769C188.377 262.702 188.377 262.634 188.377 262.567C188.377 262.499 188.377 262.432 188.377 262.365C188.377 262.296 188.377 262.225 188.377 262.152C188.377 262.078 188.377 262.006 188.377 261.936C188.505 261.936 188.636 261.936 188.768 261.936C188.9 261.936 189.029 261.936 189.152 261.936H190.005C190.13 261.936 190.258 261.936 190.389 261.936C190.522 261.936 190.653 261.936 190.782 261.936C190.782 262.006 190.782 262.078 190.782 262.152C190.782 262.225 190.782 262.296 190.782 262.365C190.782 262.432 190.782 262.499 190.782 262.567C190.782 262.634 190.782 262.702 190.782 262.769H190.472L190.454 262.166L190.534 262.211H188.626L188.705 262.166L188.69 262.769H188.377Z" fill="white"/>
<path d="M192.164 262.255C191.987 262.255 191.831 262.227 191.695 262.17C191.562 262.112 191.449 262.034 191.359 261.936C191.268 261.837 191.199 261.724 191.151 261.598C191.105 261.469 191.082 261.335 191.082 261.195C191.082 260.994 191.125 260.816 191.212 260.661C191.3 260.504 191.423 260.381 191.583 260.29C191.744 260.2 191.936 260.155 192.157 260.155C192.329 260.155 192.481 260.181 192.613 260.234C192.745 260.286 192.858 260.36 192.95 260.454C193.042 260.549 193.112 260.659 193.159 260.786C193.207 260.912 193.231 261.048 193.231 261.195C193.231 261.393 193.187 261.573 193.101 261.733C193.015 261.894 192.892 262.021 192.732 262.116C192.573 262.209 192.384 262.255 192.164 262.255ZM192.164 261.964C192.321 261.964 192.451 261.927 192.555 261.855C192.658 261.782 192.736 261.687 192.788 261.569C192.84 261.452 192.866 261.327 192.866 261.195C192.866 261.044 192.837 260.912 192.779 260.8C192.722 260.688 192.64 260.601 192.535 260.539C192.43 260.477 192.306 260.446 192.162 260.446C192.006 260.446 191.875 260.479 191.769 260.545C191.662 260.611 191.582 260.701 191.527 260.814C191.474 260.928 191.447 261.055 191.447 261.195C191.447 261.327 191.473 261.452 191.525 261.569C191.578 261.687 191.658 261.782 191.765 261.855C191.871 261.927 192.004 261.964 192.164 261.964Z" fill="white"/>
<path d="M193.786 263C193.786 262.852 193.786 262.706 193.786 262.563C193.786 262.421 193.786 262.267 193.786 262.101V261.122C193.786 260.974 193.786 260.822 193.786 260.667C193.786 260.512 193.786 260.357 193.786 260.203L194.11 260.183L194.119 260.444H194.155C194.198 260.392 194.253 260.344 194.319 260.3C194.386 260.256 194.461 260.221 194.546 260.195C194.632 260.168 194.727 260.155 194.829 260.155C195.025 260.155 195.191 260.201 195.328 260.292C195.466 260.383 195.571 260.507 195.643 260.665C195.715 260.823 195.751 261.001 195.751 261.201C195.751 261.389 195.717 261.563 195.649 261.723C195.583 261.882 195.482 262.011 195.345 262.11C195.21 262.207 195.04 262.255 194.835 262.255C194.74 262.255 194.653 262.243 194.572 262.219C194.491 262.196 194.418 262.163 194.352 262.12C194.287 262.075 194.228 262.021 194.175 261.958H194.142V262.116C194.142 262.274 194.142 262.421 194.142 262.557C194.142 262.694 194.142 262.838 194.142 262.988L193.786 263ZM194.727 261.956C194.881 261.956 195.007 261.92 195.103 261.849C195.201 261.777 195.272 261.685 195.317 261.571C195.363 261.457 195.386 261.334 195.386 261.203C195.386 261.067 195.361 260.943 195.313 260.831C195.265 260.717 195.192 260.627 195.094 260.56C194.997 260.492 194.872 260.458 194.721 260.458C194.646 260.458 194.573 260.469 194.501 260.491C194.429 260.511 194.362 260.542 194.3 260.584C194.239 260.624 194.187 260.675 194.142 260.736V261.628C194.186 261.697 194.235 261.755 194.291 261.804C194.349 261.853 194.414 261.89 194.486 261.917C194.558 261.943 194.638 261.956 194.727 261.956Z" fill="white"/>
<path d="M197.271 262.255C197.094 262.255 196.937 262.227 196.802 262.17C196.668 262.112 196.556 262.034 196.465 261.936C196.375 261.837 196.306 261.724 196.258 261.598C196.212 261.469 196.189 261.335 196.189 261.195C196.189 260.994 196.232 260.816 196.318 260.661C196.406 260.504 196.53 260.381 196.69 260.29C196.851 260.2 197.042 260.155 197.264 260.155C197.435 260.155 197.587 260.181 197.72 260.234C197.852 260.286 197.964 260.36 198.057 260.454C198.149 260.549 198.218 260.659 198.266 260.786C198.313 260.912 198.337 261.048 198.337 261.195C198.337 261.393 198.294 261.573 198.208 261.733C198.121 261.894 197.998 262.021 197.838 262.116C197.68 262.209 197.491 262.255 197.271 262.255ZM197.271 261.964C197.428 261.964 197.558 261.927 197.661 261.855C197.765 261.782 197.843 261.687 197.895 261.569C197.946 261.452 197.972 261.327 197.972 261.195C197.972 261.044 197.944 260.912 197.886 260.8C197.828 260.688 197.747 260.601 197.642 260.539C197.537 260.477 197.412 260.446 197.268 260.446C197.113 260.446 196.982 260.479 196.876 260.545C196.769 260.611 196.688 260.701 196.634 260.814C196.58 260.928 196.554 261.055 196.554 261.195C196.554 261.327 196.58 261.452 196.632 261.569C196.685 261.687 196.765 261.782 196.871 261.855C196.978 261.927 197.111 261.964 197.271 261.964Z" fill="white"/>
<path d="M198.893 262.211C198.893 262.061 198.893 261.917 198.893 261.78C198.893 261.641 198.893 261.488 198.893 261.322V261.12C198.893 261 198.893 260.889 198.893 260.788C198.893 260.687 198.893 260.589 198.893 260.495C198.893 260.399 198.893 260.302 198.893 260.203C199.022 260.203 199.178 260.203 199.359 260.203C199.542 260.203 199.718 260.203 199.886 260.203C200.056 260.203 200.192 260.223 200.294 260.262C200.396 260.301 200.47 260.356 200.514 260.428C200.56 260.498 200.583 260.582 200.583 260.679C200.583 260.806 200.548 260.908 200.478 260.984C200.408 261.061 200.323 261.115 200.221 261.144V261.171C200.29 261.183 200.356 261.206 200.419 261.241C200.484 261.275 200.537 261.326 200.579 261.393C200.622 261.459 200.644 261.548 200.644 261.658C200.644 261.764 200.619 261.858 200.568 261.942C200.519 262.024 200.431 262.089 200.305 262.138C200.18 262.186 200.001 262.211 199.769 262.211C199.595 262.211 199.433 262.211 199.281 262.211C199.13 262.211 199.001 262.211 198.893 262.211ZM199.24 261.942H199.739C199.877 261.942 199.986 261.929 200.065 261.905C200.146 261.881 200.202 261.845 200.234 261.798C200.267 261.751 200.283 261.693 200.283 261.626C200.283 261.511 200.24 261.43 200.154 261.383C200.069 261.336 199.944 261.312 199.78 261.312H199.145V261.067H199.743C199.863 261.067 199.957 261.054 200.026 261.027C200.095 260.999 200.144 260.961 200.173 260.914C200.203 260.865 200.218 260.81 200.218 260.75C200.218 260.647 200.182 260.576 200.11 260.535C200.04 260.493 199.939 260.472 199.808 260.472H199.24C199.24 260.58 199.24 260.685 199.24 260.786C199.24 260.887 199.24 260.997 199.24 261.116V261.318C199.24 261.433 199.24 261.54 199.24 261.638C199.24 261.737 199.24 261.838 199.24 261.942Z" fill="white"/>
<path d="M202.148 262.251C201.916 262.251 201.719 262.205 201.556 262.114C201.395 262.022 201.272 261.897 201.187 261.739C201.102 261.581 201.059 261.403 201.059 261.205C201.059 261.007 201.1 260.829 201.18 260.671C201.262 260.512 201.381 260.386 201.537 260.294C201.694 260.203 201.884 260.157 202.109 260.157C202.192 260.157 202.274 260.164 202.355 260.177C202.437 260.191 202.514 260.209 202.586 260.232C202.658 260.253 202.722 260.279 202.778 260.309L202.746 260.616C202.665 260.573 202.589 260.54 202.517 260.517C202.446 260.493 202.38 260.477 202.318 260.468C202.258 260.459 202.202 260.454 202.15 260.454C201.931 260.454 201.755 260.522 201.623 260.657C201.491 260.79 201.424 260.971 201.424 261.199C201.424 261.342 201.453 261.471 201.511 261.588C201.57 261.702 201.658 261.793 201.774 261.861C201.892 261.927 202.038 261.96 202.212 261.96C202.274 261.96 202.335 261.954 202.396 261.944C202.458 261.933 202.519 261.917 202.579 261.897C202.64 261.876 202.698 261.848 202.754 261.814L202.785 262.12C202.737 262.144 202.682 262.166 202.618 262.186C202.555 262.205 202.484 262.221 202.405 262.233C202.327 262.245 202.241 262.251 202.148 262.251Z" fill="white"/>
<path d="M203.316 262.211C203.316 262.061 203.316 261.917 203.316 261.78C203.316 261.642 203.316 261.49 203.316 261.324V261.112C203.316 260.992 203.316 260.882 203.316 260.782C203.316 260.681 203.316 260.584 203.316 260.491C203.316 260.398 203.316 260.302 203.316 260.203L203.673 260.189C203.673 260.338 203.673 260.483 203.673 260.626C203.673 260.769 203.673 260.92 203.673 261.078V261.377C203.673 261.528 203.673 261.669 203.673 261.8C203.673 261.931 203.673 262.068 203.673 262.211H203.316ZM204.737 262.211C204.641 262.119 204.543 262.027 204.443 261.936C204.345 261.844 204.248 261.753 204.152 261.662L203.783 261.316H203.632V261.078H203.804L204.115 260.768C204.21 260.675 204.306 260.581 204.402 260.487C204.499 260.391 204.594 260.296 204.687 260.203H205.128C205.004 260.321 204.881 260.438 204.759 260.555C204.636 260.673 204.515 260.79 204.394 260.908L204.029 261.256L204.016 261.094L204.439 261.503C204.567 261.621 204.694 261.74 204.821 261.859C204.949 261.976 205.076 262.093 205.201 262.211H204.737Z" fill="white"/>
<path d="M206.489 262.255C206.312 262.255 206.156 262.227 206.02 262.17C205.886 262.112 205.774 262.034 205.683 261.936C205.593 261.837 205.524 261.724 205.476 261.598C205.43 261.469 205.407 261.335 205.407 261.195C205.407 260.994 205.45 260.816 205.537 260.661C205.624 260.504 205.748 260.381 205.908 260.29C206.069 260.2 206.261 260.155 206.482 260.155C206.654 260.155 206.805 260.181 206.938 260.234C207.07 260.286 207.183 260.36 207.275 260.454C207.367 260.549 207.437 260.659 207.484 260.786C207.532 260.912 207.555 261.048 207.555 261.195C207.555 261.393 207.512 261.573 207.426 261.733C207.339 261.894 207.216 262.021 207.057 262.116C206.898 262.209 206.709 262.255 206.489 262.255ZM206.489 261.964C206.646 261.964 206.776 261.927 206.88 261.855C206.983 261.782 207.061 261.687 207.113 261.569C207.165 261.452 207.19 261.327 207.19 261.195C207.19 261.044 207.162 260.912 207.104 260.8C207.047 260.688 206.965 260.601 206.86 260.539C206.755 260.477 206.631 260.446 206.487 260.446C206.331 260.446 206.2 260.479 206.094 260.545C205.987 260.611 205.907 260.701 205.852 260.814C205.799 260.928 205.772 261.055 205.772 261.195C205.772 261.327 205.798 261.452 205.85 261.569C205.903 261.687 205.983 261.782 206.089 261.855C206.196 261.927 206.329 261.964 206.489 261.964Z" fill="white"/>
<path d="M208.111 262.211C208.111 262.061 208.111 261.917 208.111 261.78C208.111 261.642 208.111 261.49 208.111 261.324V261.122C208.111 261.002 208.111 260.891 208.111 260.79C208.111 260.688 208.111 260.589 208.111 260.495C208.111 260.399 208.111 260.302 208.111 260.203H209.553V260.477C209.411 260.477 209.267 260.477 209.121 260.477C208.976 260.477 208.834 260.477 208.696 260.477H208.256L208.467 260.256C208.467 260.352 208.467 260.444 208.467 260.533C208.467 260.621 208.467 260.713 208.467 260.808C208.467 260.903 208.467 261.007 208.467 261.122V261.324C208.467 261.49 208.467 261.642 208.467 261.78C208.467 261.917 208.467 262.061 208.467 262.211H208.111Z" fill="white"/>
<path d="M210.933 262.255C210.756 262.255 210.6 262.227 210.465 262.17C210.331 262.112 210.219 262.034 210.128 261.936C210.037 261.837 209.968 261.724 209.921 261.598C209.875 261.469 209.852 261.335 209.852 261.195C209.852 260.994 209.895 260.816 209.981 260.661C210.069 260.504 210.193 260.381 210.353 260.29C210.514 260.2 210.705 260.155 210.927 260.155C211.098 260.155 211.25 260.181 211.382 260.234C211.515 260.286 211.627 260.36 211.719 260.454C211.811 260.549 211.881 260.659 211.929 260.786C211.976 260.912 212 261.048 212 261.195C212 261.393 211.957 261.573 211.87 261.733C211.784 261.894 211.661 262.021 211.501 262.116C211.343 262.209 211.154 262.255 210.933 262.255ZM210.933 261.964C211.09 261.964 211.221 261.927 211.324 261.855C211.428 261.782 211.506 261.687 211.557 261.569C211.609 261.452 211.635 261.327 211.635 261.195C211.635 261.044 211.606 260.912 211.549 260.8C211.491 260.688 211.41 260.601 211.305 260.539C211.2 260.477 211.075 260.446 210.931 260.446C210.776 260.446 210.645 260.479 210.538 260.545C210.432 260.611 210.351 260.701 210.296 260.814C210.243 260.928 210.217 261.055 210.217 261.195C210.217 261.327 210.243 261.452 210.294 261.569C210.348 261.687 210.427 261.782 210.534 261.855C210.64 261.927 210.774 261.964 210.933 261.964Z" fill="white"/>
<path fill-rule="evenodd" clip-rule="evenodd" d="M118.049 249.441L119.655 249.577L157.368 252.779L144.214 270.827L118.049 249.441Z" fill="white"/>
<path fill-rule="evenodd" clip-rule="evenodd" d="M119.655 249.577L118.049 249.441L127.078 242.441L128.321 242.899L119.655 249.577Z" fill="white"/>
<path fill-rule="evenodd" clip-rule="evenodd" d="M128.321 242.899L127.078 242.441L129.327 238.294L129.386 239.549L129.564 243.358L128.321 242.899Z" fill="white"/>
<path fill-rule="evenodd" clip-rule="evenodd" d="M129.564 243.358L133.442 241.468L134.677 240.867L136.281 241.709L157.368 252.779L129.564 243.358Z" fill="white"/>
<path fill-rule="evenodd" clip-rule="evenodd" d="M147.566 237.623L152.845 239.399L155.323 240.232L165.236 243.566L166.421 243.964L157.368 252.779L148.187 238.584L147.566 237.623Z" fill="white"/>
<path fill-rule="evenodd" clip-rule="evenodd" d="M129.386 239.549L129.327 238.294L134.677 240.867L133.442 241.468L129.386 239.549Z" fill="white"/>
<path fill-rule="evenodd" clip-rule="evenodd" d="M136.281 241.709L134.677 240.867L147.566 237.623L148.187 238.584L136.281 241.709Z" fill="white"/>
<path fill-rule="evenodd" clip-rule="evenodd" d="M155.323 240.232L152.845 239.399L164.569 238.36L166.421 243.964L165.236 243.566L163.737 239.601L155.323 240.232Z" fill="white"/>
<path d="M118.049 249.441L119.655 249.577M118.049 249.441L144.214 270.827L157.368 252.779M118.049 249.441L127.078 242.441M119.655 249.577L157.368 252.779M119.655 249.577L128.321 242.899M157.368 252.779L136.281 241.709M157.368 252.779L129.564 243.358M157.368 252.779L166.421 243.964M157.368 252.779L148.187 238.584M127.078 242.441L128.321 242.899M127.078 242.441L129.327 238.294M128.321 242.899L129.564 243.358M129.327 238.294L129.386 239.549M129.327 238.294L134.677 240.867M129.386 239.549L129.564 243.358M129.386 239.549L133.442 241.468M129.564 243.358L133.442 241.468M133.442 241.468L134.677 240.867M134.677 240.867L136.281 241.709M134.677 240.867L147.566 237.623M136.281 241.709L148.187 238.584M147.566 237.623L152.845 239.399M147.566 237.623L148.187 238.584M152.845 239.399L155.323 240.232M152.845 239.399L164.569 238.36L166.421 243.964M155.323 240.232L165.236 243.566M155.323 240.232L163.737 239.601L165.236 243.566M165.236 243.566L166.421 243.964" stroke="#F3F3F3"/>
<defs>
<radialGradient id="paint0_radial_55_371" cx="0" cy="0" r="1" gradientUnits="userSpaceOnUse" gradientTransform="translate(250 250) rotate(90) scale(250)">
<stop offset="0.9997" stop-color="#0065BE"/>
<stop offset="0.9998" stop-color="#002F58"/>
<stop offset="0.9999" stop-color="#004179"/>
</radialGradient>
</defs>
</svg>
