<svg width="500" height="500" viewBox="0 0 500 500" fill="none" xmlns="http://www.w3.org/2000/svg">
<rect width="500" height="500" fill="#6DBBFF"/>
<path d="M256.146 203.129C347.755 200.481 359.334 239.048 359.334 280.984C359.334 322.92 342.306 346.123 256.146 348.771C256.048 348.774 255.951 348.776 255.854 348.779C267.563 368.316 278.29 382.628 284.358 384.849C318.863 397.476 149.907 366.711 155.173 288.316C155.055 285.922 155 283.477 155 280.984C155 239.048 164.536 205.777 256.146 203.129Z" fill="#0D547A"/>
<circle cx="328" cy="157" r="14" fill="black"/>
<circle cx="213" cy="157" r="14" fill="black"/>
<path d="M293.376 226.064C306.167 226.203 314.234 239.887 308.158 251.142L302.993 260.71C301.68 263.142 299.925 265.074 297.908 266.511V285.796C297.908 291.249 293.487 295.671 288.033 295.671C282.579 295.671 278.158 291.249 278.158 285.796V266.501C276.05 265 274.229 262.961 272.907 260.384L267.945 250.707C262.107 239.323 270.457 225.816 283.249 225.955L293.376 226.064Z" fill="black"/>
<path d="M384.021 131.658C370.575 137.398 355.961 126.404 357.72 111.871L361.215 83.0083C362.974 68.4805 379.777 61.3124 391.464 70.1046L414.675 87.5671C426.362 96.3593 424.168 114.519 410.726 120.257L384.021 131.658Z" fill="#0D547A"/>
<path d="M134.246 131.658C147.692 137.398 162.306 126.404 160.546 111.871L157.052 83.0083C155.293 68.4805 138.489 61.3124 126.803 70.1046L103.591 87.5671C91.9047 96.3593 94.0983 114.519 107.54 120.257L134.246 131.658Z" fill="#0D547A"/>
<path d="M238.137 388L239.318 392.392L244.203 393.645L239.318 394.65L238.084 398.791L236.866 394.65L232 393.681L236.866 392.392L238.137 388Z" fill="white"/>
<path d="M258.391 431.231C257.616 431.231 256.817 431.192 255.994 431.113C255.172 431.043 254.379 430.94 253.616 430.801C252.853 430.653 252.144 430.489 251.488 430.311C251.389 430.284 251.292 430.256 251.197 430.228C250.381 429.987 249.909 429.179 249.982 428.331L250.048 427.553C250.132 426.574 251.151 425.964 252.078 426.29C252.71 426.507 253.342 426.69 253.974 426.839C254.606 426.987 255.225 427.101 255.833 427.18C256.453 427.259 257.043 427.299 257.604 427.299C258.701 427.299 259.571 427.175 260.215 426.928C260.87 426.681 261.341 426.344 261.627 425.919C261.925 425.493 262.074 425.018 262.074 424.494C262.074 423.554 261.675 422.887 260.876 422.491C260.077 422.095 258.891 421.897 257.318 421.897C256.71 421.897 256.167 421.897 255.69 421.897C254.9 421.897 254.26 421.257 254.26 420.467V419.614C254.26 418.982 254.772 418.469 255.404 418.469C255.81 418.469 256.286 418.469 256.835 418.469C257.92 418.469 258.802 418.346 259.481 418.098C260.173 417.851 260.685 417.519 261.019 417.104C261.353 416.688 261.52 416.233 261.52 415.739C261.52 415.155 261.335 414.68 260.966 414.314C260.608 413.938 260.113 413.661 259.481 413.483C258.861 413.305 258.152 413.216 257.353 413.216C256.841 413.216 256.31 413.255 255.762 413.335C255.225 413.404 254.665 413.523 254.081 413.691C253.497 413.849 252.895 414.062 252.275 414.329C251.351 414.72 250.241 414.206 250.08 413.216L249.952 412.432C249.813 411.576 250.25 410.722 251.065 410.427C251.163 410.391 251.262 410.357 251.363 410.322C251.983 410.114 252.65 409.931 253.366 409.773C254.081 409.605 254.838 409.476 255.637 409.387C256.435 409.298 257.258 409.254 258.104 409.254C260.203 409.254 261.949 409.481 263.344 409.936C264.751 410.381 265.8 411.005 266.491 411.806C267.195 412.607 267.546 413.528 267.546 414.566C267.546 415.932 267.099 417.015 266.205 417.816C265.349 418.583 264.291 419.115 263.031 419.41C262.932 419.434 262.861 419.521 262.861 419.623C262.861 419.728 262.937 419.818 263.04 419.837C263.947 420.007 264.776 420.274 265.526 420.636C266.324 421.012 266.962 421.551 267.439 422.253C267.916 422.946 268.154 423.846 268.154 424.954C268.154 426.082 267.844 427.126 267.224 428.085C266.616 429.035 265.597 429.797 264.166 430.371C262.748 430.945 260.823 431.231 258.391 431.231Z" fill="white"/>
<path d="M274.756 430.846C273.131 430.846 271.814 429.529 271.814 427.904C271.814 427.781 271.814 427.658 271.814 427.536C271.814 426.468 271.814 425.271 271.814 423.945V416.763C271.814 415.397 271.814 414.166 271.814 413.067C271.814 411.199 273.329 409.684 275.198 409.684H286.566C287.742 409.684 288.695 410.637 288.695 411.814C288.695 412.99 287.742 413.943 286.566 413.943C285.964 413.943 285.345 413.943 284.707 413.943C283.301 413.943 281.644 413.943 279.736 413.943H276.86C276.182 413.943 275.785 413.179 276.174 412.624C276.645 411.954 277.698 412.287 277.698 413.105C277.698 413.351 277.698 413.596 277.698 413.839C277.698 414.937 277.698 416.169 277.698 417.534V423.945C277.698 425.271 277.698 426.468 277.698 427.536C277.698 427.658 277.698 427.781 277.698 427.904C277.698 429.529 276.381 430.846 274.756 430.846Z" fill="white"/>
<path d="M299.518 430.846C298.099 430.846 297.2 429.319 297.874 428.071C298.874 426.217 298.841 423.977 297.786 422.154L294.083 415.753C293.499 414.744 292.938 413.78 292.402 412.86C291.604 411.445 292.616 409.684 294.24 409.684H295.443C296.514 409.684 297.493 410.295 297.954 411.262C298.031 411.424 298.106 411.58 298.178 411.732C298.476 412.335 298.744 412.899 298.983 413.424C299.233 413.938 299.483 414.457 299.734 414.982C299.984 415.496 300.258 416.055 300.556 416.659L302.305 420.281C302.362 420.398 302.481 420.473 302.611 420.473C302.743 420.473 302.863 420.396 302.919 420.277L304.58 416.718C304.878 416.095 305.146 415.521 305.384 414.997C305.635 414.462 305.879 413.933 306.118 413.409C306.368 412.875 306.63 412.311 306.904 411.717C306.977 411.563 307.052 411.405 307.13 411.241C307.582 410.29 308.556 409.684 309.609 409.684C311.663 409.684 313.003 411.888 312.019 413.691C311.279 415.066 310.588 416.332 309.944 417.49L306.296 424.168C305.748 425.197 305.146 426.305 304.49 427.492C304.128 428.155 303.774 428.799 303.431 429.425C302.949 430.302 302.027 430.846 301.026 430.846H299.518Z" fill="white"/>
<path d="M239.043 441.794C239.043 441.566 239.043 441.346 239.043 441.136C239.043 440.926 239.043 440.694 239.043 440.44V440.131C239.043 439.948 239.043 439.779 239.043 439.624C239.043 439.467 239.043 439.317 239.043 439.173C239.043 439.026 239.043 438.878 239.043 438.727L239.639 438.709C239.639 438.855 239.639 439 239.639 439.142C239.639 439.284 239.639 439.431 239.639 439.584C239.639 439.734 239.639 439.898 239.639 440.075V441.052H239.691L240.484 440.035C240.656 439.817 240.827 439.597 240.999 439.377C241.17 439.156 241.34 438.94 241.509 438.727H242.146C242.146 438.878 242.146 439.026 242.146 439.173C242.146 439.317 242.146 439.467 242.146 439.624C242.146 439.779 242.146 439.948 242.146 440.131V440.44C242.146 440.694 242.146 440.926 242.146 441.136C242.146 441.346 242.146 441.566 242.146 441.794H241.554C241.554 441.57 241.554 441.353 241.554 441.145C241.554 440.935 241.554 440.705 241.554 440.456V439.466H241.502L240.715 440.471C240.542 440.694 240.369 440.915 240.198 441.136C240.026 441.356 239.855 441.576 239.684 441.794H239.043Z" fill="white"/>
<path d="M243.068 441.794C243.098 441.57 243.128 441.35 243.157 441.136C243.187 440.919 243.216 440.705 243.243 440.493L243.299 440.072C243.331 439.848 243.362 439.623 243.392 439.398C243.422 439.174 243.452 438.95 243.482 438.727H244.152C244.254 438.925 244.356 439.125 244.458 439.327C244.562 439.529 244.665 439.728 244.767 439.924L245.363 441.086H245.419L246.011 439.924C246.113 439.722 246.215 439.522 246.317 439.324C246.418 439.124 246.52 438.925 246.622 438.727H247.281C247.311 438.946 247.341 439.171 247.371 439.401C247.403 439.63 247.434 439.855 247.464 440.075L247.52 440.499C247.547 440.705 247.576 440.917 247.606 441.136C247.635 441.354 247.665 441.574 247.695 441.794H247.11C247.08 441.559 247.049 441.322 247.017 441.083C246.987 440.842 246.956 440.604 246.924 440.369L246.808 439.466H246.752L246.279 440.431C246.17 440.658 246.06 440.884 245.948 441.111C245.836 441.338 245.724 441.566 245.612 441.794H245.169C245.055 441.566 244.941 441.339 244.826 441.114C244.715 440.887 244.603 440.663 244.491 440.44L244.003 439.466H243.947L243.828 440.36C243.796 440.599 243.763 440.838 243.731 441.077C243.701 441.316 243.67 441.555 243.638 441.794H243.068Z" fill="white"/>
<path d="M248.913 441.862C248.811 441.862 248.723 441.845 248.648 441.81C248.576 441.775 248.52 441.727 248.48 441.668C248.441 441.608 248.421 441.538 248.421 441.457C248.421 441.336 248.466 441.239 248.555 441.167C248.644 441.095 248.764 441.059 248.913 441.059C249.017 441.059 249.105 441.075 249.177 441.108C249.249 441.141 249.305 441.187 249.345 441.247C249.387 441.307 249.408 441.377 249.408 441.457C249.408 441.577 249.363 441.675 249.274 441.751C249.187 441.825 249.067 441.862 248.913 441.862Z" fill="white"/>
<path d="M255.441 441.794C255.441 441.549 255.441 441.313 255.441 441.086C255.441 440.86 255.441 440.61 255.441 440.338V438.86C255.441 438.582 255.441 438.329 255.441 438.1C255.441 437.869 255.441 437.631 255.441 437.386H256.116C256.116 437.631 256.116 437.869 256.116 438.1C256.116 438.329 256.116 438.582 256.116 438.86V440.338C256.116 440.61 256.116 440.86 256.116 441.086C256.116 441.313 256.116 441.549 256.116 441.794H255.441ZM251.91 441.794C251.91 441.549 251.91 441.313 251.91 441.086C251.91 440.86 251.91 440.61 251.91 440.338V438.86C251.91 438.582 251.91 438.329 251.91 438.1C251.91 437.869 251.91 437.631 251.91 437.386H252.584C252.584 437.631 252.584 437.869 252.584 438.1C252.584 438.329 252.584 438.582 252.584 438.86V440.338C252.584 440.61 252.584 440.86 252.584 441.086C252.584 441.313 252.584 441.549 252.584 441.794H251.91ZM252.349 439.803V439.321H255.698V439.803H252.349Z" fill="white"/>
<path d="M257.68 441.862C257.579 441.862 257.49 441.845 257.416 441.81C257.344 441.775 257.288 441.727 257.248 441.668C257.209 441.608 257.189 441.538 257.189 441.457C257.189 441.336 257.233 441.239 257.323 441.167C257.412 441.095 257.531 441.059 257.68 441.059C257.785 441.059 257.873 441.075 257.945 441.108C258.017 441.141 258.073 441.187 258.113 441.247C258.155 441.307 258.176 441.377 258.176 441.457C258.176 441.577 258.131 441.675 258.042 441.751C257.955 441.825 257.834 441.862 257.68 441.862Z" fill="white"/>
<path d="M259.061 441.794C259.096 441.555 259.131 441.319 259.166 441.086C259.203 440.853 259.241 440.6 259.281 440.326L259.501 438.873C259.541 438.603 259.578 438.351 259.613 438.118C259.647 437.886 259.685 437.641 259.724 437.386H260.402C260.556 437.699 260.705 438.002 260.849 438.295C260.994 438.585 261.136 438.875 261.278 439.163L262.12 440.876H262.172L263.007 439.166C263.148 438.874 263.29 438.583 263.431 438.295C263.573 438.006 263.719 437.703 263.871 437.386H264.549C264.586 437.637 264.621 437.879 264.653 438.112C264.688 438.345 264.726 438.598 264.769 438.87L264.985 440.338C265.024 440.606 265.062 440.856 265.096 441.086C265.131 441.315 265.166 441.551 265.201 441.794H264.556C264.499 441.403 264.445 441.031 264.392 440.678C264.34 440.326 264.292 439.997 264.247 439.692L264.053 438.375H264.005L263.331 439.794C263.167 440.138 263.003 440.484 262.839 440.83C262.675 441.174 262.522 441.496 262.381 441.794H261.922C261.833 441.607 261.734 441.401 261.624 441.176C261.515 440.951 261.402 440.722 261.285 440.487C261.171 440.252 261.059 440.024 260.95 439.803L260.253 438.375H260.205L260.011 439.689C259.967 439.996 259.918 440.326 259.866 440.678C259.816 441.031 259.763 441.403 259.706 441.794H259.061Z" fill="white"/>
<path d="M266.572 441.862C266.47 441.862 266.382 441.845 266.307 441.81C266.235 441.775 266.18 441.727 266.14 441.668C266.1 441.608 266.08 441.538 266.08 441.457C266.08 441.336 266.125 441.239 266.214 441.167C266.304 441.095 266.423 441.059 266.572 441.059C266.676 441.059 266.764 441.075 266.836 441.108C266.909 441.141 266.964 441.187 267.004 441.247C267.046 441.307 267.067 441.377 267.067 441.457C267.067 441.577 267.023 441.675 266.933 441.751C266.846 441.825 266.726 441.862 266.572 441.862Z" fill="white"/>
<path d="M272.102 441.408L272.11 440.957H272.359C272.796 440.957 273.152 440.905 273.425 440.802C273.7 440.699 273.904 440.547 274.036 440.347C274.167 440.146 274.233 439.895 274.233 439.596C274.233 439.293 274.169 439.041 274.039 438.839C273.91 438.635 273.71 438.481 273.44 438.378C273.171 438.275 272.824 438.224 272.397 438.224H272.147L272.14 437.772H272.404C273.008 437.772 273.494 437.849 273.864 438.004C274.234 438.159 274.504 438.373 274.673 438.647C274.844 438.919 274.93 439.236 274.93 439.596C274.93 439.942 274.845 440.253 274.677 440.527C274.51 440.799 274.238 441.014 273.861 441.173C273.486 441.33 272.983 441.408 272.352 441.408H272.102ZM271.771 441.408C271.296 441.408 270.895 441.363 270.567 441.272C270.24 441.181 269.974 441.054 269.77 440.892C269.569 440.727 269.422 440.535 269.331 440.317C269.239 440.096 269.193 439.856 269.193 439.596C269.193 439.236 269.277 438.919 269.446 438.647C269.615 438.373 269.884 438.159 270.254 438.004C270.627 437.849 271.115 437.772 271.719 437.772H271.979L271.972 438.224H271.722C271.3 438.224 270.954 438.275 270.683 438.378C270.412 438.481 270.212 438.635 270.083 438.839C269.954 439.041 269.889 439.293 269.889 439.596C269.889 439.895 269.954 440.146 270.083 440.347C270.215 440.547 270.418 440.699 270.694 440.802C270.97 440.905 271.325 440.957 271.76 440.957H272.009L272.017 441.408H271.771ZM271.722 441.924C271.722 441.811 271.722 441.704 271.722 441.603C271.722 441.502 271.722 441.399 271.722 441.294L271.737 441.281C271.737 441.139 271.737 440.994 271.737 440.845C271.737 440.695 271.737 440.538 271.737 440.375V438.805C271.737 438.642 271.737 438.486 271.737 438.338C271.737 438.187 271.737 438.041 271.737 437.899L271.722 437.887C271.722 437.781 271.722 437.678 271.722 437.577C271.722 437.474 271.722 437.367 271.722 437.256H272.397C272.397 437.367 272.397 437.474 272.397 437.577C272.397 437.678 272.397 437.781 272.397 437.887L272.382 437.899C272.382 438.041 272.382 438.187 272.382 438.338C272.382 438.486 272.382 438.642 272.382 438.805V440.375C272.382 440.538 272.382 440.694 272.382 440.842C272.382 440.991 272.382 441.137 272.382 441.281L272.397 441.294C272.397 441.397 272.397 441.5 272.397 441.603C272.397 441.704 272.397 441.811 272.397 441.924H271.722Z" fill="white"/>
<path d="M277.549 441.862C277.107 441.862 276.743 441.792 276.457 441.652C276.172 441.512 275.959 441.32 275.82 441.077C275.681 440.834 275.612 440.556 275.612 440.242C275.612 439.933 275.68 439.659 275.817 439.42C275.953 439.181 276.149 438.994 276.405 438.86C276.661 438.724 276.967 438.656 277.322 438.656C277.635 438.656 277.903 438.707 278.126 438.808C278.352 438.909 278.526 439.057 278.648 439.253C278.77 439.447 278.831 439.687 278.831 439.973C278.831 440.05 278.828 440.119 278.823 440.181C278.821 440.24 278.813 440.301 278.801 440.363L278.261 440.137C278.265 440.104 278.268 440.073 278.268 440.045C278.27 440.014 278.272 439.984 278.272 439.955C278.272 439.664 278.185 439.444 278.011 439.293C277.837 439.141 277.61 439.064 277.329 439.064C277.103 439.064 276.908 439.113 276.744 439.21C276.583 439.305 276.457 439.436 276.368 439.605C276.279 439.775 276.234 439.967 276.234 440.184V440.255C276.234 440.494 276.284 440.7 276.383 440.873C276.482 441.046 276.633 441.18 276.834 441.275C277.037 441.368 277.296 441.414 277.609 441.414C277.725 441.414 277.848 441.407 277.977 441.392C278.109 441.376 278.238 441.351 278.365 441.318C278.494 441.285 278.617 441.242 278.734 441.188L278.76 441.649C278.665 441.692 278.556 441.73 278.432 441.763C278.308 441.794 278.171 441.818 278.022 441.835C277.873 441.853 277.715 441.862 277.549 441.862ZM275.869 440.363V439.998L278.424 439.98L278.801 440.097V440.363H275.869Z" fill="white"/>
<path d="M282.216 441.714C282.216 441.572 282.216 441.436 282.216 441.306C282.216 441.176 282.216 441.041 282.216 440.901C282.216 440.761 282.216 440.607 282.216 440.44V440.131C282.216 439.956 282.216 439.796 282.216 439.652C282.216 439.506 282.216 439.365 282.216 439.231C282.216 439.095 282.216 438.954 282.216 438.808L282.491 439.148H280.491L280.77 438.808C280.763 438.94 280.754 439.069 280.744 439.194C280.734 439.32 280.724 439.452 280.714 439.59C280.707 439.726 280.697 439.878 280.685 440.045C280.672 440.234 280.646 440.417 280.606 440.592C280.569 440.767 280.517 440.929 280.45 441.077C280.383 441.223 280.3 441.353 280.2 441.467L279.597 441.399C279.666 441.343 279.738 441.26 279.813 441.148C279.887 441.035 279.953 440.882 280.01 440.691C280.07 440.497 280.112 440.251 280.137 439.952C280.154 439.698 280.171 439.478 280.185 439.29C280.2 439.101 280.214 438.913 280.226 438.727H282.823C282.823 438.878 282.823 439.026 282.823 439.173C282.823 439.317 282.823 439.467 282.823 439.624C282.823 439.779 282.823 439.948 282.823 440.131V440.44C282.823 440.694 282.823 440.916 282.823 441.108C282.823 441.3 282.823 441.502 282.823 441.714H282.216ZM279.239 442.648C279.239 442.545 279.239 442.442 279.239 442.338C279.239 442.235 279.239 442.132 279.239 442.029C279.239 441.924 279.239 441.816 279.239 441.705C279.239 441.591 279.239 441.481 279.239 441.374C279.46 441.374 279.685 441.374 279.913 441.374C280.142 441.374 280.363 441.374 280.577 441.374H282.048C282.264 441.374 282.485 441.374 282.711 441.374C282.94 441.374 283.166 441.374 283.389 441.374C283.389 441.481 283.389 441.591 283.389 441.705C283.389 441.816 283.389 441.924 283.389 442.029C283.389 442.132 283.389 442.235 283.389 442.338C283.389 442.442 283.389 442.545 283.389 442.648H282.853L282.823 441.726L282.961 441.794H279.668L279.805 441.726L279.779 442.648H279.239Z" fill="white"/>
<path d="M285.773 441.862C285.468 441.862 285.198 441.819 284.965 441.733C284.734 441.644 284.54 441.524 284.384 441.374C284.227 441.223 284.108 441.051 284.026 440.858C283.946 440.662 283.907 440.457 283.907 440.242C283.907 439.935 283.981 439.663 284.13 439.426C284.282 439.187 284.495 438.999 284.771 438.86C285.049 438.722 285.379 438.653 285.762 438.653C286.057 438.653 286.319 438.693 286.548 438.774C286.776 438.854 286.97 438.967 287.129 439.111C287.288 439.255 287.409 439.424 287.491 439.618C287.572 439.81 287.613 440.018 287.613 440.242C287.613 440.545 287.539 440.819 287.39 441.065C287.241 441.31 287.029 441.505 286.753 441.649C286.48 441.791 286.153 441.862 285.773 441.862ZM285.773 441.417C286.044 441.417 286.269 441.362 286.447 441.25C286.626 441.139 286.76 440.994 286.85 440.814C286.939 440.635 286.984 440.444 286.984 440.242C286.984 440.012 286.934 439.811 286.835 439.64C286.735 439.468 286.595 439.335 286.414 439.241C286.233 439.146 286.018 439.098 285.769 439.098C285.501 439.098 285.275 439.149 285.091 439.25C284.908 439.351 284.768 439.488 284.674 439.661C284.582 439.834 284.536 440.028 284.536 440.242C284.536 440.444 284.581 440.635 284.67 440.814C284.762 440.994 284.9 441.139 285.084 441.25C285.268 441.362 285.497 441.417 285.773 441.417Z" fill="white"/>
<path d="M288.572 443C288.572 442.773 288.572 442.551 288.572 442.332C288.572 442.116 288.572 441.881 288.572 441.627V440.131C288.572 439.904 288.572 439.672 288.572 439.435C288.572 439.198 288.572 438.962 288.572 438.727L289.131 438.697L289.146 439.095H289.209C289.284 439.015 289.378 438.942 289.492 438.876C289.606 438.808 289.737 438.754 289.883 438.715C290.032 438.674 290.195 438.653 290.371 438.653C290.709 438.653 290.996 438.723 291.232 438.864C291.47 439.002 291.652 439.191 291.776 439.432C291.9 439.674 291.962 439.947 291.962 440.252C291.962 440.538 291.904 440.804 291.787 441.049C291.673 441.292 291.498 441.489 291.262 441.64C291.028 441.788 290.735 441.862 290.383 441.862C290.219 441.862 290.067 441.844 289.928 441.807C289.789 441.772 289.662 441.721 289.548 441.655C289.436 441.587 289.335 441.505 289.243 441.408H289.187V441.649C289.187 441.89 289.187 442.115 289.187 442.323C289.187 442.533 289.187 442.753 289.187 442.982L288.572 443ZM290.196 441.405C290.462 441.405 290.678 441.35 290.845 441.241C291.013 441.132 291.136 440.991 291.213 440.817C291.293 440.642 291.333 440.455 291.333 440.255C291.333 440.047 291.29 439.857 291.206 439.686C291.124 439.513 290.999 439.375 290.83 439.272C290.661 439.169 290.446 439.117 290.185 439.117C290.056 439.117 289.929 439.134 289.805 439.166C289.681 439.197 289.565 439.245 289.459 439.309C289.354 439.371 289.264 439.448 289.187 439.541V440.904C289.261 441.009 289.347 441.099 289.444 441.173C289.543 441.247 289.655 441.305 289.779 441.346C289.903 441.385 290.042 441.405 290.196 441.405Z" fill="white"/>
<path d="M294.585 441.862C294.279 441.862 294.01 441.819 293.776 441.733C293.545 441.644 293.351 441.524 293.195 441.374C293.039 441.223 292.919 441.051 292.837 440.858C292.758 440.662 292.718 440.457 292.718 440.242C292.718 439.935 292.793 439.663 292.942 439.426C293.093 439.187 293.307 438.999 293.582 438.86C293.861 438.722 294.191 438.653 294.573 438.653C294.869 438.653 295.131 438.693 295.359 438.774C295.588 438.854 295.782 438.967 295.941 439.111C296.1 439.255 296.22 439.424 296.302 439.618C296.384 439.81 296.425 440.018 296.425 440.242C296.425 440.545 296.35 440.819 296.201 441.065C296.052 441.31 295.84 441.505 295.564 441.649C295.291 441.791 294.965 441.862 294.585 441.862ZM294.585 441.417C294.855 441.417 295.08 441.362 295.259 441.25C295.438 441.139 295.572 440.994 295.661 440.814C295.751 440.635 295.795 440.444 295.795 440.242C295.795 440.012 295.746 439.811 295.646 439.64C295.547 439.468 295.407 439.335 295.225 439.241C295.044 439.146 294.829 439.098 294.581 439.098C294.313 439.098 294.087 439.149 293.903 439.25C293.719 439.351 293.58 439.488 293.486 439.661C293.394 439.834 293.348 440.028 293.348 440.242C293.348 440.444 293.392 440.635 293.482 440.814C293.574 440.994 293.712 441.139 293.895 441.25C294.079 441.362 294.309 441.417 294.585 441.417Z" fill="white"/>
<path d="M297.384 441.794C297.384 441.566 297.384 441.346 297.384 441.136C297.384 440.924 297.384 440.691 297.384 440.437V440.128C297.384 439.945 297.384 439.776 297.384 439.621C297.384 439.466 297.384 439.317 297.384 439.173C297.384 439.026 297.384 438.878 297.384 438.727C297.607 438.727 297.875 438.727 298.188 438.727C298.504 438.727 298.807 438.727 299.097 438.727C299.39 438.727 299.625 438.757 299.801 438.817C299.978 438.877 300.104 438.961 300.181 439.071C300.261 439.178 300.301 439.306 300.301 439.454C300.301 439.648 300.24 439.803 300.118 439.921C299.999 440.038 299.851 440.12 299.675 440.165V440.205C299.794 440.224 299.908 440.26 300.017 440.313C300.129 440.365 300.221 440.442 300.293 440.545C300.368 440.646 300.405 440.781 300.405 440.95C300.405 441.111 300.361 441.255 300.274 441.383C300.19 441.509 300.039 441.609 299.82 441.683C299.604 441.757 299.296 441.794 298.896 441.794C298.596 441.794 298.315 441.794 298.054 441.794C297.793 441.794 297.57 441.794 297.384 441.794ZM297.983 441.383H298.844C299.082 441.383 299.27 441.365 299.406 441.328C299.546 441.29 299.642 441.236 299.697 441.164C299.754 441.092 299.783 441.004 299.783 440.901C299.783 440.726 299.708 440.602 299.559 440.53C299.413 440.458 299.198 440.422 298.915 440.422H297.819V440.048H298.851C299.058 440.048 299.22 440.027 299.339 439.986C299.459 439.942 299.543 439.885 299.593 439.813C299.645 439.738 299.671 439.655 299.671 439.562C299.671 439.406 299.609 439.296 299.485 439.235C299.363 439.171 299.189 439.139 298.963 439.139H297.983C297.983 439.304 297.983 439.463 297.983 439.618C297.983 439.772 297.983 439.94 297.983 440.122V440.431C297.983 440.606 297.983 440.769 297.983 440.919C297.983 441.07 297.983 441.224 297.983 441.383Z" fill="white"/>
<path d="M303 441.856C302.6 441.856 302.26 441.786 301.979 441.646C301.701 441.506 301.489 441.315 301.342 441.074C301.195 440.833 301.122 440.561 301.122 440.258C301.122 439.955 301.192 439.683 301.331 439.442C301.472 439.198 301.677 439.007 301.946 438.867C302.216 438.726 302.545 438.656 302.933 438.656C303.077 438.656 303.218 438.667 303.357 438.687C303.499 438.708 303.632 438.736 303.756 438.771C303.88 438.804 303.991 438.843 304.088 438.888L304.032 439.358C303.893 439.292 303.761 439.242 303.637 439.207C303.515 439.17 303.401 439.145 303.294 439.132C303.19 439.118 303.093 439.111 303.004 439.111C302.626 439.111 302.323 439.214 302.095 439.42C301.866 439.624 301.752 439.9 301.752 440.249C301.752 440.467 301.801 440.665 301.901 440.842C302.003 441.017 302.154 441.156 302.355 441.26C302.559 441.361 302.811 441.411 303.112 441.411C303.218 441.411 303.324 441.403 303.428 441.386C303.535 441.37 303.641 441.346 303.745 441.315C303.849 441.282 303.95 441.24 304.047 441.188L304.099 441.655C304.017 441.692 303.921 441.726 303.812 441.757C303.703 441.786 303.58 441.81 303.443 441.828C303.309 441.847 303.161 441.856 303 441.856Z" fill="white"/>
<path d="M305.016 441.794C305.016 441.566 305.016 441.346 305.016 441.136C305.016 440.926 305.016 440.694 305.016 440.44V440.116C305.016 439.932 305.016 439.764 305.016 439.612C305.016 439.457 305.016 439.309 305.016 439.166C305.016 439.024 305.016 438.878 305.016 438.727L305.631 438.706C305.631 438.933 305.631 439.155 305.631 439.374C305.631 439.592 305.631 439.822 305.631 440.063V440.521C305.631 440.751 305.631 440.967 305.631 441.167C305.631 441.367 305.631 441.576 305.631 441.794H305.016ZM307.468 441.794C307.301 441.654 307.132 441.514 306.961 441.374C306.792 441.234 306.624 441.095 306.458 440.957L305.821 440.428H305.56V440.063H305.858L306.395 439.59C306.559 439.448 306.724 439.305 306.89 439.16C307.057 439.014 307.221 438.87 307.382 438.727H308.142C307.928 438.907 307.716 439.086 307.505 439.265C307.294 439.445 307.084 439.624 306.875 439.803L306.246 440.335L306.223 440.088L306.954 440.712C307.175 440.894 307.394 441.075 307.613 441.256C307.834 441.436 308.053 441.615 308.269 441.794H307.468Z" fill="white"/>
<path d="M310.49 441.862C310.185 441.862 309.915 441.819 309.682 441.733C309.451 441.644 309.257 441.524 309.101 441.374C308.944 441.223 308.825 441.051 308.743 440.858C308.664 440.662 308.624 440.457 308.624 440.242C308.624 439.935 308.699 439.663 308.848 439.426C308.999 439.187 309.213 438.999 309.488 438.86C309.766 438.722 310.097 438.653 310.479 438.653C310.775 438.653 311.037 438.693 311.265 438.774C311.494 438.854 311.688 438.967 311.846 439.111C312.005 439.255 312.126 439.424 312.208 439.618C312.29 439.81 312.331 440.018 312.331 440.242C312.331 440.545 312.256 440.819 312.107 441.065C311.958 441.31 311.746 441.505 311.47 441.649C311.197 441.791 310.87 441.862 310.49 441.862ZM310.49 441.417C310.761 441.417 310.986 441.362 311.165 441.25C311.344 441.139 311.478 440.994 311.567 440.814C311.657 440.635 311.701 440.444 311.701 440.242C311.701 440.012 311.652 439.811 311.552 439.64C311.453 439.468 311.313 439.335 311.131 439.241C310.95 439.146 310.735 439.098 310.487 439.098C310.218 439.098 309.992 439.149 309.809 439.25C309.625 439.351 309.486 439.488 309.391 439.661C309.3 439.834 309.254 440.028 309.254 440.242C309.254 440.444 309.298 440.635 309.388 440.814C309.48 440.994 309.617 441.139 309.801 441.25C309.985 441.362 310.215 441.417 310.49 441.417Z" fill="white"/>
<path d="M313.289 441.794C313.289 441.566 313.289 441.346 313.289 441.136C313.289 440.926 313.289 440.694 313.289 440.44V440.131C313.289 439.948 313.289 439.779 313.289 439.624C313.289 439.467 313.289 439.317 313.289 439.173C313.289 439.026 313.289 438.878 313.289 438.727H315.778V439.145C315.532 439.145 315.284 439.145 315.033 439.145C314.782 439.145 314.537 439.145 314.299 439.145H313.539L313.904 438.808C313.904 438.954 313.904 439.095 313.904 439.231C313.904 439.365 313.904 439.506 313.904 439.652C313.904 439.796 313.904 439.956 313.904 440.131V440.44C313.904 440.694 313.904 440.926 313.904 441.136C313.904 441.346 313.904 441.566 313.904 441.794H313.289Z" fill="white"/>
<path d="M318.16 441.862C317.854 441.862 317.585 441.819 317.351 441.733C317.12 441.644 316.926 441.524 316.77 441.374C316.614 441.223 316.494 441.051 316.412 440.858C316.333 440.662 316.293 440.457 316.293 440.242C316.293 439.935 316.368 439.663 316.517 439.426C316.668 439.187 316.882 438.999 317.157 438.86C317.436 438.722 317.766 438.653 318.148 438.653C318.444 438.653 318.706 438.693 318.934 438.774C319.163 438.854 319.357 438.967 319.516 439.111C319.675 439.255 319.795 439.424 319.877 439.618C319.959 439.81 320 440.018 320 440.242C320 440.545 319.925 440.819 319.776 441.065C319.627 441.31 319.415 441.505 319.139 441.649C318.866 441.791 318.54 441.862 318.16 441.862ZM318.16 441.417C318.43 441.417 318.655 441.362 318.834 441.25C319.013 441.139 319.147 440.994 319.236 440.814C319.326 440.635 319.37 440.444 319.37 440.242C319.37 440.012 319.321 439.811 319.221 439.64C319.122 439.468 318.982 439.335 318.8 439.241C318.619 439.146 318.404 439.098 318.156 439.098C317.888 439.098 317.662 439.149 317.478 439.25C317.294 439.351 317.155 439.488 317.061 439.661C316.969 439.834 316.923 440.028 316.923 440.242C316.923 440.444 316.967 440.635 317.057 440.814C317.149 440.994 317.287 441.139 317.47 441.25C317.654 441.362 317.884 441.417 318.16 441.417Z" fill="white"/>
<path fill-rule="evenodd" clip-rule="evenodd" d="M188.049 422.441L189.655 422.577L227.368 425.779L214.214 443.827L188.049 422.441Z" fill="white"/>
<path fill-rule="evenodd" clip-rule="evenodd" d="M189.655 422.577L188.049 422.441L197.078 415.441L198.321 415.899L189.655 422.577Z" fill="white"/>
<path fill-rule="evenodd" clip-rule="evenodd" d="M198.321 415.899L197.078 415.441L199.327 411.294L199.386 412.549L199.564 416.358L198.321 415.899Z" fill="white"/>
<path fill-rule="evenodd" clip-rule="evenodd" d="M199.564 416.358L203.442 414.468L204.677 413.867L206.282 414.709L227.368 425.779L199.564 416.358Z" fill="white"/>
<path fill-rule="evenodd" clip-rule="evenodd" d="M217.566 410.623L222.845 412.399L225.323 413.232L235.236 416.566L236.421 416.964L227.368 425.779L218.187 411.584L217.566 410.623Z" fill="white"/>
<path fill-rule="evenodd" clip-rule="evenodd" d="M199.386 412.549L199.327 411.294L204.677 413.867L203.442 414.468L199.386 412.549Z" fill="white"/>
<path fill-rule="evenodd" clip-rule="evenodd" d="M206.282 414.709L204.677 413.867L217.566 410.623L218.187 411.584L206.282 414.709Z" fill="white"/>
<path fill-rule="evenodd" clip-rule="evenodd" d="M225.323 413.232L222.845 412.399L234.569 411.36L236.421 416.964L235.236 416.566L233.737 412.601L225.323 413.232Z" fill="white"/>
<path d="M188.049 422.441L189.655 422.577M188.049 422.441L214.214 443.827L227.368 425.779M188.049 422.441L197.078 415.441M189.655 422.577L227.368 425.779M189.655 422.577L198.321 415.899M227.368 425.779L206.282 414.709M227.368 425.779L199.564 416.358M227.368 425.779L236.421 416.964M227.368 425.779L218.187 411.584M197.078 415.441L198.321 415.899M197.078 415.441L199.327 411.294M198.321 415.899L199.564 416.358M199.327 411.294L199.386 412.549M199.327 411.294L204.677 413.867M199.386 412.549L199.564 416.358M199.386 412.549L203.442 414.468M199.564 416.358L203.442 414.468M203.442 414.468L204.677 413.867M204.677 413.867L206.282 414.709M204.677 413.867L217.566 410.623M206.282 414.709L218.187 411.584M217.566 410.623L222.845 412.399M217.566 410.623L218.187 411.584M222.845 412.399L225.323 413.232M222.845 412.399L234.569 411.36L236.421 416.964M225.323 413.232L235.236 416.566M225.323 413.232L233.737 412.601L235.236 416.566M235.236 416.566L236.421 416.964" stroke="#F3F3F3"/>
</svg>
