<svg width="500" height="500" viewBox="0 0 500 500" fill="none" xmlns="http://www.w3.org/2000/svg">
<g clip-path="url(#clip0_55_287)">
<rect width="500" height="500" fill="#1E1E1E"/>
<path fill-rule="evenodd" clip-rule="evenodd" d="M0 0H500V500H0V0ZM0.78125 0.892857H61.7188L71.7188 70.5357H0.78125V0.892857ZM63.2813 0.892857H124.219L135.56 44L73.2813 70.5357L63.2813 0.892857ZM186.719 0.892857H125.781L137.122 44H198.06L186.719 0.892857ZM188.281 0.892857H249.219L260.56 44H199.622L188.281 0.892857ZM311.719 0.892857H250.781L262.122 44L339.592 72.3214L311.719 0.892857ZM313.281 0.892857H374.219L402.092 72.3214H341.155L313.281 0.892857ZM436.719 0.892857H375.781L403.655 72.3214H464.592L436.719 0.892857ZM438.281 0.892857H499.219V70.5357L466.155 72.3214L438.281 0.892857ZM71.7188 72.3214H0.78125V141.964H51.7188L71.7188 72.3214ZM73.2813 72.3214L135.56 45.7857L110.59 115.429L53.2813 141.964L73.2813 72.3214ZM198.06 45.7857H137.122L112.152 115.429H168.12L198.06 45.7857ZM199.622 45.7857H260.56L230.62 115.429H169.682L199.622 45.7857ZM339.592 74.1071L262.122 45.7857L232.182 115.429L301.719 141.964L339.592 74.1071ZM341.155 74.1071H402.092L382.092 143.75L303.281 141.964L341.155 74.1071ZM464.592 74.1071H403.655L383.655 143.75H444.592L464.592 74.1071ZM466.155 74.1071L499.219 72.3214V141.964L446.155 143.75L466.155 74.1071ZM51.7188 143.75H0.78125V213.393H71.7188L51.7188 143.75ZM53.2813 143.75L110.59 117.214L158.967 205.5L73.2813 213.393L53.2813 143.75ZM168.12 117.214H112.152L160.53 205.5H226.438L168.12 117.214ZM169.682 117.214H230.62L288.938 205.5H228L169.682 117.214ZM301.719 143.75L232.182 117.214L290.5 205.5L321.719 213.393L301.719 143.75ZM303.281 143.75L382.092 145.536L384.219 213.393H323.281L303.281 143.75ZM444.592 145.536H383.655L385.781 213.393H446.719L444.592 145.536ZM446.155 145.536L499.219 143.75V213.393H448.281L446.155 145.536ZM71.7188 215.179H0.78125V284.821H51.7188L71.7188 215.179ZM73.2813 215.179L158.967 207.286L146.779 275L53.2813 284.821L73.2813 215.179ZM226.438 207.286H160.53L148.341 275H204.309L226.438 207.286ZM228 207.286H288.938L260.56 315.071L205.871 275L228 207.286ZM321.719 215.179L290.5 207.286L262.122 315.071H328.03L321.719 215.179ZM323.281 215.179H384.219L390.53 315.071H329.592L323.281 215.179ZM446.719 215.179H385.781L392.092 315.071H453.03L446.719 215.179ZM448.281 215.179H499.219V284.821L454.592 315.071L448.281 215.179ZM51.7188 286.607H0.78125V356.25L104.279 346.429L51.7188 286.607ZM53.2813 286.607L146.779 276.786L166.779 346.429H105.841L53.2813 286.607ZM204.309 276.786H148.341L168.341 346.429H234.249L204.309 276.786ZM205.871 276.786L260.56 316.857L305.5 355.5L235.811 346.429L205.871 276.786ZM328.03 316.857H262.122L307.062 355.5L348.03 386.5L328.03 316.857ZM329.592 316.857H390.53L410.53 386.5H349.592L329.592 316.857ZM453.03 316.857H392.092L412.092 386.5H463.03L453.03 316.857ZM454.592 316.857L499.219 286.607V356.25L464.592 386.5L454.592 316.857ZM104.279 348.214L0.78125 358.036V427.679H51.7188L104.279 348.214ZM105.841 348.214H166.779L114.219 427.679H53.2813L105.841 348.214ZM234.249 348.214H168.341L115.781 427.679H171.749L234.249 348.214ZM235.811 348.214L305.5 355.5L234.249 427.679H173.311L235.811 348.214ZM348.03 386.5L307.062 355.5L235.811 427.679L328.03 456.143L348.03 386.5ZM349.592 386.5H410.53L390.53 456.143H329.592L349.592 386.5ZM463.03 386.5H412.092L392.092 456.143H453.03L463.03 386.5ZM464.592 386.5L499.219 358.036V427.679L454.592 456.143L464.592 386.5ZM51.7188 429.464H0.78125V499.107H61.7188L51.7188 429.464ZM53.2813 429.464H114.219L124.219 499.107H63.2813L53.2813 429.464ZM171.749 429.464H115.781L125.781 499.107H186.719L171.749 429.464ZM173.311 429.464H234.249L249.219 499.107H188.281L173.311 429.464ZM328.03 457.929L235.811 429.464L250.781 499.107L338.03 527.571L328.03 457.929ZM329.592 457.929H390.53L400.53 527.571H339.592L329.592 457.929ZM453.03 457.929H392.092L402.092 527.571H463.03L453.03 457.929ZM454.592 457.929L499.219 429.464V499.107L464.592 527.571L454.592 457.929Z" fill="#0D547A"/>
<path d="M80 105H421C428.732 105 435 111.268 435 119V414.186C435 416.192 432.613 417.238 431.138 415.879L373.269 362.562C369.945 359.5 365.59 357.8 361.071 357.8H80C72.268 357.8 66 351.532 66 343.8V119C66 111.268 72.268 105 80 105Z" fill="#1E1E1E" stroke="#80C9F0" stroke-width="4"/>
<path d="M115.689 146.472C115.005 146.289 114.41 145.937 113.936 145.474C113.295 145.636 112.606 145.643 111.922 145.46L110.038 144.954L107.814 144.356L107.214 142.134L106.707 140.254C106.523 139.571 106.527 138.882 106.687 138.242C106.272 137.816 105.946 137.292 105.751 136.692L105.692 136.495L104.989 133.889L104.286 136.495L104.227 136.692C104.033 137.292 103.706 137.816 103.29 138.242C103.451 138.882 103.456 139.571 103.271 140.254L102.765 142.134L102.164 144.356L99.9403 144.954L98.0565 145.46L97.8563 145.509C97.2381 145.641 96.6197 145.621 96.0409 145.474C95.5672 145.936 94.9734 146.289 94.2889 146.472M115.689 146.472L116.498 143.461V143.46L115.689 146.472ZM115.689 146.472L118.261 147.163L115.689 147.854C115.005 148.038 114.411 148.389 113.937 148.85C113.296 148.688 112.606 148.682 111.922 148.866L110.038 149.372L107.814 149.969L107.214 152.193L106.707 154.072C106.523 154.754 106.527 155.443 106.687 156.083C106.272 156.509 105.946 157.034 105.751 157.634L105.692 157.831L104.989 160.435L104.286 157.831L104.227 157.634C104.032 157.033 103.706 156.509 103.29 156.083C103.45 155.443 103.455 154.754 103.271 154.072L102.765 152.193L102.164 149.969L99.9403 149.372L98.0565 148.866L97.8563 148.818C97.2379 148.685 96.6189 148.704 96.0399 148.85C95.5665 148.389 94.9727 148.038 94.2889 147.854M94.2889 147.854L93.4794 150.865V150.866L94.2889 147.854ZM94.2889 147.854L91.7167 147.163L94.2889 146.472M94.2889 146.472L93.4794 143.46V143.461L94.2889 146.472ZM123.996 148.703L124.033 148.842C124.033 148.841 124.033 148.84 124.032 148.839L123.996 148.703ZM85.9462 148.838C85.9456 148.839 85.9448 148.84 85.9442 148.841L85.9813 148.703L85.9462 148.838ZM103.454 128.205V128.206L103.339 128.175L103.337 128.174L103.454 128.205ZM106.64 128.175L106.523 128.206V128.205L106.641 128.174L106.64 128.175Z" stroke="#80C9F0" stroke-width="8" stroke-linecap="round" stroke-dasharray="4 4"/>
<path d="M104.579 143.62C104.626 143.738 104.678 143.855 104.737 143.97L105.976 146.386L106.375 147.163L105.976 147.94L104.737 150.357C104.678 150.471 104.626 150.588 104.579 150.705C104.532 150.588 104.48 150.471 104.422 150.357L103.182 147.94L102.783 147.163L103.182 146.386L104.422 143.97C104.48 143.855 104.532 143.738 104.579 143.62Z" stroke="#80C9F0" stroke-width="8" stroke-linecap="round" stroke-dasharray="4 4"/>
<path d="M176.349 140.887C183.231 138.392 190.787 141.303 197.417 147.847C200.045 150.44 202.536 153.615 204.799 157.271C218.794 149.151 236.606 145.903 258.227 145.903H258.231L260.46 145.914H260.464L262.48 145.946C283.191 146.376 300.238 150.035 313.613 158.455C314.008 158.703 314.399 158.957 314.787 159.214C317.149 155.296 319.773 151.911 322.548 149.172C329.177 142.628 336.733 139.716 343.615 142.212C350.497 144.707 355.254 152.083 357.453 161.828C359.654 171.586 359.317 183.812 355.946 196.203C354.33 202.142 352.159 207.588 349.608 212.372C356.871 226.569 361 240.851 361 252.681L360.991 253.61C360.635 273.097 349.097 290.617 330.816 303.294C312.238 316.176 286.618 324.124 258.354 324.147L258.355 324.148C258.342 324.148 258.328 324.149 258.305 324.149L258.227 324.15C258.198 324.15 258.169 324.149 258.149 324.149C258.126 324.149 258.112 324.148 258.098 324.148C229.835 324.124 204.215 316.176 185.638 303.294C167.356 290.617 155.818 273.097 155.462 253.61L155.453 252.681C155.453 239.731 160.399 223.842 168.989 208.343C167.026 204.244 165.338 199.725 164.019 194.878C160.648 182.486 160.311 170.261 162.512 160.503C164.71 150.759 169.467 143.383 176.349 140.887Z" fill="#80C9F0"/>
<path d="M173.896 141.737C180.778 139.242 188.334 142.153 194.964 148.697C197.592 151.29 200.083 154.465 202.346 158.121C216.341 150.002 234.152 146.753 255.774 146.753H255.778L258.007 146.764H258.011L260.027 146.796C280.738 147.226 297.784 150.885 311.159 159.305C311.554 159.554 311.946 159.807 312.334 160.064C314.696 156.147 317.319 152.761 320.094 150.022C326.724 143.479 334.279 140.567 341.162 143.062C348.044 145.557 352.801 152.934 354.999 162.678C357.2 172.436 356.864 184.662 353.492 197.054C351.876 202.992 349.706 208.438 347.154 213.222C354.418 227.42 358.547 241.701 358.547 253.531L358.538 254.461C358.181 273.962 346.626 291.494 328.321 304.174C309.719 317.059 284.067 325 255.774 325H255.771L254.453 324.994H254.449C226.461 324.749 201.139 316.732 182.792 303.871C164.736 291.215 153.359 273.803 153.008 254.454L153 253.531C153 240.582 157.945 224.692 166.536 209.193C164.573 205.094 162.885 200.575 161.566 195.728C158.194 183.337 157.857 171.111 160.058 161.354C162.256 151.609 167.014 144.233 173.896 141.737Z" fill="#80C9F0"/>
<path d="M296.973 269.375C296.973 287.318 277.063 301.863 252.503 301.863C227.943 301.863 208.033 287.318 208.033 269.375C208.033 251.433 227.943 236.888 252.503 236.888C277.063 236.888 296.973 251.433 296.973 269.375Z" fill="#80C9F0"/>
<path d="M266.326 252.623C262.693 260.415 259.82 263.204 251.793 263.204C243.767 263.204 240.893 260.415 237.26 252.623C233.627 244.831 243.767 244.408 251.793 244.408C259.82 244.408 269.96 244.831 266.326 252.623Z" fill="#80C9F0"/>
<path d="M289.647 226.326C289.647 232.734 285.277 237.929 279.885 237.929C274.494 237.929 270.124 232.734 270.124 226.326C270.124 219.918 274.494 214.723 279.885 214.723C285.277 214.723 289.647 219.918 289.647 226.326Z" fill="#80C9F0"/>
<path d="M214.807 226.326C214.807 232.734 219.178 237.929 224.569 237.929C229.96 237.929 234.331 232.734 234.331 226.326C234.331 219.918 229.96 214.723 224.569 214.723C219.178 214.723 214.807 219.918 214.807 226.326Z" fill="#80C9F0"/>
<path d="M176.349 140.887L176.008 139.947L176.008 139.947L176.349 140.887ZM197.417 147.847L198.12 147.135L198.12 147.135L197.417 147.847ZM204.799 157.271L203.949 157.797C204.233 158.257 204.833 158.407 205.301 158.136L204.799 157.271ZM258.231 145.903L258.236 144.903H258.231V145.903ZM260.46 145.914L260.455 146.914H260.46V145.914ZM260.464 145.914L260.48 144.914C260.474 144.914 260.469 144.914 260.464 144.914V145.914ZM262.48 145.946L262.501 144.946L262.496 144.946L262.48 145.946ZM313.613 158.455L314.145 157.608V157.608L313.613 158.455ZM314.787 159.214L314.236 160.048C314.463 160.198 314.742 160.249 315.008 160.189C315.273 160.129 315.503 159.963 315.644 159.73L314.787 159.214ZM322.548 149.172L321.845 148.46L321.845 148.46L322.548 149.172ZM343.615 142.212L343.956 141.271L343.956 141.271L343.615 142.212ZM357.453 161.828L358.428 161.608V161.608L357.453 161.828ZM355.946 196.203L356.91 196.466L356.91 196.466L355.946 196.203ZM349.608 212.372L348.725 211.901C348.571 212.19 348.568 212.536 348.717 212.827L349.608 212.372ZM361 252.681L362 252.69V252.681H361ZM360.991 253.61L361.991 253.628L361.991 253.619L360.991 253.61ZM330.816 303.294L331.385 304.116L330.816 303.294ZM258.354 324.147L258.353 323.147C257.952 323.148 257.591 323.387 257.434 323.756C257.277 324.125 257.355 324.552 257.633 324.841L258.354 324.147ZM258.355 324.148L258.357 325.148C258.758 325.147 259.119 324.907 259.275 324.539C259.432 324.17 259.353 323.744 259.076 323.455L258.355 324.148ZM258.305 324.149L258.316 325.149L258.325 325.149L258.305 324.149ZM258.227 324.15V325.15L258.238 325.15L258.227 324.15ZM258.149 324.149L258.13 325.149H258.13L258.149 324.149ZM258.098 324.148L258.101 323.148H258.099L258.098 324.148ZM185.638 303.294L185.068 304.116L185.638 303.294ZM155.462 253.61L154.462 253.619L154.462 253.628L155.462 253.61ZM155.453 252.681H154.453L154.453 252.69L155.453 252.681ZM168.989 208.343L169.864 208.828C170.021 208.545 170.031 208.203 169.891 207.911L168.989 208.343ZM164.019 194.878L163.054 195.141L163.054 195.141L164.019 194.878ZM162.512 160.503L161.536 160.283L161.536 160.283L162.512 160.503ZM173.896 141.737L173.555 140.797L173.555 140.797L173.896 141.737ZM194.964 148.697L195.666 147.985L195.666 147.985L194.964 148.697ZM202.346 158.121L201.495 158.647C201.78 159.107 202.379 159.257 202.847 158.986L202.346 158.121ZM255.778 146.753L255.783 145.753H255.778V146.753ZM258.007 146.764L258.001 147.764H258.007V146.764ZM258.011 146.764L258.026 145.765C258.021 145.765 258.016 145.764 258.011 145.764V146.764ZM260.027 146.796L260.048 145.796L260.043 145.796L260.027 146.796ZM311.159 159.305L311.692 158.459L311.159 159.305ZM312.334 160.064L311.782 160.898C312.01 161.048 312.288 161.099 312.554 161.039C312.82 160.979 313.05 160.814 313.19 160.58L312.334 160.064ZM320.094 150.022L319.392 149.31V149.31L320.094 150.022ZM341.162 143.062L341.502 142.122L341.502 142.122L341.162 143.062ZM354.999 162.678L355.975 162.458L355.975 162.458L354.999 162.678ZM353.492 197.054L354.457 197.316V197.316L353.492 197.054ZM347.154 213.222L346.272 212.752C346.118 213.04 346.115 213.386 346.264 213.678L347.154 213.222ZM358.547 253.531L359.547 253.54V253.531L358.547 253.531ZM358.538 254.461L359.538 254.479L359.538 254.47L358.538 254.461ZM328.321 304.174L328.89 304.996L328.89 304.996L328.321 304.174ZM255.774 325V326V325ZM255.771 325L255.766 326H255.771V325ZM254.453 324.994L254.457 323.994H254.453V324.994ZM254.449 324.994L254.44 325.994H254.449V324.994ZM182.792 303.871L182.218 304.69L182.792 303.871ZM153.008 254.454L152.008 254.462L152.008 254.472L153.008 254.454ZM153 253.531L152 253.531L152 253.54L153 253.531ZM166.536 209.193L167.41 209.678C167.567 209.395 167.577 209.053 167.438 208.761L166.536 209.193ZM161.566 195.728L160.601 195.991L160.601 195.991L161.566 195.728ZM160.058 161.354L159.083 161.134L159.083 161.134L160.058 161.354ZM238.294 275.219L239.032 274.545L238.294 275.219ZM255.446 277.25L255.062 278.173L255.446 277.25ZM266.363 274.66L267.113 275.321L266.363 274.66ZM248.171 277.219L248.598 278.123L248.171 277.219ZM176.349 140.887L176.69 141.827C183.053 139.52 190.217 142.145 196.715 148.558L197.417 147.847L198.12 147.135C191.358 140.461 183.41 137.263 176.008 139.947L176.349 140.887ZM197.417 147.847L196.715 148.558C199.279 151.088 201.722 154.198 203.949 157.797L204.799 157.271L205.649 156.744C203.351 153.031 200.812 149.792 198.12 147.135L197.417 147.847ZM204.799 157.271L205.301 158.136C219.08 150.142 236.689 146.903 258.227 146.903V145.903V144.903C236.522 144.903 218.509 148.161 204.297 156.406L204.799 157.271ZM258.227 145.903V146.903H258.231V145.903V144.903H258.227V145.903ZM258.231 145.903L258.226 146.903L260.455 146.914L260.46 145.914L260.465 144.914L258.236 144.903L258.231 145.903ZM260.46 145.914V146.914H260.464V145.914V144.914H260.46V145.914ZM260.464 145.914L260.448 146.914L262.465 146.946L262.48 145.946L262.496 144.946L260.48 144.914L260.464 145.914ZM262.48 145.946L262.46 146.946C283.078 147.374 299.92 151.016 313.08 159.301L313.613 158.455L314.145 157.608C300.556 149.053 283.304 145.378 262.501 144.946L262.48 145.946ZM313.613 158.455L313.08 159.301C313.468 159.545 313.853 159.794 314.236 160.048L314.787 159.214L315.339 158.38C314.945 158.119 314.548 157.862 314.145 157.608L313.613 158.455ZM314.787 159.214L315.644 159.73C317.969 155.873 320.543 152.556 323.25 149.884L322.548 149.172L321.845 148.46C319.003 151.265 316.329 154.719 313.931 158.697L314.787 159.214ZM322.548 149.172L323.25 149.884C329.748 143.47 336.911 140.845 343.274 143.152L343.615 142.212L343.956 141.271C336.554 138.588 328.607 141.787 321.845 148.46L322.548 149.172ZM343.615 142.212L343.274 143.152C349.685 145.476 354.31 152.44 356.477 162.048L357.453 161.828L358.428 161.608C356.199 151.726 351.31 143.938 343.956 141.271L343.615 142.212ZM357.453 161.828L356.477 162.048C358.637 171.624 358.316 183.682 354.981 195.941L355.946 196.203L356.91 196.466C360.318 183.941 360.67 171.548 358.428 161.608L357.453 161.828ZM355.946 196.203L354.981 195.941C353.384 201.811 351.24 207.186 348.725 211.901L349.608 212.372L350.49 212.842C353.078 207.989 355.276 202.473 356.91 196.466L355.946 196.203ZM349.608 212.372L348.717 212.827C355.936 226.937 360 241.06 360 252.681L361 252.681H362C362 240.642 357.806 226.201 350.498 211.917L349.608 212.372ZM361 252.681L360 252.671L359.991 253.6L360.991 253.61L361.991 253.619L362 252.69L361 252.681ZM360.991 253.61L359.991 253.592C359.643 272.667 348.347 289.92 330.246 302.472L330.816 303.294L331.385 304.116C349.847 291.314 361.627 273.526 361.991 253.628L360.991 253.61ZM330.816 303.294L330.246 302.472C311.855 315.224 286.439 323.124 258.353 323.147L258.354 324.147L258.355 325.147C286.796 325.123 312.621 317.127 331.385 304.116L330.816 303.294ZM258.354 324.147L257.633 324.841L257.634 324.841L258.355 324.148L259.076 323.455L259.075 323.454L258.354 324.147ZM258.355 324.148L258.352 323.148C258.328 323.148 258.298 323.149 258.286 323.149L258.305 324.149L258.325 325.149C258.331 325.149 258.336 325.149 258.341 325.149C258.346 325.148 258.349 325.148 258.352 325.148C258.359 325.148 258.359 325.148 258.357 325.148L258.355 324.148ZM258.305 324.149L258.295 323.149L258.216 323.15L258.227 324.15L258.238 325.15L258.316 325.149L258.305 324.149ZM258.227 324.15V323.15C258.207 323.15 258.186 323.15 258.168 323.149L258.149 324.149L258.13 325.149C258.153 325.149 258.188 325.15 258.227 325.15V324.15ZM258.149 324.149L258.168 323.149C258.155 323.149 258.125 323.148 258.101 323.148L258.098 324.148L258.096 325.148C258.095 325.148 258.095 325.148 258.102 325.148C258.105 325.148 258.108 325.148 258.113 325.149C258.118 325.149 258.124 325.149 258.13 325.149L258.149 324.149ZM258.098 324.148L258.099 323.148C230.013 323.124 204.598 315.224 186.208 302.472L185.638 303.294L185.068 304.116C203.833 317.127 229.657 325.124 258.098 325.148L258.098 324.148ZM185.638 303.294L186.208 302.472C168.106 289.92 156.811 272.667 156.462 253.592L155.462 253.61L154.462 253.628C154.826 273.526 166.606 291.314 185.068 304.116L185.638 303.294ZM155.462 253.61L156.462 253.6L156.453 252.671L155.453 252.681L154.453 252.69L154.462 253.619L155.462 253.61ZM155.453 252.681L156.453 252.681C156.453 239.957 161.323 224.237 169.864 208.828L168.989 208.343L168.114 207.858C159.474 223.447 154.453 239.505 154.453 252.681H155.453ZM168.989 208.343L169.891 207.911C167.955 203.868 166.288 199.406 164.984 194.616L164.019 194.878L163.054 195.141C164.388 200.044 166.098 204.619 168.087 208.775L168.989 208.343ZM164.019 194.878L164.984 194.616C161.649 182.357 161.327 170.299 163.487 160.723L162.512 160.503L161.536 160.283C159.294 170.223 159.647 182.616 163.054 195.141L164.019 194.878ZM162.512 160.503L163.487 160.723C165.654 151.116 170.28 144.152 176.69 141.827L176.349 140.887L176.008 139.947C168.654 142.614 163.765 150.402 161.536 160.283L162.512 160.503ZM173.896 141.737L174.237 142.677C180.6 140.37 187.764 142.995 194.262 149.409L194.964 148.697L195.666 147.985C188.905 141.311 180.956 138.114 173.555 140.797L173.896 141.737ZM194.964 148.697L194.262 149.409C196.825 151.939 199.268 155.049 201.495 158.647L202.346 158.121L203.196 157.595C200.898 153.881 198.358 150.642 195.666 147.985L194.964 148.697ZM202.346 158.121L202.847 158.986C216.626 150.992 234.236 147.753 255.774 147.753V146.753V145.753C234.069 145.753 216.056 149.011 201.844 157.256L202.346 158.121ZM255.774 146.753V147.753H255.778V146.753V145.753H255.774V146.753ZM255.778 146.753L255.772 147.753L258.001 147.764L258.007 146.764L258.012 145.764L255.783 145.753L255.778 146.753ZM258.007 146.764V147.764H258.011V146.764V145.764H258.007V146.764ZM258.011 146.764L257.995 147.764L260.011 147.796L260.027 146.796L260.043 145.796L258.026 145.765L258.011 146.764ZM260.027 146.796L260.006 147.796C280.625 148.224 297.466 151.867 310.627 160.151L311.159 159.305L311.692 158.459C298.102 149.904 280.851 146.228 260.048 145.796L260.027 146.796ZM311.159 159.305L310.627 160.151C311.014 160.395 311.399 160.645 311.782 160.898L312.334 160.064L312.886 159.23C312.492 158.969 312.094 158.712 311.692 158.459L311.159 159.305ZM312.334 160.064L313.19 160.58C315.516 156.723 318.089 153.406 320.797 150.734L320.094 150.022L319.392 149.31C316.549 152.116 313.876 155.57 311.478 159.548L312.334 160.064ZM320.094 150.022L320.797 150.734C327.294 144.321 334.458 141.695 340.821 144.002L341.162 143.062L341.502 142.122C334.101 139.438 326.153 142.637 319.392 149.31L320.094 150.022ZM341.162 143.062L340.821 144.002C347.231 146.326 351.856 153.291 354.024 162.898L354.999 162.678L355.975 162.458C353.746 152.577 348.857 144.788 341.502 142.122L341.162 143.062ZM354.999 162.678L354.024 162.898C356.184 172.474 355.863 184.533 352.527 196.791L353.492 197.054L354.457 197.316C357.865 184.791 358.217 172.398 355.975 162.458L354.999 162.678ZM353.492 197.054L352.527 196.791C350.93 202.661 348.786 208.037 346.272 212.752L347.154 213.222L348.037 213.693C350.625 208.839 352.823 203.323 354.457 197.316L353.492 197.054ZM347.154 213.222L346.264 213.678C353.483 227.788 357.547 241.911 357.547 253.531H358.547L359.547 253.531C359.547 241.492 355.352 227.051 348.045 212.767L347.154 213.222ZM358.547 253.531L357.547 253.522L357.538 254.452L358.538 254.461L359.538 254.47L359.547 253.54L358.547 253.531ZM358.538 254.461L357.538 254.443C357.189 273.532 345.877 290.797 327.751 303.352L328.321 304.174L328.89 304.996C347.376 292.192 359.174 274.392 359.538 254.479L358.538 254.461ZM328.321 304.174L327.751 303.352C309.336 316.107 283.889 324 255.774 324L255.774 325V326C284.244 326 310.101 318.01 328.89 304.996L328.321 304.174ZM255.774 325V324H255.771V325V326H255.774V325ZM255.771 325L255.775 324L254.457 323.994L254.453 324.994L254.448 325.994L255.766 326L255.771 325ZM254.453 324.994V323.994H254.449V324.994V325.994H254.453V324.994ZM254.449 324.994L254.458 323.994C226.646 323.75 201.527 315.782 183.366 303.052L182.792 303.871L182.218 304.69C200.751 317.681 226.276 325.747 254.44 325.994L254.449 324.994ZM182.792 303.871L183.366 303.052C165.489 290.522 154.351 273.377 154.008 254.435L153.008 254.454L152.008 254.472C152.367 274.23 163.982 291.908 182.218 304.69L182.792 303.871ZM153.008 254.454L154.008 254.445L154 253.522L153 253.531L152 253.54L152.008 254.462L153.008 254.454ZM153 253.531H154C154 240.807 158.87 225.087 167.41 209.678L166.536 209.193L165.661 208.708C157.021 224.297 152 240.356 152 253.531L153 253.531ZM166.536 209.193L167.438 208.761C165.502 204.719 163.834 200.256 162.531 195.466L161.566 195.728L160.601 195.991C161.935 200.894 163.644 205.47 165.634 209.625L166.536 209.193ZM161.566 195.728L162.531 195.466C159.196 183.207 158.874 171.149 161.034 161.574L160.058 161.354L159.083 161.134C156.841 171.073 157.193 183.466 160.601 195.991L161.566 195.728ZM160.058 161.354L161.034 161.574C163.201 151.966 167.826 145.002 174.237 142.677L173.896 141.737L173.555 140.797C166.201 143.464 161.312 151.252 159.083 161.134L160.058 161.354ZM296.973 269.375H295.973C295.973 277.95 291.217 285.798 283.358 291.54C275.499 297.282 264.593 300.863 252.503 300.863V301.863V302.863C264.972 302.863 276.301 299.172 284.538 293.155C292.773 287.139 297.973 278.743 297.973 269.375H296.973ZM252.503 301.863V300.863C240.412 300.863 229.506 297.282 221.648 291.54C213.788 285.798 209.033 277.95 209.033 269.375H208.033H207.033C207.033 278.743 212.232 287.139 220.468 293.155C228.704 299.172 240.033 302.863 252.503 302.863V301.863ZM208.033 269.375H209.033C209.033 260.801 213.788 252.952 221.648 247.21C229.506 241.469 240.412 237.888 252.503 237.888V236.888V235.888C240.033 235.888 228.704 239.579 220.468 245.596C212.232 251.612 207.033 260.007 207.033 269.375H208.033ZM252.503 236.888V237.888C264.593 237.888 275.499 241.469 283.358 247.21C291.217 252.952 295.973 260.801 295.973 269.375H296.973H297.973C297.973 260.007 292.773 251.612 284.538 245.596C276.301 239.579 264.972 235.888 252.503 235.888V236.888ZM266.326 252.623L265.42 252.2C263.612 256.079 262.068 258.529 260.098 260.043C258.167 261.526 255.695 262.204 251.793 262.204V263.204V264.204C255.918 264.204 258.896 263.488 261.316 261.629C263.698 259.8 265.408 256.959 267.233 253.046L266.326 252.623ZM251.793 263.204V262.204C247.892 262.204 245.42 261.526 243.488 260.043C241.518 258.529 239.975 256.079 238.166 252.2L237.26 252.623L236.354 253.046C238.179 256.959 239.889 259.8 242.27 261.629C244.691 263.488 247.668 264.204 251.793 264.204V263.204ZM237.26 252.623L238.166 252.2C237.329 250.404 237.386 249.258 237.765 248.498C238.16 247.703 239.045 247.041 240.485 246.537C243.379 245.524 247.741 245.408 251.793 245.408V244.408V243.408C247.819 243.408 243.098 243.504 239.824 244.65C238.179 245.226 236.709 246.13 235.974 247.607C235.222 249.117 235.375 250.945 236.354 253.046L237.26 252.623ZM251.793 244.408V245.408C255.845 245.408 260.208 245.524 263.102 246.537C264.541 247.041 265.426 247.703 265.822 248.498C266.2 249.258 266.258 250.404 265.42 252.2L266.326 252.623L267.233 253.046C268.212 250.945 268.364 249.117 267.612 247.607C266.878 246.13 265.408 245.226 263.763 244.65C260.489 243.504 255.768 243.408 251.793 243.408V244.408ZM251.952 263.272H250.952V277.727H251.952H252.952V263.272H251.952ZM289.647 226.326H288.647C288.647 232.351 284.569 236.929 279.885 236.929V237.929V238.929C285.984 238.929 290.647 233.117 290.647 226.326H289.647ZM279.885 237.929V236.929C275.201 236.929 271.124 232.351 271.124 226.326H270.124H269.124C269.124 233.117 273.787 238.929 279.885 238.929V237.929ZM270.124 226.326H271.124C271.124 220.301 275.201 215.723 279.885 215.723V214.723V213.723C273.787 213.723 269.124 219.534 269.124 226.326H270.124ZM279.885 214.723V215.723C284.569 215.723 288.647 220.301 288.647 226.326H289.647H290.647C290.647 219.534 285.984 213.723 279.885 213.723V214.723ZM214.807 226.326H213.807C213.807 233.117 218.471 238.929 224.569 238.929V237.929V236.929C219.885 236.929 215.807 232.351 215.807 226.326H214.807ZM224.569 237.929V238.929C230.667 238.929 235.331 233.117 235.331 226.326H234.331H233.331C233.331 232.351 229.253 236.929 224.569 236.929V237.929ZM234.331 226.326H235.331C235.331 219.534 230.667 213.723 224.569 213.723V214.723V215.723C229.253 215.723 233.331 220.301 233.331 226.326H234.331ZM224.569 214.723V213.723C218.471 213.723 213.807 219.534 213.807 226.326H214.807H215.807C215.807 220.301 219.885 215.723 224.569 215.723V214.723ZM235.595 272.264L234.857 272.938L237.555 275.894L238.294 275.219L239.032 274.545L236.334 271.59L235.595 272.264ZM266.363 274.66L267.113 275.321L269.409 272.717L268.659 272.055L267.909 271.394L265.613 273.999L266.363 274.66ZM255.446 277.25L255.062 278.173C259.269 279.922 264.069 278.775 267.113 275.321L266.363 274.66L265.613 273.999C263.123 276.825 259.229 277.74 255.83 276.326L255.446 277.25ZM238.294 275.219L237.555 275.894C240.391 278.999 244.828 279.906 248.598 278.123L248.171 277.219L247.744 276.315C244.782 277.715 241.288 277.015 239.032 274.545L238.294 275.219ZM248.171 277.219L248.598 278.123C250.446 277.25 253.071 277.345 255.062 278.173L255.446 277.25L255.83 276.326C253.429 275.328 250.203 275.153 247.744 276.315L248.171 277.219Z" fill="#80C9F0"/>
<path d="M166.925 148.016C173.824 145.616 181.398 148.416 188.045 154.71C190.679 157.204 193.176 160.257 195.444 163.774C209.474 155.965 227.329 152.84 249.003 152.84H249.007L251.241 152.851H251.245L253.267 152.882C274.028 153.295 291.116 156.815 304.524 164.913C304.92 165.152 305.312 165.396 305.701 165.643C308.069 161.875 310.699 158.619 313.481 155.984C320.127 149.691 327.701 146.89 334.6 149.29C341.499 151.69 346.267 158.785 348.471 168.157C350.677 177.542 350.34 189.301 346.96 201.219C345.341 206.931 343.164 212.169 340.607 216.77C347.888 230.425 352.027 244.161 352.027 255.539L352.018 256.433C351.661 275.175 340.095 292.026 321.769 304.219C303.146 316.608 277.463 324.253 249.13 324.275L249.131 324.276C249.118 324.276 249.104 324.277 249.081 324.277L249.003 324.278C248.973 324.278 248.945 324.277 248.924 324.277C248.902 324.277 248.887 324.276 248.874 324.276C220.542 324.253 194.859 316.608 176.236 304.219C157.91 292.026 146.344 275.175 145.987 256.433L145.978 255.539C145.978 243.084 150.935 227.802 159.547 212.895C157.579 208.953 155.887 204.606 154.565 199.945C151.185 188.026 150.847 176.268 153.053 166.883C155.257 157.511 160.026 150.416 166.925 148.016Z" fill="#1E1E1E"/>
<path d="M164.466 148.834C171.365 146.434 178.939 149.234 185.585 155.528C188.219 158.022 190.717 161.075 192.985 164.592C207.015 156.783 224.869 153.658 246.544 153.658H246.548L248.782 153.669H248.786L250.807 153.699C271.569 154.113 288.657 157.632 302.064 165.731C302.46 165.97 302.853 166.213 303.242 166.461C305.61 162.693 308.24 159.436 311.021 156.802C317.667 150.509 325.241 147.708 332.14 150.108C339.039 152.508 343.808 159.603 346.012 168.975C348.218 178.36 347.881 190.119 344.501 202.037C342.881 207.749 340.705 212.987 338.148 217.588C345.428 231.243 349.568 244.979 349.568 256.357L349.559 257.251C349.201 276.008 337.618 292.87 319.268 305.065C300.62 317.458 274.906 325.096 246.544 325.096H246.54L245.219 325.09H245.215C217.159 324.854 191.776 317.143 173.383 304.774C155.283 292.601 143.879 275.855 143.527 257.244L143.519 256.357C143.519 243.902 148.476 228.62 157.087 213.713C155.12 209.77 153.428 205.424 152.106 200.762C148.726 188.844 148.388 177.086 150.594 167.701C152.798 158.329 157.567 151.234 164.466 148.834Z" fill="#1E1E1E"/>
<path d="M287.843 271.596C287.843 288.853 267.885 302.843 243.265 302.843C218.644 302.843 198.686 288.853 198.686 271.596C198.686 254.339 218.644 240.349 243.265 240.349C267.885 240.349 287.843 254.339 287.843 271.596Z" fill="#1E1E1E"/>
<path d="M257.122 255.483C253.48 262.978 250.6 265.661 242.553 265.661C234.507 265.661 231.627 262.978 227.985 255.483C224.343 247.989 234.507 247.583 242.553 247.583C250.6 247.583 260.764 247.989 257.122 255.483Z" fill="#80C9F0"/>
<path d="M280.5 230.191C280.5 236.354 276.119 241.351 270.714 241.351C265.31 241.351 260.929 236.354 260.929 230.191C260.929 224.028 265.31 219.032 270.714 219.032C276.119 219.032 280.5 224.028 280.5 230.191Z" fill="#80C9F0"/>
<path d="M205.477 230.191C205.477 236.354 209.858 241.351 215.263 241.351C220.667 241.351 225.048 236.354 225.048 230.191C225.048 224.028 220.667 219.032 215.263 219.032C209.858 219.032 205.477 224.028 205.477 230.191Z" fill="#80C9F0"/>
<path d="M166.925 148.016L166.596 147.072L166.596 147.072L166.925 148.016ZM188.045 154.71L188.732 153.984L188.732 153.984L188.045 154.71ZM195.444 163.774L194.604 164.316C194.89 164.759 195.47 164.904 195.931 164.648L195.444 163.774ZM249.007 152.84L249.012 151.84H249.007V152.84ZM251.241 152.851L251.236 153.851H251.241V152.851ZM251.245 152.851L251.26 151.851C251.255 151.851 251.25 151.851 251.245 151.851V152.851ZM253.267 152.882L253.287 151.882L253.282 151.882L253.267 152.882ZM304.524 164.913L305.041 164.057V164.057L304.524 164.913ZM305.701 165.643L305.166 166.487C305.39 166.63 305.662 166.677 305.922 166.618C306.181 166.56 306.407 166.4 306.548 166.175L305.701 165.643ZM313.481 155.984L312.793 155.258L312.793 155.258L313.481 155.984ZM334.6 149.29L334.928 148.346L334.928 148.346L334.6 149.29ZM348.471 168.157L349.444 167.928L349.444 167.928L348.471 168.157ZM346.96 201.219L347.922 201.492V201.492L346.96 201.219ZM340.607 216.77L339.733 216.284C339.568 216.581 339.565 216.941 339.725 217.241L340.607 216.77ZM352.027 255.539L353.027 255.549V255.539H352.027ZM352.018 256.433L353.018 256.452L353.018 256.443L352.018 256.433ZM321.769 304.219L322.323 305.051L321.769 304.219ZM249.13 324.275L249.129 323.275C248.724 323.276 248.359 323.521 248.205 323.895C248.051 324.27 248.139 324.701 248.427 324.986L249.13 324.275ZM249.131 324.276L249.133 325.276C249.538 325.275 249.903 325.03 250.056 324.656C250.21 324.281 250.122 323.851 249.835 323.566L249.131 324.276ZM249.081 324.277L249.092 325.277L249.1 325.277L249.081 324.277ZM249.003 324.278V325.278L249.013 325.278L249.003 324.278ZM248.924 324.277L248.906 325.277H248.906L248.924 324.277ZM248.874 324.276L248.877 323.276H248.875L248.874 324.276ZM176.236 304.219L175.682 305.051L176.236 304.219ZM145.987 256.433L144.987 256.443L144.987 256.452L145.987 256.433ZM145.978 255.539H144.978L144.978 255.549L145.978 255.539ZM159.547 212.895L160.413 213.395C160.581 213.105 160.592 212.749 160.442 212.449L159.547 212.895ZM154.565 199.945L153.603 200.217L153.603 200.217L154.565 199.945ZM153.053 166.883L152.08 166.654L152.08 166.654L153.053 166.883ZM164.466 148.834L164.137 147.889L164.137 147.889L164.466 148.834ZM185.585 155.528L186.273 154.801L186.273 154.801L185.585 155.528ZM192.985 164.592L192.145 165.134C192.43 165.577 193.011 165.722 193.471 165.465L192.985 164.592ZM246.548 153.658L246.553 152.658H246.548V153.658ZM248.782 153.669L248.777 154.669H248.782V153.669ZM248.786 153.669L248.801 152.669C248.796 152.669 248.791 152.669 248.786 152.669V153.669ZM250.807 153.699L250.827 152.7L250.822 152.7L250.807 153.699ZM302.064 165.731L302.582 164.875V164.875L302.064 165.731ZM303.242 166.461L302.706 167.305C302.931 167.447 303.203 167.495 303.462 167.436C303.722 167.377 303.947 167.218 304.089 166.993L303.242 166.461ZM311.021 156.802L310.334 156.076L310.334 156.076L311.021 156.802ZM332.14 150.108L332.469 149.163L332.469 149.163L332.14 150.108ZM346.012 168.975L346.985 168.746L346.985 168.746L346.012 168.975ZM344.501 202.037L345.463 202.31V202.31L344.501 202.037ZM338.148 217.588L337.274 217.102C337.109 217.399 337.106 217.759 337.265 218.058L338.148 217.588ZM349.568 256.357L350.568 256.367V256.357H349.568ZM349.559 257.251L350.559 257.27L350.559 257.261L349.559 257.251ZM319.268 305.065L319.821 305.898L319.268 305.065ZM246.544 325.096V326.096V325.096ZM246.54 325.096L246.536 326.096H246.54V325.096ZM245.219 325.09L245.224 324.09H245.219V325.09ZM245.215 325.09L245.207 326.09H245.215V325.09ZM173.383 304.774L172.825 305.603H172.825L173.383 304.774ZM143.527 257.244L142.527 257.253L142.527 257.263L143.527 257.244ZM143.519 256.357H142.519L142.519 256.366L143.519 256.357ZM157.087 213.713L157.953 214.213C158.121 213.922 158.132 213.567 157.982 213.266L157.087 213.713ZM152.106 200.762L151.143 201.035L151.143 201.035L152.106 200.762ZM150.594 167.701L149.621 167.472L149.621 167.472L150.594 167.701ZM229.021 277.217L229.745 276.527L229.021 277.217ZM246.215 279.169L245.844 280.098L246.215 279.169ZM257.159 276.679L257.895 277.355L257.159 276.679ZM238.922 279.14L239.335 280.051L238.922 279.14ZM166.925 148.016L167.253 148.961C173.655 146.734 180.849 149.274 187.357 155.436L188.045 154.71L188.732 153.984C181.948 147.559 173.993 144.499 166.596 147.072L166.925 148.016ZM188.045 154.71L187.357 155.436C189.926 157.868 192.373 160.858 194.604 164.316L195.444 163.774L196.285 163.232C193.979 159.657 191.432 156.54 188.732 153.984L188.045 154.71ZM195.444 163.774L195.931 164.648C209.748 156.957 227.408 153.84 249.003 153.84V152.84V151.84C227.25 151.84 209.2 154.973 194.958 162.9L195.444 163.774ZM249.003 152.84V153.84H249.007V152.84V151.84H249.003V152.84ZM249.007 152.84L249.002 153.84L251.236 153.851L251.241 152.851L251.246 151.851L249.012 151.84L249.007 152.84ZM251.241 152.851V153.851H251.245V152.851V151.851H251.241V152.851ZM251.245 152.851L251.23 153.851L253.252 153.882L253.267 152.882L253.282 151.882L251.26 151.851L251.245 152.851ZM253.267 152.882L253.247 153.881C273.921 154.293 290.81 157.798 304.007 165.769L304.524 164.913L305.041 164.057C291.422 155.831 274.135 152.297 253.287 151.882L253.267 152.882ZM304.524 164.913L304.007 165.769C304.396 166.004 304.782 166.243 305.166 166.487L305.701 165.643L306.237 164.798C305.843 164.548 305.444 164.3 305.041 164.057L304.524 164.913ZM305.701 165.643L306.548 166.175C308.877 162.468 311.455 159.279 314.168 156.711L313.481 155.984L312.793 155.258C309.942 157.958 307.261 161.282 304.855 165.111L305.701 165.643ZM313.481 155.984L314.168 156.711C320.676 150.548 327.869 148.008 334.271 150.235L334.6 149.29L334.928 148.346C327.532 145.773 319.577 148.834 312.793 155.258L313.481 155.984ZM334.6 149.29L334.271 150.235C340.704 152.473 345.33 159.167 347.497 168.386L348.471 168.157L349.444 167.928C347.205 158.403 342.293 150.908 334.928 148.346L334.6 149.29ZM348.471 168.157L347.497 168.386C349.659 177.581 349.339 189.166 345.998 200.947L346.96 201.219L347.922 201.492C351.341 189.435 351.695 177.503 349.444 167.928L348.471 168.157ZM346.96 201.219L345.998 200.947C344.399 206.587 342.251 211.753 339.733 216.284L340.607 216.77L341.481 217.256C344.077 212.584 346.283 207.275 347.922 201.492L346.96 201.219ZM340.607 216.77L339.725 217.241C346.959 230.808 351.027 244.38 351.027 255.539H352.027H353.027C353.027 243.943 348.817 230.043 341.489 216.3L340.607 216.77ZM352.027 255.539L351.027 255.529L351.018 256.423L352.018 256.433L353.018 256.443L353.027 255.549L352.027 255.539ZM352.018 256.433L351.018 256.414C350.67 274.726 339.366 291.31 321.215 303.386L321.769 304.219L322.323 305.051C340.825 292.742 352.653 275.624 353.018 256.452L352.018 256.433ZM321.769 304.219L321.215 303.386C302.777 315.652 277.293 323.253 249.129 323.275L249.13 324.275L249.131 325.275C277.633 325.252 303.514 317.565 322.323 305.051L321.769 304.219ZM249.13 324.275L248.427 324.986L248.427 324.987L249.131 324.276L249.835 323.566L249.834 323.565L249.13 324.275ZM249.131 324.276L249.129 323.276C249.105 323.276 249.075 323.277 249.063 323.277L249.081 324.277L249.1 325.277C249.106 325.277 249.112 325.277 249.117 325.277C249.122 325.276 249.125 325.276 249.128 325.276C249.134 325.276 249.135 325.276 249.133 325.276L249.131 324.276ZM249.081 324.277L249.071 323.277L248.993 323.278L249.003 324.278L249.013 325.278L249.092 325.277L249.081 324.277ZM249.003 324.278V323.278C248.982 323.278 248.96 323.278 248.943 323.277L248.924 324.277L248.906 325.277C248.929 325.277 248.965 325.278 249.003 325.278V324.278ZM248.924 324.277L248.943 323.277C248.93 323.277 248.9 323.276 248.877 323.276L248.874 324.276L248.871 325.276C248.87 325.276 248.871 325.276 248.878 325.276C248.881 325.276 248.885 325.277 248.889 325.277C248.894 325.277 248.9 325.277 248.906 325.277L248.924 324.277ZM248.874 324.276L248.875 323.276C220.711 323.253 195.228 315.652 176.79 303.386L176.236 304.219L175.682 305.051C194.491 317.564 220.372 325.253 248.873 325.276L248.874 324.276ZM176.236 304.219L176.79 303.386C158.639 291.31 147.335 274.726 146.987 256.414L145.987 256.433L144.987 256.452C145.352 275.624 157.18 292.742 175.682 305.051L176.236 304.219ZM145.987 256.433L146.987 256.423L146.978 255.529L145.978 255.539L144.978 255.549L144.987 256.443L145.987 256.433ZM145.978 255.539H146.978C146.978 243.32 151.853 228.212 160.413 213.395L159.547 212.895L158.681 212.395C150.017 227.392 144.978 242.849 144.978 255.539H145.978ZM159.547 212.895L160.442 212.449C158.503 208.563 156.832 204.275 155.527 199.672L154.565 199.945L153.603 200.217C154.941 204.937 156.656 209.342 158.652 213.342L159.547 212.895ZM154.565 199.945L155.527 199.672C152.186 187.892 151.865 176.307 154.027 167.112L153.053 166.883L152.08 166.654C149.829 176.229 150.184 188.161 153.603 200.217L154.565 199.945ZM153.053 166.883L154.027 167.112C156.194 157.893 160.821 151.199 167.253 148.961L166.925 148.016L166.596 147.072C159.231 149.634 154.319 157.129 152.08 166.654L153.053 166.883ZM164.466 148.834L164.794 149.778C171.196 147.551 178.39 150.091 184.898 156.254L185.585 155.528L186.273 154.801C179.488 148.377 171.534 145.316 164.137 147.889L164.466 148.834ZM185.585 155.528L184.898 156.254C187.466 158.686 189.914 161.675 192.145 165.134L192.985 164.592L193.825 164.05C191.52 160.475 188.973 157.358 186.273 154.801L185.585 155.528ZM192.985 164.592L193.471 165.465C207.289 157.775 224.948 154.658 246.544 154.658V153.658V152.658C224.791 152.658 206.74 155.791 192.499 163.718L192.985 164.592ZM246.544 153.658V154.658H246.548V153.658V152.658H246.544V153.658ZM246.548 153.658L246.543 154.658L248.777 154.669L248.782 153.669L248.787 152.669L246.553 152.658L246.548 153.658ZM248.782 153.669V154.669H248.786V153.669V152.669H248.782V153.669ZM248.786 153.669L248.771 154.669L250.792 154.699L250.807 153.699L250.822 152.7L248.801 152.669L248.786 153.669ZM250.807 153.699L250.787 154.699C271.462 155.111 288.351 158.616 301.547 166.587L302.064 165.731L302.582 164.875C288.963 156.649 271.675 153.115 250.827 152.7L250.807 153.699ZM302.064 165.731L301.547 166.587C301.936 166.821 302.322 167.061 302.706 167.305L303.242 166.461L303.778 165.616C303.383 165.366 302.985 165.118 302.582 164.875L302.064 165.731ZM303.242 166.461L304.089 166.993C306.418 163.286 308.996 160.097 311.709 157.528L311.021 156.802L310.334 156.076C307.483 158.776 304.801 162.1 302.395 165.928L303.242 166.461ZM311.021 156.802L311.709 157.528C318.216 151.366 325.41 148.826 331.812 151.052L332.14 150.108L332.469 149.163C325.072 146.59 317.118 149.652 310.334 156.076L311.021 156.802ZM332.14 150.108L331.812 151.052C338.245 153.29 342.87 159.984 345.038 169.204L346.012 168.975L346.985 168.746C344.745 159.221 339.834 151.726 332.469 149.163L332.14 150.108ZM346.012 168.975L345.038 169.204C347.2 178.399 346.88 189.984 343.539 201.764L344.501 202.037L345.463 202.31C348.882 190.253 349.236 178.32 346.985 168.746L346.012 168.975ZM344.501 202.037L343.539 201.764C341.939 207.405 339.792 212.571 337.274 217.102L338.148 217.588L339.022 218.074C341.618 213.402 343.823 208.092 345.463 202.31L344.501 202.037ZM338.148 217.588L337.265 218.058C344.499 231.625 348.568 245.197 348.568 256.357H349.568H350.568C350.568 244.761 346.358 230.86 339.03 217.117L338.148 217.588ZM349.568 256.357L348.568 256.347L348.559 257.241L349.559 257.251L350.559 257.261L350.568 256.367L349.568 256.357ZM349.559 257.251L348.559 257.232C348.21 275.559 336.889 292.154 318.714 304.232L319.268 305.065L319.821 305.898C338.347 293.586 350.193 276.457 350.559 257.27L349.559 257.251ZM319.268 305.065L318.714 304.232C300.252 316.501 274.736 324.096 246.544 324.096V325.096V326.096C275.075 326.096 300.988 318.414 319.821 305.898L319.268 305.065ZM246.544 325.096V324.096H246.54V325.096V326.096H246.544V325.096ZM246.54 325.096L246.545 324.096L245.224 324.09L245.219 325.09L245.215 326.09L246.536 326.096L246.54 325.096ZM245.219 325.09V324.09H245.215V325.09V326.09H245.219V325.09ZM245.215 325.09L245.224 324.09C217.335 323.855 192.149 316.189 173.941 303.944L173.383 304.774L172.825 305.603C191.402 318.097 216.983 325.852 245.207 326.09L245.215 325.09ZM173.383 304.774L173.941 303.944C156.016 291.889 144.87 275.409 144.527 257.225L143.527 257.244L142.527 257.263C142.887 276.3 154.55 293.313 172.825 305.603L173.383 304.774ZM143.527 257.244L144.527 257.235L144.519 256.348L143.519 256.357L142.519 256.366L142.527 257.253L143.527 257.244ZM143.519 256.357H144.519C144.519 244.138 149.394 229.03 157.953 214.213L157.087 213.713L156.222 213.213C147.558 228.209 142.519 243.667 142.519 256.357H143.519ZM157.087 213.713L157.982 213.266C156.043 209.381 154.373 205.093 153.068 200.49L152.106 200.762L151.143 201.035C152.482 205.755 154.197 210.16 156.193 214.159L157.087 213.713ZM152.106 200.762L153.068 200.49C149.727 188.709 149.406 177.125 151.568 167.93L150.594 167.701L149.621 167.472C147.37 177.046 147.725 188.979 151.143 201.035L152.106 200.762ZM150.594 167.701L151.568 167.93C153.735 158.711 158.361 152.017 164.794 149.778L164.466 148.834L164.137 147.889C156.772 150.452 151.86 157.947 149.621 167.472L150.594 167.701ZM287.843 271.596H286.843C286.843 279.809 282.095 287.347 274.212 292.872C266.333 298.395 255.394 301.843 243.265 301.843V302.843V303.843C255.755 303.843 267.106 300.296 275.36 294.51C283.612 288.726 288.843 280.64 288.843 271.596H287.843ZM243.265 302.843V301.843C231.135 301.843 220.196 298.395 212.317 292.872C204.434 287.347 199.686 279.809 199.686 271.596H198.686H197.686C197.686 280.64 202.917 288.726 211.169 294.51C219.423 300.296 230.774 303.843 243.265 303.843V302.843ZM198.686 271.596H199.686C199.686 263.383 204.434 255.845 212.317 250.32C220.196 244.797 231.135 241.349 243.265 241.349V240.349V239.349C230.774 239.349 219.423 242.896 211.169 248.682C202.917 254.466 197.686 262.552 197.686 271.596H198.686ZM243.265 240.349V241.349C255.394 241.349 266.333 244.797 274.212 250.32C282.095 255.845 286.843 263.383 286.843 271.596H287.843H288.843C288.843 262.552 283.612 254.466 275.36 248.682C267.106 242.896 255.755 239.349 243.265 239.349V240.349ZM257.122 255.483L256.223 255.046C254.412 258.773 252.868 261.124 250.896 262.578C248.957 264.006 246.472 264.661 242.553 264.661V265.661V266.661C246.681 266.661 249.659 265.974 252.083 264.188C254.473 262.426 256.19 259.688 258.022 255.921L257.122 255.483ZM242.553 265.661V264.661C238.635 264.661 236.15 264.006 234.211 262.578C232.239 261.124 230.695 258.773 228.884 255.046L227.985 255.483L227.085 255.921C228.916 259.688 230.634 262.426 233.024 264.188C235.448 265.974 238.426 266.661 242.553 266.661V265.661ZM227.985 255.483L228.884 255.046C228.049 253.328 228.115 252.253 228.481 251.548C228.87 250.797 229.752 250.158 231.204 249.671C234.113 248.694 238.493 248.583 242.553 248.583V247.583V246.583C238.568 246.583 233.843 246.675 230.568 247.775C228.928 248.325 227.449 249.194 226.705 250.627C225.938 252.106 226.099 253.892 227.085 255.921L227.985 255.483ZM242.553 247.583V248.583C246.614 248.583 250.994 248.694 253.902 249.671C255.355 250.158 256.237 250.797 256.626 251.548C256.992 252.253 257.058 253.328 256.223 255.046L257.122 255.483L258.022 255.921C259.008 253.892 259.169 252.106 258.401 250.627C257.658 249.194 256.179 248.325 254.539 247.775C251.264 246.675 246.539 246.583 242.553 246.583V247.583ZM242.712 265.725H241.712V279.629H242.712H243.712V265.725H242.712ZM280.5 230.191H279.5C279.5 235.93 275.447 240.351 270.714 240.351V241.351V242.351C276.79 242.351 281.5 236.779 281.5 230.191H280.5ZM270.714 241.351V240.351C265.981 240.351 261.929 235.93 261.929 230.191H260.929H259.929C259.929 236.779 264.638 242.351 270.714 242.351V241.351ZM260.929 230.191H261.929C261.929 224.453 265.981 220.032 270.714 220.032V219.032V218.032C264.638 218.032 259.929 223.603 259.929 230.191H260.929ZM270.714 219.032V220.032C275.447 220.032 279.5 224.453 279.5 230.191H280.5H281.5C281.5 223.603 276.79 218.032 270.714 218.032V219.032ZM205.477 230.191H204.477C204.477 236.779 209.186 242.351 215.263 242.351V241.351V240.351C210.53 240.351 206.477 235.93 206.477 230.191H205.477ZM215.263 241.351V242.351C221.339 242.351 226.048 236.779 226.048 230.191H225.048H224.048C224.048 235.93 219.995 240.351 215.263 240.351V241.351ZM225.048 230.191H226.048C226.048 223.603 221.339 218.032 215.263 218.032V219.032V220.032C219.995 220.032 224.048 224.453 224.048 230.191H225.048ZM215.263 219.032V218.032C209.186 218.032 204.477 223.603 204.477 230.191H205.477H206.477C206.477 224.453 210.53 220.032 215.263 220.032V219.032ZM226.316 274.374L225.591 275.064L228.296 277.906L229.021 277.217L229.745 276.527L227.04 273.685L226.316 274.374ZM257.159 276.679L257.895 277.355L260.197 274.85L259.46 274.174L258.724 273.497L256.422 276.002L257.159 276.679ZM246.215 279.169L245.844 280.098C250.042 281.773 254.84 280.681 257.895 277.355L257.159 276.679L256.422 276.002C253.93 278.716 250.013 279.608 246.586 278.241L246.215 279.169ZM229.021 277.217L228.296 277.906C231.142 280.896 235.574 281.757 239.335 280.051L238.922 279.14L238.509 278.229C235.522 279.584 232.003 278.9 229.745 276.527L229.021 277.217ZM238.922 279.14L239.335 280.051C241.197 279.207 243.842 279.299 245.844 280.098L246.215 279.169L246.586 278.241C244.186 277.283 240.964 277.116 238.509 278.229L238.922 279.14Z" fill="#80C9F0"/>
<path d="M144.382 193.089C143.697 192.905 143.102 192.553 142.629 192.091C141.988 192.253 141.298 192.26 140.614 192.076L138.73 191.57L136.507 190.973L135.906 188.75L135.399 186.87C135.215 186.188 135.219 185.499 135.38 184.859C134.964 184.432 134.638 183.908 134.443 183.309L134.385 183.111L133.681 180.506L132.978 183.111L132.92 183.309C132.725 183.909 132.398 184.432 131.982 184.859C132.143 185.499 132.148 186.188 131.964 186.87L131.457 188.75L130.856 190.973L128.633 191.57L126.749 192.076L126.549 192.125C125.93 192.258 125.312 192.237 124.733 192.091C124.26 192.553 123.666 192.905 122.981 193.089M144.382 193.089L145.19 190.077V190.076L144.382 193.089ZM144.382 193.089L146.953 193.779L144.382 194.471C143.698 194.655 143.103 195.005 142.63 195.467C141.988 195.305 141.298 195.299 140.614 195.483L138.73 195.988L136.507 196.586L135.906 198.81L135.399 200.689C135.215 201.371 135.219 202.059 135.38 202.699C134.964 203.126 134.638 203.65 134.443 204.25L134.385 204.447L133.681 207.052L132.978 204.447L132.92 204.25C132.725 203.65 132.398 203.126 131.982 202.699C132.143 202.059 132.148 201.371 131.964 200.689L131.457 198.81L130.856 196.586L128.633 195.988L126.749 195.483L126.549 195.435C125.93 195.302 125.311 195.32 124.732 195.467C124.259 195.006 123.665 194.655 122.981 194.471M122.981 194.471L122.172 197.482V197.483L122.981 194.471ZM122.981 194.471L120.409 193.779L122.981 193.089M122.981 193.089L122.172 190.076V190.077L122.981 193.089ZM152.688 195.319L152.725 195.458C152.725 195.457 152.725 195.456 152.724 195.455L152.688 195.319ZM114.638 195.454C114.638 195.455 114.637 195.456 114.636 195.457L114.674 195.319L114.638 195.454ZM132.146 174.821V174.822L132.031 174.791L132.029 174.79L132.146 174.821ZM135.332 174.791L135.216 174.822V174.821L135.333 174.79L135.332 174.791Z" stroke="#80C9F0" stroke-width="8" stroke-linecap="round" stroke-dasharray="4 4"/>
<path d="M133.271 190.237C133.318 190.354 133.37 190.471 133.429 190.586L134.668 193.002L135.067 193.78L134.668 194.557L133.429 196.973C133.37 197.088 133.318 197.204 133.271 197.322C133.224 197.204 133.173 197.088 133.114 196.973L131.875 194.557L131.475 193.78L131.875 193.002L133.114 190.586C133.173 190.471 133.224 190.354 133.271 190.237Z" stroke="#80C9F0" stroke-width="8" stroke-linecap="round" stroke-dasharray="4 4"/>
</g>
<defs>
<clipPath id="clip0_55_287">
<rect width="500" height="500" fill="white"/>
</clipPath>
</defs>
</svg>
