<svg width="500" height="500" viewBox="0 0 500 500" fill="none" xmlns="http://www.w3.org/2000/svg">
<g clip-path="url(#clip0_55_440)">
<rect width="500" height="500" fill="#80CAF0"/>
<circle cx="250" cy="250" r="250" fill="white"/>
<path d="M140.365 173.514C152.892 183.991 171.745 173.524 169.475 157.351C167.735 144.952 154.097 138.156 143.15 144.234C132.204 150.312 130.761 165.481 140.365 173.514Z" fill="#80CAF0"/>
<path d="M329.667 157.352C327.399 173.525 346.252 183.991 358.779 173.512C368.382 165.479 366.938 150.31 355.991 144.233C345.044 138.156 331.406 144.952 329.667 157.352Z" fill="#80CAF0"/>
<path d="M250.252 132C316.555 132 372.808 174.443 392.628 233.292C379.962 229.029 366.381 226.715 352.252 226.715C309.833 226.715 272.351 247.562 249.752 279.438C227.154 247.562 189.671 226.715 147.252 226.715C133.54 226.715 120.345 228.895 108 232.92C127.932 174.264 184.089 132 250.252 132Z" fill="#80CAF0"/>
<circle cx="304" cy="183" r="10" fill="#010000"/>
<circle cx="192" cy="183" r="10" fill="#010000"/>
<path d="M146.607 239C186.393 239 221.874 257.247 245 285.75V360H233.32C236.314 353.975 238 347.185 238 340C238 315.147 217.853 295 193 295C168.147 295 148 315.147 148 340C148 347.185 149.686 353.975 152.681 360H131.803L108 245H108.845V244.696C120.768 240.996 133.452 239 146.607 239ZM353.534 239C367.043 239 380.055 241.106 392.256 244.999L368.463 360H348.07C349.962 355.028 351 349.636 351 344C351 319.147 330.853 299 306 299C281.147 299 261 319.147 261 344C261 349.636 262.039 355.028 263.931 360H254V287.174C277.091 257.855 313.089 239 353.534 239Z" fill="#0D547A"/>
<path d="M272.538 334.299C271.438 315.554 291.292 306.899 310.038 305.799C328.783 304.699 339.038 326.299 343.038 347.799C347.038 369.299 325.783 386.7 307.038 387.799C288.292 388.899 273.637 353.044 272.538 334.299Z" fill="#80CAF0"/>
<path d="M226.944 330.299C228.044 311.554 208.189 302.899 189.444 301.799C170.699 300.699 160.444 322.299 156.444 343.799C152.444 365.299 173.699 382.7 192.444 383.799C211.19 384.899 225.845 349.044 226.944 330.299Z" fill="#80CAF0"/>
<ellipse cx="248" cy="211" rx="56" ry="34" fill="white"/>
<ellipse cx="248" cy="199.5" rx="32" ry="16.5" fill="#010000"/>
<path d="M250 212.285C261.22 226.948 287.128 246.221 301 206" stroke="#010000" stroke-width="9" stroke-linecap="round"/>
<path d="M249 212.285C236.46 226.948 207.504 246.221 192 206" stroke="#010000" stroke-width="9" stroke-linecap="round"/>
<path d="M163.865 288.861L164.846 287.397H165.206V289.29H164.893V287.826L163.918 289.29H163.552V287.397H163.865V288.861Z" fill="white"/>
<path d="M166.893 288.896L167.604 287.397H167.901L167.02 289.29H166.766L165.901 287.397H166.193L166.893 288.896ZM166.092 287.397V289.29H165.779V287.397H166.092ZM167.694 289.29V287.397H168.007V289.29H167.694Z" fill="white"/>
<path d="M169.433 289.329C169.237 289.329 169.068 289.289 168.925 289.209C168.784 289.127 168.675 289.014 168.598 288.869C168.522 288.722 168.484 288.552 168.484 288.358C168.484 288.164 168.522 287.994 168.598 287.846C168.675 287.697 168.782 287.581 168.919 287.498C169.057 287.414 169.218 287.372 169.401 287.372C169.508 287.372 169.612 287.389 169.716 287.422C169.819 287.455 169.913 287.508 169.998 287.582C170.083 287.655 170.151 287.752 170.201 287.873C170.251 287.994 170.276 288.142 170.276 288.319V288.442H168.707V288.191H169.958C169.958 288.084 169.935 287.989 169.889 287.905C169.844 287.821 169.78 287.755 169.696 287.706C169.613 287.658 169.515 287.634 169.401 287.634C169.277 287.634 169.169 287.662 169.078 287.72C168.988 287.777 168.918 287.851 168.87 287.942C168.821 288.033 168.797 288.131 168.797 288.235V288.403C168.797 288.546 168.823 288.667 168.876 288.766C168.93 288.865 169.005 288.94 169.1 288.992C169.196 289.043 169.307 289.068 169.433 289.068C169.515 289.068 169.59 289.057 169.656 289.036C169.723 289.014 169.781 288.981 169.83 288.938C169.878 288.893 169.916 288.838 169.942 288.772L170.245 288.851C170.213 288.947 170.159 289.03 170.084 289.103C170.009 289.174 169.916 289.23 169.806 289.27C169.695 289.31 169.571 289.329 169.433 289.329Z" fill="white"/>
<path d="M172.115 288.21V288.482H170.991V288.21H172.115ZM171.065 287.397V289.29H170.752V287.397H171.065ZM172.354 287.397V289.29H172.041V287.397H172.354Z" fill="white"/>
<path d="M173.238 288.861L174.219 287.397H174.58V289.29H174.267V287.826L173.291 289.29H172.925V287.397H173.238V288.861Z" fill="white"/>
<path d="M176.246 289.29V286.766H176.574V287.89H178.022V286.766H178.351V289.29H178.022V288.161H176.574V289.29H176.246Z" fill="white"/>
<path d="M179.195 289.31C179.129 289.31 179.073 289.288 179.027 289.244C178.98 289.201 178.956 289.149 178.956 289.088C178.956 289.027 178.98 288.975 179.027 288.931C179.073 288.888 179.129 288.866 179.195 288.866C179.26 288.866 179.316 288.888 179.363 288.931C179.41 288.975 179.434 289.027 179.434 289.088C179.434 289.128 179.422 289.165 179.4 289.199C179.379 289.233 179.35 289.26 179.314 289.28C179.279 289.3 179.239 289.31 179.195 289.31Z" fill="white"/>
<path d="M180.037 286.766H180.43L181.353 288.861H181.384L182.307 286.766H182.7V289.29H182.392V287.372H182.366L181.517 289.29H181.22L180.372 287.372H180.345V289.29H180.037V286.766Z" fill="white"/>
<path d="M183.545 289.31C183.479 289.31 183.423 289.288 183.376 289.244C183.329 289.201 183.306 289.149 183.306 289.088C183.306 289.027 183.329 288.975 183.376 288.931C183.423 288.888 183.479 288.866 183.545 288.866C183.61 288.866 183.666 288.888 183.713 288.931C183.76 288.975 183.783 289.027 183.783 289.088C183.783 289.128 183.772 289.165 183.75 289.199C183.729 289.233 183.7 289.26 183.664 289.28C183.629 289.3 183.589 289.31 183.545 289.31Z" fill="white"/>
<path d="M186.371 287.067H186.8C187.002 287.067 187.181 287.109 187.337 287.192C187.493 287.276 187.616 287.393 187.706 287.542C187.795 287.692 187.84 287.865 187.84 288.063C187.84 288.26 187.795 288.433 187.706 288.584C187.616 288.734 187.493 288.852 187.337 288.936C187.181 289.021 187.002 289.063 186.8 289.063H186.371C186.169 289.063 185.99 289.021 185.834 288.938C185.677 288.854 185.554 288.737 185.465 288.588C185.376 288.438 185.331 288.265 185.331 288.067C185.331 287.87 185.376 287.697 185.465 287.546C185.554 287.396 185.677 287.278 185.834 287.194C185.99 287.109 186.169 287.067 186.371 287.067ZM186.371 287.338C186.217 287.338 186.087 287.368 185.981 287.428C185.876 287.488 185.796 287.572 185.741 287.682C185.687 287.791 185.66 287.92 185.66 288.067C185.66 288.214 185.687 288.341 185.741 288.45C185.796 288.558 185.876 288.642 185.981 288.702C186.087 288.762 186.217 288.792 186.371 288.792H186.8C186.954 288.792 187.083 288.762 187.189 288.702C187.295 288.642 187.375 288.558 187.429 288.448C187.483 288.339 187.511 288.21 187.511 288.063C187.511 287.916 187.483 287.789 187.429 287.68C187.375 287.572 187.295 287.488 187.189 287.428C187.083 287.368 186.954 287.338 186.8 287.338H186.371ZM186.752 286.722V289.394H186.424V286.722H186.752Z" fill="white"/>
<path d="M189.202 289.329C189.006 289.329 188.836 289.289 188.694 289.209C188.553 289.127 188.443 289.014 188.367 288.869C188.291 288.722 188.253 288.552 188.253 288.358C188.253 288.164 188.291 287.994 188.367 287.846C188.443 287.697 188.55 287.581 188.687 287.498C188.825 287.414 188.986 287.372 189.17 287.372C189.276 287.372 189.381 287.389 189.484 287.422C189.588 287.455 189.682 287.508 189.767 287.582C189.851 287.655 189.919 287.752 189.969 287.873C190.02 287.994 190.045 288.142 190.045 288.319V288.442H188.475V288.191H189.727C189.727 288.084 189.704 287.989 189.658 287.905C189.613 287.821 189.548 287.755 189.464 287.706C189.381 287.658 189.283 287.634 189.17 287.634C189.045 287.634 188.938 287.662 188.846 287.72C188.756 287.777 188.687 287.851 188.638 287.942C188.59 288.033 188.565 288.131 188.565 288.235V288.403C188.565 288.546 188.592 288.667 188.645 288.766C188.699 288.865 188.774 288.94 188.869 288.992C188.964 289.043 189.075 289.068 189.202 289.068C189.284 289.068 189.358 289.057 189.425 289.036C189.492 289.014 189.55 288.981 189.598 288.938C189.647 288.893 189.684 288.838 189.711 288.772L190.013 288.851C189.981 288.947 189.928 289.03 189.853 289.103C189.778 289.174 189.685 289.23 189.574 289.27C189.464 289.31 189.34 289.329 189.202 289.329Z" fill="white"/>
<path d="M190.304 289.832V289.019H190.473C190.515 288.979 190.551 288.935 190.581 288.888C190.611 288.841 190.637 288.786 190.659 288.722C190.682 288.657 190.701 288.578 190.717 288.485C190.733 288.392 190.747 288.279 190.76 288.146L190.829 287.397H192.123V289.019H192.435V289.832H192.123V289.29H190.616V289.832H190.304ZM190.829 289.019H191.81V287.668H191.12L191.067 288.146C191.045 288.344 191.018 288.517 190.985 288.665C190.952 288.813 190.9 288.931 190.829 289.019Z" fill="white"/>
<path d="M193.678 289.329C193.494 289.329 193.333 289.289 193.194 289.207C193.056 289.126 192.948 289.012 192.871 288.866C192.794 288.72 192.755 288.549 192.755 288.353C192.755 288.156 192.794 287.984 192.871 287.837C192.948 287.69 193.056 287.576 193.194 287.494C193.333 287.413 193.494 287.372 193.678 287.372C193.862 287.372 194.023 287.413 194.161 287.494C194.299 287.576 194.407 287.69 194.484 287.837C194.562 287.984 194.601 288.156 194.601 288.353C194.601 288.549 194.562 288.72 194.484 288.866C194.407 289.012 194.299 289.126 194.161 289.207C194.023 289.289 193.862 289.329 193.678 289.329ZM193.678 289.068C193.818 289.068 193.933 289.035 194.023 288.968C194.113 288.902 194.18 288.814 194.223 288.706C194.266 288.597 194.288 288.48 194.288 288.353C194.288 288.227 194.266 288.109 194.223 288C194.18 287.89 194.113 287.802 194.023 287.735C193.933 287.667 193.818 287.634 193.678 287.634C193.538 287.634 193.423 287.667 193.333 287.735C193.243 287.802 193.176 287.89 193.133 288C193.09 288.109 193.068 288.227 193.068 288.353C193.068 288.48 193.09 288.597 193.133 288.706C193.176 288.814 193.243 288.902 193.333 288.968C193.423 289.035 193.538 289.068 193.678 289.068Z" fill="white"/>
<path d="M195.078 290V287.397H195.381V287.698H195.418C195.441 287.665 195.473 287.623 195.513 287.572C195.555 287.52 195.614 287.474 195.691 287.434C195.769 287.393 195.874 287.372 196.007 287.372C196.178 287.372 196.329 287.412 196.46 287.492C196.591 287.572 196.693 287.685 196.766 287.831C196.84 287.977 196.876 288.15 196.876 288.348C196.876 288.549 196.84 288.723 196.766 288.87C196.693 289.016 196.591 289.129 196.461 289.21C196.331 289.29 196.182 289.329 196.012 289.329C195.881 289.329 195.776 289.309 195.698 289.269C195.619 289.228 195.558 289.182 195.516 289.13C195.474 289.077 195.441 289.034 195.418 288.999H195.391V290H195.078ZM195.386 288.344C195.386 288.486 195.409 288.613 195.454 288.722C195.499 288.83 195.565 288.915 195.651 288.977C195.738 289.038 195.844 289.068 195.969 289.068C196.1 289.068 196.209 289.036 196.297 288.972C196.385 288.907 196.452 288.82 196.496 288.711C196.541 288.601 196.563 288.478 196.563 288.344C196.563 288.21 196.541 288.09 196.497 287.984C196.454 287.876 196.388 287.791 196.3 287.729C196.212 287.665 196.102 287.634 195.969 287.634C195.842 287.634 195.735 287.664 195.649 287.724C195.562 287.783 195.497 287.866 195.452 287.973C195.408 288.079 195.386 288.202 195.386 288.344Z" fill="white"/>
<path d="M198.181 289.329C197.997 289.329 197.836 289.289 197.697 289.207C197.559 289.126 197.451 289.012 197.373 288.866C197.297 288.72 197.258 288.549 197.258 288.353C197.258 288.156 197.297 287.984 197.373 287.837C197.451 287.69 197.559 287.576 197.697 287.494C197.836 287.413 197.997 287.372 198.181 287.372C198.365 287.372 198.526 287.413 198.663 287.494C198.802 287.576 198.91 287.69 198.987 287.837C199.065 287.984 199.104 288.156 199.104 288.353C199.104 288.549 199.065 288.72 198.987 288.866C198.91 289.012 198.802 289.126 198.663 289.207C198.526 289.289 198.365 289.329 198.181 289.329ZM198.181 289.068C198.32 289.068 198.435 289.035 198.526 288.968C198.616 288.902 198.682 288.814 198.726 288.706C198.769 288.597 198.791 288.48 198.791 288.353C198.791 288.227 198.769 288.109 198.726 288C198.682 287.89 198.616 287.802 198.526 287.735C198.435 287.667 198.32 287.634 198.181 287.634C198.041 287.634 197.926 287.667 197.836 287.735C197.746 287.802 197.679 287.89 197.636 288C197.593 288.109 197.571 288.227 197.571 288.353C197.571 288.48 197.593 288.597 197.636 288.706C197.679 288.814 197.746 288.902 197.836 288.968C197.926 289.035 198.041 289.068 198.181 289.068Z" fill="white"/>
<path d="M199.581 289.29V287.397H200.414C200.633 287.397 200.807 287.443 200.936 287.535C201.065 287.627 201.13 287.749 201.13 287.9C201.13 288.015 201.093 288.104 201.02 288.167C200.946 288.23 200.852 288.272 200.737 288.294C200.812 288.304 200.885 288.329 200.956 288.368C201.028 288.408 201.087 288.462 201.134 288.531C201.181 288.599 201.204 288.683 201.204 288.782C201.204 288.879 201.178 288.966 201.124 289.042C201.071 289.119 200.995 289.179 200.896 289.223C200.797 289.268 200.679 289.29 200.541 289.29H199.581ZM199.878 289.024H200.541C200.649 289.024 200.733 289 200.794 288.952C200.855 288.905 200.886 288.84 200.886 288.758C200.886 288.66 200.855 288.583 200.794 288.527C200.733 288.47 200.649 288.442 200.541 288.442H199.878V289.024ZM199.878 288.191H200.414C200.498 288.191 200.57 288.18 200.63 288.159C200.69 288.136 200.736 288.105 200.768 288.065C200.801 288.024 200.817 287.975 200.817 287.92C200.817 287.84 200.781 287.777 200.709 287.732C200.638 287.686 200.539 287.663 200.414 287.663H199.878V288.191Z" fill="white"/>
<path d="M202.505 289.329C202.314 289.329 202.15 289.288 202.012 289.204C201.874 289.12 201.768 289.005 201.694 288.857C201.619 288.71 201.582 288.542 201.582 288.353C201.582 288.161 201.62 287.991 201.696 287.844C201.773 287.697 201.88 287.581 202.017 287.498C202.155 287.414 202.316 287.372 202.5 287.372C202.643 287.372 202.772 287.397 202.887 287.446C203.002 287.496 203.096 287.565 203.169 287.653C203.243 287.742 203.288 287.846 203.306 287.964H202.993C202.969 287.878 202.916 287.801 202.834 287.735C202.752 287.667 202.643 287.634 202.505 287.634C202.383 287.634 202.276 287.663 202.184 287.722C202.093 287.781 202.022 287.863 201.971 287.97C201.92 288.076 201.895 288.201 201.895 288.344C201.895 288.49 201.92 288.617 201.969 288.726C202.02 288.834 202.09 288.918 202.181 288.978C202.273 289.038 202.381 289.068 202.505 289.068C202.586 289.068 202.66 289.055 202.726 289.029C202.793 289.002 202.849 288.965 202.895 288.915C202.941 288.866 202.973 288.807 202.993 288.738H203.306C203.288 288.85 203.244 288.95 203.175 289.04C203.106 289.129 203.014 289.199 202.9 289.252C202.787 289.304 202.655 289.329 202.505 289.329Z" fill="white"/>
<path d="M203.763 289.29V287.397H204.076V288.22H204.283L205.015 287.397H205.418L204.596 288.309L205.428 289.29H205.025L204.357 288.491H204.076V289.29H203.763Z" fill="white"/>
<path d="M206.512 289.329C206.328 289.329 206.167 289.289 206.028 289.207C205.89 289.126 205.782 289.012 205.704 288.866C205.628 288.72 205.589 288.549 205.589 288.353C205.589 288.156 205.628 287.984 205.704 287.837C205.782 287.69 205.89 287.576 206.028 287.494C206.167 287.413 206.328 287.372 206.512 287.372C206.696 287.372 206.857 287.413 206.995 287.494C207.133 287.576 207.241 287.69 207.318 287.837C207.396 287.984 207.435 288.156 207.435 288.353C207.435 288.549 207.396 288.72 207.318 288.866C207.241 289.012 207.133 289.126 206.995 289.207C206.857 289.289 206.696 289.329 206.512 289.329ZM206.512 289.068C206.652 289.068 206.766 289.035 206.857 288.968C206.947 288.902 207.014 288.814 207.057 288.706C207.1 288.597 207.122 288.48 207.122 288.353C207.122 288.227 207.1 288.109 207.057 288C207.014 287.89 206.947 287.802 206.857 287.735C206.766 287.667 206.652 287.634 206.512 287.634C206.372 287.634 206.257 287.667 206.167 287.735C206.077 287.802 206.01 287.89 205.967 288C205.924 288.109 205.902 288.227 205.902 288.353C205.902 288.48 205.924 288.597 205.967 288.706C206.01 288.814 206.077 288.902 206.167 288.968C206.257 289.035 206.372 289.068 206.512 289.068Z" fill="white"/>
<path d="M209.169 287.397V287.668H208.225V289.29H207.912V287.397H209.169Z" fill="white"/>
<path d="M210.347 289.329C210.164 289.329 210.002 289.289 209.864 289.207C209.726 289.126 209.618 289.012 209.54 288.866C209.463 288.72 209.425 288.549 209.425 288.353C209.425 288.156 209.463 287.984 209.54 287.837C209.618 287.69 209.726 287.576 209.864 287.494C210.002 287.413 210.164 287.372 210.347 287.372C210.531 287.372 210.692 287.413 210.83 287.494C210.969 287.576 211.077 287.69 211.154 287.837C211.231 287.984 211.27 288.156 211.27 288.353C211.27 288.549 211.231 288.72 211.154 288.866C211.077 289.012 210.969 289.126 210.83 289.207C210.692 289.289 210.531 289.329 210.347 289.329ZM210.347 289.068C210.487 289.068 210.602 289.035 210.692 288.968C210.782 288.902 210.849 288.814 210.892 288.706C210.936 288.597 210.957 288.48 210.957 288.353C210.957 288.227 210.936 288.109 210.892 288C210.849 287.89 210.782 287.802 210.692 287.735C210.602 287.667 210.487 287.634 210.347 287.634C210.208 287.634 210.093 287.667 210.003 287.735C209.913 287.802 209.846 287.89 209.803 288C209.759 288.109 209.738 288.227 209.738 288.353C209.738 288.48 209.759 288.597 209.803 288.706C209.846 288.814 209.913 288.902 210.003 288.968C210.093 289.035 210.208 289.068 210.347 289.068Z" fill="white"/>
<mask id="path-15-inside-1_55_440" fill="white">
<path d="M154.882 252.422L155.666 255.128L158.578 255.857L155.666 256.585L154.882 259.291L154.098 256.585L151.187 255.857L154.098 255.128L154.882 252.422Z"/>
</mask>
<path d="M154.882 252.422L158.724 251.309L154.882 238.047L151.04 251.309L154.882 252.422ZM155.666 255.128L151.824 256.241L152.464 258.45L154.695 259.008L155.666 255.128ZM158.578 255.857L159.549 259.737V251.976L158.578 255.857ZM155.666 256.585L154.695 252.705L152.464 253.263L151.824 255.472L155.666 256.585ZM154.882 259.291L151.04 260.404L154.882 273.666L158.724 260.404L154.882 259.291ZM154.098 256.585L157.94 255.472L157.3 253.263L155.069 252.705L154.098 256.585ZM151.187 255.857L150.216 251.976L150.216 259.737L151.187 255.857ZM154.098 255.128L155.069 259.008L157.3 258.45L157.94 256.241L154.098 255.128ZM150.844 251.986C150.229 254.107 151.451 256.326 153.573 256.941C155.695 257.555 157.913 256.334 158.528 254.212L150.844 251.986ZM158.136 255.565C158.751 253.443 157.529 251.224 155.407 250.609C153.285 249.995 151.067 251.217 150.452 253.338L158.136 255.565ZM152.399 251.43C150.256 251.966 148.954 254.138 149.49 256.281C150.026 258.424 152.198 259.727 154.341 259.19L152.399 251.43ZM152.886 259.555C155.029 259.018 156.331 256.846 155.795 254.703C155.259 252.56 153.087 251.258 150.944 251.794L152.886 259.555ZM150.944 259.919C153.087 260.455 155.259 259.153 155.795 257.01C156.331 254.867 155.029 252.695 152.886 252.158L150.944 259.919ZM154.341 252.523C152.198 251.986 150.026 253.289 149.49 255.432C148.954 257.575 150.256 259.747 152.399 260.283L154.341 252.523ZM150.452 258.375C151.067 260.496 153.285 261.718 155.407 261.104C157.529 260.489 158.751 258.27 158.136 256.148L150.452 258.375ZM158.528 257.501C157.913 255.38 155.695 254.158 153.573 254.772C151.451 255.387 150.229 257.606 150.844 259.728L158.528 257.501ZM158.92 259.728C159.535 257.606 158.313 255.387 156.191 254.772C154.069 254.158 151.851 255.38 151.236 257.501L158.92 259.728ZM151.628 256.148C151.013 258.27 152.235 260.489 154.357 261.104C156.479 261.718 158.697 260.496 159.312 258.375L151.628 256.148ZM157.365 260.283C159.508 259.747 160.811 257.575 160.274 255.432C159.738 253.289 157.566 251.986 155.423 252.523L157.365 260.283ZM156.879 252.158C154.736 252.695 153.433 254.867 153.969 257.01C154.506 259.153 156.678 260.455 158.821 259.919L156.879 252.158ZM158.821 251.794C156.678 251.258 154.506 252.56 153.969 254.703C153.433 256.846 154.736 259.018 156.879 259.555L158.821 251.794ZM155.423 259.19C157.566 259.727 159.738 258.424 160.274 256.281C160.811 254.138 159.508 251.966 157.365 251.43L155.423 259.19ZM159.312 253.338C158.697 251.217 156.479 249.995 154.357 250.609C152.235 251.224 151.013 253.443 151.628 255.565L159.312 253.338ZM151.236 254.212C151.851 256.334 154.069 257.555 156.191 256.941C158.313 256.326 159.535 254.107 158.92 251.986L151.236 254.212ZM154.882 252.422L151.04 251.309L150.844 251.986L154.686 253.099L158.528 254.212L158.724 253.535L154.882 252.422ZM154.294 254.452L150.452 253.338L150.256 254.015L154.098 255.128L157.94 256.241L158.136 255.565L154.294 254.452ZM154.098 255.128L153.127 251.248L152.399 251.43L153.37 255.31L154.341 259.19L155.069 259.008L154.098 255.128ZM151.915 255.674L150.944 251.794L150.216 251.976L151.187 255.857L152.158 259.737L152.886 259.555L151.915 255.674ZM151.187 255.857L150.216 259.737L150.944 259.919L151.915 256.039L152.886 252.158L152.158 251.976L151.187 255.857ZM153.37 256.403L152.399 260.283L153.127 260.465L154.098 256.585L155.069 252.705L154.341 252.523L153.37 256.403ZM154.098 256.585L150.256 257.698L150.452 258.375L154.294 257.262L158.136 256.148L157.94 255.472L154.098 256.585ZM154.686 258.614L150.844 259.728L151.04 260.404L154.882 259.291L158.724 258.178L158.528 257.501L154.686 258.614ZM154.882 259.291L158.724 260.404L158.92 259.728L155.078 258.614L151.236 257.501L151.04 258.178L154.882 259.291ZM155.47 257.262L159.312 258.375L159.508 257.698L155.666 256.585L151.824 255.472L151.628 256.148L155.47 257.262ZM155.666 256.585L156.637 260.465L157.365 260.283L156.394 256.403L155.423 252.523L154.695 252.705L155.666 256.585ZM157.85 256.039L158.821 259.919L159.549 259.737L158.578 255.857L157.607 251.976L156.879 252.158L157.85 256.039ZM158.578 255.857L159.549 251.976L158.821 251.794L157.85 255.674L156.879 259.555L157.607 259.737L158.578 255.857ZM156.394 255.31L157.365 251.43L156.637 251.248L155.666 255.128L154.695 259.008L155.423 259.19L156.394 255.31ZM155.666 255.128L159.508 254.015L159.312 253.338L155.47 254.452L151.628 255.565L151.824 256.241L155.666 255.128ZM155.078 253.099L158.92 251.986L158.724 251.309L154.882 252.422L151.04 253.535L151.236 254.212L155.078 253.099ZM154.882 252.422L162.566 250.196L154.882 223.673L147.198 250.196L154.882 252.422ZM155.666 255.128L147.982 257.354L149.262 261.772L153.724 262.889L155.666 255.128ZM158.578 255.857L160.52 263.617L160.52 248.096L158.578 255.857ZM155.666 256.585L153.724 248.824L149.262 249.941L147.982 254.359L155.666 256.585ZM154.882 259.291L147.198 261.517L154.882 288.04L162.566 261.517L154.882 259.291ZM154.098 256.585L161.782 254.359L160.502 249.941L156.04 248.824L154.098 256.585ZM151.187 255.857L149.245 248.096L149.245 263.617L151.187 255.857ZM154.098 255.128L156.04 262.889L160.502 261.772L161.782 257.354L154.098 255.128ZM147.002 250.872C145.773 255.116 148.216 259.553 152.46 260.783C156.704 262.012 161.141 259.568 162.37 255.325L147.002 250.872ZM161.978 256.678C163.208 252.434 160.764 247.997 156.52 246.767C152.277 245.538 147.84 247.982 146.61 252.225L161.978 256.678ZM151.428 247.549C147.142 248.622 144.537 252.966 145.61 257.252C146.682 261.538 151.026 264.143 155.312 263.071L151.428 247.549ZM153.857 263.435C158.143 262.363 160.748 258.019 159.675 253.732C158.603 249.446 154.259 246.841 149.973 247.914L153.857 263.435ZM149.973 263.799C154.259 264.872 158.603 262.267 159.675 257.981C160.748 253.695 158.143 249.35 153.857 248.278L149.973 263.799ZM155.312 248.642C151.026 247.57 146.682 250.175 145.61 254.461C144.537 258.747 147.142 263.091 151.428 264.164L155.312 248.642ZM146.61 259.488C147.84 263.731 152.277 266.175 156.52 264.946C160.764 263.716 163.208 259.279 161.978 255.035L146.61 259.488ZM162.37 256.388C161.141 252.145 156.704 249.701 152.46 250.93C148.216 252.16 145.773 256.597 147.002 260.841L162.37 256.388ZM162.762 260.841C163.992 256.597 161.548 252.16 157.304 250.93C153.06 249.701 148.624 252.145 147.394 256.388L162.762 260.841ZM147.786 255.035C146.557 259.279 149 263.716 153.244 264.946C157.488 266.175 161.925 263.731 163.154 259.488L147.786 255.035ZM158.336 264.164C162.622 263.091 165.227 258.747 164.155 254.461C163.082 250.175 158.738 247.57 154.452 248.642L158.336 264.164ZM155.908 248.278C151.622 249.35 149.016 253.695 150.089 257.981C151.161 262.267 155.506 264.872 159.792 263.799L155.908 248.278ZM159.792 247.914C155.506 246.841 151.161 249.446 150.089 253.732C149.016 258.019 151.622 262.363 155.908 263.435L159.792 247.914ZM154.452 263.071C158.738 264.143 163.082 261.538 164.155 257.252C165.227 252.966 162.622 248.622 158.336 247.549L154.452 263.071ZM163.154 252.225C161.925 247.982 157.488 245.538 153.244 246.767C149 247.997 146.557 252.434 147.786 256.678L163.154 252.225ZM147.394 255.325C148.624 259.568 153.06 262.012 157.304 260.783C161.548 259.553 163.992 255.116 162.762 250.872L147.394 255.325ZM154.882 252.422L147.198 250.196L147.002 250.872L154.686 253.099L162.37 255.325L162.566 254.648L154.882 252.422ZM154.294 254.452L146.61 252.225L146.414 252.902L154.098 255.128L161.782 257.354L161.978 256.678L154.294 254.452ZM154.098 255.128L152.156 247.367L151.428 247.549L153.37 255.31L155.312 263.071L156.04 262.889L154.098 255.128ZM151.915 255.674L149.973 247.914L149.245 248.096L151.187 255.857L153.129 263.617L153.857 263.435L151.915 255.674ZM151.187 255.857L149.245 263.617L149.973 263.799L151.915 256.039L153.857 248.278L153.129 248.096L151.187 255.857ZM153.37 256.403L151.428 264.164L152.156 264.346L154.098 256.585L156.04 248.824L155.312 248.642L153.37 256.403ZM154.098 256.585L146.414 258.811L146.61 259.488L154.294 257.262L161.978 255.035L161.782 254.359L154.098 256.585ZM154.686 258.614L147.002 260.841L147.198 261.517L154.882 259.291L162.566 257.065L162.37 256.388L154.686 258.614ZM154.882 259.291L162.566 261.517L162.762 260.841L155.078 258.614L147.394 256.388L147.198 257.065L154.882 259.291ZM155.47 257.262L163.154 259.488L163.35 258.811L155.666 256.585L147.982 254.359L147.786 255.035L155.47 257.262ZM155.666 256.585L157.608 264.346L158.336 264.164L156.394 256.403L154.452 248.642L153.724 248.824L155.666 256.585ZM157.85 256.039L159.792 263.799L160.52 263.617L158.578 255.857L156.636 248.096L155.908 248.278L157.85 256.039ZM158.578 255.857L160.52 248.096L159.792 247.914L157.85 255.674L155.908 263.435L156.636 263.617L158.578 255.857ZM156.394 255.31L158.336 247.549L157.608 247.367L155.666 255.128L153.724 262.889L154.452 263.071L156.394 255.31ZM155.666 255.128L163.35 252.902L163.154 252.225L155.47 254.452L147.786 256.678L147.982 257.354L155.666 255.128ZM155.078 253.099L162.762 250.872L162.566 250.196L154.882 252.422L147.198 254.648L147.394 255.325L155.078 253.099Z" fill="white" mask="url(#path-15-inside-1_55_440)"/>
<mask id="path-17-inside-2_55_440" fill="white">
<path d="M154.829 254.385L155.468 255.544L157.839 255.857L155.468 256.169L154.829 257.328L154.191 256.169L151.82 255.857L154.191 255.544L154.829 254.385Z"/>
</mask>
<path d="M154.829 254.385L158.334 252.456L154.829 246.09L151.325 252.456L154.829 254.385ZM155.468 255.544L151.964 257.473L152.939 259.246L154.945 259.51L155.468 255.544ZM157.839 255.857L158.361 259.822V251.891L157.839 255.857ZM155.468 256.169L154.945 252.203L152.939 252.467L151.964 254.24L155.468 256.169ZM154.829 257.328L151.325 259.257L154.829 265.623L158.334 259.257L154.829 257.328ZM154.191 256.169L157.695 254.24L156.72 252.467L154.713 252.203L154.191 256.169ZM151.82 255.857L151.298 251.891V259.822L151.82 255.857ZM154.191 255.544L154.713 259.51L156.72 259.246L157.695 257.473L154.191 255.544ZM151.166 252.746C150.1 254.681 150.806 257.113 152.741 258.179C154.676 259.244 157.109 258.539 158.174 256.603L151.166 252.746ZM157.855 257.183C158.92 255.248 158.215 252.815 156.28 251.75C154.344 250.685 151.912 251.39 150.846 253.326L157.855 257.183ZM153.076 251.657C150.886 251.945 149.344 253.954 149.633 256.145C149.921 258.335 151.93 259.877 154.121 259.588L153.076 251.657ZM152.935 259.744C155.126 259.456 156.667 257.446 156.379 255.256C156.09 253.066 154.081 251.524 151.891 251.813L152.935 259.744ZM151.891 259.9C154.081 260.189 156.09 258.647 156.379 256.457C156.667 254.267 155.126 252.257 152.935 251.969L151.891 259.9ZM154.121 252.125C151.93 251.836 149.921 253.378 149.633 255.568C149.344 257.759 150.886 259.768 153.076 260.056L154.121 252.125ZM150.846 258.388C151.912 260.323 154.344 261.028 156.28 259.963C158.215 258.898 158.92 256.465 157.855 254.53L150.846 258.388ZM158.174 255.11C157.109 253.174 154.676 252.469 152.741 253.534C150.806 254.6 150.1 257.032 151.166 258.967L158.174 255.11ZM158.493 258.967C159.558 257.032 158.853 254.6 156.918 253.534C154.983 252.469 152.55 253.174 151.485 255.11L158.493 258.967ZM151.804 254.53C150.739 256.465 151.444 258.898 153.379 259.963C155.315 261.028 157.747 260.323 158.812 258.388L151.804 254.53ZM156.583 260.056C158.773 259.768 160.315 257.759 160.026 255.568C159.738 253.378 157.728 251.836 155.538 252.125L156.583 260.056ZM156.724 251.969C154.533 252.257 152.992 254.267 153.28 256.457C153.569 258.647 155.578 260.189 157.768 259.9L156.724 251.969ZM157.768 251.813C155.578 251.524 153.569 253.066 153.28 255.256C152.992 257.446 154.533 259.456 156.724 259.744L157.768 251.813ZM155.538 259.588C157.728 259.877 159.738 258.335 160.026 256.145C160.315 253.954 158.773 251.945 156.583 251.657L155.538 259.588ZM158.812 253.326C157.747 251.39 155.315 250.685 153.379 251.75C151.444 252.815 150.739 255.248 151.804 257.183L158.812 253.326ZM151.485 256.603C152.55 258.539 154.983 259.244 156.918 258.179C158.853 257.113 159.558 254.681 158.493 252.746L151.485 256.603ZM154.829 254.385L151.325 252.456L151.166 252.746L154.67 254.675L158.174 256.603L158.334 256.314L154.829 254.385ZM154.351 255.254L150.846 253.326L150.687 253.615L154.191 255.544L157.695 257.473L157.855 257.183L154.351 255.254ZM154.191 255.544L153.669 251.579L153.076 251.657L153.598 255.622L154.121 259.588L154.713 259.51L154.191 255.544ZM152.413 255.778L151.891 251.813L151.298 251.891L151.82 255.857L152.343 259.822L152.935 259.744L152.413 255.778ZM151.82 255.857L151.298 259.822L151.891 259.9L152.413 255.935L152.935 251.969L152.343 251.891L151.82 255.857ZM153.598 256.091L153.076 260.056L153.669 260.135L154.191 256.169L154.713 252.203L154.121 252.125L153.598 256.091ZM154.191 256.169L150.687 258.098L150.846 258.388L154.351 256.459L157.855 254.53L157.695 254.24L154.191 256.169ZM154.67 257.039L151.166 258.967L151.325 259.257L154.829 257.328L158.334 255.4L158.174 255.11L154.67 257.039ZM154.829 257.328L158.334 259.257L158.493 258.967L154.989 257.039L151.485 255.11L151.325 255.4L154.829 257.328ZM155.308 256.459L158.812 258.388L158.972 258.098L155.468 256.169L151.964 254.24L151.804 254.53L155.308 256.459ZM155.468 256.169L155.99 260.135L156.583 260.056L156.06 256.091L155.538 252.125L154.945 252.203L155.468 256.169ZM157.246 255.935L157.768 259.9L158.361 259.822L157.839 255.857L157.316 251.891L156.724 251.969L157.246 255.935ZM157.839 255.857L158.361 251.891L157.768 251.813L157.246 255.778L156.724 259.744L157.316 259.822L157.839 255.857ZM156.06 255.622L156.583 251.657L155.99 251.579L155.468 255.544L154.945 259.51L155.538 259.588L156.06 255.622ZM155.468 255.544L158.972 253.615L158.812 253.326L155.308 255.254L151.804 257.183L151.964 257.473L155.468 255.544ZM154.989 254.675L158.493 252.746L158.334 252.456L154.829 254.385L151.325 256.314L151.485 256.603L154.989 254.675ZM154.829 254.385L161.838 250.527L154.829 237.795L147.821 250.527L154.829 254.385ZM155.468 255.544L148.459 259.402L150.411 262.947L154.423 263.476L155.468 255.544ZM157.839 255.857L158.883 263.788V247.925L157.839 255.857ZM155.468 256.169L154.423 248.237L150.411 248.766L148.459 252.311L155.468 256.169ZM154.829 257.328L147.821 261.186L154.829 273.918L161.838 261.186L154.829 257.328ZM154.191 256.169L161.199 252.311L159.248 248.766L155.236 248.237L154.191 256.169ZM151.82 255.857L150.776 247.925V263.788L151.82 255.857ZM154.191 255.544L155.236 263.476L159.248 262.947L161.199 259.402L154.191 255.544ZM147.661 250.817C145.531 254.687 146.941 259.552 150.812 261.683C154.683 263.814 159.548 262.403 161.678 258.532L147.661 250.817ZM161.359 259.112C163.49 255.241 162.079 250.377 158.208 248.246C154.338 246.115 149.473 247.526 147.342 251.397L161.359 259.112ZM152.554 247.691C148.173 248.268 145.09 252.286 145.667 256.667C146.244 261.047 150.263 264.131 154.643 263.554L152.554 247.691ZM153.458 263.71C157.838 263.133 160.921 259.114 160.345 254.734C159.768 250.353 155.749 247.27 151.368 247.847L153.458 263.71ZM151.368 263.866C155.749 264.443 159.768 261.36 160.345 256.979C160.921 252.599 157.838 248.58 153.458 248.003L151.368 263.866ZM154.643 248.159C150.263 247.582 146.244 250.666 145.667 255.046C145.09 259.427 148.173 263.445 152.554 264.022L154.643 248.159ZM147.342 260.316C149.473 264.187 154.338 265.598 158.208 263.467C162.079 261.337 163.49 256.472 161.359 252.601L147.342 260.316ZM161.678 253.181C159.548 249.31 154.683 247.9 150.812 250.03C146.941 252.161 145.531 257.026 147.661 260.896L161.678 253.181ZM161.997 260.896C164.128 257.026 162.717 252.161 158.847 250.03C154.976 247.9 150.111 249.31 147.981 253.181L161.997 260.896ZM148.3 252.601C146.169 256.472 147.58 261.337 151.45 263.467C155.321 265.598 160.186 264.187 162.317 260.316L148.3 252.601ZM157.105 264.022C161.485 263.445 164.569 259.427 163.992 255.046C163.415 250.666 159.396 247.582 155.016 248.159L157.105 264.022ZM156.201 248.003C151.821 248.58 148.737 252.599 149.314 256.979C149.891 261.36 153.91 264.443 158.29 263.866L156.201 248.003ZM158.29 247.847C153.91 247.27 149.891 250.353 149.314 254.734C148.737 259.114 151.821 263.133 156.201 263.71L158.29 247.847ZM155.016 263.554C159.396 264.131 163.415 261.047 163.992 256.667C164.569 252.286 161.485 248.268 157.105 247.691L155.016 263.554ZM162.317 251.397C160.186 247.526 155.321 246.115 151.45 248.246C147.58 250.377 146.169 255.241 148.3 259.112L162.317 251.397ZM147.981 258.532C150.111 262.403 154.976 263.814 158.847 261.683C162.717 259.552 164.128 254.687 161.997 250.817L147.981 258.532ZM154.829 254.385L147.821 250.527L147.661 250.817L154.67 254.675L161.678 258.532L161.838 258.242L154.829 254.385ZM154.351 255.254L147.342 251.397L147.183 251.687L154.191 255.544L161.199 259.402L161.359 259.112L154.351 255.254ZM154.191 255.544L153.146 247.613L152.554 247.691L153.598 255.622L154.643 263.554L155.236 263.476L154.191 255.544ZM152.413 255.778L151.368 247.847L150.776 247.925L151.82 255.857L152.865 263.788L153.458 263.71L152.413 255.778ZM151.82 255.857L150.776 263.788L151.368 263.866L152.413 255.935L153.458 248.003L152.865 247.925L151.82 255.857ZM153.598 256.091L152.554 264.022L153.146 264.1L154.191 256.169L155.236 248.237L154.643 248.159L153.598 256.091ZM154.191 256.169L147.183 260.027L147.342 260.316L154.351 256.459L161.359 252.601L161.199 252.311L154.191 256.169ZM154.67 257.039L147.661 260.896L147.821 261.186L154.829 257.328L161.838 253.471L161.678 253.181L154.67 257.039ZM154.829 257.328L161.838 261.186L161.997 260.896L154.989 257.039L147.981 253.181L147.821 253.471L154.829 257.328ZM155.308 256.459L162.317 260.316L162.476 260.027L155.468 256.169L148.459 252.311L148.3 252.601L155.308 256.459ZM155.468 256.169L156.512 264.1L157.105 264.022L156.06 256.091L155.016 248.159L154.423 248.237L155.468 256.169ZM157.246 255.935L158.29 263.866L158.883 263.788L157.839 255.857L156.794 247.925L156.201 248.003L157.246 255.935ZM157.839 255.857L158.883 247.925L158.29 247.847L157.246 255.778L156.201 263.71L156.794 263.788L157.839 255.857ZM156.06 255.622L157.105 247.691L156.512 247.613L155.468 255.544L154.423 263.476L155.016 263.554L156.06 255.622ZM155.468 255.544L162.476 251.687L162.317 251.397L155.308 255.254L148.3 259.112L148.459 259.402L155.468 255.544ZM154.989 254.675L161.997 250.817L161.838 250.527L154.829 254.385L147.821 258.242L147.981 258.532L154.989 254.675Z" fill="white" mask="url(#path-17-inside-2_55_440)"/>
<path fill-rule="evenodd" clip-rule="evenodd" d="M121.041 274.355L122.266 274.355L151.026 274.355L139.699 289.185L121.041 274.355Z" fill="white"/>
<path fill-rule="evenodd" clip-rule="evenodd" d="M122.266 274.355L121.041 274.355L128.452 268.345L129.376 268.618L122.266 274.355Z" fill="white"/>
<path fill-rule="evenodd" clip-rule="evenodd" d="M129.376 268.618L128.452 268.345L130.461 264.989L130.421 265.955L130.3 268.891L129.376 268.618Z" fill="white"/>
<path fill-rule="evenodd" clip-rule="evenodd" d="M130.3 268.891L133.408 267.174L134.397 266.628L135.573 267.174L151.026 274.355L130.3 268.891Z" fill="white"/>
<path fill-rule="evenodd" clip-rule="evenodd" d="M144.519 263.271L148.455 264.298L150.303 264.781L157.694 266.709L158.578 266.94L151.026 274.355L144.932 263.974L144.519 263.271Z" fill="white"/>
<path fill-rule="evenodd" clip-rule="evenodd" d="M130.421 265.955L130.461 264.989L134.397 266.628L133.408 267.174L130.421 265.955Z" fill="white"/>
<path fill-rule="evenodd" clip-rule="evenodd" d="M135.573 267.174L134.397 266.628L144.519 263.271L144.932 263.974L135.573 267.174Z" fill="white"/>
<path fill-rule="evenodd" clip-rule="evenodd" d="M150.303 264.781L148.455 264.298L157.533 262.725L158.578 266.94L157.694 266.709L156.81 263.74L150.303 264.781Z" fill="white"/>
<path d="M121.041 274.355L122.266 274.355M121.041 274.355L139.699 289.185L151.026 274.355M121.041 274.355L128.452 268.345M122.266 274.355L151.026 274.355M122.266 274.355L129.376 268.618M151.026 274.355L135.573 267.174M151.026 274.355L130.3 268.891M151.026 274.355L158.578 266.94M151.026 274.355L144.932 263.974M128.452 268.345L129.376 268.618M128.452 268.345L130.461 264.989M129.376 268.618L130.3 268.891M130.461 264.989L130.421 265.955M130.461 264.989L134.397 266.628M130.421 265.955L130.3 268.891M130.421 265.955L133.408 267.174M130.3 268.891L133.408 267.174M133.408 267.174L134.397 266.628M134.397 266.628L135.573 267.174M134.397 266.628L144.519 263.271M135.573 267.174L144.932 263.974M144.519 263.271L148.455 264.298M144.519 263.271L144.932 263.974M148.455 264.298L150.303 264.781M148.455 264.298L157.533 262.725L158.578 266.94M150.303 264.781L157.694 266.709M150.303 264.781L156.81 263.74L157.694 266.709M157.694 266.709L158.578 266.94" stroke="#F3F3F3"/>
<path d="M184.572 283.019C183.365 283.019 182.387 282.04 182.387 280.834V265.296C182.387 264.031 183.412 263.006 184.677 263.006H192.025C193.135 263.006 194.036 263.906 194.036 265.017C194.036 266.127 193.135 267.027 192.025 267.027H187.103C186.912 267.027 186.757 267.182 186.757 267.373V280.834C186.757 282.04 185.779 283.019 184.572 283.019Z" fill="white"/>
<path d="M203.112 283.019C201.82 283.019 200.931 281.723 201.395 280.517L202.135 278.593C202.434 277.816 202.425 276.954 202.108 276.185L197.637 265.306C197.233 264.323 197.726 263.201 198.724 262.834C199.675 262.485 200.732 262.955 201.11 263.895L204.368 272.013C204.371 272.021 204.374 272.029 204.377 272.037C204.454 272.232 204.718 272.216 204.77 272.013L207.884 263.901C208.25 262.95 209.317 262.475 210.268 262.84C211.223 263.207 211.697 264.281 211.324 265.234L204.826 281.849C204.55 282.554 203.87 283.019 203.112 283.019Z" fill="white"/>
<path d="M170.269 283.094C169.729 283.094 169.172 283.058 168.599 282.985C168.025 282.922 167.473 282.827 166.941 282.7C166.409 282.564 165.914 282.414 165.457 282.251C165.278 282.186 165.11 282.119 164.953 282.051C164.538 281.871 164.257 281.49 164.139 281.053C164.089 280.87 164.07 280.679 164.082 280.489L164.119 279.931C164.124 279.855 164.135 279.78 164.152 279.706L164.242 279.32C164.407 278.611 165.207 278.261 165.869 278.566C166.309 278.766 166.75 278.933 167.19 279.069C167.631 279.205 168.063 279.31 168.487 279.382C168.919 279.455 169.33 279.491 169.721 279.491C170.486 279.491 171.092 279.378 171.541 279.151C171.998 278.924 172.327 278.616 172.526 278.226C172.734 277.837 172.838 277.401 172.838 276.921C172.838 276.06 172.559 275.448 172.002 275.085C171.446 274.723 170.619 274.542 169.521 274.542C169.294 274.542 168.896 274.542 168.524 274.542C168.03 274.542 167.56 274.323 167.243 273.944C167.138 273.82 167.052 273.68 166.988 273.531L166.971 273.492C166.826 273.155 166.805 272.779 166.912 272.429L166.918 272.408C166.962 272.261 167.031 272.122 167.12 271.996C167.387 271.623 167.817 271.401 168.277 271.401C168.619 271.401 168.984 271.401 169.185 271.401C169.941 271.401 170.556 271.287 171.03 271.061C171.512 270.834 171.869 270.53 172.102 270.15C172.335 269.769 172.451 269.352 172.451 268.899C172.451 268.364 172.322 267.929 172.065 267.593C171.815 267.249 171.47 266.995 171.03 266.832C170.598 266.669 170.103 266.587 169.546 266.587C169.189 266.587 168.819 266.623 168.437 266.696C168.063 266.759 167.672 266.868 167.265 267.022C166.858 267.167 166.438 267.362 166.006 267.607C165.352 267.97 164.484 267.693 164.278 266.975L164.173 266.611C164.154 266.545 164.141 266.478 164.132 266.41L164.057 265.807C164.035 265.623 164.042 265.438 164.079 265.257C164.171 264.803 164.44 264.4 164.85 264.187C165.016 264.101 165.189 264.017 165.37 263.936C165.802 263.745 166.268 263.578 166.766 263.433C167.265 263.278 167.793 263.161 168.35 263.079C168.906 262.997 169.48 262.957 170.07 262.957C171.533 262.957 172.75 263.165 173.723 263.582C174.704 263.99 175.435 264.561 175.917 265.295C176.407 266.03 176.653 266.873 176.653 267.824C176.653 269.075 176.341 270.068 175.718 270.802C175.128 271.496 174.402 271.98 173.538 272.252C173.449 272.281 173.386 272.363 173.386 272.457C173.386 272.555 173.454 272.639 173.549 272.663C174.167 272.82 174.732 273.061 175.244 273.386C175.801 273.73 176.245 274.224 176.578 274.868C176.91 275.502 177.076 276.327 177.076 277.343C177.076 278.376 176.86 279.332 176.428 280.212C176.004 281.082 175.294 281.78 174.296 282.306C173.307 282.831 171.965 283.094 170.269 283.094Z" fill="white"/>
</g>
<defs>
<clipPath id="clip0_55_440">
<rect width="500" height="500" fill="white"/>
</clipPath>
</defs>
</svg>
