<svg width="1200" height="600" viewBox="0 0 1200 600" fill="none" xmlns="http://www.w3.org/2000/svg">
<g clip-path="url(#clip0_55_1000)">
<rect width="1200" height="600" fill="white"/>
<path d="M1155.35 282.5L1344.35 342.5L907.258 818.203L723.031 652.022C773.613 608.595 798.314 541.709 747.458 444C717.048 385.574 688.887 342.782 663.001 311.552L768.428 197.9L869.349 259.937L965.412 190L1155.35 282.5Z" fill="#DCEBF8"/>
<path d="M359.862 271.171C362.537 288.745 371.297 305.094 384.136 319.394C339.029 362.891 302.23 417.596 291.37 460C288.86 468.71 286.728 477.157 284.952 485.348L111 346.035L244.773 179L359.862 271.171Z" fill="#ACDAF0"/>
<path d="M747.37 461C855.37 668.5 622.624 737 524.87 737C427.115 737 232.37 690 298.37 461C319.37 379 437.37 251 524.87 247C575.37 247 649.779 273.5 747.37 461Z" fill="#0D547A"/>
<path d="M149.528 441.098C162.963 451.409 176.398 461.719 182.382 467.968C188.366 474.217 186.491 476.092 185.057 477.214C181.203 480.229 176.379 481.489 165.193 481.498C161.726 481.501 159.64 479.292 157.59 477.721C155.636 476.222 156.156 472.049 156.624 468.423C157.312 463.103 169.032 459.428 179.163 458.297C182.34 457.942 184.55 459.712 186.439 461.128C190.295 464.017 190.866 471.661 191.031 477.848C191.169 482.994 183.632 486.848 178.742 488.121C177.363 488.48 175.755 487.814 174.481 486.715C173.208 485.617 172.27 483.742 171.631 482.308C170.992 480.873 170.68 479.936 170.358 478.024" stroke="white" stroke-width="2" stroke-linecap="round"/>
<path d="M85.1445 511.162H87.985" stroke="white" stroke-width="134" stroke-linecap="round"/>
<path d="M62.4211 389.023C82.2853 390.595 91.0906 394.363 96.8046 397.379C101.799 400.015 107.205 401.01 139.932 415.16C150.291 419.639 157.367 423.714 163.711 427.516C168.344 430.292 175.679 433.808 181.852 437.297C191.377 442.68 193.687 447.707 199.529 453.07C204.07 457.24 206.64 460.962 211.052 468.054C215.48 475.171 222.413 480.523 230.442 487.937C238.51 495.386 245.44 495.047 251.447 496.955C257.25 498.798 264.073 503.569 270.057 507.981C282.65 517.266 289.902 527.826 296.426 534.813C298.783 537.332 300.383 539.557 301.325 541.133C301.955 541.772 302.892 542.085 303.858 542.407" stroke="white" stroke-width="134" stroke-linecap="round"/>
<path d="M858.69 522.524C895.265 506.75 904.743 504.231 911.049 503.119C926.238 500.439 938.828 498.854 950.27 498.072C974.579 496.413 992.484 493.495 996.891 492.548C1006.81 490.418 1017.72 490.332 1026.55 489.546C1043.25 488.06 1046.15 491.591 1047.88 491.596C1053.34 491.611 1059.38 482.152 1065.23 477.096C1068.19 474.542 1071.39 472.665 1077.35 469.375C1089.36 462.744 1101.03 452.507 1108.28 444.781C1113.46 439.273 1114.01 434.489 1114.96 430.697C1115.97 426.67 1113.08 422.181 1112.9 417.915C1112.68 412.541 1126.3 418.356 1135.28 421.362C1141.67 423.499 1146.5 423.43 1151.56 422.948C1157.44 422.386 1142.13 431.933 1133.16 439.01C1124.04 446.204 1114.98 450.86 1111.2 454.955C1104.58 462.117 1103.91 481.072 1106.58 494.243C1107.9 500.726 1112.72 507.962 1119.2 515.399C1122.52 519.208 1125.67 522.202 1129.46 523.622C1134.16 525.38 1138.3 527.57 1140.35 527.419C1144.83 527.088 1141.16 517.506 1140.37 511.498C1140.19 510.153 1138.97 509.287 1138.48 509.429C1134.93 510.474 1136.43 516.824 1135.79 521.714C1135 527.809 1133.27 535.097 1134.36 540.499C1134.58 541.541 1135.46 542.388 1135.32 543.027C1135.17 543.666 1134.23 543.979 1133.12 543.827C1127.98 543.124 1120.69 541.46 1114.35 540.674C1104.32 539.43 1089.18 538.942 1079.01 537.834C1071.14 536.977 1057.94 536.101 1041.85 534.998C1035.76 534.58 1033.89 534.207 1007.77 534.047C981.652 533.886 931.348 533.886 904.965 534.198C877.631 534.522 875.117 536.092 870.407 536.565C856.555 537.957 849.582 537.673 843.565 538.615C838.879 539.349 825.656 539.566 808.94 539.723C796.195 539.842 789.913 541.138 781.87 541.616C777.151 541.897 772.871 544.603 767.971 546.346C763.774 547.838 759.616 550.284 755.502 552.656C751.71 554.394 748.869 555.975 746.199 556.448C744.467 556.609 741.967 556.609 739.392 556.609" stroke="white" stroke-width="134" stroke-linecap="round"/>
<path d="M322.794 549.034C327.197 549.347 333.493 550.606 337.929 551.87C342.274 553.108 346.455 553.759 348.344 555.335C349.296 555.975 350.233 556.287 347.904 556.448C345.575 556.609 339.951 556.609 334.156 556.609" stroke="white" stroke-width="134" stroke-linecap="round"/>
<path d="M217.698 469.502C216.127 468.565 212.983 465.412 210.919 461.942C209.802 460.064 209.177 457.838 209.802 455.944C211.188 451.745 219.876 458.765 224.624 461.601C227.185 463.13 229.997 463.187 231.574 464.129C234.969 466.158 235.366 472.002 239.144 476.116C240.81 477.93 242.306 479.595 243.414 479.917C248.269 481.328 234.76 472.04 228.454 466.056C223.568 461.419 222.129 457.213 218.659 454.05C214.527 450.284 211.714 446.798 207.146 443.006C201.911 438.66 196.262 437.008 191.992 435.422C187.346 433.696 182.382 431.63 177.478 430.688C167.698 428.809 155.55 430.361 145.788 434.29C129.97 440.657 123.358 446.457 118.458 449.293C114.624 451.511 112.924 456.228 110.562 461.743C105.908 472.608 109.743 484.613 112.432 490.152C116.51 498.553 120.158 501.05 123.793 504.676C127.672 508.545 130.573 513.662 134.521 515.891C138.863 518.344 143.828 518.093 156.264 518.893C162.18 519.273 170.926 521.558 179.329 523.466C185.225 524.805 192.74 528.186 198.426 531.036C202.983 533.32 207.889 535.457 212.316 536.721C219.047 538.643 226.826 538.298 231.096 539.562C236.234 541.083 245.724 541.46 250.818 541.46C270.987 541.46 225.614 540.513 220.245 539.571C213.892 538.456 205.144 537.673 197.678 536.731C191.136 535.905 183.026 534.207 174.183 532.001C167.673 530.377 153.419 530.098 137.328 530.255C128.36 530.342 123.983 531.67 119.249 532.778C114.304 533.935 98.5325 533.886 88.6336 534.984C82.666 535.646 79.4827 540.816 73.3331 541.616C70.9357 541.928 68.4334 542.407 65.7539 541.938C61.5479 541.202 61.7962 533.601 61.943 522.093C62.0181 516.205 68.3861 508.7 71.8798 502.655C74.0773 498.852 74.7297 491.961 73.7876 486.247C72.7004 479.652 69.0488 473.63 65.9054 469.36C63.1302 465.59 64.3148 447.877 63.5289 434.977C62.6735 420.935 66.8333 412.088 66.8428 401.687C66.8477 396.266 62.4401 393.454 59.5902 389.984C58.9558 389.033 58.3309 388.095 57.8528 387.144C57.3746 386.192 57.0622 385.255 55.7935 382.396" stroke="white" stroke-width="134" stroke-linecap="round"/>
<path d="M649.323 561.722C662.179 559.714 663.166 559.398 668.662 555.812C675.799 551.156 678.02 547.549 681.856 542.471C690.289 531.307 691.051 528.679 692.803 527.089C693.243 526.69 693.555 526.175 693.312 526.085C690.941 525.205 688.567 527.827 681.736 529.996C678.193 531.12 673.067 532.495 664.085 535.985C658.85 538.02 652.458 541.129 645.42 543.901C631.092 549.543 624.438 551.541 626.77 551.125C631.069 550.358 636.593 547.88 641.962 545.205C644.493 543.945 650.115 539.887 657.782 534.218C666.14 528.038 670.007 527.176 673.432 525.752C675.24 524.999 677.193 525.163 678.28 525.576C679.44 526.017 676.878 528.989 673.144 533.224C670.499 536.224 665.94 540.598 661.989 545.21C650.127 559.056 650.165 562.543 649.907 565.716C649.839 566.556 650.155 567.381 650.653 568.055C651.704 569.475 653.821 569.9 657.719 570.15C665.404 570.644 673.828 569.74 679.913 568.741C684.237 568.031 687.7 567.231 690.207 567.479C690.971 567.554 686.253 570.221 673.72 574.209C664.914 577.012 650.776 580.182 644.118 582.052C637.459 583.923 638.616 584.088 640.039 584.173C643.109 584.357 646.965 583.928 655.013 583.509C660.905 583.203 670.498 583.587 680.807 584.581C691.116 585.575 701.858 587.393 709.127 588.908C716.396 590.423 719.867 591.58 720.498 592.341C721.129 593.102 718.815 593.433 711.343 593.521C703.871 593.608 691.311 593.443 683.601 593.193C673.401 592.861 669.536 592.271 668.607 592.106C666.058 591.652 679.642 591.269 688.166 591.435C690.415 591.478 688.426 591.93 678.894 592.101C669.361 592.271 652.338 592.271 642.082 592.106C628.843 591.892 623.637 591.269 618.812 591.022C612.955 590.721 609.264 589.602 608.843 589.351C608.207 588.972 611.748 589.101 622.348 588.603C631.456 588.174 648.152 587.774 657.99 587.27C667.828 586.767 670.307 586.271 671.171 585.851C672.035 585.43 671.209 585.099 646.324 583.111C621.439 581.123 572.52 577.487 547.815 575.614C523.11 573.741 524.102 573.741 528.745 574.32C533.387 574.898 541.65 576.055 548.303 577.312C559.832 579.49 565.348 581.419 566.019 581.834C567.949 583.03 561.362 583.422 553.988 583.507C547.935 583.577 537.193 583.096 524.966 582.017C512.739 580.938 499.352 579.12 492.126 578.101C484.899 577.082 484.238 576.916 485.054 576.749C491.752 575.372 496.062 577.412 503.274 578.819C509.023 579.941 518.914 582.375 531.046 584.972C543.178 587.568 557.225 590.378 564.958 591.991C577.037 594.51 583.698 595.937 586.63 596.36C589.04 596.708 591.39 596.277 592.061 596.112C592.222 596.073 591.41 595.616 583.798 595.611C576.186 595.606 561.642 595.937 549.853 595.611C538.065 595.286 529.471 594.294 523.308 593.783C513.695 592.987 509.108 593.107 505.54 592.857C502.968 592.676 498.831 592.772 495.133 592.607C491.435 592.441 488.294 592.111 477.587 591.858C466.88 591.605 448.701 591.44 437.766 591.189C426.831 590.939 423.691 590.608 417.859 590.521C412.027 590.433 403.598 590.598 398.843 590.766C391.241 591.034 387.252 591.6 379.419 592.269C375.703 592.586 373.059 593.102 369.135 593.025C368.488 593.012 368.702 592.281 369.035 591.943C370.763 590.19 374.532 589.767 383.859 588.77C391.13 587.994 398.73 586.101 407.485 584.348C412.295 583.385 415.598 582.926 419.106 582.59C423.544 582.166 432.735 581.253 442.781 580.422C446.429 580.12 452.387 580.252 456.113 580.169C459.839 580.086 461.161 579.921 468.37 579.836C475.579 579.751 488.635 579.751 494.452 579.751C500.269 579.751 498.451 579.751 497.184 579.668C492.089 579.336 485.41 578.92 481.569 578.667C477.216 578.38 472.559 577.918 468.976 577.417C467.382 577.194 466.219 577.247 448.187 574.437C430.156 571.628 395.285 566.009 376.825 562.949C358.366 559.889 357.374 559.558 357.276 559.306C356.379 556.983 363.173 557.215 374.837 555.552C381.544 554.596 389.536 553.208 393.482 552.793C398.553 552.258 407.855 553.208 414.679 553.624C421.109 554.016 424.772 554.54 428.373 554.793C432.958 555.115 439.636 555.542 447.609 556.373C452.762 556.911 462.002 558.356 467.348 559.203C476.248 560.612 480.532 561.882 486.872 563.219C490.35 563.953 492.561 565.057 495.398 565.393C497.927 565.692 500.073 567.06 505.237 567.479C509.333 567.81 512.744 569.234 516.017 570.148C518.612 570.873 521.939 571.568 524.197 572.236C526.761 572.995 530.442 573.24 533.294 573.739C536.459 574.292 539.136 574.573 544.199 575.158C561.562 577.168 564.998 574.412 568.599 574.159C572.528 573.883 577.859 573.411 580.62 573.158C583.101 572.931 586.703 571.578 590.882 571.155C593.415 570.898 595.727 570.406 597.981 569.82C601.797 568.828 605.904 568.072 609.58 566.652C611.22 566.019 612.259 564.897 613.175 564.066C613.66 563.626 613.927 562.904 613.849 562.233C613.513 559.33 608.448 558.887 605.678 558.219C602.64 557.485 598.261 558.707 595.827 559.881C593.857 560.832 592.242 562.713 589.82 563.39C587.05 564.163 582.406 564.887 577.142 565.31C573.998 565.563 571.048 566.229 568.04 566.645C562.734 567.378 560.03 567.231 556.852 567.729C554.447 568.106 551.847 569.064 548.839 569.317C546.275 569.532 543.333 570.236 540.493 570.817C537.047 571.522 534.819 572.569 524.33 572.822C522.124 572.905 521.628 573.07 521.29 572.907C520.952 572.745 520.787 572.249 520.616 571.237" stroke="white" stroke-width="34" stroke-linecap="round"/>
<path d="M524.623 568.733V569.234" stroke="white" stroke-width="34" stroke-linecap="round"/>
<path d="M526.125 569.735H526.626" stroke="white" stroke-width="34" stroke-linecap="round"/>
<path d="M529.631 569.735L532.636 569.234" stroke="white" stroke-width="34" stroke-linecap="round"/>
<path d="M625.799 563.894L626.02 564.558" stroke="white" stroke-width="34" stroke-linecap="round"/>
<path d="M626.02 564.557C623.738 563.16 622.853 562.129 622.446 561.243C622.026 560.328 621.38 559.621 620.788 558.555C620.2 557.498 620.566 556.377 620.272 555.936C619.978 555.494 619.609 555.196 619.168 555.049C618.316 554.765 617.254 554.902 616.293 554.57C615.81 554.403 614.969 554.163 614.083 554.199C613.852 554.209 614.073 554.309 614.296 554.31C615.41 554.316 616.873 553.871 618.018 553.684C619.122 553.504 620.704 552.619 621.815 552.174C622.705 551.817 623.583 551.363 624.469 550.884C625.385 550.389 626.458 549.89 627.344 549.483C628.259 549.063 629.112 548.563 629.998 548.193C630.883 547.823 631.912 547.236 633.056 546.682C633.94 546.255 634.862 545.909 635.968 545.392C636.991 544.913 637.958 544.582 638.844 544.175C639.76 543.755 640.612 543.255 641.608 542.628C642.991 541.757 644.076 541.265 645.037 540.894C645.908 540.559 646.586 540.378 646.699 540.45C648.41 541.54 643.275 542.512 640.737 543.653C639.482 544.218 637.463 545.6 635.609 546.788C634.69 547.377 633.765 548.041 632.88 548.815C631.772 549.783 629.86 550.328 628.348 550.623C627.188 550.85 625.587 551.067 624.439 551.287C623.083 551.547 621.602 551.801 620.716 552.171C619.808 552.551 618.435 552.832 617.471 553.35C616.679 553.777 616.219 554.822 615.408 555.304C614.457 555.87 613.273 556.591 612.055 557.257C610.607 558.049 609.217 558.511 607.597 558.659C606.269 559.174 604.501 559.617 603.465 559.912C603.243 559.986 603.024 560.059 602.577 560.134" stroke="white" stroke-width="34" stroke-linecap="round"/>
<path d="M606.78 558.586H607.222" stroke="white" stroke-width="34" stroke-linecap="round"/>
<path d="M606.337 556.596L607.443 557.701" stroke="white" stroke-width="34" stroke-linecap="round"/>
<path d="M606.116 556.375V555.932" stroke="white" stroke-width="34" stroke-linecap="round"/>
<path d="M587.318 562.125C587.245 562.125 587.172 562.125 587.098 562.015C587.023 561.906 586.95 561.687 586.875 561.461" stroke="white" stroke-width="34" stroke-linecap="round"/>
<path d="M689.935 520.768C692.808 517.674 693.691 517.084 694.393 516.421C695.089 515.764 696.269 515.389 697.23 514.468C697.44 514.267 697.672 514.208 697.675 514.207C698.401 513.965 695.619 514.868 694.216 515.605C693.074 516.205 691.93 517.154 691.008 517.67C689.962 518.254 689.276 518.924 688.391 519.402C687.558 519.852 686.622 520.175 685.737 520.619C684.747 521.114 684.115 521.869 683.304 522.352C682.863 522.608 682.418 522.904 681.977 523.199C681.755 523.347 681.536 523.493 680.868 523.643" stroke="white" stroke-width="34" stroke-linecap="round"/>
<path d="M706.522 509.71C707.405 508.606 708.287 507.724 709.062 506.802C710.141 505.518 711.675 504.703 712.932 504.146C714.097 503.629 715.581 503.517 716.876 503.114C718.033 502.753 719.491 502.12 720.598 501.64C722.489 500.82 724.644 499.837 726.311 499.096C728.492 498.127 731.062 497.4 732.724 496.885C733.832 496.541 734.753 496.148 738.408 494.465C741.652 492.971 747.901 490.593 751.389 489.132C755.505 487.408 756.719 486.712 758.225 486.124C761.675 484.78 763.206 483.839 766.701 482.659C768.406 482.083 769.327 481.773 770.323 481.33C772.479 480.369 775.515 480.004 777.616 479.524C779.019 479.204 782.5 478.237 787.176 477.317C789.086 476.941 790.028 476.616 795.589 475.662C801.15 474.709 811.294 473.104 817.323 472.094C823.352 471.084 824.958 470.72 826.296 470.276C828.712 469.475 830 468.649 830.479 468.319C831.363 467.708 831.55 466.586 831.552 466.181C831.555 465.077 829.489 465.405 829.085 465.149C828.122 464.538 828.381 460.498 828.932 455.836C829.366 452.161 827.793 449.999 827.353 449.594C826.761 449.05 825.586 449.112 824.3 449.331C822.681 449.607 821.603 450.804 820.466 452.087C818.431 454.383 817.177 456.333 816.664 457.397C815.81 459.168 814.455 460.827 813.277 462.078C812.307 463.109 810.264 465.241 804.691 468.549C801.067 470.699 795.03 472.294 791.767 473.309C788.504 474.324 787.993 474.324 788.131 473.741C788.27 473.157 789.072 471.989 791.493 469.672C793.914 467.356 797.928 463.926 801.054 461.684C804.18 459.443 806.296 458.494 808.153 457.786C813.636 455.696 816.425 455.676 818.753 455.453C820.765 455.26 822.773 454.349 823.734 453.942C824.204 453.743 824.619 453.389 825.389 452.986C826.767 452.263 830.126 450.382 833.958 447.767C836.738 445.869 838.4 444.402 841.822 441.97C842.692 441.352 843.197 441.153 843.601 440.712C843.797 440.498 843.933 440.27 841.855 440.158C839.778 440.045 835.472 440.045 832.451 440.154C825.772 440.396 824.334 441.296 823.188 441.701C821.518 442.291 819.915 443.504 818.216 444.354C815.259 445.833 814.231 445.941 811.877 447.337C810.736 448.014 809.224 448.957 805.432 451.426C803.869 452.443 802.882 453.677 802.176 454.601C801.143 455.955 798.972 456.556 797.866 457.219C796.784 457.867 795.07 458.251 793.517 458.988C792.629 459.505 792.113 460.095 791.745 460.426C791.596 460.61 791.523 460.829 791.448 461.276" stroke="white" stroke-width="34" stroke-linecap="round"/>
<path d="M781.053 461.055C779.286 462.97 778.404 463.558 777.334 464.333C776.442 464.979 775.75 465.77 775.268 466.581C774.734 467.478 773.98 468.349 773.022 469.307C771.803 470.527 770.884 471.078 769.962 471.632C768.922 472.257 768.007 472.407 767.858 472.372C766.616 472.077 769.327 470.715 770.213 470.161C771.067 469.627 771.762 469.092 771.948 468.907C772.727 468.133 769.778 470.414 768.893 470.858C767.902 471.354 767.124 471.963 766.239 472.333C765.354 472.703 764.471 473.289 763.658 473.733C762.919 474.136 762.259 474.984 761.373 475.429C760.456 475.891 759.384 476.386 758.278 476.94C757.139 477.511 755.921 478.009 754.96 478.524C754.021 479.027 753.191 479.703 752.122 480.294C751.178 480.815 750.392 481.548 749.248 482.282C747.16 483.623 746.703 484.715 746.076 485.564C745.449 486.413 744.345 486.926 742.725 487.959C741.719 488.601 740.807 488.992 739.921 489.619C739.699 489.803 739.48 490.022 739.257 490.208C739.035 490.394 738.816 490.54 738.148 491.133" stroke="white" stroke-width="34" stroke-linecap="round"/>
<path d="M737.927 491.133C738.075 490.914 738.365 489.885 738.883 488.814C739.294 487.965 740.576 487.744 741.133 487.153C741.593 486.663 739.922 488.328 738.852 488.955C737.771 489.589 736.901 490.686 736.013 491.204C735.286 491.629 734.614 492.309 733.728 492.863C732.981 493.33 732.548 494.224 731.774 494.743C730.563 495.555 728.643 496.29 727.573 496.55C726.489 496.813 725.622 497.471 724.477 497.95C723.998 498.135 723.627 498.429 723.333 498.87C723.184 499.092 723.038 499.311 723.109 499.758" stroke="white" stroke-width="34" stroke-linecap="round"/>
<path d="M704.311 515.681C704.165 515.535 704.017 515.168 703.797 514.653C703.592 514.175 702.621 514.133 701.664 514.024C700.598 513.902 700.699 512.587 700.698 512.146C700.696 511.103 702.316 510.966 703.238 510.596C704.353 510.148 705.412 509.785 706.702 509.27C707.97 508.763 709.61 508.533 711.125 507.979C712.266 507.562 713.153 506.985 714.075 506.175C715.052 505.316 716.174 504.703 716.768 503.779C717.29 502.966 718.018 502.341 718.904 501.714C720.073 500.886 721.114 499.687 722 499.097C722.886 498.506 723.768 497.918 724.618 497.291C725.416 496.701 726.201 496.003 727.05 495.484C727.921 494.952 728.855 494.379 729.741 494.009C730.688 493.613 731.73 493.198 732.616 492.867C733.575 492.314 736.211 491.433 739.599 490.512C740.944 490.175 741.528 490.102 742.129 490.027" stroke="white" stroke-width="34" stroke-linecap="round"/>
<path d="M847.843 460.834C862.294 454.703 876.744 448.573 889.845 444.101C902.945 439.629 914.257 437.002 924.208 435.174C934.16 433.346 942.407 432.397 947.202 431.908C953.083 431.309 954.44 431.347 954.443 431.236C954.45 431.017 953.571 431.198 945.679 432.257C937.787 433.315 922.679 435.431 913.948 436.85C905.216 438.269 903.319 438.926 902.232 439.337C901.145 439.748 900.926 439.894 900.777 440.079C900.627 440.264 900.554 440.483 900.809 440.668C901.063 440.854 901.647 441 917.712 438.12C933.777 435.239 965.305 429.327 982.861 425.881C1000.42 422.434 1003.04 421.631 1004.69 421.071C1006.33 420.512 1006.92 420.22 992.039 420.252C977.16 420.284 946.799 420.649 928.714 420.691C910.628 420.733 905.738 420.441 903.475 420.181C901.211 419.921 901.722 419.702 921.435 418.677C941.148 417.652 980.048 415.828 999.941 414.888C1019.83 413.948 1019.54 413.948 1005.27 416.429C990.998 418.911 962.753 423.874 947.948 426.43C933.142 428.987 932.631 428.987 932.624 428.987C932.616 428.987 933.127 428.987 938.426 427.892C943.725 426.797 953.796 424.608 962.889 421.947C971.982 419.287 979.791 416.221 984.216 414.387C989.508 412.193 990.708 411.15 991.408 410.451C991.708 410.151 991.743 409.826 991.671 409.602C991.527 409.155 990.06 409.082 983.657 409.849C978.332 410.486 968.862 412.148 964.266 412.828C959.67 413.508 960.254 413.289 961.029 412.884C961.804 412.479 962.753 411.896 968.898 409.04C975.043 406.185 986.355 401.076 992.402 398.189C998.448 395.302 998.886 394.791 999.148 394.272C999.41 393.754 999.483 393.243 999.484 392.834C999.486 392.425 999.413 392.133 999.047 391.982C998.09 391.589 996.982 391.978 993.656 392.746C990.707 393.428 985.148 394.464 981.67 395.247C976.915 396.317 975.017 397.065 973.729 397.395C973.093 397.559 972.515 397.799 969.77 399.189C967.024 400.579 962.134 403.133 957.827 405.069C953.52 407.006 949.944 408.246 947.591 408.995C945.237 409.744 944.216 409.963 943.215 410.258C942.214 410.553 941.265 410.918 936.982 412.274C932.698 413.629 925.107 415.965 919.628 417.898C914.149 419.831 911.011 421.29 908.518 422.59C906.026 423.889 904.274 424.984 901.876 426.132C899.477 427.279 896.485 428.447 893.922 429.268C889.374 430.724 886.626 431.196 884.719 431.747C883.409 432.125 881.353 432.516 879.607 432.961C877.861 433.406 876.475 433.843 873.68 435.054C870.886 436.265 866.726 438.236 863.087 439.871C859.447 441.507 856.455 442.747 854.731 443.532C851.889 444.827 850.581 446.304 849.614 446.937C849.335 447.119 850.639 445.072 851.56 442.825C852.024 441.693 853.14 440.131 855.383 437.339C857.946 434.147 859.777 431.353 861.724 429.846C865.496 426.927 868.101 425.975 870.321 424.972C871.146 424.599 874.937 423.248 880.5 421.589C883.295 420.755 884.989 420.806 888.141 420.255C890.406 419.86 894.066 419.486 896.347 419.151C898.628 418.816 899.431 418.597 901.341 418.155C903.25 417.714 906.243 417.057 908.368 416.5C911.696 415.628 914.032 414.762 916.093 414.283C916.982 414.076 917.57 414.023 921.52 412.927C925.47 411.831 932.768 409.715 936.82 408.588C941.433 407.305 942.568 407.167 943.561 406.91C944.469 406.674 947.195 406.212 953.724 404.782C958.004 403.845 964.195 402.257 967.683 401.468C973.267 400.204 975.961 399.356 977.474 398.874C979.054 398.37 980.384 398.1 981.493 397.584C982.149 397.28 983.113 396.775 984.18 396.149C984.992 395.673 987.594 394.497 991.678 392.583C995.006 391.023 996.902 390.58 997.015 390.359C997.736 388.946 992.645 390.063 989.658 389.623C983.404 388.701 981.428 389.545 980.469 390.06C979.189 390.749 977.819 391.531 976.599 392.749C976.339 393.082 976.12 393.446 975.971 393.744C975.822 394.041 975.749 394.26 975.673 394.486" stroke="white" stroke-width="34" stroke-linecap="round"/>
<path d="M812.015 453.757C811.575 453.684 810.693 453.39 809.807 453.094C808.93 452.802 808.114 451.771 807.153 451.325C805.016 450.334 800.962 451.249 799.892 451.544C798.493 451.93 796.539 452.058 795.689 452.685C794.842 453.533 793.882 454.051 793.441 454.234C793.219 454.345 793 454.491 792.774 454.641" stroke="white" stroke-width="34" stroke-linecap="round"/>
<path d="M807.371 446.016C807.811 445.943 808.694 445.503 809.872 444.986C811.527 444.259 813.847 443.734 815.328 443.216C816.395 442.844 817.465 442.407 818.939 441.78C820.658 441.049 821.521 440.562 822.59 440.194C823.723 439.804 824.617 439.089 825.503 438.682C826.452 438.247 827.271 437.541 828.34 436.951C829.3 436.421 830.292 436.064 832.317 435.257C834.11 434.542 835.304 434.295 838.579 433.744C841.983 433.172 847.317 432.087 849.235 431.532C852.451 430.602 854.177 429.726 855.945 429.1C857.725 428.47 860.144 427.372 861.991 426.3C863.921 425.178 865.678 424.126 868.291 422.726C869.634 422.006 870.839 421.472 872.129 420.953C873.537 420.387 875.55 419.557 877.179 419.036C878.624 418.574 880.716 418.371 882.081 417.784C883.445 417.197 884.994 417.119 887.715 416.641C889.506 416.326 893.013 415.209 896.451 414.098C897.982 413.604 899.802 413.435 901.176 413.064C902.403 412.734 903.717 412.4 904.898 412.216C907.528 411.808 912.554 411.294 914.994 410.927C915.514 410.852 915.951 410.852 916.36 410.815C916.768 410.779 917.132 410.706 917.508 410.631" stroke="white" stroke-width="34" stroke-linecap="round"/>
<path d="M855.363 437.17C854.113 436.363 853.226 435.184 852.967 434.262C852.818 433.73 852.711 433.191 852.27 432.823C851.337 432.045 848.741 432.963 846.119 433.079C844.645 433.145 843.424 432.379 842.137 432.121C839.272 431.545 837.9 431.641 837.263 431.642C836.157 431.644 839.216 430.61 839.438 430.462C840.219 429.941 837.528 432.079 836.567 432.781C836.334 432.951 836.126 433.184 836.123 433.224C836.059 433.995 837.811 432.088 838.992 431.238C840.057 430.473 841.129 429.947 842.199 429.431C843.662 428.727 844.742 428.253 845.665 427.846C846.738 427.372 847.618 426.926 848.503 426.335C849.389 425.745 850.417 425.302 851.451 424.971C852.731 424.56 853.589 424.051 854.511 423.717C855.532 423.347 856.61 423.091 857.607 422.796C858.74 422.46 860.073 422.06 861.477 421.69C862.499 421.42 863.541 421.321 864.72 421.026C866.45 420.593 868.548 420.512 869.991 420.325C871.441 420.137 872.609 419.773 873.751 419.515C874.084 419.477 874.449 419.477 874.783 419.441C875.117 419.404 875.408 419.331 875.709 419.256" stroke="white" stroke-width="34" stroke-linecap="round"/>
<path d="M1045.34 416.381C1040.67 416.6 1036 416.819 1035.05 415.8C1032.44 412.996 1040.54 409.604 1041.61 408.282C1042.19 407.563 1042.75 406.667 1042.94 405.997C1043.13 405.327 1042.91 404.889 1042.51 404.554C1041.63 403.832 1039.67 403.556 1036.92 403.224C1035.41 403.042 1033.65 403.111 1030.09 403.403C1026.52 403.695 1021.19 404.279 1017.13 404.981C1013.08 405.683 1010.45 406.486 1007.12 407.812C1003.8 409.138 999.859 410.962 997.391 412.231C993.959 413.994 992.561 415.489 991.64 416.631C991.269 417.09 991.23 417.407 1000.46 413.032C1009.69 408.658 1028.23 399.608 1038.33 394.8C1048.42 389.992 1049.52 389.7 1050.63 389.331C1051.74 388.961 1052.84 388.524 1053.11 388.663C1053.93 389.084 1050.44 391.087 1047.24 392.486C1044.75 393.575 1042.4 394.041 1039.72 394.629C1038.2 394.962 1036.38 395.508 1035.92 395.479C1035.45 395.45 1036.4 394.866 1038.86 393.69C1041.32 392.513 1045.26 390.762 1053.16 388.144C1061.07 385.527 1072.82 382.097 1079.49 380.257C1086.17 378.417 1087.41 378.271 1088.48 378.086C1089.56 377.901 1090.44 377.682 1090.78 377.642C1091.12 377.603 1090.9 377.749 1083.02 378.481C1075.13 379.213 1059.59 380.526 1052.45 380.51C1045.32 380.493 1047.07 379.107 1049.51 377.48C1051.94 375.853 1055.01 374.029 1056.37 373.089C1057.73 372.149 1057.29 372.149 1056.63 372.295C1055.96 372.441 1055.09 372.733 1050.91 373.795C1046.74 374.858 1039.3 376.683 1032.94 378.535C1026.59 380.387 1021.55 382.212 1017.9 383.662C1014.25 385.113 1012.13 386.135 1009.15 387.939C1006.16 389.742 1002.36 392.297 999.678 394.233C996.993 396.169 995.533 397.41 994.052 398.815C989.533 403.551 988.947 404.142 987.878 404.621C987.618 404.732 987.399 404.805 986.952 405.102" stroke="white" stroke-width="34" stroke-linecap="round"/>
<path d="M931.663 417.487C931.957 414.098 932.105 412.046 932.472 410.194C932.734 408.871 932.99 407.251 933.173 405.333C933.138 401.123 932.917 400.459 932.77 400.018C932.695 399.796 932.622 399.577 932.547 399.351" stroke="white" stroke-width="34" stroke-linecap="round"/>
<path d="M956.433 402.448C956.138 402.008 955.698 400.833 955.181 399.577C954.755 398.543 954.884 397.003 954.664 395.816C954.517 395.375 954.442 394.712 954.406 393.939C954.369 393.604 954.296 393.385 954.221 392.717" stroke="white" stroke-width="34" stroke-linecap="round"/>
<path d="M944.269 408.64C943.605 404.378 943.459 401.125 943.201 399.947C942.918 398.661 943.236 397.584 943.383 397.143C943.675 396.266 944.707 395.888 945.409 395.226C945.582 395.063 945.812 395.003 945.67 394.966C944.246 394.591 943.167 395.295 941.731 395.774C941.396 395.886 941.177 395.959 940.955 396.069C940.732 396.18 940.513 396.326 940.288 396.698" stroke="white" stroke-width="34" stroke-linecap="round"/>
<path d="M919.278 405.765C920.308 404.883 920.897 404 921.193 402.967C921.549 401.729 923.256 401.859 923.442 401.602C923.51 401.507 923.117 401.417 922.857 401.452C921.858 401.588 920.906 402.151 919.027 402.997C917.937 403.488 916.849 403.478 915.927 403.921C914.953 404.388 914.12 404.655 913.126 405.1C912.242 405.497 911.029 405.836 909.956 406.243C908.821 406.673 907.636 406.942 906.639 407.459C905.528 408.035 903.806 408.198 902.107 408.381C900.917 408.51 900.041 409.153 898.972 409.56C898 409.93 897.02 410.188 896.059 410.408C895.124 410.622 893.853 411.073 892.633 411.513C891.128 412.055 889.943 412.179 888.982 412.435C887.946 412.712 886.847 413.209 885.886 413.688C884.985 414.137 884.118 414.903 883.232 415.53C882.31 416.183 881.464 416.527 880.578 417.005C880.356 417.117 880.137 417.19 879.878 417.228C879.62 417.265 879.328 417.265 878.806 417.486" stroke="white" stroke-width="34" stroke-linecap="round"/>
<path d="M878.363 417.487C877.85 417.487 876.673 417.632 875.713 417.304C874.788 416.988 873.577 417.411 872.616 417.707C872.172 417.843 871.585 418.002 871.178 418.039C869.789 418.168 874.303 416.456 876.878 415.646C879.16 414.929 881.305 414.687 882.268 414.318C882.49 413.952 883.149 413.727 884.183 413.14C884.478 412.99 884.843 412.917 885.661 412.842" stroke="white" stroke-width="34" stroke-linecap="round"/>
<path d="M1100.19 371.264C1099.08 371.191 1098.05 370.459 1097.13 369.498C1096.29 368.63 1096.5 367.067 1096.46 365.263C1096.5 364.853 1096.57 364.634 1096.61 364.339C1096.65 364.043 1096.65 363.678 1096.87 362.86" stroke="white" stroke-width="34" stroke-linecap="round"/>
<path d="M1097.31 363.081C1096.87 363.154 1095.99 363.594 1095.07 364.112C1094.12 364.641 1092.09 364.408 1090.35 364.592C1087.74 364.867 1086.26 364.851 1085 365.034C1083.39 365.269 1082.06 365.439 1078.67 365.551C1076.88 365.61 1075.13 365.956 1073.69 366.249C1071.67 366.66 1069.97 367.354 1068.38 367.725C1066.94 368.061 1065.03 368.389 1063.59 368.573C1060.99 368.904 1058.77 369.123 1056.55 369.31C1055.07 369.435 1053.01 369.641 1051.61 369.973C1050.5 370.235 1049.54 370.747 1048.66 371.042C1047.71 371.359 1046.38 371.485 1045.34 371.889C1044.9 372.074 1044.16 372.441 1043.17 372.993C1042.69 373.252 1042.25 373.471 1041.8 373.697" stroke="white" stroke-width="34" stroke-linecap="round"/>
<path d="M1041.8 372.591C1037.45 372.37 1036.28 372.516 1035.39 372.811C1034.46 373.122 1033.25 373.471 1032.26 373.881C1031.04 374.38 1029.64 374.728 1027.65 374.839C1026.5 374.904 1025.51 375.612 1024.15 375.944C1022.88 376.253 1021.32 377.01 1019.51 377.456C1018.06 377.811 1016.6 378.266 1015.16 378.634C1013.36 379.094 1012.39 379.739 1010.99 380.292C1008.33 381.343 1007.09 381.805 1005.87 382.32C1004.19 383.026 1002.59 384.233 1000.41 385.781C998.932 386.837 996.626 388.21 993.597 389.176C993.001 389.324 992.636 389.47 992.266 389.582C991.895 389.693 991.531 389.766 991.155 389.842" stroke="white" stroke-width="34" stroke-linecap="round"/>
<path d="M1001.99 383.649C1002.14 383.649 1002.43 383.576 1002.84 383.356C1003.9 382.78 1003.76 381.146 1003.94 380.594C1004.38 379.282 1005.97 379.376 1006.85 379.006C1007.71 378.646 1008.62 378.417 1009.51 377.938C1009.73 377.819 1009.95 377.753 1009.88 377.825C1008.98 378.748 1007.31 379.222 1005.98 379.704C1004.84 380.115 1003.84 380.624 1002.77 381.067C1001.24 381.699 999.789 381.88 998.641 382.1C996.976 382.419 994.481 382.765 993.186 382.985C992.206 383.151 991.234 383.795 990.273 384.383C989.159 385.065 988.284 385.564 986.995 386.227C985.924 386.777 984.821 387.037 983.456 387.408C982.122 387.77 980.619 387.776 979.07 388.035C977.755 388.255 976.562 388.439 975.604 388.698C974.276 388.809 973.099 388.957 971.771 389.361C971.474 389.472 971.255 389.545 971.029 389.62" stroke="white" stroke-width="34" stroke-linecap="round"/>
<path d="M989.606 385.861C989.534 385.126 989.385 383.877 989.239 382.882C989.186 382.517 988.801 382.543 988.542 382.58C987.592 382.713 986.736 383.132 985.741 383.574C984.41 384.166 982.981 384.091 981.869 384.312C980.885 384.506 979.88 384.901 978.958 385.196C977.848 385.551 976.492 385.564 975.237 385.823C973.276 386.227 972.36 386.449 971.475 386.781C970.436 387.17 969.264 387.626 968.379 388.071C967.522 388.502 966.61 388.882 965.541 389.214C964.547 389.522 963.735 390.279 962.666 390.725C961.707 391.125 960.493 391.169 959.496 391.389C958.425 391.684 957.616 391.905 956.953 392.089C956.656 392.199 956.437 392.345 956.211 392.496" stroke="white" stroke-width="34" stroke-linecap="round"/>
<path d="M1162.77 382.765C1167.88 374.59 1170.59 370.161 1171.1 369.573C1172.1 368.427 1174.92 367.292 1177.76 365.783C1180.1 364.538 1181.63 362.577 1183.12 361.242C1184.36 360.122 1184.81 359.105 1185.18 358.183C1185.67 356.975 1186.36 356.084 1186.66 355.451C1187.19 354.319 1187.39 358.132 1187.73 360.456C1187.84 361.225 1187.84 361.898 1187.91 364.604C1187.98 366.944 1187.84 371.251 1187.73 373.798C1187.59 377.008 1187.18 377.897 1186.92 378.119C1186.66 376.656 1186.95 373.56 1187.39 371.464C1187.54 370.391 1187.54 369.296 1187.99 367.947" stroke="white" stroke-width="34" stroke-linecap="round"/>
<path d="M1185.77 363.966C1186.29 362.126 1186.58 361.095 1187.1 360.21C1187.73 359.127 1188.13 357.778 1188.65 356.856C1189.24 355.788 1189.83 354.903 1190.38 353.981C1190.53 353.739 1190.57 353.43 1190.46 353.243C1190.35 353.056 1190.06 352.983 1189.8 352.982C1188.7 352.977 1187.4 353.642 1185.85 353.829C1184.27 354.021 1182.54 354.677 1181.54 354.934C1180.27 355.26 1179 356 1175.63 356.409C1173.16 356.709 1168.47 356.447 1165.7 356.52C1161.14 356.64 1158.67 357.402 1156.48 357.772C1155.17 357.993 1153.13 358.654 1150.03 359.503C1148.32 359.972 1146.13 360.569 1144.35 361.09C1143.56 361.32 1142.87 361.385 1142.36 361.532C1141.71 361.718 1138.18 361.754 1132.48 362.01C1127.96 362.212 1125.55 363.375 1124.34 363.632C1120.62 364.408 1117.81 364.481 1116.6 364.592C1115.68 364.629 1114.15 364.629 1112.57 364.629" stroke="white" stroke-width="34" stroke-linecap="round"/>
<path d="M1112.35 363.745C1111.91 362.935 1111.39 362.42 1111.17 362.052C1111.03 361.903 1110.81 361.83 1110.33 361.792C1109.85 361.754 1109.12 361.754 1108.37 361.754" stroke="white" stroke-width="34" stroke-linecap="round"/>
<path d="M1109.7 361.754C1110.43 361.754 1114.16 361.754 1119.43 361.681C1122.41 361.64 1123.55 360.945 1124.69 360.797C1125.75 360.66 1126.72 360.281 1127.79 360.17C1128.28 360.119 1128.86 359.985 1129.16 359.985C1127.69 360.131 1126.51 360.573 1124.24 360.832C1122.63 360.87 1119.63 360.87 1116.55 360.87" stroke="white" stroke-width="34" stroke-linecap="round"/>
<path d="M1121.2 360.427C1124.94 360.649 1128.93 360.357 1130 360.17C1133.07 359.633 1138.59 359.839 1139.66 359.58C1141.13 359.224 1142.35 359.176 1144.23 359.064C1145.6 358.982 1147.36 358.733 1148.62 358.622C1149.87 358.437 1150.83 358.364 1151.78 358.253C1152.51 358.216 1153.76 358.216 1155.03 358.216" stroke="white" stroke-width="34" stroke-linecap="round"/>
<path d="M1134.91 359.985C1134.98 359.766 1135.05 359.547 1135.2 359.361C1136.16 358.15 1138.88 358.733 1145.35 358.622C1147.76 358.58 1148.91 357.995 1149.94 357.775C1150.86 357.581 1153.61 357.331 1155.73 357.148C1157.9 356.959 1158.93 356.743 1161.44 356.631C1164.38 356.5 1168.08 356.301 1170.1 356.189C1171.4 355.931 1172.28 355.637 1174.63 355.525C1175.16 355.489 1175.38 355.416 1175.82 355.341" stroke="white" stroke-width="34" stroke-linecap="round"/>
<path d="M1177.81 355.12L1178.92 354.898" stroke="white" stroke-width="34" stroke-linecap="round"/>
<path d="M1174.94 355.341H1176.93" stroke="white" stroke-width="34" stroke-linecap="round"/>
<path d="M1174.27 355.341L1173.39 355.12" stroke="white" stroke-width="34" stroke-linecap="round"/>
<path d="M1170.29 354.677H1172.06" stroke="white" stroke-width="34" stroke-linecap="round"/>
<path d="M1169.85 354.677C1169.56 354.677 1169.27 354.677 1167.77 354.677C1166.27 354.677 1163.57 354.677 1162.07 354.714C1160.56 354.75 1160.35 354.823 1159.9 354.898" stroke="white" stroke-width="34" stroke-linecap="round"/>
<path d="M1159.01 355.12C1156.36 355.856 1155.33 356.15 1153.97 356.262C1152.6 356.374 1151.28 356.739 1150.39 357.109C1149.42 357.516 1148.04 357.477 1147.08 357.809C1145.96 358.193 1144.64 358.362 1143.39 358.657C1142.28 358.92 1141.11 359.246 1139.3 359.872C1137.66 359.985 1136.39 360.058 1135.8 360.169C1135.5 360.206 1135.21 360.206 1134.91 360.206" stroke="white" stroke-width="34" stroke-linecap="round"/>
<path d="M1128.94 358.216C1128.94 358.435 1128.94 358.654 1129.05 358.73C1129.71 359.189 1130.7 358.07 1132.21 357.738C1134.9 357.331 1136.53 357.258 1137.3 357.148C1137.78 357.11 1138.43 357.11 1139.11 357.11" stroke="white" stroke-width="34" stroke-linecap="round"/>
<path d="M1180.25 354.014C1180.25 353.868 1180.32 353.574 1180.54 353.205C1180.69 353.056 1180.9 352.983 1181.16 352.946C1181.42 352.908 1181.71 352.908 1182.24 352.687" stroke="white" stroke-width="34" stroke-linecap="round"/>
<path d="M1193.74 354.235C1195.06 354.235 1196.53 354.089 1197.42 353.721C1197.57 353.574 1197.64 353.355 1197.68 353.096C1197.72 352.837 1197.72 352.545 1198.16 352.023" stroke="white" stroke-width="34" stroke-linecap="round"/>
<path d="M410.169 546.422C411.045 545.328 411.921 544.233 414.561 543.669C417.202 543.105 421.581 543.105 424.019 543.141C427.495 543.193 428.594 543.472 429.258 543.657C429.808 543.809 427.574 542.959 425.622 542.407C422.631 541.705 421.671 541.484 421.157 541.373C420.862 541.336 420.497 541.336 420.121 541.336" stroke="white" stroke-width="34" stroke-linecap="round"/>
<path d="M398.447 540.009C399.036 539.348 399.624 538.465 399.921 537.579C400.23 536.66 399.482 535.59 399.148 534.668C398.757 533.588 398.89 532.348 398.486 531.387C398.019 530.275 396.537 529.03 395.061 528.069C394.14 527.469 393.219 526.598 392.295 525.82C391.535 525.182 390.857 524.532 390.047 523.646C389.268 522.795 389.013 521.878 388.461 521.065C388.328 520.869 388.057 520.843 388.127 520.988C388.737 522.256 390.185 522.387 391.109 523.014C391.81 523.716 392.693 524.302 393.506 524.821C393.655 524.968 393.728 525.187 394.245 525.412" stroke="white" stroke-width="34" stroke-linecap="round"/>
<path d="M395.793 529.172C397.412 530.866 398.297 531.6 399.108 532.23C399.981 532.908 401.243 533.52 402.204 533.999C403.051 534.421 403.972 534.626 405.041 535.105C406.172 535.611 407.51 536.32 408.543 536.947C409.414 537.476 410.164 537.943 412.075 538.569C412.852 538.823 414.052 538.682 414.508 538.572C414.964 538.463 414.672 538.244 414.375 538.095C413.342 537.574 412.46 536.988 411.463 536.472C410.398 535.923 409.731 535.218 409.029 534.556C408.333 533.899 407.152 533.524 406.191 533.117C405.306 532.565 404.423 532.122 403.537 531.827C403.315 531.753 403.096 531.68 402.207 531.605" stroke="white" stroke-width="34" stroke-linecap="round"/>
<path d="M401.544 531.826C401.544 531.753 401.544 531.68 401.434 531.606C401.325 531.532 401.106 531.459 400.993 531.275C400.88 531.092 400.88 530.8 400.88 530.499" stroke="white" stroke-width="34" stroke-linecap="round"/>
<path d="M440.247 561.682C441.571 557.483 442.162 556.6 442.861 556.082C443.051 555.94 443.192 555.716 443.231 555.457C443.394 554.368 442.387 553.504 441.76 552.655C441.158 551.839 439.884 551.368 438.959 550.407C438.577 550.009 438.258 549.667 438.073 549.593C437.242 549.262 439.8 550.328 440.686 550.66C441.69 551.036 442.675 551.726 443.524 552.428C444.372 553.129 444.962 554.305 445.772 555.045C446.558 555.764 447.54 556.224 448.61 556.631C449.582 557.001 450.561 557.405 451.559 557.737C452.11 557.994 452.702 558.217 453.254 558.4C453.514 558.511 453.733 558.657 453.958 558.807" stroke="white" stroke-width="34" stroke-linecap="round"/>
<path d="M454.401 558.807C454.547 557.932 454.622 556.97 454.512 556.123C454.438 555.544 453.885 555.271 453.629 554.939C453.009 554.138 451.897 554.167 450.903 553.722C449.996 553.315 449.097 552.765 448.357 552.357C447.754 552.024 449.531 553.716 450.637 554.529C451.675 555.292 452.848 555.636 454.652 556.482C455.777 557.01 456.975 557.405 457.936 557.737C458.888 558.066 459.704 558.657 460.773 559.211C461.697 559.617 463.017 559.913 464.239 559.987C464.426 559.915 464.499 559.696 463.91 559.471" stroke="white" stroke-width="34" stroke-linecap="round"/>
<path d="M460.593 556.375H460.814" stroke="white" stroke-width="34" stroke-linecap="round"/>
<path d="M460.814 556.375V556.153" stroke="white" stroke-width="34" stroke-linecap="round"/>
<path d="M17.611 354.235C13.1148 348.487 12.5287 347.313 11.6065 345.506C10.893 344.108 9.9456 343.624 9.68684 341.935C8.93727 337.044 9.8704 336.25 9.76093 335.735C9.54895 334.737 7.81362 334.627 6.96105 333.928C6.557 333.597 6.25887 333.227 6.03882 332.822C5.92564 332.614 5.6728 332.491 6.47229 332.415C11.3924 331.953 13.9088 332.561 15.6526 332.158C17.0912 331.825 18.8539 331.385 20.2605 331.198C21.3685 330.94 22.3969 330.646 23.9782 330.387C24.8208 330.35 26.2804 330.35 27.7843 330.35" stroke="white" stroke-width="34" stroke-linecap="round"/>
<path d="M14.0723 329.686C13.3425 329.832 12.3827 329.907 11.3886 329.98C10.9783 330.053 10.7594 330.199 10.2087 330.275C9.658 330.35 8.78221 330.35 7.87988 330.35" stroke="white" stroke-width="34" stroke-linecap="round"/>
<path d="M38.8423 336.1C39.1342 335.808 39.5765 335.366 40.0553 334.814C40.4124 334.402 40.3904 333.818 40.2809 333.302C40.0796 332.355 39.2138 331.681 38.4033 331.199C38.1899 331.072 37.9621 330.942 38.5426 330.867C42.1275 330.403 44.6455 331.013 46.6149 331.233C48.0745 331.396 49.2323 331.823 50.3746 332.118C51.6584 332.45 52.5497 332.853 54.5368 333.26C55.7228 333.503 56.9685 334.034 58.2258 334.366C60.0866 334.857 61.5421 335.507 62.7231 335.878C63.9034 336.248 65.5185 336.542 66.9616 336.799C69.2184 337.2 72.4497 337.573 76.6074 337.868C78.8005 338.024 80.5574 338.236 84.1291 338.348C85.5723 338.393 89.5276 338.533 94.7237 338.606C96.5627 338.679 96.7816 338.825 97.0404 338.9C97.2991 338.975 97.591 338.975 97.8918 338.975" stroke="white" stroke-width="34" stroke-linecap="round"/>
<path d="M101.651 336.763L102.094 335.658" stroke="white" stroke-width="34" stroke-linecap="round"/>
<path d="M97.6706 334.331C97.0138 334.258 96.3569 334.185 93.4642 334.147C90.5714 334.109 85.4626 334.109 82.7213 334.073C79.239 334.027 78.213 333.742 77.1072 333.447C75.9993 333.151 74.9708 332.712 73.3862 332.158C71.8401 331.617 70.0345 331.31 68.189 331.198C66.2716 331.082 63.6165 330.867 59.2066 330.829C57.9369 330.817 54.3565 331.013 49.2345 331.05C45.0484 331.08 40.9123 331.088 38.9605 330.977C37.4358 330.889 36.4139 330.646 34.4268 330.534C33.9789 330.498 33.76 330.425 33.4647 330.387C33.1695 330.35 32.8046 330.35 32.4286 330.35" stroke="white" stroke-width="34" stroke-linecap="round"/>
<path d="M47.9098 329.244V329.465" stroke="white" stroke-width="34" stroke-linecap="round"/>
<path d="M62.7274 330.571C65.2309 331.675 66.6994 332.265 68.9099 332.891C71.6895 333.678 76.3243 333.225 79.0899 332.968C80.093 332.875 81.004 332.194 81.9296 332.156C83.2211 332.102 78.2882 332.194 76.8142 332.046C75.8599 331.827 75.0416 331.604 74.4168 331.493C74.084 331.456 73.719 331.456 73.3431 331.456" stroke="white" stroke-width="34" stroke-linecap="round"/>
<path d="M195.865 399.573C196.675 393.603 197.117 392.429 197.596 391.393C198.061 390.387 198.59 389.037 199.841 387.197C201.478 384.788 201.173 383.362 200.806 382.069C200.327 380.381 202.421 378.421 203.345 377.35C204.629 375.864 205.588 372.755 206.002 370.277C206.247 368.817 205.375 367.805 205.266 366.884C205.12 365.656 202.505 366.253 201.068 365.774C199.673 365.309 198.081 364.337 197.159 363.931C195.997 363.418 194.985 362.935 194.026 362.64C193.731 362.566 193.366 362.493 193.069 362.419C192.771 362.345 192.552 362.272 192.106 362.197" stroke="white" stroke-width="34" stroke-linecap="round"/>
<path d="M191.442 362.197C186.212 360.945 184.741 360.503 183.485 360.207C182.231 359.913 181.052 359.618 179.579 359.286C178.291 358.996 177.292 358.733 175.563 358.585C172.12 358.29 167.491 356.376 166.418 356.042C165.381 355.719 164.465 355.27 163.396 354.9C162.457 354.574 160.714 353.943 158.607 353.389C157.139 353.003 155.548 352.32 154.512 351.988C153.52 351.67 152.377 351.289 149.985 350.772C148.134 350.371 147.069 350.475 146.035 350.219C144.687 349.884 143.676 349.666 142.241 349.334C140.328 348.892 138.89 348.193 137.118 347.786C134.978 347.295 133.653 347.158 132.066 346.754C130.979 346.478 128.505 345.689 126.463 345.205C125.343 344.939 124.143 344.8 123.034 344.505C121.341 344.064 118.84 343.473 117.395 343.362C117.135 343.325 116.916 343.252 116.469 343.177" stroke="white" stroke-width="34" stroke-linecap="round"/>
<path d="M115.142 341.85C115.069 341.189 114.921 340.16 114.628 339.236C114.331 338.299 112.789 338.387 112.012 337.724C111.283 337.104 110.5 336.839 110.241 336.763C109.31 336.493 111.378 338.236 112.08 338.899C113.061 339.824 117.106 340.957 119.34 341.444C120.661 341.733 122.14 341.996 123.101 342.475C124.053 342.949 126.333 343.319 129.03 344.023C130.187 344.325 131.207 344.65 132.168 345.129C133.015 345.551 133.936 345.902 135.006 346.272C136.534 346.802 139.019 347.892 141.231 348.446C142.493 348.762 143.813 348.927 144.957 349.257C145.945 349.732 146.985 350.252 148.013 350.584C148.604 350.696 149.334 350.696 150.307 350.918" stroke="white" stroke-width="34" stroke-linecap="round"/>
<path d="M135.268 345.389C137.329 345.389 138.36 345.243 139.245 345.46C140.321 345.725 141.013 346.565 141.899 347.229C142.121 347.45 142.34 347.742 142.198 347.819C142.055 347.897 141.544 347.751 141.018 347.6" stroke="white" stroke-width="34" stroke-linecap="round"/>
<path d="M120.229 341.408C119.645 341.262 119.125 340.968 118.903 340.526C118.803 340.328 119.119 340.085 119.414 339.972C119.709 339.86 120.074 339.86 120.335 339.969C121.299 340.373 121.994 341.111 122.879 341.443C123.102 341.554 123.321 341.7 123.543 341.848C123.765 341.996 123.984 342.142 124.21 342.735" stroke="white" stroke-width="34" stroke-linecap="round"/>
<path d="M150.97 350.475C150.313 350.402 149.656 350.329 149.391 350.182C149.126 350.035 149.271 349.816 149.274 349.594C149.276 349.372 149.13 349.153 148.537 348.927" stroke="white" stroke-width="34" stroke-linecap="round"/>
<path d="M170.653 356.447C170.653 356.082 170.653 355.717 170.763 355.492C170.957 355.094 171.609 355.12 171.941 355.156C172.869 355.258 169.406 355.195 168.225 354.679C167.074 354.177 166.234 353.647 165.312 353.351C164.035 352.943 162.696 352.541 161.774 352.209C160.63 351.729 159.819 351.435 159.377 351.141C159.155 350.993 158.936 350.847 158.268 350.696" stroke="white" stroke-width="34" stroke-linecap="round"/>
<path d="M219.972 377.236C224.172 379.078 226.952 380.54 228.778 381.877C230.259 382.96 231.247 385.781 232.169 386.888C233.402 388.369 234.197 389.612 235.338 390.907C236.136 391.812 237.143 393.15 238.031 394.114C238.879 395.036 239.359 396.251 240.24 397.649C241.828 400.168 242.013 401.554 243.079 403.876C243.527 404.854 244.731 407.22 247.01 410.971C249.266 414.684 250.786 416.6 251.444 417.953C253.015 421.186 254.762 423.967 255.719 425.474C257.596 428.431 259.183 431.477 260.44 433.368C261.469 434.918 262.797 436.573 263.795 437.682C264.999 439.021 266.774 440.916 268.107 442.29C268.972 443.18 270.166 444.605 271.13 445.975C271.643 446.454 273.696 448.869 277.444 453.683C279.442 456.307 281.631 459.299 283.887 462.382" stroke="white" stroke-width="34" stroke-linecap="round"/>
<path d="M361.735 517.451C354.874 510.59 350.975 506.691 350.094 505.737C347.956 503.422 347.218 501.978 346.257 500.794C345.236 499.536 344.71 498.214 343.31 496.007C342.506 494.74 341.76 493.72 340.582 492.28C339.375 490.804 337.708 489.514 337.041 488.74C335.998 487.528 334.024 486.643 332.804 485.754C331.644 484.909 330.777 483.839 329.157 482.549C327.747 481.427 326.208 480.154 324.55 478.827C322.612 477.276 321.785 476.465 320.457 474.81C319.747 473.926 318.396 472.931 317.249 471.859C316.68 471.327 315.813 470.131 314.856 468.658C314.294 467.795 311.558 465.06 307.322 461.046C305.032 458.877 303.873 457.229 302.438 455.868C299.789 453.356 296.577 450.523 294.179 448.713C291.847 446.952 290.084 444.694 289.601 443.808C289.102 442.891 288.606 442.04 287.944 440.603C287.473 439.582 286.253 437.555 285.217 435.7C284.369 434.183 283.298 432.53 280.145 429.261C277.409 426.425 274.167 424.499 272.216 422.916C270.085 421.186 268.122 420.441 266.201 418.893C264.509 417.531 262.664 416.606 260.855 415.353C258.775 413.913 255.512 411.666 254.659 410.892C253.809 410.12 252.345 408.795 250.608 407.245C249.534 406.287 247.484 404.376 245.926 403.445C243.646 402.083 241.283 400.608 240.03 399.982C237.392 398.664 236.271 397.295 234.648 395.561C234.276 395.225 233.984 395.079 233.761 394.894C233.538 394.709 233.392 394.49 233.241 394.265" stroke="white" stroke-width="34" stroke-linecap="round"/>
<path d="M218.424 384.534C218.718 381.661 218.866 380.341 219.05 378.863C219.277 377.03 218.866 375.404 218.499 373.555C218.369 372.9 218.278 372.372 217.984 371.931C217.689 371.49 217.32 371.191 216.879 371.044C216.657 370.97 216.438 370.897 216.212 370.822" stroke="white" stroke-width="34" stroke-linecap="round"/>
<path d="M212.673 369.716V369.495" stroke="white" stroke-width="34" stroke-linecap="round"/>
<path d="M212.673 369.495V369.274" stroke="white" stroke-width="34" stroke-linecap="round"/>
<path d="M244.299 390.726C244.372 390.726 244.445 390.726 244.702 390.726C244.958 390.726 245.396 390.726 245.626 390.505" stroke="white" stroke-width="34" stroke-linecap="round"/>
<path d="M227.934 380.995C228.374 380.555 229.037 380.038 229.405 379.818C229.585 379.71 229.628 379.451 229.519 379.302C228.937 378.5 227.717 378.346 226.868 377.827C226.166 377.162 225.503 376.868 225.025 376.611C224.767 376.499 224.475 376.426 224.174 376.351" stroke="white" stroke-width="34" stroke-linecap="round"/>
<path d="M237.222 387.63C237.295 387.849 237.368 388.068 237.515 388.108C237.662 388.148 237.881 388.002 238.031 387.817C238.32 387.459 238.328 386.896 238.292 386.344C237.888 385.348 237.224 384.609 236.783 384.315C236.561 384.167 236.342 384.021 235.895 383.649" stroke="white" stroke-width="34" stroke-linecap="round"/>
<path d="M272.608 415.054C272.389 414.981 272.17 414.908 271.948 414.797C271.725 414.687 271.506 414.541 271.394 414.283C271.281 414.025 271.281 413.661 271.281 413.285" stroke="white" stroke-width="34" stroke-linecap="round"/>
<path d="M266.857 409.082L265.309 408.419" stroke="white" stroke-width="34" stroke-linecap="round"/>
<path d="M263.098 407.313L262.213 406.65" stroke="white" stroke-width="34" stroke-linecap="round"/>
<path d="M255.136 401.563C256.24 401.636 256.976 401.784 257.418 401.638C257.617 401.573 257.569 401.2 257.459 400.977C257.031 400.102 256.096 400.017 255.948 399.868C255.091 399.005 257.489 401.855 258.303 402.629C259.45 403.72 259.409 406.203 259.999 407.089C260.59 407.974 261.324 408.711 262.246 409.082C262.797 408.72 263.171 408.127 263.391 407.648C263.538 407.461 263.757 407.388 263.982 407.313" stroke="white" stroke-width="34" stroke-linecap="round"/>
<path d="M281.454 420.362C282.622 420.8 283.442 421.171 283.811 421.502C284.153 421.81 284.181 422.423 284.182 422.938C284.183 423.173 283.891 423.307 283.669 423.31C282.68 423.32 281.755 422.281 281.161 421.544C280.519 420.747 278.955 420.145 277.919 419.516C277.058 418.993 276.151 418.446 275.411 417.895C275.251 417.775 275.408 417.491 275.555 417.451C275.702 417.411 275.921 417.557 276.07 417.742C276.713 418.537 276.956 419.694 277.104 421.167C277.23 422.423 277.84 423.378 278.539 424.523C279.246 425.68 280.932 426.55 281.71 427.362C282.371 428.054 283.586 428.54 284.731 429.242C285.758 429.873 286.536 430.606 287.789 431.38C288.852 432.036 289.854 432.671 290.556 433.407C291.336 434.224 291.844 435.175 293.097 436.428C293.988 437.319 294.644 438.271 295.348 439.157C296.077 440.073 296.639 441.367 297.301 442.473C298.03 443.69 298.996 444.906 299.77 445.828C300.568 446.779 300.987 447.781 301.761 448.703C302.792 449.932 303.787 451.687 305.223 453.051C306.624 454.382 307.843 455.964 310.561 459.088C312.948 461.831 314.181 462.674 315.251 463.852C316.252 464.954 317.423 466.137 318.311 467.207C318.908 467.924 320.586 469.446 321.959 470.672C323.707 472.232 325.46 474.174 325.979 474.985C326.852 476.349 328.773 478.443 330.032 479.702C330.566 480.237 331.865 482.709 334.366 486.205C337.671 490.825 340.349 492.23 341.789 493.597C342.964 494.714 343.963 495.476 345.547 496.621C346.885 497.587 347.797 498.135 349.012 498.796C351.709 500.265 354.198 501.885 356.678 503.035C357.088 503.221 357.307 503.367 357.639 503.442C357.971 503.518 358.409 503.518 358.86 503.518" stroke="white" stroke-width="34" stroke-linecap="round"/>
<path d="M313.964 479.632C317.129 478.456 318.896 477.425 319.932 476.943C320.879 476.502 321.409 475.656 322.18 474.807C323.041 473.86 323.987 473.223 324.761 472.154C325.416 471.249 325.978 470.348 326.568 469.462C326.716 469.24 326.862 469.021 327.011 468.799C327.159 468.577 327.305 468.358 327.455 467.469" stroke="white" stroke-width="34" stroke-linecap="round"/>
<path d="M339.177 492.017C341.386 491.502 342.268 491.208 343.338 491.096C343.599 491.069 343.817 490.987 343.966 490.84C344.601 490.214 344.63 489.147 344.853 488.261C345.089 487.32 344.414 486.271 344.007 485.386C343.586 484.47 342.941 483.472 342.459 482.511C341.99 481.577 341.317 480.743 340.69 479.857C339.922 478.772 338.739 477.867 337.853 477.238C336.951 476.598 335.864 475.802 335.014 474.991C334.202 474.216 333.21 473.444 332.288 472.595C331.737 472.263 331.217 471.967 330.776 471.673C330.554 471.525 330.335 471.379 329.888 471.007" stroke="white" stroke-width="34" stroke-linecap="round"/>
<path d="M375.226 512.364C373.021 512.585 371.249 512.293 370.327 511.739C369.239 511.085 368.153 510.303 367.34 509.492C366.701 508.855 366.233 508.02 365.755 507.059C365.302 506.151 364.836 504.924 364.023 504.33C363.343 503.834 362.478 502.934 361.335 501.974C359.434 500.378 358.789 499.541 357.648 498.288C356.539 497.071 355.105 495.414 354.182 494.6C353.104 493.649 352.23 493.052 351.307 492.572C350.011 491.898 349.5 490.695 348.763 489.993C348.614 489.808 348.541 489.589 348.357 489.33C348.173 489.071 347.882 488.78 347.36 488.479" stroke="white" stroke-width="34" stroke-linecap="round"/>
<path d="M357.533 522.98C359.667 522.17 360.992 521.728 361.989 521.176C363.184 520.515 363.796 519.445 364.24 518.596C364.711 517.694 365.42 517.013 366.082 516.311C366.721 515.633 367.189 514.801 367.888 514.099C368.588 513.396 369.471 512.957 370.137 512.146C370.788 511.353 371.094 510.378 371.392 509.492C371.463 509.281 371.32 509.051 371.136 508.902C370.313 508.232 369.405 507.945 368.778 507.132C368.374 506.91 367.93 506.762 367.488 506.578C367.266 506.468 367.047 506.322 366.379 505.95" stroke="white" stroke-width="34" stroke-linecap="round"/>
<path d="M297.82 453.978C297.674 452.956 297.818 452.138 298.478 451.367C300.375 449.152 303.26 449.117 304.856 448.855C305.341 448.775 306.071 448.67 306.772 448.56C307.576 448.435 306.224 446.759 305.527 445.945C304.493 444.737 303.499 443.809 302.762 443.107C302.087 442.464 301.655 441.597 301.139 440.712C300.612 439.805 299.885 439.165 299.334 438.279C298.711 437.28 297.824 436.511 296.866 435.735C295.546 434.669 294.949 433.782 294.1 432.971C293.323 432.23 292.516 431.424 291.447 430.391C290.968 430.022 290.524 429.652 290.083 429.284C289.86 429.135 289.641 429.062 289.416 428.766" stroke="white" stroke-width="34" stroke-linecap="round"/>
<path d="M329.224 478.084C326.719 474.99 326.133 473.962 325.687 473.001C325.294 472.154 325.244 469.919 325.611 468.283C325.887 467.051 324.877 466.146 324.031 465.04C323.297 464.081 323.107 463.05 322.445 461.98C321.953 461.187 321.338 460.617 320.53 459.658C319.45 458.378 318.538 457.963 317.764 457.261C316.982 456.552 316.548 455.53 315.884 454.608C314.955 453.317 313.894 452.434 313.083 451.585C312.342 450.808 311.536 450.147 310.65 449.593C309.851 449.093 308.957 448.524 307.997 448.045C307.124 447.611 306.228 447.051 305.343 446.461C304.337 445.79 303.645 444.912 303.534 444.544C303.489 444.398 303.787 444.322 303.973 444.394C304.827 444.724 305.556 445.277 306.442 445.756C306.661 445.874 306.883 445.941 306.959 445.869C307.171 445.67 306.45 445.207 305.931 444.471C305.6 444.003 305.193 443.586 305.118 443.363C304.783 442.374 306.662 444.76 309.31 447.406C310.403 448.498 310.939 449.55 311.566 450.436C312.312 451.489 313.075 452.792 314.365 454.12C315.368 455.154 316.172 455.818 317.057 456.555C317.751 457.133 318.383 457.808 319.196 458.435C319.886 458.968 320.449 459.724 321.223 460.426C322.073 461.197 323.174 462.448 324.649 463.668C325.536 464.518 326.493 465.252 327.119 466.025C327.38 466.361 327.526 466.579 327.676 466.805" stroke="white" stroke-width="34" stroke-linecap="round"/>
<path d="M50.6746 525.137C42.9809 542.725 39.3157 550.056 38.0224 555.389C37.7684 556.436 36.3879 556.682 35.2818 556.143C28.8273 552.996 27.9348 543.87 23.5432 535.081C19.4292 526.848 20.2302 520.404 18.9424 513.607C17.3992 505.462 17.6546 500.218 17.1098 495.634C16.5236 490.701 9.59774 490.29 7.2148 489.916C6.23233 489.761 5.92152 491.721 6.27924 493.377C7.87372 500.761 13.2299 508.935 18.37 519.964C21.2945 526.238 22.0573 550.958 20.2302 565.845C19.6857 570.281 18.7553 574.645 14.9195 579.966C13.6262 582.349 12.5255 584.562 11.2432 585.486C10.6874 585.321 10.3242 583.868 9.94996 582.371" stroke="white" stroke-width="34" stroke-linecap="round"/>
<path d="M18.7553 551.553C14.3967 558.817 11.7881 563.649 11.2378 566.208C11.0507 569.494 10.6875 572.454 10.1371 575.014C9.95001 576.483 9.95001 578.299 11.0507 580.17" stroke="white" stroke-width="34" stroke-linecap="round"/>
<path d="M20.9567 586.774C22.0463 588.227 23.136 589.68 24.2422 590.61C25.3483 591.54 26.438 591.903 27.5441 592.454C28.6503 593.004 29.74 593.73 31.9633 592.277" stroke="white" stroke-width="34" stroke-linecap="round"/>
<path d="M133.224 593.378H138.728" stroke="white" stroke-width="34" stroke-linecap="round"/>
<path d="M145.332 594.479C146.421 594.842 147.511 595.205 153.339 595.392C159.167 595.58 169.701 595.58 181.654 593.378" stroke="white" stroke-width="34" stroke-linecap="round"/>
<path d="M1185.46 481.11C1186.91 480.384 1188.37 479.657 1189.66 478.92C1190.95 478.183 1192.04 477.456 1193.51 477.082C1194.98 476.708 1196.8 476.708 1198.67 476.708" stroke="white" stroke-width="34" stroke-linecap="round"/>
<path d="M1176.65 526.238C1181.42 536.133 1182.88 541.251 1185.27 546.947C1187.46 552.198 1189.49 558.861 1190.23 564.557C1190.88 569.61 1193.89 573.544 1193.72 579.598C1193.65 582.199 1190.6 583.461 1189.51 585.294C1188.41 587.123 1185.11 586.774 1182.54 587.319C1181.33 587.576 1180.71 588.953 1180.88 589.878C1182.14 591.529 1184.35 592.277 1186.54 592.459C1187.65 592.641 1188.74 593.004 1192.06 593.378" stroke="white" stroke-width="34" stroke-linecap="round"/>
<path d="M834.832 447.341C830.351 444.074 829.868 442.624 829.383 441.169C828.885 439.674 828.051 438.264 827.746 436.809C827.67 436.447 828.044 436.084 827.988 436.018C827.124 435.015 825.391 437.406 823.754 438.916C822.602 439.98 821.634 441.156 820.302 441.949C819.578 442.37 818.847 442.737 818.302 442.679C818.117 442.501 818.117 442.021 817.753 441.164" stroke="white" stroke-width="34" stroke-linecap="round"/>
<path d="M676.929 270.5C673.497 312 603.182 376.5 523.929 376.5C444.676 376.5 355.929 319 366.929 249C372.929 179.5 434.929 117 523.929 117C611.429 121 683.38 192.5 676.929 270.5Z" fill="#2CA8E1"/>
<path d="M595.368 289.5C595.368 320.98 563.581 346.5 524.368 346.5C485.156 346.5 449 320.98 449 289.5C449 258.02 485.156 229 524.368 229C563.581 229 595.368 258.02 595.368 289.5Z" fill="white"/>
<path d="M553 269C553 278.113 535.912 294 521 294C506.088 294 490 278.113 490 269C490 259.887 506.088 259 521 259C535.912 259 553 259.887 553 269Z" fill="#001320"/>
<ellipse cx="607.5" cy="241" rx="12.5" ry="18" fill="#001420"/>
<ellipse cx="438.5" cy="241" rx="12.5" ry="18" fill="#00131E"/>
<path d="M522 294V304" stroke="black" stroke-width="2" stroke-linecap="round" stroke-linejoin="round"/>
<path d="M491 304.5V304.5C496.933 315.179 511.835 316.35 519.363 306.73L521.5 304" stroke="black" stroke-width="2" stroke-linecap="round" stroke-linejoin="round"/>
<path d="M552.5 304.5V304.5C546.567 315.179 531.665 316.35 524.137 306.73L522 304" stroke="black" stroke-width="2" stroke-linecap="round" stroke-linejoin="round"/>
<path d="M661.861 89C697.754 89.601 726.365 119.186 725.764 155.079C725.27 184.588 705.186 209.172 678.112 216.651C666.849 179.484 638.591 146.99 601.474 127.333C611.812 104.366 635.08 88.5516 661.861 89Z" fill="#2CA8E1"/>
<path d="M378.991 89C343.097 89.601 314.487 119.186 315.088 155.079C315.582 184.588 335.666 209.172 362.74 216.651C374.003 179.484 402.26 146.99 439.378 127.333C429.04 104.366 405.772 88.5516 378.991 89Z" fill="#2CA8E1"/>
<path fill-rule="evenodd" clip-rule="evenodd" d="M361.927 393.799L364.525 394.053L425.524 399.995L404.653 428.718L361.927 393.799Z" fill="white"/>
<path fill-rule="evenodd" clip-rule="evenodd" d="M364.525 394.053L361.927 393.799L376.367 382.742L378.384 383.505L364.525 394.053Z" fill="white"/>
<path fill-rule="evenodd" clip-rule="evenodd" d="M378.384 383.505L376.367 382.742L379.912 376.127L380.034 378.144L380.402 384.268L378.384 383.505Z" fill="white"/>
<path fill-rule="evenodd" clip-rule="evenodd" d="M380.402 384.268L386.628 381.314L388.61 380.374L391.221 381.761L425.524 399.995L380.402 384.268Z" fill="white"/>
<path fill-rule="evenodd" clip-rule="evenodd" d="M409.365 375.435L417.932 378.4L421.954 379.792L438.04 385.359L439.963 386.024L425.524 399.995L410.389 376.992L409.365 375.435Z" fill="white"/>
<path fill-rule="evenodd" clip-rule="evenodd" d="M380.034 378.144L379.912 376.127L388.61 380.374L386.628 381.314L380.034 378.144Z" fill="white"/>
<path fill-rule="evenodd" clip-rule="evenodd" d="M391.221 381.761L388.61 380.374L409.365 375.435L410.389 376.992L391.221 381.761Z" fill="white"/>
<path fill-rule="evenodd" clip-rule="evenodd" d="M421.954 379.792L417.932 378.4L436.852 376.98L439.963 386.024L438.04 385.359L435.534 378.956L421.954 379.792Z" fill="white"/>
<path d="M361.927 393.799L364.525 394.053M361.927 393.799L404.653 428.718L425.524 399.995M361.927 393.799L376.367 382.742M364.525 394.053L425.524 399.995M364.525 394.053L378.384 383.505M425.524 399.995L391.221 381.761M425.524 399.995L380.402 384.268M425.524 399.995L439.963 386.024M425.524 399.995L410.389 376.992M376.367 382.742L378.384 383.505M376.367 382.742L379.912 376.127M378.384 383.505L380.402 384.268M379.912 376.127L380.034 378.144M379.912 376.127L388.61 380.374M380.034 378.144L380.402 384.268M380.034 378.144L386.628 381.314M380.402 384.268L386.628 381.314M386.628 381.314L388.61 380.374M388.61 380.374L391.221 381.761M388.61 380.374L409.365 375.435M391.221 381.761L410.389 376.992M409.365 375.435L417.932 378.4M409.365 375.435L410.389 376.992M417.932 378.4L421.954 379.792M417.932 378.4L436.852 376.98L439.963 386.024M421.954 379.792L438.04 385.359M421.954 379.792L435.534 378.956L438.04 385.359M438.04 385.359L439.963 386.024" stroke="#F3F3F3"/>
<path d="M378.557 426L379.241 428.874L382.072 429.695L379.241 430.353L378.526 433.063L377.82 430.353L375 429.719L377.82 428.874L378.557 426Z" fill="white"/>
<path d="M390.295 454.297C389.846 454.297 389.383 454.271 388.906 454.219C388.429 454.174 387.97 454.106 387.528 454.015C387.085 453.918 386.674 453.811 386.294 453.695C386.243 453.679 386.194 453.663 386.145 453.647C385.652 453.483 385.377 452.988 385.416 452.471L385.47 451.762C385.512 451.198 386.111 450.854 386.636 451.062C387.002 451.205 387.369 451.325 387.735 451.422C388.101 451.519 388.46 451.593 388.813 451.645C389.172 451.697 389.514 451.723 389.839 451.723C390.474 451.723 390.979 451.642 391.352 451.48C391.732 451.318 392.005 451.098 392.17 450.82C392.343 450.541 392.429 450.23 392.429 449.887C392.429 449.272 392.198 448.835 391.735 448.576C391.272 448.317 390.585 448.187 389.673 448.187C389.32 448.187 389.006 448.187 388.73 448.187C388.272 448.187 387.901 447.816 387.901 447.358V446.607C387.901 446.24 388.198 445.943 388.564 445.943C388.799 445.943 389.075 445.943 389.393 445.943C390.022 445.943 390.533 445.863 390.927 445.701C391.327 445.539 391.625 445.322 391.818 445.05C392.011 444.778 392.108 444.48 392.108 444.156C392.108 443.774 392.001 443.463 391.787 443.224C391.58 442.978 391.293 442.796 390.927 442.68C390.567 442.563 390.156 442.505 389.694 442.505C389.396 442.505 389.089 442.531 388.771 442.583C388.46 442.628 388.136 442.706 387.797 442.816C387.458 442.919 387.11 443.059 386.75 443.233C386.23 443.482 385.577 443.193 385.495 442.622L385.391 441.9C385.317 441.387 385.567 440.877 386.046 440.681C386.103 440.657 386.162 440.634 386.222 440.611C386.581 440.475 386.968 440.355 387.382 440.251C387.797 440.141 388.236 440.057 388.699 439.999C389.162 439.941 389.638 439.911 390.129 439.911C391.345 439.911 392.357 440.06 393.165 440.358C393.981 440.65 394.589 441.058 394.989 441.582C395.397 442.107 395.601 442.709 395.601 443.389C395.601 444.282 395.342 444.992 394.823 445.516C394.33 446.015 393.721 446.362 392.996 446.556C392.931 446.574 392.885 446.632 392.885 446.698C392.885 446.768 392.935 446.827 393.002 446.842C393.523 446.953 393.999 447.127 394.43 447.362C394.893 447.608 395.262 447.961 395.539 448.42C395.815 448.874 395.953 449.463 395.953 450.188C395.953 450.926 395.773 451.61 395.414 452.238C395.062 452.859 394.471 453.358 393.642 453.734C392.82 454.109 391.704 454.297 390.295 454.297Z" fill="white"/>
<path d="M399.779 454.044C398.838 454.044 398.074 453.281 398.074 452.34C398.074 452.185 398.074 452.031 398.074 451.878C398.074 451.179 398.074 450.395 398.074 449.528V444.826C398.074 443.933 398.074 443.127 398.074 442.408C398.074 441.185 399.066 440.193 400.289 440.193H406.464C407.233 440.193 407.857 440.817 407.857 441.587C407.857 442.357 407.233 442.981 406.464 442.981C406.165 442.981 405.86 442.981 405.546 442.981C404.731 442.981 403.771 442.981 402.665 442.981H400.977C400.579 442.981 400.336 442.544 400.546 442.206C400.816 441.773 401.484 441.964 401.484 442.474C401.484 442.621 401.484 442.767 401.484 442.913C401.484 443.632 401.484 444.438 401.484 445.332V449.528C401.484 450.395 401.484 451.179 401.484 451.878C401.484 452.031 401.484 452.185 401.484 452.34C401.484 453.281 400.721 454.044 399.779 454.044Z" fill="white"/>
<path d="M414.315 454.044C413.384 454.044 412.776 453.068 413.177 452.228C413.765 450.998 413.745 449.563 413.123 448.35L410.98 444.166C410.641 443.505 410.317 442.874 410.006 442.272C409.53 441.32 410.216 440.193 411.281 440.193H411.685C412.351 440.193 412.955 440.59 413.214 441.204C413.262 441.317 413.309 441.427 413.353 441.534C413.526 441.929 413.681 442.298 413.82 442.641C413.965 442.978 414.11 443.318 414.255 443.661C414.4 443.998 414.559 444.363 414.731 444.758L415.75 447.141C415.78 447.21 415.848 447.255 415.922 447.255C415.998 447.255 416.067 447.209 416.095 447.139L417.063 444.797C417.236 444.389 417.391 444.014 417.53 443.671C417.675 443.321 417.816 442.974 417.955 442.631C418.1 442.282 418.252 441.912 418.411 441.524C418.456 441.415 418.503 441.303 418.552 441.187C418.805 440.585 419.395 440.193 420.048 440.193C421.249 440.193 422.035 441.451 421.512 442.532C421.466 442.626 421.42 442.721 421.374 442.816C420.946 443.716 420.545 444.545 420.172 445.302L418.058 449.673C417.74 450.347 417.391 451.072 417.011 451.849C416.799 452.288 416.592 452.714 416.391 453.127C416.118 453.689 415.548 454.044 414.923 454.044H414.315Z" fill="white"/>
<path d="M379.082 461.211C379.082 461.061 379.082 460.917 379.082 460.78C379.082 460.642 379.082 460.49 379.082 460.324V460.122C379.082 460.002 379.082 459.891 379.082 459.79C379.082 459.688 379.082 459.589 379.082 459.495C379.082 459.399 379.082 459.302 379.082 459.203L379.427 459.191C379.427 459.287 379.427 459.381 379.427 459.475C379.427 459.568 379.427 459.664 379.427 459.764C379.427 459.862 379.427 459.97 379.427 460.086V460.725H379.457L379.917 460.059C380.016 459.916 380.116 459.773 380.215 459.628C380.314 459.484 380.413 459.342 380.511 459.203H380.88C380.88 459.302 380.88 459.399 380.88 459.495C380.88 459.589 380.88 459.688 380.88 459.79C380.88 459.891 380.88 460.002 380.88 460.122V460.324C380.88 460.49 380.88 460.642 380.88 460.78C380.88 460.917 380.88 461.061 380.88 461.211H380.537C380.537 461.064 380.537 460.922 380.537 460.786C380.537 460.648 380.537 460.498 380.537 460.335V459.687H380.507L380.051 460.345C379.95 460.49 379.85 460.635 379.751 460.78C379.652 460.924 379.552 461.068 379.453 461.211H379.082Z" fill="white"/>
<path d="M381.414 461.211C381.432 461.064 381.449 460.92 381.466 460.78C381.483 460.638 381.5 460.498 381.516 460.359L381.548 460.084C381.567 459.937 381.585 459.79 381.602 459.642C381.619 459.495 381.637 459.349 381.654 459.203H382.043C382.102 459.333 382.161 459.464 382.22 459.596C382.28 459.728 382.34 459.858 382.399 459.986L382.744 460.747H382.777L383.12 459.986C383.179 459.854 383.238 459.723 383.297 459.594C383.356 459.463 383.415 459.333 383.474 459.203H383.856C383.874 459.346 383.891 459.493 383.908 459.644C383.927 459.794 383.945 459.941 383.962 460.086L383.994 460.363C384.01 460.498 384.027 460.637 384.044 460.78C384.061 460.923 384.079 461.066 384.096 461.211H383.757C383.74 461.057 383.722 460.902 383.703 460.745C383.686 460.588 383.668 460.432 383.649 460.278L383.582 459.687H383.55L383.275 460.318C383.212 460.467 383.148 460.615 383.083 460.764C383.019 460.912 382.954 461.061 382.889 461.211H382.632C382.566 461.061 382.5 460.913 382.433 460.766C382.369 460.617 382.304 460.47 382.239 460.324L381.956 459.687H381.924L381.855 460.272C381.836 460.428 381.817 460.585 381.799 460.741C381.781 460.898 381.763 461.054 381.745 461.211H381.414Z" fill="white"/>
<path d="M384.802 461.255C384.743 461.255 384.691 461.244 384.648 461.221C384.607 461.198 384.574 461.167 384.551 461.128C384.528 461.089 384.517 461.043 384.517 460.99C384.517 460.911 384.542 460.847 384.594 460.8C384.646 460.753 384.715 460.729 384.802 460.729C384.862 460.729 384.913 460.74 384.955 460.762C384.997 460.783 385.029 460.813 385.052 460.853C385.076 460.892 385.089 460.938 385.089 460.99C385.089 461.068 385.063 461.133 385.011 461.182C384.961 461.231 384.891 461.255 384.802 461.255Z" fill="white"/>
<path d="M388.585 461.211C388.585 461.05 388.585 460.896 388.585 460.747C388.585 460.599 388.585 460.436 388.585 460.258V459.29C388.585 459.108 388.585 458.942 388.585 458.793C388.585 458.641 388.585 458.486 388.585 458.325H388.976C388.976 458.486 388.976 458.641 388.976 458.793C388.976 458.942 388.976 459.108 388.976 459.29V460.258C388.976 460.436 388.976 460.599 388.976 460.747C388.976 460.896 388.976 461.05 388.976 461.211H388.585ZM386.538 461.211C386.538 461.05 386.538 460.896 386.538 460.747C386.538 460.599 386.538 460.436 386.538 460.258V459.29C386.538 459.108 386.538 458.942 386.538 458.793C386.538 458.641 386.538 458.486 386.538 458.325H386.929C386.929 458.486 386.929 458.641 386.929 458.793C386.929 458.942 386.929 459.108 386.929 459.29V460.258C386.929 460.436 386.929 460.599 386.929 460.747C386.929 460.896 386.929 461.05 386.929 461.211H386.538ZM386.793 459.908V459.592H388.734V459.908H386.793Z" fill="white"/>
<path d="M389.883 461.255C389.824 461.255 389.773 461.244 389.73 461.221C389.688 461.198 389.656 461.167 389.632 461.128C389.609 461.089 389.598 461.043 389.598 460.99C389.598 460.911 389.624 460.847 389.676 460.8C389.727 460.753 389.797 460.729 389.883 460.729C389.943 460.729 389.994 460.74 390.036 460.762C390.078 460.783 390.11 460.813 390.133 460.853C390.158 460.892 390.17 460.938 390.17 460.99C390.17 461.068 390.144 461.133 390.092 461.182C390.042 461.231 389.972 461.255 389.883 461.255Z" fill="white"/>
<path d="M390.683 461.211C390.703 461.054 390.723 460.9 390.744 460.747C390.765 460.595 390.788 460.429 390.811 460.25L390.938 459.298C390.961 459.122 390.983 458.957 391.003 458.805C391.023 458.652 391.044 458.492 391.068 458.325H391.46C391.55 458.53 391.636 458.728 391.72 458.92C391.803 459.11 391.886 459.3 391.968 459.489L392.456 460.61H392.486L392.97 459.491C393.052 459.299 393.134 459.109 393.216 458.92C393.298 458.731 393.383 458.533 393.471 458.325H393.863C393.885 458.49 393.905 458.648 393.924 458.801C393.944 458.953 393.966 459.118 393.991 459.296L394.116 460.258C394.139 460.433 394.161 460.596 394.181 460.747C394.201 460.897 394.221 461.052 394.241 461.211H393.868C393.835 460.954 393.803 460.711 393.773 460.48C393.743 460.25 393.715 460.034 393.689 459.835L393.576 458.973H393.548L393.157 459.901C393.062 460.127 392.967 460.353 392.872 460.579C392.777 460.805 392.689 461.015 392.607 461.211H392.341C392.29 461.088 392.232 460.953 392.169 460.806C392.105 460.659 392.04 460.509 391.972 460.355C391.906 460.201 391.841 460.052 391.778 459.908L391.374 458.973H391.346L391.234 459.833C391.208 460.034 391.18 460.25 391.15 460.48C391.121 460.711 391.09 460.954 391.057 461.211H390.683Z" fill="white"/>
<path d="M395.036 461.255C394.977 461.255 394.926 461.244 394.883 461.221C394.841 461.198 394.809 461.167 394.786 461.128C394.763 461.089 394.751 461.043 394.751 460.99C394.751 460.911 394.777 460.847 394.829 460.8C394.881 460.753 394.95 460.729 395.036 460.729C395.096 460.729 395.148 460.74 395.189 460.762C395.231 460.783 395.263 460.813 395.286 460.853C395.311 460.892 395.323 460.938 395.323 460.99C395.323 461.068 395.297 461.133 395.245 461.182C395.195 461.231 395.125 461.255 395.036 461.255Z" fill="white"/>
<path d="M398.241 460.958L398.245 460.662H398.39C398.643 460.662 398.849 460.629 399.008 460.561C399.167 460.494 399.285 460.395 399.362 460.264C399.438 460.132 399.476 459.968 399.476 459.772C399.476 459.574 399.439 459.408 399.364 459.276C399.289 459.143 399.173 459.042 399.016 458.975C398.861 458.907 398.659 458.874 398.412 458.874H398.267L398.263 458.578H398.416C398.766 458.578 399.048 458.629 399.262 458.73C399.477 458.831 399.633 458.971 399.731 459.151C399.83 459.329 399.88 459.536 399.88 459.772C399.88 459.999 399.831 460.202 399.733 460.381C399.637 460.559 399.479 460.7 399.26 460.804C399.043 460.907 398.751 460.958 398.386 460.958H398.241ZM398.049 460.958C397.774 460.958 397.542 460.928 397.352 460.869C397.162 460.809 397.007 460.726 396.889 460.62C396.773 460.512 396.688 460.386 396.635 460.243C396.581 460.099 396.555 459.942 396.555 459.772C396.555 459.536 396.604 459.329 396.702 459.151C396.8 458.971 396.956 458.831 397.17 458.73C397.386 458.629 397.669 458.578 398.019 458.578H398.17L398.165 458.874H398.021C397.776 458.874 397.575 458.907 397.418 458.975C397.262 459.042 397.146 459.143 397.071 459.276C396.996 459.408 396.959 459.574 396.959 459.772C396.959 459.968 396.996 460.132 397.071 460.264C397.147 460.395 397.265 460.494 397.425 460.561C397.585 460.629 397.791 460.662 398.042 460.662H398.187L398.191 460.958H398.049ZM398.021 461.296C398.021 461.222 398.021 461.151 398.021 461.085C398.021 461.019 398.021 460.952 398.021 460.883L398.029 460.875C398.029 460.782 398.029 460.687 398.029 460.59C398.029 460.491 398.029 460.389 398.029 460.282V459.254C398.029 459.147 398.029 459.046 398.029 458.948C398.029 458.85 398.029 458.754 398.029 458.661L398.021 458.653C398.021 458.584 398.021 458.517 398.021 458.451C398.021 458.383 398.021 458.313 398.021 458.24H398.412C398.412 458.313 398.412 458.383 398.412 458.451C398.412 458.517 398.412 458.584 398.412 458.653L398.403 458.661C398.403 458.754 398.403 458.85 398.403 458.948C398.403 459.046 398.403 459.147 398.403 459.254V460.282C398.403 460.389 398.403 460.49 398.403 460.588C398.403 460.685 398.403 460.78 398.403 460.875L398.412 460.883C398.412 460.95 398.412 461.018 398.412 461.085C398.412 461.151 398.412 461.222 398.412 461.296H398.021Z" fill="white"/>
<path d="M401.398 461.255C401.141 461.255 400.931 461.209 400.765 461.118C400.6 461.026 400.476 460.9 400.396 460.741C400.315 460.582 400.275 460.4 400.275 460.195C400.275 459.993 400.315 459.813 400.394 459.657C400.473 459.5 400.587 459.378 400.735 459.29C400.883 459.201 401.06 459.157 401.266 459.157C401.447 459.157 401.603 459.19 401.732 459.256C401.863 459.322 401.964 459.419 402.035 459.547C402.105 459.674 402.14 459.831 402.14 460.019C402.14 460.069 402.139 460.114 402.136 460.154C402.135 460.194 402.13 460.233 402.123 460.274L401.81 460.126C401.813 460.105 401.814 460.084 401.814 460.065C401.816 460.045 401.817 460.026 401.817 460.007C401.817 459.817 401.766 459.672 401.665 459.574C401.565 459.474 401.433 459.424 401.27 459.424C401.139 459.424 401.026 459.456 400.931 459.519C400.838 459.581 400.765 459.667 400.713 459.778C400.661 459.889 400.635 460.015 400.635 460.156V460.203C400.635 460.36 400.664 460.494 400.722 460.608C400.779 460.721 400.867 460.809 400.983 460.871C401.101 460.932 401.251 460.962 401.432 460.962C401.5 460.962 401.571 460.957 401.646 460.948C401.722 460.937 401.797 460.921 401.87 460.899C401.945 460.878 402.017 460.849 402.084 460.814L402.099 461.116C402.045 461.144 401.981 461.169 401.909 461.191C401.837 461.211 401.758 461.226 401.672 461.237C401.585 461.249 401.494 461.255 401.398 461.255ZM400.424 460.274V460.035L401.905 460.023L402.123 460.1V460.274H400.424Z" fill="white"/>
<path d="M404.102 461.158C404.102 461.065 404.102 460.976 404.102 460.891C404.102 460.806 404.102 460.718 404.102 460.626C404.102 460.534 404.102 460.434 404.102 460.324V460.122C404.102 460.007 404.102 459.903 404.102 459.808C404.102 459.713 404.102 459.621 404.102 459.533C404.102 459.444 404.102 459.352 404.102 459.256L404.262 459.479H403.103L403.265 459.256C403.26 459.342 403.255 459.427 403.249 459.509C403.244 459.591 403.238 459.678 403.232 459.768C403.228 459.857 403.222 459.956 403.215 460.065C403.208 460.19 403.193 460.309 403.17 460.424C403.148 460.538 403.118 460.644 403.079 460.741C403.04 460.837 402.992 460.922 402.934 460.996L402.584 460.952C402.625 460.915 402.666 460.861 402.71 460.788C402.753 460.714 402.791 460.614 402.824 460.488C402.859 460.362 402.883 460.2 402.898 460.005C402.908 459.839 402.917 459.694 402.926 459.572C402.934 459.448 402.942 459.325 402.949 459.203H404.454C404.454 459.302 404.454 459.399 404.454 459.495C404.454 459.589 404.454 459.688 404.454 459.79C404.454 459.891 404.454 460.002 404.454 460.122V460.324C404.454 460.49 404.454 460.636 404.454 460.762C404.454 460.887 404.454 461.019 404.454 461.158H404.102ZM402.377 461.769C402.377 461.702 402.377 461.634 402.377 461.567C402.377 461.499 402.377 461.432 402.377 461.365C402.377 461.296 402.377 461.225 402.377 461.152C402.377 461.078 402.377 461.006 402.377 460.936C402.505 460.936 402.636 460.936 402.768 460.936C402.9 460.936 403.028 460.936 403.152 460.936H404.005C404.13 460.936 404.258 460.936 404.389 460.936C404.522 460.936 404.653 460.936 404.782 460.936C404.782 461.006 404.782 461.078 404.782 461.152C404.782 461.225 404.782 461.296 404.782 461.365C404.782 461.432 404.782 461.499 404.782 461.567C404.782 461.634 404.782 461.702 404.782 461.769H404.471L404.454 461.166L404.534 461.211H402.625L402.705 461.166L402.69 461.769H402.377Z" fill="white"/>
<path d="M406.164 461.255C405.987 461.255 405.831 461.227 405.695 461.17C405.562 461.112 405.449 461.034 405.359 460.936C405.268 460.837 405.199 460.724 405.151 460.598C405.105 460.469 405.082 460.335 405.082 460.195C405.082 459.994 405.125 459.816 405.212 459.661C405.3 459.504 405.423 459.381 405.583 459.29C405.744 459.2 405.936 459.155 406.157 459.155C406.329 459.155 406.481 459.181 406.613 459.234C406.745 459.286 406.858 459.36 406.95 459.454C407.042 459.549 407.112 459.659 407.159 459.786C407.207 459.912 407.23 460.048 407.23 460.195C407.23 460.393 407.187 460.573 407.101 460.733C407.015 460.894 406.891 461.021 406.732 461.116C406.573 461.209 406.384 461.255 406.164 461.255ZM406.164 460.964C406.321 460.964 406.451 460.927 406.555 460.855C406.658 460.782 406.736 460.687 406.788 460.569C406.84 460.452 406.866 460.327 406.866 460.195C406.866 460.044 406.837 459.912 406.779 459.8C406.722 459.688 406.64 459.601 406.535 459.539C406.43 459.477 406.306 459.446 406.162 459.446C406.006 459.446 405.875 459.479 405.769 459.545C405.662 459.611 405.582 459.701 405.527 459.814C405.474 459.928 405.447 460.055 405.447 460.195C405.447 460.327 405.473 460.452 405.525 460.569C405.578 460.687 405.658 460.782 405.764 460.855C405.871 460.927 406.004 460.964 406.164 460.964Z" fill="white"/>
<path d="M407.786 462C407.786 461.852 407.786 461.706 407.786 461.563C407.786 461.421 407.786 461.267 407.786 461.101V460.122C407.786 459.974 407.786 459.822 407.786 459.667C407.786 459.512 407.786 459.357 407.786 459.203L408.11 459.183L408.119 459.444H408.155C408.198 459.392 408.253 459.344 408.319 459.3C408.386 459.256 408.461 459.221 408.546 459.195C408.632 459.168 408.727 459.155 408.829 459.155C409.025 459.155 409.191 459.201 409.328 459.292C409.466 459.383 409.571 459.507 409.643 459.665C409.715 459.823 409.751 460.001 409.751 460.201C409.751 460.389 409.717 460.563 409.649 460.723C409.583 460.882 409.482 461.011 409.345 461.11C409.21 461.207 409.04 461.255 408.835 461.255C408.74 461.255 408.653 461.243 408.572 461.219C408.491 461.196 408.418 461.163 408.352 461.12C408.287 461.075 408.228 461.021 408.175 460.958H408.142V461.116C408.142 461.274 408.142 461.421 408.142 461.557C408.142 461.694 408.142 461.838 408.142 461.988L407.786 462ZM408.727 460.956C408.881 460.956 409.007 460.92 409.103 460.849C409.201 460.777 409.272 460.685 409.317 460.571C409.363 460.457 409.386 460.334 409.386 460.203C409.386 460.067 409.361 459.943 409.312 459.831C409.265 459.717 409.192 459.627 409.094 459.56C408.997 459.492 408.872 459.458 408.721 459.458C408.646 459.458 408.573 459.469 408.501 459.491C408.429 459.511 408.362 459.542 408.3 459.584C408.239 459.624 408.187 459.675 408.142 459.736V460.628C408.185 460.697 408.235 460.755 408.291 460.804C408.349 460.853 408.414 460.89 408.486 460.917C408.558 460.943 408.638 460.956 408.727 460.956Z" fill="white"/>
<path d="M411.271 461.255C411.094 461.255 410.937 461.227 410.802 461.17C410.668 461.112 410.556 461.034 410.465 460.936C410.375 460.837 410.305 460.724 410.258 460.598C410.212 460.469 410.189 460.335 410.189 460.195C410.189 459.994 410.232 459.816 410.318 459.661C410.406 459.504 410.53 459.381 410.69 459.29C410.851 459.2 411.042 459.155 411.264 459.155C411.435 459.155 411.587 459.181 411.72 459.234C411.852 459.286 411.964 459.36 412.056 459.454C412.149 459.549 412.218 459.659 412.266 459.786C412.313 459.912 412.337 460.048 412.337 460.195C412.337 460.393 412.294 460.573 412.208 460.733C412.121 460.894 411.998 461.021 411.838 461.116C411.68 461.209 411.491 461.255 411.271 461.255ZM411.271 460.964C411.427 460.964 411.558 460.927 411.661 460.855C411.765 460.782 411.843 460.687 411.895 460.569C411.946 460.452 411.972 460.327 411.972 460.195C411.972 460.044 411.943 459.912 411.886 459.8C411.828 459.688 411.747 459.601 411.642 459.539C411.537 459.477 411.412 459.446 411.268 459.446C411.113 459.446 410.982 459.479 410.875 459.545C410.769 459.611 410.688 459.701 410.634 459.814C410.58 459.928 410.554 460.055 410.554 460.195C410.554 460.327 410.58 460.452 410.631 460.569C410.685 460.687 410.765 460.782 410.871 460.855C410.978 460.927 411.111 460.964 411.271 460.964Z" fill="white"/>
<path d="M412.893 461.211C412.893 461.061 412.893 460.917 412.893 460.78C412.893 460.641 412.893 460.488 412.893 460.322V460.12C412.893 460 412.893 459.889 412.893 459.788C412.893 459.687 412.893 459.589 412.893 459.495C412.893 459.399 412.893 459.302 412.893 459.203C413.022 459.203 413.178 459.203 413.359 459.203C413.542 459.203 413.717 459.203 413.886 459.203C414.056 459.203 414.192 459.223 414.294 459.262C414.396 459.301 414.47 459.356 414.514 459.428C414.56 459.498 414.583 459.582 414.583 459.679C414.583 459.806 414.548 459.908 414.477 459.984C414.408 460.061 414.323 460.115 414.221 460.144V460.171C414.29 460.183 414.356 460.206 414.419 460.241C414.484 460.275 414.537 460.326 414.579 460.393C414.622 460.459 414.644 460.548 414.644 460.658C414.644 460.764 414.618 460.858 414.568 460.942C414.519 461.024 414.431 461.089 414.305 461.138C414.179 461.186 414.001 461.211 413.769 461.211C413.595 461.211 413.432 461.211 413.281 461.211C413.13 461.211 413.001 461.211 412.893 461.211ZM413.24 460.942H413.739C413.877 460.942 413.986 460.929 414.065 460.905C414.146 460.881 414.202 460.845 414.233 460.798C414.267 460.751 414.283 460.693 414.283 460.626C414.283 460.511 414.24 460.43 414.154 460.383C414.069 460.336 413.944 460.312 413.78 460.312H413.145V460.067H413.743C413.863 460.067 413.957 460.054 414.026 460.027C414.095 459.999 414.144 459.961 414.173 459.914C414.203 459.865 414.218 459.81 414.218 459.75C414.218 459.647 414.182 459.576 414.11 459.535C414.04 459.493 413.939 459.472 413.808 459.472H413.24C413.24 459.58 413.24 459.685 413.24 459.786C413.24 459.887 413.24 459.997 413.24 460.116V460.318C413.24 460.433 413.24 460.54 413.24 460.638C413.24 460.737 413.24 460.838 413.24 460.942Z" fill="white"/>
<path d="M416.148 461.251C415.916 461.251 415.719 461.205 415.556 461.114C415.395 461.022 415.272 460.897 415.187 460.739C415.102 460.581 415.059 460.403 415.059 460.205C415.059 460.007 415.1 459.829 415.18 459.671C415.262 459.512 415.381 459.386 415.537 459.294C415.693 459.203 415.884 459.157 416.109 459.157C416.192 459.157 416.274 459.164 416.355 459.177C416.437 459.191 416.514 459.209 416.586 459.232C416.658 459.253 416.722 459.279 416.778 459.309L416.746 459.616C416.665 459.573 416.589 459.54 416.517 459.517C416.446 459.493 416.38 459.477 416.318 459.468C416.258 459.459 416.202 459.454 416.15 459.454C415.931 459.454 415.755 459.522 415.623 459.657C415.49 459.79 415.424 459.971 415.424 460.199C415.424 460.342 415.453 460.471 415.511 460.588C415.57 460.702 415.657 460.793 415.774 460.861C415.892 460.927 416.038 460.96 416.212 460.96C416.274 460.96 416.335 460.954 416.396 460.944C416.458 460.933 416.519 460.917 416.579 460.897C416.64 460.876 416.698 460.848 416.754 460.814L416.784 461.12C416.737 461.144 416.682 461.166 416.618 461.186C416.555 461.205 416.484 461.221 416.404 461.233C416.327 461.245 416.241 461.251 416.148 461.251Z" fill="white"/>
<path d="M417.316 461.211C417.316 461.061 417.316 460.917 417.316 460.78C417.316 460.642 417.316 460.49 417.316 460.324V460.112C417.316 459.992 417.316 459.882 417.316 459.782C417.316 459.681 417.316 459.584 417.316 459.491C417.316 459.398 417.316 459.302 417.316 459.203L417.672 459.189C417.672 459.338 417.672 459.483 417.672 459.626C417.672 459.769 417.672 459.92 417.672 460.078V460.377C417.672 460.528 417.672 460.669 417.672 460.8C417.672 460.931 417.672 461.068 417.672 461.211H417.316ZM418.737 461.211C418.64 461.119 418.543 461.027 418.443 460.936C418.345 460.844 418.248 460.753 418.152 460.662L417.783 460.316H417.631V460.078H417.804L418.115 459.768C418.21 459.675 418.306 459.581 418.402 459.487C418.499 459.391 418.594 459.296 418.687 459.203H419.128C419.004 459.321 418.881 459.438 418.758 459.555C418.636 459.673 418.515 459.79 418.394 459.908L418.029 460.256L418.016 460.094L418.439 460.503C418.567 460.621 418.694 460.74 418.821 460.859C418.949 460.976 419.076 461.093 419.201 461.211H418.737Z" fill="white"/>
<path d="M420.489 461.255C420.312 461.255 420.156 461.227 420.02 461.17C419.886 461.112 419.774 461.034 419.683 460.936C419.593 460.837 419.524 460.724 419.476 460.598C419.43 460.469 419.407 460.335 419.407 460.195C419.407 459.994 419.45 459.816 419.537 459.661C419.624 459.504 419.748 459.381 419.908 459.29C420.069 459.2 420.261 459.155 420.482 459.155C420.654 459.155 420.805 459.181 420.938 459.234C421.07 459.286 421.183 459.36 421.275 459.454C421.367 459.549 421.437 459.659 421.484 459.786C421.532 459.912 421.555 460.048 421.555 460.195C421.555 460.393 421.512 460.573 421.426 460.733C421.339 460.894 421.216 461.021 421.057 461.116C420.898 461.209 420.709 461.255 420.489 461.255ZM420.489 460.964C420.646 460.964 420.776 460.927 420.88 460.855C420.983 460.782 421.061 460.687 421.113 460.569C421.165 460.452 421.19 460.327 421.19 460.195C421.19 460.044 421.162 459.912 421.104 459.8C421.046 459.688 420.965 459.601 420.86 459.539C420.755 459.477 420.631 459.446 420.487 459.446C420.331 459.446 420.2 459.479 420.094 459.545C419.987 459.611 419.907 459.701 419.852 459.814C419.799 459.928 419.772 460.055 419.772 460.195C419.772 460.327 419.798 460.452 419.85 460.569C419.903 460.687 419.983 460.782 420.089 460.855C420.196 460.927 420.329 460.964 420.489 460.964Z" fill="white"/>
<path d="M422.111 461.211C422.111 461.061 422.111 460.917 422.111 460.78C422.111 460.642 422.111 460.49 422.111 460.324V460.122C422.111 460.002 422.111 459.891 422.111 459.79C422.111 459.688 422.111 459.589 422.111 459.495C422.111 459.399 422.111 459.302 422.111 459.203H423.553V459.477C423.411 459.477 423.267 459.477 423.121 459.477C422.976 459.477 422.834 459.477 422.696 459.477H422.256L422.467 459.256C422.467 459.352 422.467 459.444 422.467 459.533C422.467 459.621 422.467 459.713 422.467 459.808C422.467 459.903 422.467 460.007 422.467 460.122V460.324C422.467 460.49 422.467 460.642 422.467 460.78C422.467 460.917 422.467 461.061 422.467 461.211H422.111Z" fill="white"/>
<path d="M424.933 461.255C424.756 461.255 424.6 461.227 424.465 461.17C424.331 461.112 424.219 461.034 424.128 460.936C424.037 460.837 423.968 460.724 423.921 460.598C423.875 460.469 423.852 460.335 423.852 460.195C423.852 459.994 423.895 459.816 423.981 459.661C424.069 459.504 424.193 459.381 424.353 459.29C424.514 459.2 424.705 459.155 424.927 459.155C425.098 459.155 425.25 459.181 425.382 459.234C425.515 459.286 425.627 459.36 425.719 459.454C425.811 459.549 425.881 459.659 425.929 459.786C425.976 459.912 426 460.048 426 460.195C426 460.393 425.957 460.573 425.87 460.733C425.784 460.894 425.661 461.021 425.501 461.116C425.343 461.209 425.154 461.255 424.933 461.255ZM424.933 460.964C425.09 460.964 425.22 460.927 425.324 460.855C425.428 460.782 425.505 460.687 425.557 460.569C425.609 460.452 425.635 460.327 425.635 460.195C425.635 460.044 425.606 459.912 425.549 459.8C425.491 459.688 425.41 459.601 425.305 459.539C425.2 459.477 425.075 459.446 424.931 459.446C424.776 459.446 424.645 459.479 424.538 459.545C424.432 459.611 424.351 459.701 424.296 459.814C424.243 459.928 424.217 460.055 424.217 460.195C424.217 460.327 424.242 460.452 424.294 460.569C424.348 460.687 424.427 460.782 424.534 460.855C424.64 460.927 424.774 460.964 424.933 460.964Z" fill="white"/>
</g>
<path d="M2 314.5C2 314.5 48.9417 310.465 78 314.5C107.058 318.535 86 312 160 334.5C234 357 220.5 349.5 286 402.5C351.5 455.5 373.88 521.237 498 549.5C622.12 577.763 758.089 435.443 863.5 402.5C968.911 369.558 963.431 370.292 1029 357C1094.57 343.709 1198.5 334.5 1198.5 334.5" stroke="#D6ECFF" stroke-width="2" stroke-linecap="round" stroke-linejoin="round"/>
<path d="M720.5 386.499L795 374.5L838.001 354.999L861.5 327.499L891.5 303.499L930 290.499L974 247.5C974 247.5 1192.5 335.86 1197 332.36C1201.5 328.86 1089.5 341.499 1089.5 341.499L1023.5 348.499L947.5 370.999L848 403.499L799 425.999L757 451.999L720.5 386.499Z" fill="#B0DBEE"/>
<defs>
<clipPath id="clip0_55_1000">
<rect width="1200" height="600" fill="white"/>
</clipPath>
</defs>
</svg>
